<?xml version="1.0" encoding="utf-8"?>
<!-- Generator: Adobe Illustrator 25.3.1, SVG Export Plug-In . SVG Version: 6.00 Build 0)  -->
<svg version="1.1" xmlns="http://www.w3.org/2000/svg" xmlns:xlink="http://www.w3.org/1999/xlink" x="0px" y="0px"
	 viewBox="0 0 64 64" style="enable-background:new 0 0 64 64;" xml:space="preserve">
<style type="text/css">
	.st0{fill:#6F41E8;}
	.st1{fill:#C9B5FD;}
	.st2{fill-rule:evenodd;clip-rule:evenodd;fill:#6F41E8;}
	.st3{fill-rule:evenodd;clip-rule:evenodd;fill:#C9B5FD;}
	.st4{fill:#5728D1;}
	.st5{clip-path:url(#SVGID_2_);}
	.st6{clip-path:url(#SVGID_4_);}
	.st7{clip-path:url(#SVGID_6_);}
	.st8{clip-path:url(#SVGID_8_);}
	.st9{fill:#6ACAF7;}
	.st10{clip-path:url(#SVGID_10_);fill:#6ACAF7;}
	.st11{clip-path:url(#SVGID_12_);fill:url(#SVGID_13_);}
	.st12{clip-path:url(#SVGID_15_);}
	.st13{fill:#56B5F6;}
	.st14{display:none;}
	.st15{display:inline;}
</style>
<g id="Layer_1">
	<g>
		<g>
			<defs>
				<path id="SVGID_7_" d="M48.28,30.45L37.43,41.3l10.85,10.86h-12.4l-4.65-4.65l-6.2-6.2l10.86-10.86H48.28z M35.88,11.84
					L15.72,32l6.2,6.2l26.36-26.36C48.28,11.84,35.88,11.84,35.88,11.84z"/>
			</defs>
			<clipPath id="SVGID_2_">
				<use xlink:href="#SVGID_7_"  style="overflow:visible;"/>
			</clipPath>
			<g class="st5">
				<path class="st9" d="M31.22,47.51l17.06-17.06h-12.4L25.02,41.3L31.22,47.51z"/>
			</g>
		</g>
	</g>
	<g>
		<polyline class="st0" points="31.22,47.5 31.22,47.51 35.88,52.16 48.28,52.16 37.43,41.3 		"/>
		<g>
			<g>
				<defs>
					<path id="SVGID_9_" d="M37.43,41.3l10.85,10.86h-12.4l-4.65-4.65 M35.88,11.84L15.72,32l6.2,6.2l26.36-26.36
						C48.28,11.84,35.88,11.84,35.88,11.84z"/>
				</defs>
				<clipPath id="SVGID_4_">
					<use xlink:href="#SVGID_9_"  style="overflow:visible;"/>
				</clipPath>
				<path style="clip-path:url(#SVGID_4_);fill:#6ACAF7;" d="M15.72,32l20.16-20.16h12.4L21.92,38.2L15.72,32z"/>
			</g>
		</g>
		<g>
			<g>
				<defs>
					<path id="SVGID_11_" d="M37.43,41.3l10.85,10.86h-12.4l-4.65-4.65 M35.88,11.84L15.72,32l6.2,6.2l26.36-26.36
						C48.28,11.84,35.88,11.84,35.88,11.84z"/>
				</defs>
				<clipPath id="SVGID_6_">
					<use xlink:href="#SVGID_11_"  style="overflow:visible;"/>
				</clipPath>
				
					<linearGradient id="SVGID_8_" gradientUnits="userSpaceOnUse" x1="-8205.249" y1="3522.1414" x2="-8198.7432" y2="3528.6467" gradientTransform="matrix(3.767308e-04 0 0 -3.767318e-04 -1360.0339 -751.9462)">
					<stop  offset="0" style="stop-color:#1C2379;stop-opacity:0.4"/>
					<stop  offset="1" style="stop-color:#1C2379;stop-opacity:0"/>
				</linearGradient>
				<path style="clip-path:url(#SVGID_6_);fill:url(#SVGID_8_);" d="M37.43,41.3l-6.2,6.2l9.2-3.19L37.43,41.3z"/>
			</g>
		</g>
		<g>
			<g>
				<defs>
					<path id="SVGID_14_" d="M37.43,41.3l10.85,10.86h-12.4l-4.65-4.65 M35.88,11.84L15.72,32l6.2,6.2l26.36-26.36
						C48.28,11.84,35.88,11.84,35.88,11.84z"/>
				</defs>
				<clipPath id="SVGID_10_">
					<use xlink:href="#SVGID_14_"  style="overflow:visible;"/>
				</clipPath>
				<g style="clip-path:url(#SVGID_10_);">
					<path class="st13" d="M31.23,35.1l6.2,6.2l-6.2,6.21"/>
				</g>
			</g>
		</g>
		<polygon class="st1" points="35.88,11.84 15.72,32 21.92,38.2 48.28,11.84 		"/>
	</g>
	<polygon class="st1" points="35.88,30.45 25.02,41.3 31.22,47.5 48.28,30.45 	"/>
</g>
<g id="Guides" class="st14">
	<g class="st15">
		<g>
			<rect x="-287.93" y="15" class="st1" width="395.58" height="1"/>
		</g>
		<g>
			<rect x="-286.93" y="48" class="st1" width="395.58" height="1"/>
		</g>
	</g>
</g>
<g id="Swift">
</g>
<g id="Go">
</g>
<g id="Node">
</g>
<g id="Java">
</g>
<g id="Kotlin">
</g>
</svg>
