<?xml version="1.0" encoding="utf-8"?>
<!-- Generator: Adobe Illustrator 25.3.1, SVG Export Plug-In . SVG Version: 6.00 Build 0)  -->
<svg version="1.1" xmlns="http://www.w3.org/2000/svg" xmlns:xlink="http://www.w3.org/1999/xlink" x="0px" y="0px"
	 viewBox="0 0 64 64" style="enable-background:new 0 0 64 64;" xml:space="preserve">
<style type="text/css">
	.st0{fill:#6F41E8;}
	.st1{fill:#C9B5FD;}
	.st2{fill-rule:evenodd;clip-rule:evenodd;fill:#6F41E8;}
	.st3{fill-rule:evenodd;clip-rule:evenodd;fill:#C9B5FD;}
	.st4{fill:#5728D1;}
	.st5{clip-path:url(#SVGID_2_);}
	.st6{clip-path:url(#SVGID_4_);}
	.st7{clip-path:url(#SVGID_6_);}
	.st8{clip-path:url(#SVGID_8_);}
	.st9{fill:#6ACAF7;}
	.st10{clip-path:url(#SVGID_10_);fill:#6ACAF7;}
	.st11{clip-path:url(#SVGID_12_);fill:url(#SVGID_13_);}
	.st12{clip-path:url(#SVGID_15_);}
	.st13{fill:#56B5F6;}
	.st14{display:none;}
	.st15{display:inline;}
</style>
<g id="Layer_1">
	<g>
		<path class="st1" d="M11,28.39c-0.1,0-0.13-0.05-0.08-0.13l0.53-0.68c0.05-0.08,0.18-0.13,0.28-0.13h8.95
			c0.1,0,0.13,0.08,0.08,0.15l-0.43,0.65c-0.05,0.08-0.18,0.15-0.25,0.15L11,28.39z"/>
		<path class="st1" d="M7.65,30.8c-0.1-0.12-0.12-0.17-0.07-0.24l0.5-0.64c0.05-0.07,0.17-0.12,0.26-0.07h10.86
			c0.1-0.05,0.14,0.02,0.12,0.09l-0.19,0.57c-0.02,0.1-0.12,0.14-0.21,0.29H7.65z"/>
		<path class="st1" d="M13.27,32.92c-0.1,0-0.13-0.08-0.08-0.15l0.35-0.63c0.05-0.08,0.15-0.15,0.25-0.15h5.01
			c0.1,0,0.15,0.08,0.15,0.18l-0.05,0.6c0,0.1-0.1,0.18-0.18,0.18L13.27,32.92z"/>
		<g>
			<path class="st0" d="M38.4,27.86c-1.55,0.39-2.61,0.69-4.13,1.08c-0.37,0.1-0.39,0.12-0.71-0.25c-0.37-0.42-0.64-0.69-1.16-0.93
				c-1.55-0.76-3.05-0.54-4.45,0.37c-1.67,1.08-2.53,2.68-2.51,4.67c0.02,1.97,1.38,3.59,3.32,3.86c1.67,0.22,3.07-0.37,4.18-1.62
				c0.22-0.27,0.42-0.57,0.66-0.91c-0.88,0-1.99,0-4.74,0c-0.52,0-0.64-0.32-0.47-0.74c0.32-0.76,0.91-2.04,1.25-2.68
				c0.07-0.15,0.25-0.39,0.61-0.39c1.25,0,5.87,0,8.95,0c-0.05,0.66-0.05,1.33-0.15,1.99c-0.27,1.77-0.93,3.39-2.02,4.82
				c-1.77,2.33-4.08,3.78-7,4.18c-2.41,0.32-4.64-0.15-6.61-1.62c-1.82-1.38-2.85-3.19-3.12-5.46c-0.32-2.68,0.47-5.09,2.09-7.2
				c1.74-2.29,4.06-3.74,6.88-4.25c2.31-0.42,4.52-0.15,6.51,1.2c1.3,0.86,2.24,2.04,2.85,3.47C38.79,27.67,38.69,27.79,38.4,27.86z
				"/>
		</g>
		<g>
			<path class="st0" d="M46,41.22c-2.17-0.05-4.14-0.67-5.81-2.1c-1.4-1.21-2.29-2.76-2.57-4.6c-0.43-2.69,0.31-5.07,1.93-7.19
				c1.74-2.29,3.83-3.48,6.67-3.98c2.43-0.43,4.71-0.19,6.79,1.21c1.88,1.29,3.05,3.02,3.36,5.31c0.4,3.21-0.52,5.83-2.74,8.07
				c-1.57,1.6-3.5,2.6-5.71,3.05C47.26,41.13,46.62,41.15,46,41.22z M51.67,31.61c-0.02-0.31-0.02-0.55-0.07-0.79
				c-0.43-2.36-2.6-3.69-4.86-3.17c-2.21,0.5-3.64,1.9-4.17,4.14c-0.43,1.86,0.48,3.74,2.19,4.5c1.31,0.57,2.62,0.5,3.88-0.14
				C50.52,35.18,51.55,33.65,51.67,31.61z"/>
		</g>
	</g>
</g>
<g id="Guides" class="st14">
	<g class="st15">
		<g>
			<rect x="-119.93" y="15" class="st1" width="395.58" height="1"/>
		</g>
		<g>
			<rect x="-118.93" y="48" class="st1" width="395.58" height="1"/>
		</g>
	</g>
</g>
<g id="Swift">
</g>
<g id="Go">
</g>
<g id="Node">
</g>
<g id="Java">
</g>
<g id="Kotlin">
</g>
</svg>
