<?xml version="1.0" encoding="utf-8"?>
<!-- Generator: Adobe Illustrator 25.3.1, SVG Export Plug-In . SVG Version: 6.00 Build 0)  -->
<svg version="1.1" id="f1a3512c-954b-43cd-b4a7-b2a657bfa049"
	 xmlns="http://www.w3.org/2000/svg" xmlns:xlink="http://www.w3.org/1999/xlink" x="0px" y="0px" viewBox="0 0 1135.18 814.22"
	 style="enable-background:new 0 0 1135.18 814.22;" xml:space="preserve">
<style type="text/css">
	.st0{fill:#EEECF5;}
	.st1{fill:#CCB3FF;}
	.st2{fill:#773EF0;}
	.st3{fill:#5E25D8;}
	.st4{fill:none;}
	.st5{fill-rule:evenodd;clip-rule:evenodd;fill:#6F41E5;}
	.st6{fill:none;stroke:#5E25D8;stroke-miterlimit:10;}
	.st7{fill-rule:evenodd;clip-rule:evenodd;fill:#EEECF5;}
	.st8{fill:none;stroke:#5E25D8;stroke-width:2;stroke-miterlimit:10;}
	.st9{fill:none;stroke:#5E25D8;stroke-width:2;stroke-miterlimit:10;stroke-dasharray:9.7126,9.7126;}
	.st10{fill:none;stroke:#5E25D8;stroke-width:2;stroke-miterlimit:10;stroke-dasharray:10;}
	.st11{fill-rule:evenodd;clip-rule:evenodd;fill:#773EF0;}
	.st12{fill:none;stroke:#773EF0;stroke-width:2;stroke-miterlimit:10;}
</style>
<g>
	<g>
		<path class="st0" d="M1061.45,354.76V34.12H27.68v572.79c0,8.55,6.93,15.47,15.47,15.47h61.56
			C206.3,524.8,365.38,437.1,554.39,384.31C742.99,331.65,924.12,324.16,1061.45,354.76z"/>
		<path class="st1" d="M1061.45,606.91V354.76c-137.33-30.6-318.46-23.11-507.06,29.56C365.38,437.1,206.3,524.8,104.72,622.38
			h941.26C1054.52,622.38,1061.45,615.46,1061.45,606.91z"/>
	</g>
	<path class="st2" d="M1061.45,15.06c0-8.55-6.93-15.47-15.47-15.47H43.15c-8.55,0-15.47,6.93-15.47,15.47v19.06h1033.77V15.06z"/>
	<g>
		<path class="st2" d="M429.45,334.58c3.08,0,6.15,0.03,9.21,0.07V90.02c0-7.98-6.47-14.45-14.45-14.45H85.87
			c-7.98,0-14.45,6.47-14.45,14.45v374.14C132.94,387.76,270.11,334.58,429.45,334.58z"/>
		<path class="st3" d="M85.87,580.94h338.33c7.98,0,14.45-6.47,14.45-14.45V334.65c-3.06-0.04-6.13-0.07-9.21-0.07
			c-159.34,0-296.5,53.18-358.02,129.57v102.34C71.43,574.47,77.9,580.94,85.87,580.94z"/>
	</g>
	<g>
		<rect x="101.36" y="104.92" class="st0" width="307.37" height="23.02"/>
		<rect x="101.36" y="142.91" class="st0" width="307.37" height="23.02"/>
		<rect x="101.36" y="180.9" class="st0" width="307.37" height="23.02"/>
		<rect x="101.36" y="218.89" class="st0" width="134.69" height="23.02"/>
	</g>
	<g>
		<path class="st0" d="M190.39,551.58h-77.9c-6.14,0-11.12-4.98-11.12-11.12v-22.63c0-6.14,4.98-11.12,11.12-11.12h77.9
			c6.14,0,11.12,4.98,11.12,11.12v22.63C201.51,546.6,196.53,551.58,190.39,551.58z"/>
		<g id="kin_logo_32_32_Purple">
			<path id="Combined-Shape" class="st4" d="M141.35,518.74"/>
			<path id="Fill-1" class="st5" d="M155.01,529.08v0.13c0,1.84,1.49,3.34,3.32,3.34h1.82c0.75,0,1.36,0.62,1.36,1.37v5.63h-5.68
				c-0.75,0-1.36-0.62-1.36-1.37v-2.31c0-1.84-1.49-3.34-3.31-3.34h-0.13c-1.82,0-3.31,1.5-3.31,3.34v3.69h-6.35v-20.81h6.35v3.73
				c0,1.84,1.49,3.34,3.32,3.34h0.13c1.82,0,3.31-1.5,3.31-3.34v-2.36c0-0.76,0.61-1.37,1.36-1.37h5.68v5.63
				c0,0.76-0.61,1.37-1.36,1.37h-1.82C156.51,525.75,155.01,527.25,155.01,529.08"/>
		</g>
	</g>
	<g>
		<path class="st2" d="M513.38,379.48h-39.72c0.01,0.14,0.02,0.28,0.02,0.42c0,6.31-5.11,11.42-11.42,11.42h-70.23
			c-6.31,0-11.42-5.11-11.42-11.42c0-0.14,0.02-0.28,0.02-0.42h-39.72c-7.05,0-12.77,5.72-12.77,12.77v10.5h198v-10.5
			C526.15,385.2,520.43,379.48,513.38,379.48z"/>
		<path class="st3" d="M392.03,391.33h70.23c6.31,0,11.42-5.11,11.42-11.42c0-0.14-0.02-0.28-0.02-0.42h-93.04
			c-0.01,0.14-0.02,0.28-0.02,0.42C380.61,386.21,385.72,391.33,392.03,391.33z"/>
		<path class="st2" d="M328.14,711.95c0,7.05,5.72,12.77,12.77,12.77h172.47c7.05,0,12.77-5.72,12.77-12.77v-10.5h-198V711.95z"/>
		<rect x="328.14" y="402.75" class="st0" width="198" height="298.7"/>
		<path class="st2" d="M437.47,386.67h-20.64c-0.61,0-1.1-0.49-1.1-1.1v-0.33c0-0.61,0.49-1.1,1.1-1.1h20.64
			c0.61,0,1.1,0.49,1.1,1.1v0.33C438.57,386.18,438.07,386.67,437.47,386.67z"/>
	</g>
	<path class="st2" d="M509.78,515.32H344.51c-3,0-5.44-2.43-5.44-5.44V418.3c0-3,2.43-5.44,5.44-5.44h165.26
		c3,0,5.44,2.43,5.44,5.44v91.59C515.21,512.89,512.78,515.32,509.78,515.32z"/>
	<circle class="st0" cx="427.14" cy="464.09" r="17.84"/>
	<path class="st2" d="M434.4,462.71c1.06,0.61,1.06,2.15,0,2.76l-5.31,3.07l-5.31,3.07c-1.06,0.61-2.39-0.15-2.39-1.38v-6.13v-6.13
		c0-1.23,1.33-2,2.39-1.38l5.31,3.07L434.4,462.71z"/>
	<path class="st6" d="M328.72,680.52"/>
	<path class="st6" d="M152.01,580.94"/>
	<g>
		<path class="st2" d="M446.47,670.16h-38.13c-6.14,0-11.12-4.98-11.12-11.12v-4.8c0-6.14,4.98-11.12,11.12-11.12h38.13
			c6.14,0,11.12,4.98,11.12,11.12v4.8C457.59,665.18,452.61,670.16,446.47,670.16z"/>
		<g id="kin_logo_32_32_Purple_2_">
			<path id="Combined-Shape_2_" class="st0" d="M421.33,650.36"/>
			<path id="Fill-1_2_" class="st7" d="M429.56,656.59v0.08c0,1.11,0.9,2.01,2,2.01h1.1c0.45,0,0.82,0.37,0.82,0.83v3.39h-3.43
				c-0.45,0-0.82-0.37-0.82-0.83v-1.39c0-1.11-0.9-2.01-2-2.01h-0.08c-1.1,0-2,0.91-2,2.01v2.22h-3.83v-12.55h3.83v2.25
				c0,1.11,0.9,2.01,2,2.01h0.08c1.1,0,2-0.91,2-2.01v-1.42c0-0.46,0.37-0.83,0.82-0.83h3.43v3.39c0,0.46-0.37,0.83-0.82,0.83h-1.1
				C430.46,654.58,429.56,655.49,429.56,656.59"/>
		</g>
	</g>
	<g>
		<g>
			<path class="st8" d="M152.01,580.94c0,0-0.51,1.84-0.67,4.95"/>
			<path class="st9" d="M152.09,595.54c4.46,22.19,31.31,62.04,166.19,63.89"/>
			<path class="st8" d="M323.14,659.48c1.65,0.01,3.32,0.02,5,0.02"/>
		</g>
	</g>
	<g>
		<circle class="st2" cx="257.92" cy="654.62" r="17.27"/>
		<g id="kin_logo_32_32_Purple_1_">
			<path id="Combined-Shape_1_" class="st0" d="M251.11,647.59"/>
			<path id="Fill-1_1_" class="st7" d="M260.34,654.57v0.09c0,1.24,1.01,2.25,2.24,2.25h1.23c0.51,0,0.92,0.42,0.92,0.93v3.8h-3.84
				c-0.51,0-0.92-0.42-0.92-0.93v-1.56c0-1.24-1.01-2.25-2.24-2.25h-0.09c-1.23,0-2.24,1.01-2.24,2.25v2.49h-4.29v-14.06h4.29v2.52
				c0,1.24,1.01,2.25,2.24,2.25h0.09c1.23,0,2.24-1.01,2.24-2.25v-1.59c0-0.51,0.41-0.93,0.92-0.93h3.84v3.8
				c0,0.51-0.41,0.93-0.92,0.93h-1.23C261.35,652.32,260.34,653.33,260.34,654.57"/>
		</g>
	</g>
	<g>
		<circle class="st2" cx="168.7" cy="622.96" r="12.09"/>
		<g id="kin_logo_32_32_Purple_3_">
			<path id="Combined-Shape_3_" class="st0" d="M163.93,618.04"/>
			<path id="Fill-1_3_" class="st7" d="M170.4,622.93v0.06c0,0.87,0.71,1.58,1.57,1.58h0.86c0.36,0,0.65,0.29,0.65,0.65v2.66h-2.69
				c-0.36,0-0.65-0.29-0.65-0.65v-1.09c0-0.87-0.71-1.58-1.57-1.58h-0.06c-0.86,0-1.57,0.71-1.57,1.58v1.74h-3.01v-9.84h3.01v1.77
				c0,0.87,0.71,1.58,1.57,1.58h0.06c0.86,0,1.57-0.71,1.57-1.58v-1.12c0-0.36,0.29-0.65,0.65-0.65h2.69v2.66
				c0,0.36-0.29,0.65-0.65,0.65h-0.86C171.1,621.35,170.4,622.06,170.4,622.93"/>
		</g>
	</g>
	<path class="st3" d="M582.56,315.71V117.47c0-7.25,5.88-13.12,13.12-13.12h198.23c7.25,0,13.12,5.88,13.12,13.12v198.23
		c0,7.25-5.88,13.12-13.12,13.12H595.68C588.43,328.83,582.56,322.95,582.56,315.71z"/>
	<path class="st2" d="M790.22,112.48H599.37c-4.79,0-8.68,3.89-8.68,8.68v18.05v172.8c0,4.79,3.89,8.68,8.68,8.68h183.69h7.16
		c4.79,0,8.68-3.89,8.68-8.68V121.16C798.9,116.37,795.02,112.48,790.22,112.48z"/>
	<circle class="st0" cx="645.59" cy="172.26" r="32.94"/>
	<polygon class="st1" points="612.12,320.7 663.56,182.83 707.66,263.36 727.87,228.38 777.47,320.7 	"/>
	<path class="st10" d="M526.15,464.16c0,0,168.65,7.42,168.65-129.57"/>
	<g>
		<circle class="st2" cx="570.47" cy="460.64" r="12.09"/>
		<g id="kin_logo_32_32_Purple_4_">
			<path id="Combined-Shape_4_" class="st0" d="M565.7,455.72"/>
			<path id="Fill-1_4_" class="st7" d="M572.16,460.61v0.06c0,0.87,0.71,1.58,1.57,1.58h0.86c0.36,0,0.65,0.29,0.65,0.65v2.66h-2.69
				c-0.36,0-0.65-0.29-0.65-0.65v-1.09c0-0.87-0.71-1.58-1.57-1.58h-0.06c-0.86,0-1.57,0.71-1.57,1.58v1.74h-3.01v-9.84h3.01v1.77
				c0,0.87,0.71,1.58,1.57,1.58h0.06c0.86,0,1.57-0.71,1.57-1.58v-1.12c0-0.36,0.29-0.65,0.65-0.65h2.69v2.66
				c0,0.36-0.29,0.65-0.65,0.65h-0.86C572.87,459.03,572.16,459.74,572.16,460.61"/>
		</g>
	</g>
	<g>
		<circle class="st2" cx="639.54" cy="437.62" r="14.39"/>
		<g id="kin_logo_32_32_Purple_5_">
			<path id="Combined-Shape_5_" class="st0" d="M633.86,431.76"/>
			<path id="Fill-1_5_" class="st7" d="M641.55,437.58v0.07c0,1.03,0.84,1.88,1.87,1.88h1.03c0.42,0,0.77,0.35,0.77,0.77v3.17h-3.2
				c-0.42,0-0.77-0.35-0.77-0.77v-1.3c0-1.03-0.84-1.88-1.87-1.88h-0.07c-1.03,0-1.87,0.85-1.87,1.88v2.08h-3.58v-11.72h3.58v2.1
				c0,1.03,0.84,1.88,1.87,1.88h0.07c1.03,0,1.87-0.85,1.87-1.88v-1.33c0-0.43,0.34-0.77,0.77-0.77h3.2v3.17
				c0,0.43-0.34,0.77-0.77,0.77h-1.03C642.39,435.7,641.55,436.55,641.55,437.58"/>
		</g>
	</g>
	<g>
		<circle class="st2" cx="689.62" cy="372.57" r="18.42"/>
		<g id="kin_logo_32_32_Purple_6_">
			<path id="Combined-Shape_6_" class="st0" d="M682.35,365.08"/>
			<path id="Fill-1_6_" class="st7" d="M692.2,372.53v0.09c0,1.32,1.08,2.41,2.39,2.41h1.31c0.54,0,0.98,0.44,0.98,0.99v4.06h-4.1
				c-0.54,0-0.98-0.44-0.98-0.99v-1.67c0-1.32-1.08-2.41-2.39-2.41h-0.09c-1.31,0-2.39,1.08-2.39,2.41v2.66h-4.58v-15h4.58v2.69
				c0,1.32,1.08,2.41,2.39,2.41h0.09c1.31,0,2.39-1.08,2.39-2.41v-1.7c0-0.55,0.44-0.99,0.98-0.99h4.1v4.06
				c0,0.55-0.44,0.99-0.98,0.99h-1.31C693.27,370.12,692.2,371.21,692.2,372.53"/>
		</g>
	</g>
	<g>
		<path class="st3" d="M1090.04,814.63H754.28c-9.64,0-17.46-7.82-17.46-17.46V281.82c0-9.64,7.82-17.46,17.46-17.46h335.76
			c9.64,0,17.46,7.82,17.46,17.46v515.35C1107.5,806.81,1099.68,814.63,1090.04,814.63z"/>
		<path class="st0" d="M759.84,783.62V295.37c0-4.41,3.58-7.99,7.99-7.99h308.66c4.41,0,7.99,3.58,7.99,7.99v488.25
			c0,4.41-3.58,7.99-7.99,7.99H767.82C763.41,791.61,759.84,788.03,759.84,783.62z"/>
	</g>
	<g>
		<path class="st2" d="M1017.28,479.63h-52.77c-7.18,0-13-5.82-13-13v-3.93c0-7.18,5.82-13,13-13h52.77c7.18,0,13,5.82,13,13v3.93
			C1030.28,473.81,1024.46,479.63,1017.28,479.63z"/>
		<g>
			<circle class="st0" cx="966.87" cy="464.67" r="10.63"/>
			<g id="kin_logo_32_32_Purple_7_">
				<path id="Combined-Shape_7_" class="st2" d="M962.68,460.34"/>
				<path id="Fill-1_7_" class="st11" d="M968.36,464.64v0.05c0,0.76,0.62,1.39,1.38,1.39h0.76c0.31,0,0.57,0.26,0.57,0.57V469
					h-2.37c-0.31,0-0.57-0.26-0.57-0.57v-0.96c0-0.76-0.62-1.39-1.38-1.39h-0.05c-0.76,0-1.38,0.62-1.38,1.39V469h-2.64v-8.66h2.64
					v1.55c0,0.76,0.62,1.39,1.38,1.39h0.05c0.76,0,1.38-0.62,1.38-1.39v-0.98c0-0.32,0.25-0.57,0.57-0.57h2.37v2.34
					c0,0.32-0.25,0.57-0.57,0.57h-0.76C968.98,463.25,968.36,463.88,968.36,464.64"/>
			</g>
		</g>
	</g>
	<g>
		<circle class="st2" cx="958.42" cy="390.42" r="6.91"/>
		<circle class="st2" cx="977.99" cy="390.42" r="6.91"/>
		<circle class="st2" cx="997.56" cy="390.42" r="6.91"/>
		<circle class="st12" cx="1017.13" cy="390.42" r="6.91"/>
		<circle class="st12" cx="1036.7" cy="390.42" r="6.91"/>
		<g>
			<rect x="951.51" y="323.65" class="st2" width="119.72" height="10.36"/>
			<rect x="951.51" y="342.07" class="st2" width="119.72" height="10.36"/>
			<rect x="951.51" y="360.49" class="st2" width="59.86" height="10.36"/>
		</g>
	</g>
	<g>
		<circle class="st3" cx="777.68" cy="630.44" r="4.6"/>
		<circle class="st3" cx="790.73" cy="630.44" r="4.6"/>
		<circle class="st3" cx="803.78" cy="630.44" r="4.6"/>
		<g>
			<path class="st3" d="M816.82,626.84c1.99,0,3.6,1.62,3.6,3.6s-1.62,3.6-3.6,3.6s-3.6-1.62-3.6-3.6S814.84,626.84,816.82,626.84
				 M816.82,625.84c-2.54,0-4.6,2.06-4.6,4.6s2.06,4.6,4.6,4.6c2.54,0,4.6-2.06,4.6-4.6S819.37,625.84,816.82,625.84L816.82,625.84z
				"/>
		</g>
		<g>
			<path class="st3" d="M829.87,626.84c1.99,0,3.6,1.62,3.6,3.6s-1.62,3.6-3.6,3.6s-3.6-1.62-3.6-3.6S827.88,626.84,829.87,626.84
				 M829.87,625.84c-2.54,0-4.6,2.06-4.6,4.6s2.06,4.6,4.6,4.6s4.6-2.06,4.6-4.6S832.41,625.84,829.87,625.84L829.87,625.84z"/>
		</g>
	</g>
	<circle class="st3" cx="890.5" cy="630.44" r="4.6"/>
	<circle class="st3" cx="903.55" cy="630.44" r="4.6"/>
	<circle class="st3" cx="916.59" cy="630.44" r="4.6"/>
	<g>
		<circle class="st3" cx="929.64" cy="630.44" r="4.6"/>
	</g>
	<g>
		<path class="st3" d="M942.69,626.84c1.99,0,3.6,1.62,3.6,3.6s-1.62,3.6-3.6,3.6s-3.6-1.62-3.6-3.6S940.7,626.84,942.69,626.84
			 M942.69,625.84c-2.54,0-4.6,2.06-4.6,4.6s2.06,4.6,4.6,4.6s4.6-2.06,4.6-4.6S945.23,625.84,942.69,625.84L942.69,625.84z"/>
	</g>
	<g>
		<circle class="st3" cx="1003.32" cy="630.44" r="4.6"/>
		<circle class="st3" cx="1016.36" cy="630.44" r="4.6"/>
		<circle class="st6" cx="1029.41" cy="630.44" r="4.6"/>
		<g>
			<path class="st3" d="M1042.46,626.84c1.99,0,3.6,1.62,3.6,3.6s-1.62,3.6-3.6,3.6s-3.6-1.62-3.6-3.6
				S1040.47,626.84,1042.46,626.84 M1042.46,625.84c-2.54,0-4.6,2.06-4.6,4.6s2.06,4.6,4.6,4.6c2.54,0,4.6-2.06,4.6-4.6
				S1045,625.84,1042.46,625.84L1042.46,625.84z"/>
		</g>
		<g>
			<path class="st3" d="M1055.5,626.84c1.99,0,3.6,1.62,3.6,3.6s-1.62,3.6-3.6,3.6s-3.6-1.62-3.6-3.6S1053.52,626.84,1055.5,626.84
				 M1055.5,625.84c-2.54,0-4.6,2.06-4.6,4.6s2.06,4.6,4.6,4.6c2.54,0,4.6-2.06,4.6-4.6S1058.05,625.84,1055.5,625.84L1055.5,625.84
				z"/>
		</g>
	</g>
	<g>
		<circle class="st3" cx="777.68" cy="757.07" r="4.6"/>
		<circle class="st3" cx="790.73" cy="757.07" r="4.6"/>
		<circle class="st3" cx="803.78" cy="757.07" r="4.6"/>
		<g>
			<circle class="st3" cx="816.82" cy="757.07" r="4.6"/>
		</g>
		<g>
			<path class="st3" d="M829.87,753.47c1.99,0,3.6,1.62,3.6,3.6s-1.62,3.6-3.6,3.6s-3.6-1.62-3.6-3.6S827.88,753.47,829.87,753.47
				 M829.87,752.47c-2.54,0-4.6,2.06-4.6,4.6c0,2.54,2.06,4.6,4.6,4.6s4.6-2.06,4.6-4.6C834.47,754.53,832.41,752.47,829.87,752.47
				L829.87,752.47z"/>
		</g>
	</g>
	<circle class="st3" cx="890.5" cy="757.07" r="4.6"/>
	<circle class="st3" cx="903.55" cy="757.07" r="4.6"/>
	<circle class="st3" cx="916.59" cy="757.07" r="4.6"/>
	<g>
		<circle class="st3" cx="929.64" cy="757.07" r="4.6"/>
	</g>
	<g>
		<circle class="st3" cx="942.69" cy="757.07" r="4.6"/>
	</g>
	<g>
		<circle class="st3" cx="1003.32" cy="757.07" r="4.6"/>
		<circle class="st3" cx="1016.36" cy="757.07" r="4.6"/>
		<circle class="st3" cx="1029.41" cy="757.07" r="4.6"/>
		<g>
			<path class="st3" d="M1042.46,753.47c1.99,0,3.6,1.62,3.6,3.6s-1.62,3.6-3.6,3.6s-3.6-1.62-3.6-3.6
				S1040.47,753.47,1042.46,753.47 M1042.46,752.47c-2.54,0-4.6,2.06-4.6,4.6c0,2.54,2.06,4.6,4.6,4.6c2.54,0,4.6-2.06,4.6-4.6
				C1047.06,754.53,1045,752.47,1042.46,752.47L1042.46,752.47z"/>
		</g>
		<g>
			<path class="st3" d="M1055.5,753.47c1.99,0,3.6,1.62,3.6,3.6s-1.62,3.6-3.6,3.6s-3.6-1.62-3.6-3.6S1053.52,753.47,1055.5,753.47
				 M1055.5,752.47c-2.54,0-4.6,2.06-4.6,4.6c0,2.54,2.06,4.6,4.6,4.6c2.54,0,4.6-2.06,4.6-4.6
				C1060.11,754.53,1058.05,752.47,1055.5,752.47L1055.5,752.47z"/>
		</g>
	</g>
	<rect x="773.08" y="544.1" class="st1" width="72.53" height="72.53"/>
	<rect x="885.32" y="544.1" class="st1" width="72.53" height="72.53"/>
	<rect x="998.71" y="544.1" class="st1" width="72.53" height="72.53"/>
	<rect x="773.08" y="673.04" class="st1" width="72.53" height="72.53"/>
	<rect x="885.32" y="673.04" class="st1" width="72.53" height="72.53"/>
	<rect x="998.71" y="673.04" class="st1" width="72.53" height="72.53"/>
	<path class="st10" d="M807.04,139.32c0,0,190.52-24.61,190.52,125.04"/>
	<g>
		<circle class="st2" cx="988.93" cy="216.01" r="17.27"/>
		<g id="kin_logo_32_32_Purple_9_">
			<path id="Combined-Shape_9_" class="st0" d="M982.12,208.98"/>
			<path id="Fill-1_9_" class="st7" d="M991.34,215.97v0.09c0,1.24,1.01,2.25,2.24,2.25h1.23c0.51,0,0.92,0.42,0.92,0.93v3.8h-3.84
				c-0.51,0-0.92-0.42-0.92-0.93v-1.56c0-1.24-1.01-2.25-2.24-2.25h-0.09c-1.23,0-2.24,1.01-2.24,2.25v2.49h-4.29v-14.06h4.29v2.52
				c0,1.24,1.01,2.25,2.24,2.25h0.09c1.23,0,2.24-1.01,2.24-2.25v-1.59c0-0.51,0.41-0.93,0.92-0.93h3.84v3.8
				c0,0.51-0.41,0.93-0.92,0.93h-1.23C992.35,213.71,991.34,214.73,991.34,215.97"/>
		</g>
	</g>
	<g>
		<circle class="st2" cx="873.23" cy="139.46" r="12.09"/>
		<g id="kin_logo_32_32_Purple_8_">
			<path id="Combined-Shape_8_" class="st0" d="M868.46,134.54"/>
			<path id="Fill-1_8_" class="st7" d="M874.92,139.43v0.06c0,0.87,0.71,1.58,1.57,1.58h0.86c0.36,0,0.65,0.29,0.65,0.65v2.66h-2.69
				c-0.36,0-0.65-0.29-0.65-0.65v-1.09c0-0.87-0.71-1.58-1.57-1.58h-0.06c-0.86,0-1.57,0.71-1.57,1.58v1.74h-3.01v-9.84h3.01v1.77
				c0,0.87,0.71,1.58,1.57,1.58h0.06c0.86,0,1.57-0.71,1.57-1.58v-1.12c0-0.36,0.29-0.65,0.65-0.65H878v2.66
				c0,0.36-0.29,0.65-0.65,0.65h-0.86C875.63,137.85,874.92,138.56,874.92,139.43"/>
		</g>
	</g>
	<circle class="st1" cx="65.67" cy="16.86" r="9.21"/>
	<circle class="st0" cx="101.36" cy="16.86" r="9.21"/>
	<circle class="st0" cx="137.04" cy="16.86" r="9.21"/>
	<circle class="st1" cx="1011.95" cy="16.86" r="9.21"/>
	<line class="st6" x1="773.65" y1="511.29" x2="1071.81" y2="511.29"/>
	<path class="st2" d="M921.58,423.06v-109.2h-148.5V362c8.39-1.36,17.05-2.08,25.9-2.08C851.96,359.91,898.03,385.46,921.58,423.06z
		"/>
	<path class="st3" d="M921.58,479.63v-56.57c-23.55-37.61-69.62-63.15-122.6-63.15c-8.85,0-17.51,0.72-25.9,2.08v117.64H921.58z"/>
	<g>
		<path class="st1" d="M339.65,605.56c0,2.69,2.18,4.86,4.86,4.86h32.91c-7.35-29.57-25.8-56.11-37.77-71V605.56z"/>
		<path class="st1" d="M386.02,526.83h-41.51c-2.69,0-4.86,2.18-4.86,4.86v7.73c11.97,14.89,30.43,41.42,37.77,71h8.6
			c2.69,0,4.86-2.18,4.86-4.86V531.7C390.89,529.01,388.71,526.83,386.02,526.83z"/>
	</g>
	<path class="st1" d="M448.19,526.83h-41.51c-2.69,0-4.86,2.18-4.86,4.86v73.86c0,2.69,2.18,4.86,4.86,4.86h15.29h26.22
		c2.69,0,4.86-2.18,4.86-4.86v-41.44V531.7C453.05,529.01,450.87,526.83,448.19,526.83z"/>
	<g>
		<path class="st1" d="M515.21,531.7c0-2.69-2.18-4.86-4.86-4.86h-41.51c-2.69,0-4.86,2.18-4.86,4.86v35.91
			c15.24-13.89,34.26-24.36,51.23-31.85V531.7z"/>
		<path class="st1" d="M463.98,567.6v37.96c0,2.69,2.18,4.86,4.86,4.86h41.51c2.69,0,4.86-2.18,4.86-4.86v-69.81
			C498.24,543.24,479.22,553.72,463.98,567.6z"/>
	</g>
</g>
</svg>
