<?xml version="1.0" encoding="utf-8"?>
<!-- Generator: Adobe Illustrator 25.3.1, SVG Export Plug-In . SVG Version: 6.00 Build 0)  -->
<svg version="1.1" xmlns="http://www.w3.org/2000/svg" xmlns:xlink="http://www.w3.org/1999/xlink" x="0px" y="0px"
	 viewBox="0 0 64 64" style="enable-background:new 0 0 64 64;" xml:space="preserve">
<style type="text/css">
	.st0{fill:#6F41E8;}
	.st1{fill:#C9B5FD;}
	.st2{fill-rule:evenodd;clip-rule:evenodd;fill:#6F41E8;}
	.st3{fill-rule:evenodd;clip-rule:evenodd;fill:#C9B5FD;}
	.st4{clip-path:url(#SVGID_2_);}
	.st5{fill:#5728D1;}
	.st6{clip-path:url(#SVGID_4_);}
	.st7{clip-path:url(#SVGID_6_);}
	.st8{clip-path:url(#SVGID_8_);}
	.st9{clip-path:url(#SVGID_10_);}
	.st10{clip-path:url(#SVGID_12_);}
	.st11{display:none;}
	.st12{display:inline;}
</style>
<g id="Layer_1">
	<g>
		<path class="st0" d="M26.86,40.7c0,0-1.5,0.87,1.06,1.16c3.1,0.35,4.69,0.3,8.1-0.34c0,0,0.9,0.56,2.15,1.05
			C30.52,45.85,20.85,42.38,26.86,40.7"/>
		<path class="st0" d="M25.93,36.41c0,0-1.68,1.24,0.88,1.51c3.31,0.34,5.93,0.37,10.46-0.5c0,0,0.63,0.63,1.61,0.98
			C29.62,41.11,19.3,38.61,25.93,36.41"/>
		<path class="st1" d="M33.82,29.14c1.89,2.17-0.5,4.13-0.5,4.13s4.79-2.47,2.59-5.57c-2.06-2.89-3.63-4.33,4.9-9.28
			C40.82,18.43,27.42,21.77,33.82,29.14"/>
		<path class="st0" d="M43.95,43.87c0,0,1.11,0.91-1.22,1.62c-4.42,1.34-18.41,1.74-22.29,0.05c-1.4-0.61,1.22-1.45,2.05-1.63
			c0.86-0.19,1.35-0.15,1.35-0.15c-1.55-1.09-10.04,2.15-4.31,3.08C35.15,49.37,48,45.7,43.95,43.87"/>
		<path class="st0" d="M27.58,31.97c0,0-7.11,1.69-2.52,2.3c1.94,0.26,5.81,0.2,9.41-0.1c2.94-0.25,5.9-0.78,5.9-0.78
			s-1.04,0.44-1.79,0.96c-7.22,1.9-21.18,1.02-17.16-0.93C24.82,31.79,27.58,31.97,27.58,31.97"/>
		<path class="st0" d="M40.34,39.11c7.34-3.82,3.95-7.48,1.58-6.99c-0.58,0.12-0.84,0.23-0.84,0.23s0.22-0.34,0.63-0.48
			c4.69-1.65,8.29,4.86-1.51,7.44C40.2,39.3,40.31,39.2,40.34,39.11"/>
		<path class="st1" d="M35.92,10.43c0,0,4.07,4.07-3.86,10.32c-6.35,5.02-1.45,7.88,0,11.15c-3.71-3.35-6.43-6.29-4.6-9.03
			C30.13,18.84,37.56,16.89,35.92,10.43"/>
		<path class="st0" d="M28.3,49.45c7.05,0.45,17.87-0.25,18.13-3.59c0,0-0.49,1.26-5.82,2.27c-6.02,1.13-13.44,1-17.84,0.27
			C22.77,48.4,23.67,49.15,28.3,49.45"/>
	</g>
</g>
<g id="Guides" class="st11">
	<g class="st12">
		<g>
			<rect x="-203.93" y="15" class="st1" width="395.58" height="1"/>
		</g>
		<g>
			<rect x="-202.93" y="48" class="st1" width="395.58" height="1"/>
		</g>
	</g>
</g>
<g id="Swift">
</g>
<g id="Go">
</g>
<g id="Node">
</g>
<g id="Java">
</g>
<g id="Kotlin">
</g>
</svg>
