<?xml version="1.0" encoding="utf-8"?>
<!-- Generator: Adobe Illustrator 25.3.1, SVG Export Plug-In . SVG Version: 6.00 Build 0)  -->
<svg version="1.1" xmlns="http://www.w3.org/2000/svg" xmlns:xlink="http://www.w3.org/1999/xlink" x="0px" y="0px"
	 viewBox="0 0 64 64" style="enable-background:new 0 0 64 64;" xml:space="preserve">
<style type="text/css">
	.st0{fill:#6F41E8;}
	.st1{fill:#C9B5FD;}
	.st2{fill-rule:evenodd;clip-rule:evenodd;fill:#6F41E8;}
	.st3{fill-rule:evenodd;clip-rule:evenodd;fill:#C9B5FD;}
	.st4{fill:#5728D1;}
	.st5{clip-path:url(#SVGID_2_);}
	.st6{clip-path:url(#SVGID_4_);}
	.st7{clip-path:url(#SVGID_6_);}
	.st8{clip-path:url(#SVGID_8_);}
	.st9{fill:#6ACAF7;}
	.st10{clip-path:url(#SVGID_10_);fill:#6ACAF7;}
	.st11{clip-path:url(#SVGID_12_);fill:url(#SVGID_13_);}
	.st12{clip-path:url(#SVGID_15_);}
	.st13{fill:#56B5F6;}
	.st14{display:none;}
	.st15{display:inline;}
</style>
<g id="Layer_1">
	<g>
		<rect x="16.3" y="16.3" class="st1" width="31.4" height="31.4"/>
		<path class="st0" d="M37.39,40.83c0.63,1.03,1.46,1.79,2.91,1.79c1.22,0,2-0.61,2-1.46c0-1.01-0.8-1.37-2.15-1.96l-0.74-0.32
			c-2.13-0.91-3.54-2.04-3.54-4.45c0-2.21,1.69-3.9,4.32-3.9c1.88,0,3.23,0.65,4.2,2.36l-2.3,1.48c-0.51-0.91-1.05-1.26-1.9-1.26
			c-0.86,0-1.41,0.55-1.41,1.26c0,0.89,0.55,1.24,1.81,1.79l0.74,0.32c2.51,1.08,3.92,2.17,3.92,4.64c0,2.66-2.09,4.11-4.89,4.11
			c-2.74,0-4.51-1.31-5.38-3.02L37.39,40.83z M26.97,41.09c0.46,0.82,0.89,1.52,1.9,1.52c0.97,0,1.58-0.38,1.58-1.85V30.72h2.95
			v10.07c0,3.06-1.79,4.45-4.41,4.45c-2.36,0-3.73-1.22-4.43-2.7L26.97,41.09z"/>
	</g>
</g>
<g id="Guides" class="st14">
</g>
<g id="Swift">
</g>
<g id="Go">
</g>
<g id="Node">
</g>
<g id="Java">
</g>
<g id="Kotlin">
</g>
</svg>
