<?xml version="1.0" encoding="utf-8"?>
<!-- Generator: Adobe Illustrator 25.3.1, SVG Export Plug-In . SVG Version: 6.00 Build 0)  -->
<svg version="1.1" id="Layer_1" xmlns="http://www.w3.org/2000/svg" xmlns:xlink="http://www.w3.org/1999/xlink" x="0px" y="0px"
	 viewBox="0 0 64 64" style="enable-background:new 0 0 64 64;" xml:space="preserve">
<style type="text/css">
	.st0{fill:#C9B5FD;}
	.st1{fill:#6F41E8;}
	.st2{fill:#773EF0;}
	.st3{fill:#EEECF5;}
	.st4{fill-rule:evenodd;clip-rule:evenodd;fill:#EEECF5;}
	.st5{fill:#EFEDF5;}
	.st6{fill:#5728D1;}
	.st7{fill:#FFFFFF;}
</style>
<g>
	<circle class="st0" cx="36" cy="28" r="23"/>
</g>
<g>
	<path class="st1" d="M32.63,8.87C32.62,8.87,32.62,8.87,32.63,8.87c-0.01,0-0.01,0-0.01,0c0,0,0,0-0.01,0c0,0,0,0,0,0
		c0,0,0,0-0.01,0c0,0,0,0,0,0c0,0,0,0-0.01,0c0,0,0,0,0,0c0,0,0,0-0.01,0c0,0,0,0,0,0c0,0,0,0-0.01,0c0,0,0,0,0,0c0,0,0,0-0.01,0
		c0,0,0,0,0,0c0,0,0,0-0.01,0c0,0,0,0,0,0c0,0,0,0-0.01,0c0,0,0,0,0,0c0,0,0,0-0.01,0c0,0,0,0,0,0c0,0,0,0-0.01,0c0,0,0,0,0,0
		c0,0-0.01,0-0.01,0c0,0,0,0,0,0c0,0,0,0-0.01,0c0,0,0,0,0,0c0,0,0,0-0.01,0c0,0,0,0,0,0c0,0,0,0-0.01,0c0,0,0,0,0,0c0,0,0,0-0.01,0
		c0,0,0,0,0,0c0,0,0,0-0.01,0c0,0,0,0,0,0c0,0-0.01,0-0.01,0c0,0,0,0,0,0c0,0,0,0-0.01,0c0,0,0,0,0,0c0,0,0,0-0.01,0c0,0,0,0,0,0
		c0,0,0,0-0.01,0c0,0,0,0,0,0c0,0,0,0-0.01,0c0,0,0,0,0,0c0,0,0,0-0.01,0c0,0,0,0,0,0c0,0-0.01,0-0.01,0c0,0,0,0,0,0c0,0,0,0-0.01,0
		c0,0,0,0,0,0c0,0,0,0-0.01,0c0,0,0,0,0,0c0,0,0,0-0.01,0c0,0,0,0,0,0c0,0,0,0-0.01,0c0,0,0,0,0,0c0,0-0.01,0-0.01,0c0,0,0,0,0,0
		c0,0-0.01,0-0.01,0c0,0,0,0,0,0c0,0,0,0-0.01,0c0,0,0,0,0,0c0,0,0,0-0.01,0c0,0,0,0,0,0c0,0,0,0-0.01,0c0,0,0,0,0,0c0,0,0,0-0.01,0
		c0,0,0,0,0,0c0,0-0.01,0-0.01,0c0,0,0,0,0,0c0,0-0.01,0-0.01,0c0,0,0,0,0,0c0,0,0,0-0.01,0c0,0,0,0,0,0c0,0,0,0-0.01,0c0,0,0,0,0,0
		c0,0,0,0-0.01,0c0,0,0,0,0,0c0,0,0,0-0.01,0c0,0,0,0,0,0c-0.01,0-0.01,0-0.02,0c0,0,0,0,0,0c0,0-0.01,0-0.01,0c0,0,0,0,0,0
		c0,0-0.01,0-0.01,0c0,0,0,0,0,0c0,0,0,0-0.01,0c0,0,0,0,0,0c0,0,0,0-0.01,0c0,0,0,0,0,0c-0.01,0-0.01,0-0.02,0c0,0,0,0,0,0
		c0,0,0,0-0.01,0c0,0,0,0,0,0c0,0,0,0-0.01,0c0,0,0,0,0,0c0,0,0,0-0.01,0c0,0,0,0,0,0c0,0,0,0-0.01,0c0,0,0,0,0,0
		c-0.01,0-0.01,0-0.02,0c0,0,0,0,0,0c0,0-0.01,0-0.01,0c0,0,0,0,0,0c0,0,0,0-0.01,0c0,0,0,0,0,0c0,0,0,0-0.01,0c0,0,0,0,0,0
		c-0.01,0-0.02,0-0.03,0c0,0,0,0,0,0c0,0,0,0-0.01,0c0,0,0,0,0,0c0,0,0,0-0.01,0c0,0,0,0,0,0c0,0,0,0-0.01,0c0,0,0,0,0,0
		c0,0,0,0-0.01,0c0,0,0,0,0,0c-0.01,0-0.01,0-0.02,0c0,0,0,0,0,0c0,0-0.01,0-0.01,0c0,0,0,0,0,0c0,0,0,0-0.01,0c0,0,0,0,0,0
		c0,0-0.01,0-0.01,0c0,0,0,0,0,0c-0.01,0-0.02,0-0.03,0c0,0,0,0,0,0c0,0-0.01,0-0.01,0c0,0,0,0,0,0c0,0,0,0-0.01,0c0,0,0,0,0,0
		c-0.02,0-0.03,0-0.05,0c0,0,0,0,0,0c0,0-0.01,0-0.01,0c0,0,0,0,0,0c-0.02,0-0.03,0-0.05,0c0,0,0,0,0,0c-0.04,0-0.08,0-0.12,0
		c0,0,0,0,0,0c-1.04,0.04-2.07,0.15-3.07,0.33l0.17,0.99c1.25-0.22,2.53-0.33,3.81-0.33V8.87L32.63,8.87L32.63,8.87z M24.78,10.25
		c-0.23,0.08-0.46,0.17-0.68,0.26c0,0,0,0,0,0c-0.01,0-0.01,0-0.02,0.01c0,0,0,0,0,0c-0.01,0.01-0.03,0.01-0.04,0.02c0,0,0,0,0,0
		c0,0-0.01,0-0.01,0.01c0,0,0,0,0,0c0,0-0.01,0-0.01,0.01c0,0,0,0,0,0c0,0-0.01,0-0.01,0.01c0,0,0,0,0,0c0,0,0,0-0.01,0c0,0,0,0,0,0
		c0,0-0.01,0-0.01,0.01c0,0,0,0,0,0c0,0-0.01,0-0.01,0c0,0,0,0,0,0c0,0-0.01,0-0.01,0c0,0,0,0-0.01,0c0,0,0,0-0.01,0
		c0,0-0.01,0-0.01,0c0,0,0,0-0.01,0c0,0,0,0-0.01,0c0,0-0.01,0-0.01,0c0,0,0,0-0.01,0c0,0-0.01,0-0.01,0c0,0,0,0-0.01,0
		c0,0,0,0-0.01,0c0,0-0.01,0-0.01,0c0,0,0,0-0.01,0c0,0-0.01,0-0.01,0c0,0,0,0-0.01,0c0,0-0.01,0-0.01,0c0,0,0,0-0.01,0
		c0,0,0,0-0.01,0c0,0,0,0-0.01,0c0,0-0.01,0-0.01,0c0,0,0,0,0,0c0,0-0.01,0-0.01,0c0,0,0,0,0,0c0,0-0.01,0-0.01,0c0,0,0,0,0,0
		c0,0-0.01,0-0.01,0c0,0,0,0,0,0c0,0-0.01,0-0.01,0c0,0,0,0,0,0c0,0-0.01,0-0.01,0c0,0,0,0,0,0c0,0-0.01,0-0.01,0c0,0,0,0,0,0
		c0,0-0.01,0-0.01,0c0,0,0,0,0,0c0,0-0.01,0-0.01,0.01c0,0,0,0,0,0c0,0-0.01,0-0.01,0.01c0,0,0,0,0,0c0,0-0.01,0-0.01,0.01
		c0,0,0,0,0,0c0,0-0.01,0-0.01,0.01c0,0,0,0,0,0c0,0-0.01,0-0.01,0.01c0,0,0,0,0,0c0,0-0.01,0-0.01,0.01c0,0,0,0,0,0
		c0,0-0.01,0-0.01,0.01c0,0,0,0,0,0c0,0-0.01,0-0.01,0.01c0,0,0,0,0,0c0,0-0.01,0-0.01,0.01c0,0,0,0,0,0c0,0-0.01,0-0.01,0.01l0,0
		c-0.01,0-0.02,0.01-0.03,0.01l0,0c0,0-0.01,0-0.01,0.01c0,0,0,0,0,0c0,0-0.01,0-0.01,0.01c0,0,0,0,0,0c0,0-0.01,0-0.01,0.01
		c0,0,0,0,0,0c-0.01,0-0.02,0.01-0.03,0.01l0,0c0,0-0.01,0-0.01,0.01l0,0c0,0-0.01,0-0.01,0.01l0,0c-0.01,0.01-0.03,0.01-0.04,0.02
		c0,0,0,0,0,0c0,0-0.01,0-0.01,0.01l0,0c-0.29,0.13-0.58,0.26-0.86,0.4c0,0,0,0,0,0c0,0-0.01,0-0.01,0.01c0,0,0,0,0,0
		c0,0-0.01,0-0.01,0.01l0,0c-0.01,0-0.02,0.01-0.03,0.01l0,0c0,0-0.01,0-0.01,0.01l0,0c0,0-0.01,0-0.01,0.01c0,0,0,0,0,0
		c-0.01,0.01-0.03,0.01-0.04,0.02l0,0c0,0-0.01,0-0.01,0.01c0,0,0,0,0,0c0,0-0.01,0-0.01,0.01c0,0,0,0,0,0c0,0-0.01,0-0.01,0.01l0,0
		c0,0-0.01,0-0.01,0.01c0,0,0,0,0,0c0,0-0.01,0-0.01,0.01c0,0,0,0,0,0c0,0-0.01,0-0.01,0.01c0,0,0,0,0,0c0,0-0.01,0-0.01,0.01
		c0,0,0,0,0,0c0,0-0.01,0-0.01,0.01c0,0,0,0,0,0c0,0-0.01,0-0.01,0.01c0,0,0,0,0,0c0,0-0.01,0-0.01,0.01c0,0,0,0,0,0
		c0,0-0.01,0-0.01,0.01c0,0,0,0,0,0c0,0-0.01,0-0.01,0.01c0,0,0,0,0,0c0,0-0.01,0-0.01,0.01c0,0,0,0,0,0c0,0-0.01,0-0.01,0.01
		c0,0,0,0,0,0c0,0-0.01,0-0.01,0.01c0,0,0,0,0,0c0,0-0.01,0-0.01,0.01c0,0,0,0,0,0c0,0-0.01,0-0.01,0.01c0,0,0,0,0,0
		c0,0-0.01,0-0.01,0c0,0,0,0-0.01,0c0,0-0.01,0-0.01,0c0,0,0,0,0,0c0,0-0.01,0-0.01,0c0,0,0,0-0.01,0c0,0-0.01,0-0.01,0
		c0,0,0,0-0.01,0c0,0,0,0-0.01,0c0,0-0.01,0-0.01,0c0,0,0,0-0.01,0c0,0-0.01,0-0.01,0c0,0,0,0-0.01,0c0,0-0.01,0-0.01,0
		c0,0,0,0-0.01,0c0,0,0,0-0.01,0c0,0,0,0,0,0c0,0-0.01,0-0.01,0.01c0,0,0,0,0,0c0,0-0.01,0-0.01,0.01c0,0,0,0,0,0
		c0,0-0.01,0-0.01,0.01c0,0,0,0,0,0c-0.01,0-0.02,0.01-0.02,0.01c0,0,0,0,0,0c-0.01,0-0.01,0-0.01,0.01c0,0,0,0,0,0
		c-0.26,0.14-0.53,0.28-0.78,0.43l0.5,0.87c1.1-0.64,2.27-1.18,3.46-1.61L24.78,10.25L24.78,10.25z M17.89,14.22
		c-0.64,0.53-1.25,1.1-1.83,1.7l0,0c-0.01,0.01-0.03,0.03-0.04,0.04l0,0C16,15.98,15.98,16,15.96,16.02l0,0c0,0-0.01,0.01-0.01,0.01
		l0,0c-0.01,0.01-0.03,0.03-0.04,0.05l0,0c0,0-0.01,0.01-0.01,0.01l0,0c0,0-0.01,0.01-0.01,0.01l0,0c-0.01,0.01-0.01,0.01-0.02,0.02
		l0,0c0,0-0.01,0.01-0.01,0.01c0,0,0,0,0,0c0,0-0.01,0.01-0.01,0.01c0,0,0,0,0,0c0,0-0.01,0.01-0.01,0.01c0,0,0,0,0,0
		c0,0-0.01,0.01-0.01,0.01l0,0c-0.01,0.01-0.01,0.01-0.02,0.02l0,0c0,0-0.01,0.01-0.01,0.01c0,0,0,0,0,0c0,0-0.01,0.01-0.01,0.01
		c0,0,0,0,0,0c0,0-0.01,0.01-0.01,0.01l0,0c0,0-0.01,0.01-0.01,0.01l0,0c0,0-0.01,0.01-0.01,0.01c0,0,0,0,0,0
		c0,0-0.01,0.01-0.01,0.01c0,0,0,0,0,0c0,0-0.01,0.01-0.01,0.01c0,0,0,0,0,0c0,0-0.01,0.01-0.01,0.01c0,0,0,0,0,0
		c0,0-0.01,0.01-0.01,0.01c0,0,0,0,0,0c0,0-0.01,0.01-0.01,0.01c0,0,0,0,0,0c0,0-0.01,0.01-0.01,0.01c0,0,0,0,0,0
		c0,0-0.01,0.01-0.01,0.01c0,0,0,0,0,0c0,0-0.01,0.01-0.01,0.01c0,0,0,0,0,0c0,0-0.01,0.01-0.01,0.01c0,0,0,0,0,0
		c0,0-0.01,0.01-0.01,0.01c0,0,0,0,0,0c0,0-0.01,0.01-0.01,0.01c0,0,0,0,0,0c0,0-0.01,0.01-0.01,0.01c0,0,0,0,0,0
		c0,0-0.01,0.01-0.01,0.01c0,0,0,0,0,0c0,0-0.01,0.01-0.01,0.01c0,0,0,0,0,0c0,0,0,0.01-0.01,0.01c0,0,0,0,0,0c0,0,0,0.01-0.01,0.01
		c0,0,0,0,0,0c0,0-0.01,0.01-0.01,0.01c0,0,0,0,0,0c0,0-0.01,0.01-0.01,0.01c0,0,0,0,0,0c0,0,0,0.01-0.01,0.01c0,0,0,0,0,0
		c0,0,0,0-0.01,0.01c0,0,0,0-0.01,0.01c0,0,0,0-0.01,0.01c0,0,0,0-0.01,0.01c0,0,0,0-0.01,0.01c0,0,0,0,0,0c0,0,0,0.01-0.01,0.01
		c0,0,0,0,0,0c0,0,0,0-0.01,0.01c0,0,0,0,0,0c0,0,0,0,0,0.01c0,0,0,0-0.01,0.01c0,0,0,0,0,0c0,0,0,0.01-0.01,0.01c0,0,0,0,0,0
		c0,0,0,0-0.01,0.01c0,0,0,0,0,0c0,0,0,0,0,0.01c0,0,0,0-0.01,0.01c0,0,0,0-0.01,0.01c0,0,0,0,0,0c0,0-0.01,0.01-0.01,0.01
		c0,0,0,0,0,0c0,0-0.01,0.01-0.01,0.01c0,0,0,0,0,0c0,0-0.01,0.01-0.01,0.01c0,0,0,0,0,0c-0.01,0.01-0.02,0.02-0.03,0.03
		c0,0,0,0,0,0c0,0-0.01,0.01-0.01,0.01c0,0,0,0,0,0c-0.11,0.12-0.21,0.24-0.31,0.36l0.76,0.65c0.82-0.97,1.73-1.88,2.71-2.7
		L17.89,14.22L17.89,14.22z M12.75,20.3c-0.55,0.94-1.03,1.92-1.44,2.94l0,0c0,0,0,0.01-0.01,0.01l0,0c0,0,0,0.01-0.01,0.01l0,0
		c0,0.01-0.01,0.02-0.01,0.03c0,0,0,0,0,0c0,0,0,0.01-0.01,0.01c0,0,0,0,0,0c0,0,0,0.01-0.01,0.01c0,0,0,0,0,0c0,0,0,0.01,0,0.01
		c0,0,0,0,0,0c0,0,0,0.01,0,0.01c0,0,0,0,0,0c0,0,0,0.01,0,0.01c0,0,0,0,0,0c0,0,0,0.01,0,0.01c0,0,0,0,0,0c0,0,0,0.01,0,0.01
		c0,0,0,0,0,0c0,0,0,0.01,0,0.01c0,0,0,0,0,0c0,0,0,0.01,0,0.01c0,0,0,0,0,0.01c0,0,0,0.01,0,0.01c0,0,0,0,0,0c0,0,0,0.01,0,0.01
		c0,0,0,0,0,0.01c0,0,0,0.01,0,0.01c0,0,0,0,0,0.01c0,0,0,0,0,0.01c0,0,0,0.01,0,0.01c0,0,0,0,0,0.01c0,0,0,0.01,0,0.01
		c0,0,0,0,0,0.01c0,0,0,0.01,0,0.01c0,0,0,0,0,0.01c0,0,0,0,0,0.01c0,0,0,0,0,0.01c0,0,0,0.01,0,0.01c0,0,0,0,0,0c0,0,0,0.01,0,0.01
		c0,0,0,0,0,0c0,0,0,0.01-0.01,0.01c0,0,0,0,0,0c-0.04,0.11-0.08,0.22-0.12,0.33l0.94,0.35c0.44-1.19,0.99-2.35,1.63-3.45
		L12.75,20.3L12.75,20.3z M9.99,27.76c-0.01,0.03-0.01,0.06-0.02,0.09c0,0,0,0,0,0c0,0,0,0.01,0,0.01c0,0,0,0,0,0c0,0,0,0,0,0.01
		c0,0,0,0,0,0c0,0,0,0,0,0.01c0,0,0,0,0,0c0,0.01,0,0.01,0,0.02l0,0c0,0,0,0,0,0.01c0,0,0,0,0,0c0,0,0,0,0,0.01c0,0,0,0,0,0
		c0,0,0,0,0,0.01c0,0,0,0,0,0c0,0,0,0,0,0c0,0,0,0,0,0c0,0,0,0,0,0.01c0,0,0,0,0,0c0,0,0,0,0,0.01c0,0,0,0,0,0c0,0,0,0,0,0
		c0,0,0,0,0,0c0,0,0,0,0,0c0,0,0,0,0,0c0,0,0,0,0,0c0,0,0,0,0,0c0,0,0,0,0,0c0,0,0,0,0,0c0,0,0,0,0,0c0,0,0,0,0,0.01c0,0,0,0,0,0
		c0,0,0,0,0,0.01c0,0,0,0,0,0c0,0,0,0,0,0.01c0,0,0,0,0,0c0,0,0,0,0,0.01c0,0,0,0,0,0c0,0,0,0,0,0.01c0,0,0,0,0,0
		c-0.01,0.03-0.01,0.06-0.01,0.09v0c-0.19,1.18-0.3,2.38-0.3,3.61l1,0.01c0.01-1.28,0.13-2.56,0.35-3.81L9.99,27.76L9.99,27.76z
		 M10.93,35.56l-0.99,0.17c0.11,0.63,0.24,1.25,0.39,1.86c0,0,0,0,0,0c0,0,0,0.01,0,0.01l0,0c0,0.01,0.01,0.03,0.01,0.04
		c0,0,0,0,0,0c0,0,0,0,0,0.01c0,0,0,0,0,0c0,0,0,0,0,0.01c0,0,0,0,0,0c0,0,0,0,0,0.01c0,0,0,0,0,0c0,0,0,0.01,0,0.01c0,0,0,0,0,0
		c0,0.01,0,0.01,0,0.02c0,0,0,0,0,0c0,0,0,0,0,0.01c0,0,0,0,0,0c0,0,0,0,0,0.01c0,0,0,0,0,0c0,0,0,0,0,0.01c0,0,0,0,0,0c0,0,0,0,0,0
		c0,0,0,0,0,0c0,0,0,0,0,0c0,0,0,0,0,0c0,0,0,0,0,0c0,0,0,0,0,0.01c0,0,0,0,0,0.01c0,0,0,0,0,0.01c0,0,0,0,0,0c0,0,0,0,0,0.01
		c0,0,0,0,0,0c0,0,0,0,0,0.01c0,0,0,0,0,0c0,0,0,0,0,0.01c0,0,0,0,0,0c0,0,0,0,0,0.01c0,0,0,0,0,0c0,0.02,0.01,0.03,0.01,0.05l0,0
		c0.16,0.59,0.34,1.18,0.54,1.75l0.94-0.34C11.47,38.06,11.14,36.81,10.93,35.56L10.93,35.56z M13.48,42.73l-0.87,0.49l0,0
		c0,0,0,0.01,0.01,0.01l0,0c0,0,0,0.01,0.01,0.01c0,0,0,0,0,0c0.3,0.53,0.63,1.05,0.97,1.55c0,0,0,0,0,0c0,0,0.01,0.01,0.01,0.01
		c0,0,0,0,0,0c0,0,0.01,0.01,0.01,0.01l0,0c0.01,0.01,0.01,0.02,0.02,0.03l0,0c0,0,0.01,0.01,0.01,0.01c0,0,0,0,0,0
		c0,0,0.01,0.01,0.01,0.01c0,0,0,0,0,0c0,0,0.01,0.01,0.01,0.01c0,0,0,0,0,0c0,0,0.01,0.01,0.01,0.01c0,0,0,0,0,0
		c0,0,0.01,0.01,0.01,0.01c0,0,0,0,0,0c0,0,0.01,0.01,0.01,0.01c0,0,0,0,0,0c0,0,0.01,0.01,0.01,0.01c0,0,0,0,0,0
		c0,0,0.01,0.01,0.01,0.01c0,0,0,0,0,0c0,0,0.01,0.01,0.01,0.01c0,0,0,0,0,0c0,0,0,0.01,0.01,0.01c0,0,0,0,0,0c0,0,0,0.01,0.01,0.01
		c0,0,0,0,0,0c0,0,0,0.01,0.01,0.01c0,0,0,0,0,0c0,0,0,0.01,0.01,0.01c0,0,0,0,0,0c0,0,0,0.01,0.01,0.01c0,0,0,0,0,0
		c0,0,0,0.01,0.01,0.01c0,0,0,0,0,0c0,0,0,0.01,0.01,0.01c0,0,0,0,0,0c0,0,0,0.01,0.01,0.01c0,0,0,0,0,0c0,0,0,0.01,0.01,0.01
		c0,0,0,0,0,0c0,0,0,0.01,0.01,0.01c0,0,0,0,0,0c0,0,0,0.01,0.01,0.01c0,0,0,0,0,0c0,0,0,0.01,0.01,0.01c0,0,0,0,0,0
		c0,0,0,0.01,0.01,0.01c0,0,0,0,0,0c0,0,0,0.01,0.01,0.01c0,0,0,0,0,0c0,0,0,0.01,0.01,0.01c0,0,0,0,0,0c0,0,0,0.01,0.01,0.01
		c0,0,0,0,0,0c0,0,0,0.01,0.01,0.01c0,0,0,0,0,0c0,0,0,0.01,0.01,0.01c0,0,0,0,0,0c0,0,0,0.01,0.01,0.01c0,0,0,0,0,0
		c0,0,0,0.01,0.01,0.01c0,0,0,0,0,0c0,0,0,0,0.01,0.01c0,0,0,0,0,0.01c0,0,0,0.01,0.01,0.01c0,0,0,0,0,0c0,0,0,0.01,0.01,0.01
		c0,0,0,0,0,0c0,0,0,0.01,0.01,0.01c0,0,0,0,0,0c0,0,0,0.01,0.01,0.01c0,0,0,0,0,0c0,0,0,0.01,0.01,0.01c0,0,0,0,0,0.01
		c0,0,0,0,0,0.01c0,0,0,0,0,0.01c0,0,0,0,0,0.01c0,0,0,0,0,0c0,0,0,0.01,0.01,0.01c0,0,0,0,0,0.01c0,0,0,0.01,0.01,0.01c0,0,0,0,0,0
		c0,0,0,0,0,0.01c0,0,0,0,0,0.01c0,0,0,0,0,0.01c0,0,0,0,0,0.01c0,0,0,0,0,0.01c0,0,0,0,0,0c0,0,0,0.01,0.01,0.01c0,0,0,0,0,0
		c0,0,0,0.01,0.01,0.01c0,0,0,0,0,0c0,0,0,0,0,0.01c0,0,0,0,0,0.01c0,0,0,0,0,0.01c0,0,0,0,0,0.01c0,0,0,0,0,0.01c0,0,0,0,0,0
		c0,0,0,0.01,0.01,0.01c0,0,0,0,0,0c0,0,0,0.01,0.01,0.01c0,0,0,0,0,0.01c0,0,0,0,0,0.01c0,0,0,0,0,0.01c0,0,0,0,0,0.01
		c0,0,0,0.01,0.01,0.01c0,0,0,0,0,0.01c0,0,0,0,0,0.01c0,0,0,0,0,0.01c0,0,0,0,0,0.01c0,0,0,0.01,0.01,0.01c0,0,0,0,0,0.01
		c0,0,0,0,0,0.01c0,0,0,0,0,0.01c0,0,0,0,0,0.01c0,0,0,0.01,0.01,0.01c0,0,0,0,0,0.01c0,0,0,0,0.01,0.01c0,0,0,0,0,0.01
		c0,0,0,0,0,0.01c0,0,0,0.01,0.01,0.01c0,0,0,0,0,0.01c0,0,0,0,0,0.01c0,0,0,0,0,0.01c0,0,0,0,0,0c0,0,0,0.01,0.01,0.01
		c0,0,0,0,0,0.01c0,0,0,0,0.01,0.01c0,0,0,0,0,0.01c0,0,0,0,0,0.01c0,0,0,0,0.01,0.01c0,0,0,0,0,0.01c0,0,0,0,0,0
		c0,0,0,0.01,0.01,0.01c0,0,0,0,0,0c0,0,0,0.01,0.01,0.01c0,0,0,0,0,0c0,0,0,0.01,0.01,0.01c0,0,0,0,0,0c0,0,0,0.01,0.01,0.01
		c0,0,0,0,0,0.01c0,0,0,0,0,0.01c0,0,0,0,0,0c0,0,0,0.01,0.01,0.01c0,0,0,0,0,0c0,0,0,0.01,0.01,0.01c0,0,0,0,0,0
		c0,0,0,0.01,0.01,0.01c0,0,0,0,0,0c0,0,0,0.01,0.01,0.01c0,0,0,0,0,0.01c0,0,0,0,0,0.01c0,0,0,0.01,0.01,0.01c0,0,0,0,0,0.01
		c0,0,0,0,0,0c0,0,0,0.01,0.01,0.01c0,0,0,0,0,0c0,0,0,0.01,0.01,0.01c0,0,0,0,0,0c0,0,0,0,0,0.01c0,0,0,0,0,0.01c0,0,0,0,0,0.01
		c0,0,0,0.01,0.01,0.01c0,0,0,0,0,0.01c0,0,0,0,0,0.01c0,0,0,0.01,0.01,0.01c0,0,0,0,0,0c0,0,0,0.01,0.01,0.01c0,0,0,0,0,0
		c0,0,0,0,0.01,0.01c0,0,0,0,0,0.01c0,0,0,0,0,0.01c0,0,0,0,0.01,0.01c0,0,0,0,0,0.01c0,0,0,0,0,0.01c0,0,0,0,0.01,0.01
		c0,0,0,0,0,0.01c0,0,0,0,0.01,0.01c0,0,0,0,0,0.01c0,0,0,0,0,0.01c0,0,0,0.01,0.01,0.01c0,0,0,0,0,0.01c0,0,0,0.01,0.01,0.01
		c0,0,0,0,0,0c0,0,0,0,0.01,0.01c0,0,0,0,0,0.01c0,0,0,0,0,0.01c0,0,0,0,0,0.01c0,0,0,0,0,0.01c0,0,0,0,0,0.01c0,0,0,0,0.01,0.01
		c0,0,0,0,0,0c0,0,0,0.01,0.01,0.01c0,0,0,0,0,0c0,0,0,0.01,0.01,0.01c0,0,0,0,0,0c0,0,0,0,0.01,0.01c0,0,0,0,0,0c0,0,0,0,0.01,0.01
		c0,0,0,0,0,0c0,0,0,0.01,0.01,0.01c0,0,0,0,0,0c0,0,0,0.01,0.01,0.01c0,0,0,0,0,0c0,0,0,0.01,0.01,0.01c0,0,0,0,0,0
		c0,0,0,0,0.01,0.01c0,0,0,0,0,0c0,0,0,0,0.01,0.01c0,0,0,0,0,0c0,0,0,0.01,0.01,0.01c0,0,0,0,0,0c0,0,0,0.01,0.01,0.01c0,0,0,0,0,0
		c0,0,0,0.01,0.01,0.01c0,0,0,0,0,0c0,0,0.01,0.01,0.01,0.01c0,0,0,0,0,0c0,0,0,0.01,0.01,0.01c0,0,0,0,0,0c0,0,0.01,0.01,0.01,0.01
		c0,0,0,0,0,0c0,0,0.01,0.01,0.01,0.01c0,0,0,0,0,0c0,0,0.01,0.01,0.01,0.01c0,0,0,0,0,0c0,0,0.01,0.01,0.01,0.01c0,0,0,0,0,0
		c0,0,0.01,0.01,0.01,0.01c0,0,0,0,0,0c0,0,0.01,0.01,0.01,0.01c0,0,0,0,0,0c0,0,0.01,0.01,0.01,0.01c0,0,0,0,0,0
		c0,0,0.01,0.01,0.01,0.01c0,0,0,0,0,0c0,0,0.01,0.01,0.01,0.01c0,0,0,0,0,0c0.01,0.01,0.01,0.02,0.02,0.02l0,0
		c0,0,0.01,0.01,0.01,0.01c0,0,0,0,0,0c0,0,0.01,0.01,0.01,0.01c0,0,0,0,0,0c0.01,0.02,0.03,0.03,0.04,0.05c0,0,0,0,0,0
		c0.03,0.03,0.05,0.06,0.08,0.1l0.77-0.64C14.84,44.89,14.11,43.83,13.48,42.73L13.48,42.73z M18.33,48.6l-0.65,0.76
		c0.34,0.29,0.68,0.56,1.03,0.83l0,0c0.02,0.01,0.03,0.03,0.05,0.04l0,0c0,0,0.01,0.01,0.01,0.01l0,0c0,0,0.01,0.01,0.01,0.01l0,0
		c0.01,0.01,0.02,0.02,0.04,0.03l0,0c0,0,0.01,0.01,0.01,0.01l0,0c0,0,0.01,0.01,0.01,0.01c0,0,0,0,0,0
		c0.01,0.01,0.02,0.02,0.04,0.03l0,0c0,0,0.01,0.01,0.01,0.01c0,0,0,0,0,0c0,0,0.01,0.01,0.01,0.01c0,0,0,0,0,0
		c0,0,0.01,0.01,0.01,0.01l0,0c0.01,0.01,0.02,0.01,0.02,0.02l0,0c0,0,0.01,0.01,0.01,0.01c0,0,0,0,0,0c0,0,0.01,0.01,0.01,0.01
		c0,0,0,0,0,0c0,0,0.01,0.01,0.01,0.01l0,0c0.01,0.01,0.02,0.01,0.02,0.02l0,0c0,0,0.01,0.01,0.01,0.01c0,0,0,0,0,0
		c0,0,0.01,0.01,0.01,0.01c0,0,0,0,0,0c0,0,0.01,0.01,0.01,0.01c0,0,0,0,0,0c0,0,0.01,0.01,0.01,0.01l0,0c0,0,0.01,0.01,0.01,0.01
		c0,0,0,0,0,0c0,0,0.01,0.01,0.01,0.01c0,0,0,0,0,0c0,0,0.01,0.01,0.01,0.01l0,0c0,0,0.01,0.01,0.01,0.01c0,0,0,0,0,0
		c0,0,0.01,0.01,0.01,0.01l0,0c0.01,0.01,0.02,0.01,0.02,0.02c0,0,0,0,0,0c0,0,0.01,0.01,0.01,0.01l0,0c0,0,0.01,0.01,0.01,0.01
		c0,0,0,0,0,0c0,0,0.01,0.01,0.01,0.01c0,0,0,0,0,0c0,0,0.01,0.01,0.01,0.01l0,0c0,0,0.01,0.01,0.01,0.01l0,0
		c0,0,0.01,0.01,0.01,0.01c0,0,0,0,0,0c0,0,0.01,0.01,0.01,0.01c0,0,0,0,0,0c0,0,0.01,0.01,0.01,0.01l0,0
		c0.01,0.01,0.02,0.01,0.02,0.02l0,0c0,0,0.01,0.01,0.01,0.01c0,0,0,0,0,0c0,0,0.01,0.01,0.01,0.01c0,0,0,0,0,0
		c0,0,0.01,0.01,0.01,0.01l0,0c0.01,0.01,0.02,0.01,0.03,0.02l0,0c0,0,0.01,0.01,0.01,0.01c0,0,0,0,0,0c0,0,0.01,0.01,0.01,0.01l0,0
		c0,0,0.01,0.01,0.01,0.01l0,0c0.02,0.01,0.03,0.02,0.05,0.04l0,0c0.49,0.34,0.99,0.66,1.5,0.97l0.51-0.86
		C20.35,50.18,19.3,49.43,18.33,48.6L18.33,48.6z M24.89,52.48l-0.35,0.94c0.65,0.25,1.32,0.46,2,0.65c0,0,0,0,0,0c0,0,0,0,0.01,0
		c0,0,0,0,0,0c0,0,0,0,0.01,0c0,0,0,0,0,0c0,0,0,0,0.01,0c0,0,0,0,0,0c0,0,0,0,0.01,0c0,0,0,0,0,0c0.01,0,0.01,0,0.02,0c0,0,0,0,0,0
		c0,0,0,0,0.01,0c0,0,0,0,0,0c0,0,0,0,0.01,0c0,0,0,0,0,0c0,0,0,0,0.01,0c0,0,0,0,0,0c0,0,0,0,0.01,0c0,0,0,0,0,0c0,0,0,0,0.01,0
		c0,0,0,0,0,0c0.01,0,0.01,0,0.02,0c0,0,0,0,0,0c0,0,0,0,0.01,0c0,0,0,0,0,0c0,0,0,0,0.01,0c0,0,0,0,0,0c0,0,0,0,0.01,0c0,0,0,0,0,0
		c0,0,0,0,0,0c0,0,0,0,0,0c0,0,0,0,0,0c0,0,0,0,0,0c0,0,0,0,0,0c0,0,0,0,0,0c0,0,0,0,0.01,0c0,0,0,0,0.01,0c0,0,0,0,0,0c0,0,0,0,0,0
		c0,0,0,0,0,0c0,0,0,0,0,0c0,0,0,0,0,0c0,0,0,0,0,0c0,0,0,0,0,0c0,0,0,0,0.01,0c0,0,0,0,0,0c0,0,0,0,0.01,0c0,0,0,0,0,0
		c0.01,0,0.02,0,0.03,0.01l0,0c0,0,0,0,0.01,0c0,0,0,0,0,0c0,0,0,0,0.01,0l0,0c0,0,0,0,0.01,0c0,0,0,0,0,0
		c0.01,0,0.03,0.01,0.04,0.01c0,0,0,0,0,0c0,0,0,0,0.01,0l0,0c0,0,0,0,0.01,0l0,0c0.44,0.11,0.88,0.21,1.33,0.3c0,0,0,0,0,0
		c0.01,0,0.01,0,0.02,0c0,0,0,0,0,0c0.01,0,0.02,0,0.04,0.01l0,0c0,0,0,0,0.01,0c0,0,0,0,0,0c0,0,0,0,0.01,0c0,0,0,0,0,0
		c0,0,0,0,0.01,0c0,0,0,0,0,0c0,0,0,0,0.01,0c0,0,0,0,0,0c0,0,0,0,0.01,0l0,0c0.01,0,0.01,0,0.02,0c0,0,0,0,0,0c0,0,0,0,0,0
		c0,0,0,0,0,0c0,0,0,0,0,0c0,0,0,0,0,0c0,0,0,0,0,0c0,0,0,0,0,0c0,0,0,0,0,0c0,0,0,0,0.01,0c0,0,0,0,0,0c0,0,0,0,0.01,0c0,0,0,0,0,0
		c0.01,0,0.01,0,0.02,0c0,0,0,0,0,0c0,0,0,0,0.01,0l0.18-0.98C27.32,53.27,26.08,52.92,24.89,52.48L24.89,52.48z M36.18,53.59
		c-1.17,0.19-2.37,0.29-3.56,0.29l-0.25,0l-0.01,1c0.07,0,0.13,0,0.2,0h0c0,0,0.01,0,0.01,0c0,0,0,0,0,0c0,0,0,0,0.01,0c0,0,0,0,0,0
		c0,0,0,0,0.01,0c0,0,0,0,0,0c0,0,0,0,0.01,0c0,0,0,0,0,0c0,0,0,0,0.01,0c0,0,0,0,0,0c0,0,0,0,0.01,0c0,0,0,0,0,0c0,0,0.01,0,0.01,0
		l0,0c0,0,0.01,0,0.01,0c0,0,0,0,0,0c0,0,0.01,0,0.01,0c0,0,0,0,0,0c0,0,0.01,0,0.01,0c0,0,0,0,0,0c0,0,0.01,0,0.01,0c0,0,0,0,0,0
		c0.01,0,0.02,0,0.03,0c0,0,0,0,0,0c0,0,0.01,0,0.01,0c0,0,0,0,0,0c0,0,0.01,0,0.01,0c0,0,0,0,0,0c0,0,0.01,0,0.01,0c0,0,0,0,0,0
		c0,0,0.01,0,0.01,0l0,0c0,0,0.01,0,0.01,0c0,0,0,0,0,0c0,0,0.01,0,0.01,0c0,0,0,0,0,0c0,0,0.01,0,0.01,0c0,0,0,0,0,0
		c0,0,0.01,0,0.01,0c0,0,0,0,0,0c0,0,0.01,0,0.01,0c0,0,0,0,0,0c0,0,0.01,0,0.01,0c0,0,0,0,0,0c0,0,0.01,0,0.01,0c0,0,0,0,0,0
		c0,0,0.01,0,0.01,0c0,0,0,0,0,0c0,0,0.01,0,0.01,0c0,0,0,0,0,0c0,0,0.01,0,0.01,0c0,0,0,0,0,0c0,0,0.01,0,0.01,0c0,0,0,0,0,0
		c0,0,0.01,0,0.01,0c0,0,0,0,0,0c0,0,0.01,0,0.01,0c0,0,0,0,0,0c0,0,0.01,0,0.01,0c0,0,0,0,0,0c0,0,0.01,0,0.01,0c0,0,0,0,0,0
		c0,0,0.01,0,0.01,0c0,0,0,0,0,0c0,0,0.01,0,0.01,0c0,0,0,0,0,0c0,0,0.01,0,0.01,0c0,0,0,0,0,0c0,0,0.01,0,0.01,0c0,0,0,0,0,0
		c0,0,0.01,0,0.01,0c0,0,0,0,0,0c0,0,0.01,0,0.01,0c0,0,0,0,0,0c0,0,0.01,0,0.01,0c0,0,0,0,0,0c0,0,0.01,0,0.01,0c0,0,0,0,0,0
		c0,0,0.01,0,0.01,0c0,0,0,0,0,0c0,0,0.01,0,0.01,0l0,0c0,0,0.01,0,0.01,0c0,0,0,0,0,0c0.01,0,0.02,0,0.03,0c0,0,0,0,0,0
		c0,0,0.01,0,0.01,0l0,0c0,0,0.01,0,0.01,0l0,0c0,0,0.01,0,0.01,0c0,0,0,0,0,0c0.01,0,0.02,0,0.03,0c0,0,0,0,0,0c0,0,0.01,0,0.01,0
		l0,0c0,0,0.01,0,0.01,0l0,0c0,0,0.01,0,0.01,0c0,0,0,0,0,0c0.01,0,0.02,0,0.03,0c0,0,0,0,0,0c0,0,0.01,0,0.01,0c0,0,0,0,0,0
		c0,0,0.01,0,0.01,0l0,0c0,0,0.01,0,0.01,0c0,0,0,0,0,0c0,0,0.01,0,0.01,0h0c0,0,0.01,0,0.01,0c0,0,0,0,0,0c0,0,0.01,0,0.01,0
		c0,0,0,0,0,0c0,0,0.01,0,0.01,0l0,0c0,0,0.01,0,0.01,0c0,0,0,0,0,0c0.01,0,0.02,0,0.03,0l0,0c0.01,0,0.02,0,0.03,0l0,0
		c0,0,0.01,0,0.01,0l0,0c0,0,0.01,0,0.01,0c0,0,0,0,0,0c0,0,0.01,0,0.01,0l0,0c0,0,0.01,0,0.01,0l0,0c0,0,0.01,0,0.01,0c0,0,0,0,0,0
		c0,0,0.01,0,0.01,0l0,0c0.01,0,0.02,0,0.03,0c0,0,0,0,0,0c0.01,0,0.02,0,0.03,0c0,0,0,0,0,0c0,0,0.01,0,0.01,0l0,0
		c0.01,0,0.02,0,0.03,0l0,0c0.01,0,0.02,0,0.03,0c0,0,0,0,0,0c0,0,0.01,0,0.01,0h0c0.01,0,0.02,0,0.03,0l0,0c0.01,0,0.02,0,0.03,0
		l0,0c0.01,0,0.03,0,0.04,0c0,0,0,0,0,0c0.01,0,0.02,0,0.03,0l0,0c0.01,0,0.03,0,0.04,0c0,0,0,0,0,0c0.01,0,0.02,0,0.03,0l0,0
		c0.02,0,0.05,0,0.07,0l0,0c0.24-0.01,0.48-0.03,0.71-0.05l0,0c0.01,0,0.03,0,0.04,0l0,0c0.02,0,0.05,0,0.07-0.01l0,0
		c0.03,0,0.07-0.01,0.1-0.01l0,0c0.02,0,0.05,0,0.07-0.01l0,0c0.01,0,0.02,0,0.03,0l0,0c0,0,0.01,0,0.01,0c0,0,0,0,0,0
		c0.01,0,0.02,0,0.03,0l0,0c0.01,0,0.02,0,0.03,0l0,0c0,0,0.01,0,0.01,0c0,0,0,0,0,0c0.01,0,0.02,0,0.03,0l0,0c0,0,0.01,0,0.01,0
		c0,0,0,0,0,0c0,0,0.01,0,0.01,0c0,0,0,0,0,0c0,0,0.01,0,0.01,0c0,0,0,0,0,0c0,0,0.01,0,0.01,0c0,0,0,0,0,0c0,0,0.01,0,0.01,0
		c0,0,0,0,0,0c0,0,0.01,0,0.01,0c0,0,0,0,0,0c0,0,0.01,0,0.01,0c0,0,0,0,0,0c0,0,0.01,0,0.01,0c0,0,0,0,0,0c0,0,0.01,0,0.01,0
		c0,0,0,0,0,0c0,0,0.01,0,0.01,0c0,0,0,0,0,0c0,0,0.01,0,0.01,0c0,0,0,0,0,0c0,0,0.01,0,0.01,0c0,0,0,0,0,0c0,0,0.01,0,0.01,0
		c0,0,0,0,0,0c0,0,0.01,0,0.01,0c0,0,0,0,0,0c0,0,0.01,0,0.01,0c0,0,0,0,0,0c0,0,0.01,0,0.01,0c0,0,0,0,0,0c0,0,0.01,0,0.01,0
		c0,0,0,0,0,0c0,0,0.01,0,0.01,0c0,0,0,0,0,0c0,0,0.01,0,0.01,0c0,0,0,0,0,0c0,0,0.01,0,0.01,0c0,0,0,0,0,0c0,0,0.01,0,0.01,0
		c0,0,0,0,0.01,0c0,0,0.01,0,0.01,0c0,0,0,0,0.01,0c0,0,0.01,0,0.01,0c0,0,0,0,0,0c0,0,0.01,0,0.01,0c0,0,0,0,0,0c0,0,0.01,0,0.01,0
		c0,0,0,0,0.01,0c0,0,0,0,0.01,0c0,0,0,0,0.01,0c0,0,0.01,0,0.01,0c0,0,0,0,0.01,0c0,0,0.01,0,0.01,0c0,0,0,0,0.01,0c0,0,0,0,0.01,0
		c0,0,0,0,0.01,0c0,0,0.01,0,0.01,0c0,0,0,0,0.01,0c0,0,0,0,0,0c0,0,0.01,0,0.01,0c0,0,0,0,0,0c0,0,0,0,0.01,0c0,0,0,0,0,0
		c0,0,0.01,0,0.01,0c0,0,0,0,0,0c0.01,0,0.02,0,0.02,0c0,0,0,0,0,0c0,0,0.01,0,0.01,0c0,0,0,0,0,0c0,0,0,0,0.01,0c0,0,0,0,0,0
		c0,0,0.01,0,0.02,0c0,0,0,0,0,0c0.01,0,0.02,0,0.03,0c0,0,0,0,0,0c0.2-0.03,0.4-0.06,0.59-0.09L36.18,53.59L36.18,53.59z
		 M43.37,51.08c-1.11,0.62-2.28,1.15-3.48,1.57l0.33,0.94c0.86-0.3,1.7-0.65,2.51-1.05c0,0,0,0,0,0c0.02-0.01,0.04-0.02,0.05-0.03
		l0,0c0.01,0,0.01,0,0.02-0.01c0,0,0,0,0,0c0.01-0.01,0.03-0.01,0.04-0.02c0,0,0,0,0,0c0,0,0.01,0,0.01-0.01c0,0,0,0,0,0
		c0,0,0.01,0,0.01-0.01c0,0,0,0,0,0c0.01,0,0.01,0,0.01-0.01l0,0c0.01,0,0.01-0.01,0.02-0.01c0,0,0,0,0,0c0,0,0.01,0,0.01-0.01
		c0,0,0,0,0,0c0,0,0.01,0,0.01-0.01c0,0,0,0,0,0c0.01,0,0.01-0.01,0.02-0.01c0,0,0,0,0,0c0,0,0.01,0,0.01-0.01c0,0,0,0,0,0
		c0,0,0.01,0,0.01-0.01c0,0,0,0,0,0c0,0,0.01,0,0.01-0.01c0,0,0,0,0,0c0,0,0,0,0.01,0c0,0,0.01,0,0.01,0c0,0,0,0,0.01,0
		c0,0,0,0,0.01,0c0,0,0.01,0,0.01,0c0,0,0,0,0.01,0c0,0,0.01,0,0.01,0c0,0,0,0,0.01,0c0,0,0,0,0.01,0c0,0,0.01,0,0.01,0
		c0,0,0,0,0.01,0c0,0,0.01,0,0.01,0c0,0,0,0,0.01,0c0,0,0,0,0.01,0c0,0,0,0,0.01,0c0,0,0,0,0.01,0c0,0,0.01,0,0.01,0c0,0,0,0,0.01,0
		c0,0,0,0,0.01,0c0,0,0.01,0,0.01,0c0,0,0,0,0.01,0c0,0,0.01,0,0.01,0c0,0,0,0,0,0c0,0,0.01,0,0.01,0c0,0,0,0,0.01,0c0,0,0,0,0.01,0
		c0,0,0,0,0,0c0,0,0.01,0,0.01,0c0,0,0,0,0.01,0c0,0,0.01,0,0.01,0c0,0,0,0,0,0c0,0,0.01,0,0.01-0.01c0,0,0,0,0,0c0,0,0.01,0,0.01,0
		c0,0,0,0,0.01,0c0,0,0.01,0,0.01,0c0,0,0,0,0,0c0,0,0.01,0,0.01-0.01c0,0,0,0,0,0c0,0,0.01,0,0.01-0.01c0,0,0,0,0,0
		c0,0,0.01,0,0.01-0.01c0,0,0,0,0,0c0,0,0.01,0,0.01,0c0,0,0,0,0,0c0,0,0.01,0,0.01-0.01c0,0,0,0,0,0c0,0,0.01,0,0.01-0.01
		c0,0,0,0,0,0c0,0,0.01,0,0.01-0.01c0,0,0,0,0,0c0,0,0.01,0,0.01-0.01c0,0,0,0,0,0c0,0,0.01,0,0.01-0.01c0,0,0,0,0,0
		c0,0,0.01,0,0.01-0.01c0,0,0,0,0,0c0,0,0.01,0,0.01-0.01c0,0,0,0,0,0c0,0,0.01,0,0.01-0.01c0,0,0,0,0,0c0,0,0.01,0,0.01-0.01l0,0
		c0,0,0.01,0,0.01-0.01c0,0,0,0,0,0c0,0,0.01,0,0.01-0.01c0,0,0,0,0,0c0,0,0.01,0,0.01-0.01c0,0,0,0,0,0c0,0,0.01,0,0.01-0.01l0,0
		c0.01,0,0.02-0.01,0.03-0.01l0,0c0,0,0.01,0,0.01-0.01c0,0,0,0,0,0c0,0,0.01,0,0.01-0.01c0,0,0,0,0,0
		c0.02-0.01,0.04-0.02,0.05-0.03l0,0c0,0,0.01,0,0.01-0.01l0,0c0.08-0.04,0.16-0.09,0.24-0.14L43.37,51.08L43.37,51.08z
		 M49.27,46.26c-0.83,0.96-1.76,1.86-2.74,2.66l0.63,0.77c0.8-0.65,1.55-1.36,2.26-2.11l0,0c0.01-0.02,0.03-0.03,0.04-0.05l0,0
		c0,0,0.01-0.01,0.01-0.01l0,0c0,0,0.01-0.01,0.01-0.01c0,0,0,0,0,0c0,0,0.01-0.01,0.01-0.01c0,0,0,0,0,0c0,0,0.01-0.01,0.01-0.01
		c0,0,0,0,0,0c0,0,0.01-0.01,0.01-0.01c0,0,0,0,0,0c0,0,0.01-0.01,0.01-0.01c0,0,0,0,0,0c0,0,0.01-0.01,0.01-0.01c0,0,0,0,0,0
		c0,0,0.01-0.01,0.01-0.01c0,0,0,0,0,0c0,0,0.01-0.01,0.01-0.01l0,0c0,0,0.01-0.01,0.01-0.01c0,0,0,0,0,0c0,0,0.01-0.01,0.01-0.01
		c0,0,0,0,0,0c0,0,0.01-0.01,0.01-0.01c0,0,0,0,0,0c0,0,0.01-0.01,0.01-0.01c0,0,0,0,0,0c0,0,0-0.01,0.01-0.01c0,0,0,0,0,0
		c0,0,0,0,0.01-0.01c0,0,0,0,0,0c0,0,0-0.01,0.01-0.01c0,0,0,0,0,0c0,0,0.01-0.01,0.01-0.01c0,0,0,0,0,0c0,0,0.01-0.01,0.01-0.01
		c0,0,0,0,0,0c0,0,0,0,0.01-0.01c0,0,0,0,0.01-0.01c0,0,0,0,0.01-0.01c0,0,0,0,0.01-0.01c0,0,0,0,0-0.01c0,0,0,0,0.01-0.01
		c0,0,0,0,0.01-0.01c0,0,0,0,0-0.01c0,0,0,0,0.01-0.01c0,0,0,0,0.01-0.01c0,0,0,0,0,0c0,0,0.01-0.01,0.01-0.01c0,0,0,0,0,0
		c0,0,0.01-0.01,0.01-0.01c0,0,0,0,0,0c0,0,0.01-0.01,0.01-0.01c0,0,0,0,0,0c0.01-0.01,0.01-0.01,0.02-0.02c0,0,0,0,0,0
		c0,0,0.01-0.01,0.01-0.01c0,0,0,0,0,0c0,0,0.01-0.01,0.01-0.01c0,0,0,0,0,0c0.08-0.09,0.16-0.18,0.24-0.28L49.27,46.26L49.27,46.26
		z M53.18,39.73c-0.45,1.19-1.02,2.34-1.67,3.44l0.86,0.51c0.45-0.75,0.86-1.52,1.22-2.32c0,0,0,0,0,0c0,0,0-0.01,0.01-0.01
		c0,0,0,0,0,0c0-0.01,0-0.01,0.01-0.01c0,0,0,0,0,0c0-0.01,0.01-0.02,0.01-0.02c0,0,0,0,0,0c0-0.01,0-0.01,0.01-0.01c0,0,0,0,0,0
		c0,0,0-0.01,0.01-0.01c0,0,0,0,0,0c0-0.01,0-0.01,0.01-0.01c0,0,0,0,0,0c0-0.01,0.01-0.02,0.01-0.02c0,0,0,0,0,0
		c0,0,0-0.01,0.01-0.01c0,0,0,0,0,0c0,0,0-0.01,0-0.01c0,0,0,0,0,0c0,0,0-0.01,0-0.01c0,0,0,0,0,0c0,0,0,0,0-0.01c0,0,0,0,0-0.01
		c0,0,0-0.01,0-0.01c0,0,0,0,0-0.01c0,0,0-0.01,0-0.01c0,0,0,0,0,0c0,0,0-0.01,0-0.01c0,0,0,0,0-0.01c0,0,0,0,0-0.01
		c0,0,0-0.01,0-0.01c0,0,0,0,0-0.01c0,0,0-0.01,0-0.01c0,0,0,0,0-0.01c0,0,0-0.01,0-0.01c0,0,0-0.01,0-0.01c0,0,0,0,0-0.01
		c0,0,0,0,0-0.01c0,0,0-0.01,0-0.01c0,0,0,0,0-0.01c0,0,0-0.01,0-0.01c0,0,0,0,0-0.01c0,0,0-0.01,0-0.01c0,0,0,0,0,0
		c0,0,0-0.01,0-0.01c0,0,0,0,0-0.01c0,0,0-0.01,0-0.01c0,0,0,0,0,0c0,0,0-0.01,0-0.01c0,0,0,0,0,0c0,0,0-0.01,0-0.01c0,0,0,0,0,0
		c0,0,0-0.01,0.01-0.01c0,0,0,0,0,0c0,0,0-0.01,0-0.01c0,0,0,0,0,0c0,0,0-0.01,0.01-0.01c0,0,0,0,0,0c0,0,0-0.01,0.01-0.01
		c0,0,0,0,0,0c0,0,0-0.01,0.01-0.01c0,0,0,0,0,0c0,0,0-0.01,0.01-0.01c0,0,0,0,0,0c0-0.01,0.01-0.02,0.01-0.03l0,0
		c0,0,0-0.01,0.01-0.01l0,0c0.1-0.25,0.2-0.49,0.3-0.74L53.18,39.73L53.18,39.73z M54.62,32.26c-0.02,1.28-0.15,2.56-0.39,3.8
		l0.98,0.19c0.25-1.29,0.39-2.62,0.41-3.97L54.62,32.26L54.62,32.26z M54.39,24.41l-0.95,0.32c0.41,1.2,0.72,2.45,0.92,3.71
		l0.99-0.15c-0.14-0.92-0.34-1.82-0.59-2.69l0,0c0-0.02-0.01-0.03-0.01-0.05l0,0c0,0,0,0,0-0.01c0,0,0,0,0,0
		c0-0.01-0.01-0.03-0.01-0.04c0,0,0,0,0,0c0,0,0,0,0-0.01l0,0c0,0,0,0,0-0.01c0,0,0,0,0,0c0,0,0,0,0-0.01l0,0
		c0-0.01-0.01-0.02-0.01-0.03l0,0c0,0,0,0,0-0.01c0,0,0,0,0,0c0,0,0,0,0-0.01c0,0,0,0,0,0c0,0,0,0,0,0c0,0,0,0,0,0c0,0,0,0,0,0
		c0,0,0,0,0,0c0,0,0,0,0-0.01c0,0,0,0,0,0c0,0,0-0.01,0-0.01l0,0c0,0,0,0,0-0.01c0,0,0,0,0,0c0,0,0,0,0,0c0,0,0,0,0,0c0,0,0,0,0,0
		c0,0,0,0,0,0c0,0,0,0,0,0c0,0,0,0,0,0c0,0,0,0,0,0c0,0,0,0,0,0c0,0,0,0,0,0c0,0,0,0,0,0c0,0,0,0,0-0.01c0,0,0,0,0-0.01c0,0,0,0,0,0
		c0,0,0,0,0,0c0,0,0,0,0,0c0,0,0,0,0,0c0,0,0,0,0,0c0,0,0,0,0,0c0,0,0,0,0,0c0,0,0,0,0,0c0,0,0,0,0,0c0,0,0,0,0,0c0,0,0,0,0,0
		c0,0,0,0,0,0c0,0,0,0,0,0c0,0,0,0,0-0.01c0,0,0,0,0,0c0,0,0,0,0-0.01c0,0,0,0,0,0c0,0,0,0,0,0c0,0,0,0,0,0c0,0,0,0,0,0c0,0,0,0,0,0
		c0,0,0,0,0,0c0,0,0,0,0,0c0,0,0,0,0-0.01c0,0,0,0,0,0c0,0,0,0,0-0.01c0,0,0,0,0,0c0,0,0-0.01,0-0.01c0,0,0,0,0,0c0,0,0,0,0-0.01
		c0,0,0,0,0,0c0,0,0,0,0-0.01c0,0,0,0,0,0c0,0,0,0,0,0c0,0,0,0,0,0c0,0,0,0,0,0c0,0,0,0,0,0c0,0,0,0,0,0c0,0,0,0,0,0c0,0,0,0,0-0.01
		c0,0,0,0,0,0c0-0.01,0-0.01,0-0.02c0,0,0,0,0,0c0,0,0,0,0-0.01c0,0,0,0,0,0c0,0,0,0,0-0.01c0,0,0,0,0,0c0,0,0,0,0-0.01c0,0,0,0,0,0
		c0,0,0,0,0-0.01c0,0,0,0,0,0c0,0,0,0,0-0.01c0,0,0,0,0,0c0-0.01,0-0.01-0.01-0.02c0,0,0,0,0,0c0,0,0,0,0-0.01c0,0,0,0,0,0
		c0,0,0,0,0-0.01c0,0,0,0,0,0c0,0,0,0,0-0.01c0,0,0,0,0,0c0,0,0,0,0-0.01c0,0,0,0,0,0c0,0,0,0,0-0.01c0,0,0,0,0,0
		c0-0.01,0-0.01-0.01-0.02c0,0,0,0,0,0c0,0,0,0,0-0.01c0,0,0,0,0,0c0,0,0,0,0-0.01c0,0,0,0,0,0c0,0,0,0,0-0.01c0,0,0,0,0,0
		c0,0,0,0,0-0.01c0,0,0,0,0,0c0,0,0,0,0-0.01c0,0,0,0,0,0c0-0.01-0.01-0.02-0.01-0.03c0,0,0,0,0,0c0,0,0-0.01,0-0.01c0,0,0,0,0,0
		c0,0,0-0.01,0-0.01l0,0C54.5,24.75,54.45,24.58,54.39,24.41L54.39,24.41z M50.54,17.44l-0.78,0.63c0.8,0.99,1.52,2.06,2.13,3.17
		l0.88-0.48C52.12,19.59,51.37,18.48,50.54,17.44L50.54,17.44z M44.55,12.2l-0.52,0.85c1.09,0.66,2.12,1.42,3.08,2.26l0.66-0.75
		c-0.71-0.62-1.46-1.2-2.24-1.73c0,0,0,0,0,0c0,0-0.01-0.01-0.01-0.01c0,0,0,0,0,0c0,0-0.01-0.01-0.01-0.01c0,0,0,0,0,0
		c0,0-0.01-0.01-0.01-0.01c0,0,0,0,0,0c-0.01,0-0.01-0.01-0.02-0.01c0,0,0,0,0,0c0,0-0.01-0.01-0.01-0.01c0,0,0,0,0,0
		c0,0-0.01-0.01-0.01-0.01c0,0,0,0,0,0c0,0-0.01-0.01-0.01-0.01c0,0,0,0,0,0c-0.01,0-0.01-0.01-0.02-0.01c0,0,0,0,0,0
		c0,0-0.01-0.01-0.01-0.01c0,0,0,0,0,0c0,0-0.01,0-0.01-0.01c0,0,0,0,0,0c0,0-0.01,0-0.01-0.01c0,0,0,0,0,0c0,0-0.01,0-0.01-0.01
		c0,0,0,0,0,0c0,0,0,0-0.01,0c0,0,0,0,0,0c0,0-0.01,0-0.01-0.01c0,0,0,0,0,0c0,0-0.01,0-0.01-0.01c0,0,0,0,0,0c0,0-0.01,0-0.01-0.01
		c0,0,0,0,0,0c0,0,0,0-0.01,0c0,0-0.01,0-0.01-0.01c0,0,0,0-0.01,0c0,0-0.01,0-0.01-0.01c0,0,0,0-0.01,0c0,0,0,0-0.01,0
		c0,0,0,0-0.01,0c0,0,0,0-0.01,0c0,0,0,0-0.01,0c0,0,0,0-0.01,0c0,0,0,0,0,0c0,0-0.01,0-0.01-0.01c0,0,0,0,0,0c0,0-0.01,0-0.01-0.01
		c0,0,0,0,0,0c0,0-0.01,0-0.01-0.01c0,0,0,0-0.01,0c0,0,0,0-0.01,0c0,0,0,0-0.01,0c0,0-0.01,0-0.01-0.01c0,0,0,0,0,0
		c0,0-0.01,0-0.01-0.01c0,0,0,0,0,0c0,0-0.01,0-0.01-0.01c0,0,0,0,0,0c0,0-0.01,0-0.01-0.01c0,0,0,0,0,0c0,0-0.01,0-0.01-0.01
		c0,0,0,0,0,0c0,0-0.01,0-0.01-0.01c0,0,0,0,0,0c0,0-0.01,0-0.01-0.01c0,0,0,0,0,0c0,0-0.01,0-0.01-0.01c0,0,0,0,0,0
		c0,0-0.01,0-0.01-0.01c0,0,0,0,0,0c0,0-0.01,0-0.01-0.01c0,0,0,0,0,0c0,0-0.01,0-0.01-0.01c0,0,0,0,0,0c0,0-0.01,0-0.01-0.01
		c0,0,0,0,0,0c0,0-0.01,0-0.01-0.01c0,0,0,0,0,0c0,0-0.01,0-0.01-0.01c0,0,0,0,0,0c0,0-0.01,0-0.01-0.01c0,0,0,0,0,0
		c0,0-0.01,0-0.01-0.01c0,0,0,0,0,0c0,0-0.01,0-0.01-0.01c0,0,0,0,0,0c0,0-0.01,0-0.01-0.01c0,0,0,0,0,0c0,0-0.01,0-0.01-0.01
		c0,0,0,0,0,0c0,0-0.01,0-0.01-0.01c0,0,0,0,0,0c0,0-0.01-0.01-0.01-0.01c0,0,0,0,0,0c0,0-0.01-0.01-0.01-0.01c0,0,0,0,0,0
		c0,0-0.01,0-0.01-0.01c0,0,0,0,0,0c0,0-0.01,0-0.01-0.01c0,0,0,0,0,0c0,0-0.01-0.01-0.01-0.01c0,0,0,0,0,0
		c-0.01-0.01-0.02-0.01-0.03-0.02l0,0c0,0-0.01-0.01-0.01-0.01l0,0c0,0-0.01-0.01-0.01-0.01c0,0,0,0,0,0
		c-0.02-0.01-0.04-0.02-0.05-0.03l0,0C44.67,12.28,44.61,12.24,44.55,12.2L44.55,12.2z M37.13,9.31l-0.19,0.98
		c1.25,0.25,2.48,0.61,3.67,1.07l0.36-0.93c-0.48-0.18-0.96-0.35-1.45-0.51c0,0,0,0,0,0c-0.02-0.01-0.03-0.01-0.05-0.02c0,0,0,0,0,0
		c0,0,0,0-0.01,0c0,0,0,0,0,0c0,0-0.01,0-0.01,0c0,0,0,0,0,0c-0.02-0.01-0.03-0.01-0.05-0.02c0,0,0,0,0,0c0,0,0,0-0.01,0
		c0,0,0,0,0,0c-0.02-0.01-0.03-0.01-0.05-0.02c0,0,0,0,0,0c0,0,0,0-0.01,0c0,0,0,0,0,0c-0.02-0.01-0.03-0.01-0.05-0.02c0,0,0,0,0,0
		c0,0,0,0-0.01,0c0,0,0,0,0,0c0,0,0,0-0.01,0c0,0,0,0,0,0c0,0-0.01,0-0.01,0c0,0,0,0,0,0c-0.01,0-0.02-0.01-0.03-0.01c0,0,0,0,0,0
		c0,0-0.01,0-0.01,0c0,0,0,0,0,0c0,0,0,0-0.01,0c0,0,0,0,0,0c0,0,0,0-0.01,0c0,0,0,0,0,0c0,0,0,0-0.01,0c0,0,0,0,0,0
		c-0.01,0-0.02,0-0.03-0.01c0,0,0,0,0,0c0,0,0,0-0.01,0c0,0,0,0,0,0c0,0,0,0-0.01,0c0,0,0,0,0,0c0,0,0,0-0.01,0c0,0,0,0,0,0
		c0,0,0,0-0.01,0c0,0,0,0,0,0c-0.01,0-0.02-0.01-0.03-0.01c0,0,0,0,0,0c0,0,0,0-0.01,0c0,0,0,0,0,0c0,0,0,0-0.01,0c0,0,0,0,0,0
		c0,0,0,0-0.01,0c0,0,0,0,0,0c0,0,0,0-0.01,0c0,0,0,0,0,0c-0.01,0-0.02,0-0.02-0.01c0,0,0,0,0,0c0,0,0,0-0.01,0c0,0,0,0,0,0
		c0,0,0,0-0.01,0c0,0,0,0,0,0c0,0,0,0-0.01,0c0,0,0,0,0,0c0,0,0,0-0.01,0c0,0,0,0,0,0c0,0,0,0-0.01,0c0,0,0,0,0,0
		c-0.01,0-0.01,0-0.02,0c0,0,0,0,0,0c0,0,0,0-0.01,0c0,0,0,0,0,0c0,0,0,0-0.01,0c0,0,0,0,0,0c0,0,0,0,0,0c0,0,0,0,0,0c0,0,0,0,0,0
		c0,0,0,0,0,0c0,0,0,0,0,0c0,0,0,0,0,0c0,0,0,0,0,0c0,0,0,0-0.01,0c0,0,0,0-0.01,0c0,0,0,0,0,0c0,0,0,0-0.01,0c0,0,0,0,0,0
		c0,0,0,0-0.01,0c0,0,0,0,0,0c0,0,0,0,0,0c0,0,0,0,0,0c0,0,0,0,0,0c0,0,0,0,0,0c0,0,0,0,0,0c0,0,0,0,0,0c0,0,0,0-0.01,0c0,0,0,0,0,0
		c0,0,0,0-0.01,0c0,0,0,0,0,0c0,0,0,0-0.01,0c0,0,0,0,0,0c0,0,0,0-0.01,0c0,0,0,0,0,0c0,0,0,0-0.01,0c0,0,0,0,0,0c0,0,0,0,0,0
		c0,0,0,0,0,0c0,0,0,0,0,0c0,0,0,0,0,0c0,0,0,0,0,0c0,0,0,0,0,0c0,0,0,0,0,0c0,0-0.01,0-0.01,0c0,0,0,0,0,0c0,0,0,0,0,0c0,0,0,0,0,0
		c0,0,0,0,0,0c0,0,0,0,0,0c0,0,0,0,0,0c0,0,0,0,0,0c0,0,0,0,0,0c0,0,0,0,0,0c0,0,0,0,0,0c0,0,0,0,0,0c0,0,0,0,0,0c0,0,0,0,0,0
		c0,0,0,0,0,0c0,0,0,0-0.01,0c0,0,0,0-0.01,0c0,0,0,0,0,0c0,0,0,0,0,0c0,0,0,0,0,0c0,0,0,0,0,0c0,0,0,0,0,0c0,0,0,0,0,0c0,0,0,0,0,0
		c0,0,0,0,0,0c0,0,0,0,0,0c0,0,0,0-0.01,0c0,0,0,0,0,0c0,0,0,0-0.01,0c0,0,0,0,0,0c0,0-0.01,0-0.01,0c0,0,0,0,0,0c0,0,0,0-0.01,0
		c0,0,0,0,0,0c0,0,0,0-0.01,0c0,0,0,0,0,0c0,0,0,0-0.01,0c0,0,0,0,0,0c0,0,0,0-0.01,0c0,0,0,0,0,0c0,0,0,0,0,0c0,0,0,0,0,0
		c0,0,0,0-0.01,0c0,0,0,0,0,0c0,0-0.01,0-0.01,0c0,0,0,0,0,0c0,0,0,0-0.01,0c0,0,0,0,0,0c0,0,0,0-0.01,0c0,0,0,0,0,0c0,0,0,0-0.01,0
		c0,0,0,0,0,0c0,0,0,0-0.01,0c0,0,0,0,0,0c0,0,0,0-0.01,0c0,0,0,0,0,0c0,0,0,0-0.01,0l0,0c-0.01,0-0.02-0.01-0.03-0.01l0,0
		c0,0,0,0-0.01,0l0,0c0,0,0,0-0.01,0l0,0c0,0,0,0-0.01,0c0,0,0,0,0,0c0,0,0,0-0.01,0l0,0C38.04,9.51,37.59,9.41,37.13,9.31
		L37.13,9.31z M32.63,8.87v1c0.17,0,0.34,0,0.51,0.01l0.02-1c-0.15,0-0.31-0.01-0.47-0.01c0,0,0,0,0,0c0,0-0.01,0-0.01,0
		c0,0,0,0,0,0c0,0,0,0-0.01,0c0,0,0,0,0,0c0,0,0,0-0.01,0c0,0,0,0,0,0c0,0,0,0-0.01,0c0,0,0,0,0,0c0,0,0,0-0.01,0c0,0,0,0,0,0
		c0,0,0,0-0.01,0C32.64,8.87,32.64,8.87,32.63,8.87C32.63,8.87,32.63,8.87,32.63,8.87L32.63,8.87z"/>
</g>
<g>
	<g>
		<g>
			<circle class="st2" cx="17.87" cy="15.28" r="7.4"/>
		</g>
		<g id="kin_logo_32_32_Purple_4_">
			<g id="Fill-1_4_">
				<path class="st4" d="M18.91,15.26v0.04c0,0.53,0.43,0.97,0.96,0.97h0.53c0.22,0,0.4,0.18,0.4,0.4v1.63h-1.65
					c-0.22,0-0.4-0.18-0.4-0.4v-0.67c0-0.53-0.43-0.97-0.96-0.97h-0.04c-0.53,0-0.96,0.44-0.96,0.97v1.07h-1.84v-6.03h1.84v1.08
					c0,0.53,0.43,0.97,0.96,0.97h0.04c0.53,0,0.96-0.44,0.96-0.97v-0.68c0-0.22,0.18-0.4,0.4-0.4h1.65v1.63c0,0.22-0.18,0.4-0.4,0.4
					h-0.53C19.34,14.29,18.91,14.73,18.91,15.26"/>
			</g>
		</g>
	</g>
	<g>
		<g>
			<circle class="st2" cx="48.05" cy="47.45" r="3.58"/>
		</g>
		<g id="kin_logo_32_32_Purple_3_">
			<g id="Fill-1_3_">
				<path class="st4" d="M48.55,47.44v0.02c0,0.26,0.21,0.47,0.46,0.47h0.25c0.11,0,0.19,0.09,0.19,0.19v0.79h-0.8
					c-0.11,0-0.19-0.09-0.19-0.19v-0.32c0-0.26-0.21-0.47-0.46-0.47h-0.02c-0.26,0-0.46,0.21-0.46,0.47v0.52h-0.89V46h0.89v0.52
					c0,0.26,0.21,0.47,0.46,0.47h0.02c0.26,0,0.46-0.21,0.46-0.47v-0.33c0-0.11,0.09-0.19,0.19-0.19h0.8v0.79
					c0,0.11-0.09,0.19-0.19,0.19h-0.25C48.76,46.98,48.55,47.19,48.55,47.44"/>
			</g>
		</g>
	</g>
	<g>
		<g>
			<circle class="st2" cx="51.23" cy="18.64" r="2.77"/>
		</g>
		<g id="kin_logo_32_32_Purple_5_">
			<g id="Fill-1_5_">
				<path class="st4" d="M51.62,18.63v0.01c0,0.2,0.16,0.36,0.36,0.36h0.2c0.08,0,0.15,0.07,0.15,0.15v0.61h-0.62
					c-0.08,0-0.15-0.07-0.15-0.15v-0.25c0-0.2-0.16-0.36-0.36-0.36h-0.01c-0.2,0-0.36,0.16-0.36,0.36v0.4h-0.69v-2.25h0.69v0.4
					c0,0.2,0.16,0.36,0.36,0.36h0.01c0.2,0,0.36-0.16,0.36-0.36v-0.26c0-0.08,0.07-0.15,0.15-0.15h0.62v0.61
					c0,0.08-0.07,0.15-0.15,0.15h-0.2C51.78,18.27,51.62,18.44,51.62,18.63"/>
			</g>
		</g>
	</g>
	<g>
		<g>
			<circle class="st2" cx="14.87" cy="45.28" r="5.4"/>
		</g>
		<g id="kin_logo_32_32_Purple_2_">
			<g id="Fill-1_2_">
				<path class="st4" d="M15.63,45.26v0.03c0,0.39,0.32,0.71,0.7,0.71h0.38c0.16,0,0.29,0.13,0.29,0.29v1.19h-1.2
					c-0.16,0-0.29-0.13-0.29-0.29V46.7c0-0.39-0.32-0.71-0.7-0.71h-0.03c-0.39,0-0.7,0.32-0.7,0.71v0.78h-1.34v-4.4h1.34v0.79
					c0,0.39,0.32,0.71,0.7,0.71h0.03c0.39,0,0.7-0.32,0.7-0.71v-0.5c0-0.16,0.13-0.29,0.29-0.29H17v1.19c0,0.16-0.13,0.29-0.29,0.29
					h-0.38C15.94,44.56,15.63,44.88,15.63,45.26"/>
			</g>
		</g>
	</g>
</g>
<g>
	<g>
		<polygon class="st5" points="50,6.01 41.06,10.73 50,15.46 58.94,10.73 		"/>
	</g>
	<g>
		<polygon class="st6" points="41.06,10.73 41.06,21.27 50,25.99 50,15.46 		"/>
	</g>
	<g>
		<polygon class="st2" points="58.94,10.73 58.94,21.27 50,25.99 50,15.46 		"/>
	</g>
</g>
</svg>
