<?xml version="1.0" encoding="utf-8"?>
<!-- Generator: Adobe Illustrator 25.3.1, SVG Export Plug-In . SVG Version: 6.00 Build 0)  -->
<svg version="1.1" id="Layer_1" xmlns="http://www.w3.org/2000/svg" xmlns:xlink="http://www.w3.org/1999/xlink" x="0px" y="0px"
	 viewBox="0 0 64 64" style="enable-background:new 0 0 64 64;" xml:space="preserve">
<style type="text/css">
	.st0{fill:#C9B5FD;}
	.st1{fill:#6F41E8;}
	.st2{fill:#773EF0;}
	.st3{fill:#EEECF5;}
	.st4{fill-rule:evenodd;clip-rule:evenodd;fill:#EEECF5;}
	.st5{fill:#EFEDF5;}
	.st6{fill:#5728D1;}
	.st7{fill:#FFFFFF;}
</style>
<g>
	<circle class="st0" cx="36" cy="36" r="23"/>
</g>
<g>
	<path class="st1" d="M32,9C32,9,31.99,9,32,9c-0.01,0-0.01,0-0.01,0c0,0,0,0-0.01,0c0,0,0,0,0,0c0,0,0,0-0.01,0c0,0,0,0,0,0
		c0,0,0,0-0.01,0c0,0,0,0,0,0c0,0,0,0-0.01,0c0,0,0,0,0,0c0,0,0,0-0.01,0c0,0,0,0,0,0c0,0,0,0-0.01,0c0,0,0,0,0,0c0,0,0,0-0.01,0
		c0,0,0,0,0,0c0,0,0,0-0.01,0c0,0,0,0,0,0c0,0,0,0-0.01,0c0,0,0,0,0,0c0,0,0,0-0.01,0c0,0,0,0,0,0c0,0-0.01,0-0.01,0c0,0,0,0,0,0
		c0,0,0,0-0.01,0c0,0,0,0,0,0c0,0,0,0-0.01,0c0,0,0,0,0,0c0,0,0,0-0.01,0c0,0,0,0,0,0c0,0,0,0-0.01,0c0,0,0,0,0,0c0,0,0,0-0.01,0
		c0,0,0,0,0,0c0,0-0.01,0-0.01,0c0,0,0,0,0,0c0,0,0,0-0.01,0c0,0,0,0,0,0c0,0,0,0-0.01,0c0,0,0,0,0,0c0,0,0,0-0.01,0c0,0,0,0,0,0
		c0,0,0,0-0.01,0c0,0,0,0,0,0c0,0,0,0-0.01,0c0,0,0,0,0,0c0,0-0.01,0-0.01,0c0,0,0,0,0,0c0,0,0,0-0.01,0c0,0,0,0,0,0c0,0,0,0-0.01,0
		c0,0,0,0,0,0c0,0,0,0-0.01,0c0,0,0,0,0,0c0,0,0,0-0.01,0c0,0,0,0,0,0c0,0-0.01,0-0.01,0c0,0,0,0,0,0c0,0-0.01,0-0.01,0c0,0,0,0,0,0
		c0,0,0,0-0.01,0c0,0,0,0,0,0c0,0,0,0-0.01,0c0,0,0,0,0,0c0,0,0,0-0.01,0c0,0,0,0,0,0c0,0,0,0-0.01,0c0,0,0,0,0,0c0,0-0.01,0-0.01,0
		c0,0,0,0,0,0c0,0-0.01,0-0.01,0c0,0,0,0,0,0c0,0,0,0-0.01,0c0,0,0,0,0,0c0,0,0,0-0.01,0c0,0,0,0,0,0c0,0,0,0-0.01,0c0,0,0,0,0,0
		c0,0,0,0-0.01,0c0,0,0,0,0,0c-0.01,0-0.01,0-0.02,0c0,0,0,0,0,0c0,0-0.01,0-0.01,0c0,0,0,0,0,0c0,0-0.01,0-0.01,0c0,0,0,0,0,0
		c0,0,0,0-0.01,0c0,0,0,0,0,0c0,0,0,0-0.01,0c0,0,0,0,0,0c-0.01,0-0.01,0-0.02,0c0,0,0,0,0,0c0,0,0,0-0.01,0c0,0,0,0,0,0
		c0,0,0,0-0.01,0c0,0,0,0,0,0c0,0,0,0-0.01,0c0,0,0,0,0,0c0,0,0,0-0.01,0c0,0,0,0,0,0c-0.01,0-0.01,0-0.02,0c0,0,0,0,0,0
		c0,0-0.01,0-0.01,0c0,0,0,0,0,0c0,0,0,0-0.01,0c0,0,0,0,0,0c0,0,0,0-0.01,0c0,0,0,0,0,0c-0.01,0-0.02,0-0.03,0c0,0,0,0,0,0
		c0,0,0,0-0.01,0c0,0,0,0,0,0c0,0,0,0-0.01,0c0,0,0,0,0,0c0,0,0,0-0.01,0c0,0,0,0,0,0c0,0,0,0-0.01,0c0,0,0,0,0,0
		c-0.01,0-0.01,0-0.02,0c0,0,0,0,0,0c0,0-0.01,0-0.01,0c0,0,0,0,0,0c0,0,0,0-0.01,0c0,0,0,0,0,0c0,0-0.01,0-0.01,0c0,0,0,0,0,0
		c-0.01,0-0.02,0-0.03,0c0,0,0,0,0,0c0,0-0.01,0-0.01,0c0,0,0,0,0,0c0,0,0,0-0.01,0c0,0,0,0,0,0c-0.02,0-0.03,0-0.05,0c0,0,0,0,0,0
		c0,0-0.01,0-0.01,0c0,0,0,0,0,0c-0.02,0-0.03,0-0.05,0c0,0,0,0,0,0c-0.04,0-0.08,0-0.12,0c0,0,0,0,0,0
		c-1.04,0.04-2.07,0.15-3.07,0.33l0.17,0.99C29.44,10.11,30.72,10,32,10V9L32,9L32,9z M24.16,10.37c-0.23,0.08-0.46,0.17-0.68,0.26
		c0,0,0,0,0,0c-0.01,0-0.01,0-0.02,0.01c0,0,0,0,0,0c-0.01,0.01-0.03,0.01-0.04,0.02c0,0,0,0,0,0c0,0-0.01,0-0.01,0.01c0,0,0,0,0,0
		c0,0-0.01,0-0.01,0.01c0,0,0,0,0,0c0,0-0.01,0-0.01,0.01c0,0,0,0,0,0c0,0,0,0-0.01,0c0,0,0,0,0,0c0,0-0.01,0-0.01,0.01c0,0,0,0,0,0
		c0,0-0.01,0-0.01,0c0,0,0,0,0,0c0,0-0.01,0-0.01,0c0,0,0,0-0.01,0c0,0,0,0-0.01,0c0,0-0.01,0-0.01,0c0,0,0,0-0.01,0c0,0,0,0-0.01,0
		c0,0-0.01,0-0.01,0c0,0,0,0-0.01,0c0,0-0.01,0-0.01,0c0,0,0,0-0.01,0c0,0,0,0-0.01,0c0,0-0.01,0-0.01,0c0,0,0,0-0.01,0
		c0,0-0.01,0-0.01,0c0,0,0,0-0.01,0c0,0-0.01,0-0.01,0c0,0,0,0-0.01,0c0,0,0,0-0.01,0c0,0,0,0-0.01,0c0,0-0.01,0-0.01,0c0,0,0,0,0,0
		c0,0-0.01,0-0.01,0c0,0,0,0,0,0c0,0-0.01,0-0.01,0c0,0,0,0,0,0c0,0-0.01,0-0.01,0c0,0,0,0,0,0c0,0-0.01,0-0.01,0c0,0,0,0,0,0
		c0,0-0.01,0-0.01,0c0,0,0,0,0,0c0,0-0.01,0-0.01,0c0,0,0,0,0,0c0,0-0.01,0-0.01,0c0,0,0,0,0,0c0,0-0.01,0-0.01,0.01c0,0,0,0,0,0
		c0,0-0.01,0-0.01,0.01c0,0,0,0,0,0c0,0-0.01,0-0.01,0.01c0,0,0,0,0,0c0,0-0.01,0-0.01,0.01c0,0,0,0,0,0c0,0-0.01,0-0.01,0.01
		c0,0,0,0,0,0c0,0-0.01,0-0.01,0.01c0,0,0,0,0,0c0,0-0.01,0-0.01,0.01c0,0,0,0,0,0c0,0-0.01,0-0.01,0.01c0,0,0,0,0,0
		c0,0-0.01,0-0.01,0.01c0,0,0,0,0,0c0,0-0.01,0-0.01,0.01l0,0c-0.01,0-0.02,0.01-0.03,0.01l0,0c0,0-0.01,0-0.01,0.01c0,0,0,0,0,0
		c0,0-0.01,0-0.01,0.01c0,0,0,0,0,0c0,0-0.01,0-0.01,0.01c0,0,0,0,0,0c-0.01,0-0.02,0.01-0.03,0.01l0,0c0,0-0.01,0-0.01,0.01l0,0
		c0,0-0.01,0-0.01,0.01l0,0c-0.01,0.01-0.03,0.01-0.04,0.02c0,0,0,0,0,0c0,0-0.01,0-0.01,0.01l0,0c-0.29,0.13-0.58,0.26-0.86,0.4
		c0,0,0,0,0,0c0,0-0.01,0-0.01,0.01c0,0,0,0,0,0c0,0-0.01,0-0.01,0.01l0,0c-0.01,0-0.02,0.01-0.03,0.01l0,0c0,0-0.01,0-0.01,0.01
		l0,0c0,0-0.01,0-0.01,0.01c0,0,0,0,0,0c-0.01,0.01-0.03,0.01-0.04,0.02l0,0c0,0-0.01,0-0.01,0.01c0,0,0,0,0,0c0,0-0.01,0-0.01,0.01
		c0,0,0,0,0,0c0,0-0.01,0-0.01,0.01l0,0c0,0-0.01,0-0.01,0.01c0,0,0,0,0,0c0,0-0.01,0-0.01,0.01c0,0,0,0,0,0c0,0-0.01,0-0.01,0.01
		c0,0,0,0,0,0c0,0-0.01,0-0.01,0.01c0,0,0,0,0,0c0,0-0.01,0-0.01,0.01c0,0,0,0,0,0c0,0-0.01,0-0.01,0.01c0,0,0,0,0,0
		c0,0-0.01,0-0.01,0.01c0,0,0,0,0,0c0,0-0.01,0-0.01,0.01c0,0,0,0,0,0c0,0-0.01,0-0.01,0.01c0,0,0,0,0,0c0,0-0.01,0-0.01,0.01
		c0,0,0,0,0,0c0,0-0.01,0-0.01,0.01c0,0,0,0,0,0c0,0-0.01,0-0.01,0.01c0,0,0,0,0,0c0,0-0.01,0-0.01,0.01c0,0,0,0,0,0
		c0,0-0.01,0-0.01,0.01c0,0,0,0,0,0c0,0-0.01,0-0.01,0c0,0,0,0-0.01,0c0,0-0.01,0-0.01,0c0,0,0,0,0,0c0,0-0.01,0-0.01,0
		c0,0,0,0-0.01,0c0,0-0.01,0-0.01,0c0,0,0,0-0.01,0c0,0,0,0-0.01,0c0,0-0.01,0-0.01,0c0,0,0,0-0.01,0c0,0-0.01,0-0.01,0
		c0,0,0,0-0.01,0c0,0-0.01,0-0.01,0c0,0,0,0-0.01,0c0,0,0,0-0.01,0c0,0,0,0,0,0c0,0-0.01,0-0.01,0.01c0,0,0,0,0,0
		c0,0-0.01,0-0.01,0.01c0,0,0,0,0,0c0,0-0.01,0-0.01,0.01c0,0,0,0,0,0c-0.01,0-0.02,0.01-0.02,0.01c0,0,0,0,0,0
		c-0.01,0-0.01,0-0.01,0.01c0,0,0,0,0,0c-0.26,0.14-0.53,0.28-0.78,0.43l0.5,0.87c1.1-0.64,2.27-1.18,3.46-1.61L24.16,10.37
		L24.16,10.37z M17.26,14.34c-0.64,0.53-1.25,1.1-1.83,1.7l0,0c-0.01,0.01-0.03,0.03-0.04,0.04l0,0c-0.02,0.02-0.04,0.04-0.05,0.06
		l0,0c0,0-0.01,0.01-0.01,0.01l0,0c-0.01,0.01-0.03,0.03-0.04,0.05l0,0c0,0-0.01,0.01-0.01,0.01l0,0c0,0-0.01,0.01-0.01,0.01l0,0
		c-0.01,0.01-0.01,0.01-0.02,0.02l0,0c0,0-0.01,0.01-0.01,0.01c0,0,0,0,0,0c0,0-0.01,0.01-0.01,0.01c0,0,0,0,0,0
		c0,0-0.01,0.01-0.01,0.01c0,0,0,0,0,0c0,0-0.01,0.01-0.01,0.01l0,0c-0.01,0.01-0.01,0.01-0.02,0.02l0,0c0,0-0.01,0.01-0.01,0.01
		c0,0,0,0,0,0c0,0-0.01,0.01-0.01,0.01c0,0,0,0,0,0c0,0-0.01,0.01-0.01,0.01l0,0c0,0-0.01,0.01-0.01,0.01l0,0
		c0,0-0.01,0.01-0.01,0.01c0,0,0,0,0,0c0,0-0.01,0.01-0.01,0.01c0,0,0,0,0,0c0,0-0.01,0.01-0.01,0.01c0,0,0,0,0,0
		c0,0-0.01,0.01-0.01,0.01c0,0,0,0,0,0c0,0-0.01,0.01-0.01,0.01c0,0,0,0,0,0c0,0-0.01,0.01-0.01,0.01c0,0,0,0,0,0
		c0,0-0.01,0.01-0.01,0.01c0,0,0,0,0,0c0,0-0.01,0.01-0.01,0.01c0,0,0,0,0,0c0,0-0.01,0.01-0.01,0.01c0,0,0,0,0,0
		c0,0-0.01,0.01-0.01,0.01c0,0,0,0,0,0c0,0-0.01,0.01-0.01,0.01c0,0,0,0,0,0c0,0-0.01,0.01-0.01,0.01c0,0,0,0,0,0
		c0,0-0.01,0.01-0.01,0.01c0,0,0,0,0,0c0,0-0.01,0.01-0.01,0.01c0,0,0,0,0,0c0,0-0.01,0.01-0.01,0.01c0,0,0,0,0,0
		c0,0,0,0.01-0.01,0.01c0,0,0,0,0,0c0,0,0,0.01-0.01,0.01c0,0,0,0,0,0c0,0-0.01,0.01-0.01,0.01c0,0,0,0,0,0c0,0-0.01,0.01-0.01,0.01
		c0,0,0,0,0,0c0,0,0,0.01-0.01,0.01c0,0,0,0,0,0c0,0,0,0-0.01,0.01c0,0,0,0-0.01,0.01c0,0,0,0-0.01,0.01c0,0,0,0-0.01,0.01
		c0,0,0,0-0.01,0.01c0,0,0,0,0,0c0,0,0,0.01-0.01,0.01c0,0,0,0,0,0c0,0,0,0-0.01,0.01c0,0,0,0,0,0c0,0,0,0,0,0.01c0,0,0,0-0.01,0.01
		c0,0,0,0,0,0c0,0,0,0.01-0.01,0.01c0,0,0,0,0,0c0,0,0,0-0.01,0.01c0,0,0,0,0,0c0,0,0,0,0,0.01c0,0,0,0-0.01,0.01c0,0,0,0-0.01,0.01
		c0,0,0,0,0,0c0,0-0.01,0.01-0.01,0.01c0,0,0,0,0,0c0,0-0.01,0.01-0.01,0.01c0,0,0,0,0,0c0,0-0.01,0.01-0.01,0.01c0,0,0,0,0,0
		c-0.01,0.01-0.02,0.02-0.03,0.03c0,0,0,0,0,0c0,0-0.01,0.01-0.01,0.01c0,0,0,0,0,0c-0.11,0.12-0.21,0.24-0.31,0.36l0.76,0.65
		c0.82-0.97,1.73-1.88,2.71-2.7L17.26,14.34L17.26,14.34z M12.12,20.42c-0.55,0.94-1.03,1.92-1.44,2.94l0,0c0,0,0,0.01-0.01,0.01
		l0,0c0,0,0,0.01-0.01,0.01l0,0c0,0.01-0.01,0.02-0.01,0.03c0,0,0,0,0,0c0,0,0,0.01-0.01,0.01c0,0,0,0,0,0c0,0,0,0.01-0.01,0.01
		c0,0,0,0,0,0c0,0,0,0.01,0,0.01c0,0,0,0,0,0c0,0,0,0.01,0,0.01c0,0,0,0,0,0c0,0,0,0.01,0,0.01c0,0,0,0,0,0c0,0,0,0.01,0,0.01
		c0,0,0,0,0,0c0,0,0,0.01,0,0.01c0,0,0,0,0,0c0,0,0,0.01,0,0.01c0,0,0,0,0,0c0,0,0,0.01,0,0.01c0,0,0,0,0,0.01c0,0,0,0.01,0,0.01
		c0,0,0,0,0,0c0,0,0,0.01,0,0.01c0,0,0,0,0,0.01c0,0,0,0.01,0,0.01c0,0,0,0,0,0.01c0,0,0,0,0,0.01c0,0,0,0.01,0,0.01c0,0,0,0,0,0.01
		c0,0,0,0.01,0,0.01c0,0,0,0,0,0.01c0,0,0,0.01,0,0.01c0,0,0,0,0,0.01c0,0,0,0,0,0.01c0,0,0,0,0,0.01c0,0,0,0.01,0,0.01c0,0,0,0,0,0
		c0,0,0,0.01,0,0.01c0,0,0,0,0,0c0,0,0,0.01-0.01,0.01c0,0,0,0,0,0c-0.04,0.11-0.08,0.22-0.12,0.33l0.94,0.35
		c0.44-1.19,0.99-2.35,1.63-3.45L12.12,20.42L12.12,20.42z M9.37,27.89c-0.01,0.03-0.01,0.06-0.02,0.09c0,0,0,0,0,0
		c0,0,0,0.01,0,0.01c0,0,0,0,0,0c0,0,0,0,0,0.01c0,0,0,0,0,0c0,0,0,0,0,0.01c0,0,0,0,0,0c0,0.01,0,0.01,0,0.02l0,0c0,0,0,0,0,0.01
		c0,0,0,0,0,0c0,0,0,0,0,0.01c0,0,0,0,0,0c0,0,0,0,0,0.01c0,0,0,0,0,0c0,0,0,0,0,0c0,0,0,0,0,0c0,0,0,0,0,0.01c0,0,0,0,0,0
		c0,0,0,0,0,0.01c0,0,0,0,0,0c0,0,0,0,0,0c0,0,0,0,0,0c0,0,0,0,0,0c0,0,0,0,0,0c0,0,0,0,0,0c0,0,0,0,0,0c0,0,0,0,0,0c0,0,0,0,0,0
		c0,0,0,0,0,0c0,0,0,0,0,0.01c0,0,0,0,0,0c0,0,0,0,0,0.01c0,0,0,0,0,0c0,0,0,0,0,0.01c0,0,0,0,0,0c0,0,0,0,0,0.01c0,0,0,0,0,0
		c0,0,0,0,0,0.01c0,0,0,0,0,0c-0.01,0.03-0.01,0.06-0.01,0.09v0c-0.19,1.18-0.3,2.38-0.3,3.61l1,0.01c0.01-1.28,0.13-2.56,0.35-3.81
		L9.37,27.89L9.37,27.89z M10.31,35.68l-0.99,0.17c0.11,0.63,0.24,1.25,0.39,1.86c0,0,0,0,0,0c0,0,0,0.01,0,0.01v0
		c0,0.01,0.01,0.03,0.01,0.04c0,0,0,0,0,0c0,0,0,0,0,0.01c0,0,0,0,0,0c0,0,0,0,0,0.01c0,0,0,0,0,0c0,0,0,0,0,0.01c0,0,0,0,0,0
		c0,0,0,0.01,0,0.01c0,0,0,0,0,0c0,0.01,0,0.01,0,0.02c0,0,0,0,0,0c0,0,0,0,0,0.01c0,0,0,0,0,0c0,0,0,0,0,0.01c0,0,0,0,0,0
		c0,0,0,0,0,0.01c0,0,0,0,0,0c0,0,0,0,0,0c0,0,0,0,0,0c0,0,0,0,0,0c0,0,0,0,0,0c0,0,0,0,0,0c0,0,0,0,0,0.01c0,0,0,0,0,0.01
		c0,0,0,0,0,0.01c0,0,0,0,0,0c0,0,0,0,0,0.01c0,0,0,0,0,0c0,0,0,0,0,0.01c0,0,0,0,0,0c0,0,0,0,0,0.01c0,0,0,0,0,0c0,0,0,0,0,0.01
		c0,0,0,0,0,0c0,0.02,0.01,0.03,0.01,0.05l0,0c0.16,0.59,0.34,1.18,0.54,1.75l0.94-0.34C10.84,38.18,10.52,36.94,10.31,35.68
		L10.31,35.68z M12.86,42.85l-0.87,0.49l0,0c0,0,0,0.01,0.01,0.01l0,0c0,0,0,0.01,0.01,0.01c0,0,0,0,0,0
		c0.3,0.53,0.63,1.05,0.97,1.55c0,0,0,0,0,0c0,0,0.01,0.01,0.01,0.01c0,0,0,0,0,0c0,0,0.01,0.01,0.01,0.01l0,0
		c0.01,0.01,0.01,0.02,0.02,0.03l0,0c0,0,0.01,0.01,0.01,0.01c0,0,0,0,0,0c0,0,0.01,0.01,0.01,0.01c0,0,0,0,0,0
		c0,0,0.01,0.01,0.01,0.01c0,0,0,0,0,0c0,0,0.01,0.01,0.01,0.01c0,0,0,0,0,0c0,0,0.01,0.01,0.01,0.01c0,0,0,0,0,0
		c0,0,0.01,0.01,0.01,0.01c0,0,0,0,0,0c0,0,0.01,0.01,0.01,0.01c0,0,0,0,0,0c0,0,0.01,0.01,0.01,0.01c0,0,0,0,0,0
		c0,0,0.01,0.01,0.01,0.01c0,0,0,0,0,0c0,0,0,0.01,0.01,0.01c0,0,0,0,0,0c0,0,0,0.01,0.01,0.01c0,0,0,0,0,0c0,0,0,0.01,0.01,0.01
		c0,0,0,0,0,0c0,0,0,0.01,0.01,0.01c0,0,0,0,0,0c0,0,0,0.01,0.01,0.01c0,0,0,0,0,0c0,0,0,0.01,0.01,0.01c0,0,0,0,0,0
		c0,0,0,0.01,0.01,0.01c0,0,0,0,0,0c0,0,0,0.01,0.01,0.01c0,0,0,0,0,0c0,0,0,0.01,0.01,0.01c0,0,0,0,0,0c0,0,0,0.01,0.01,0.01
		c0,0,0,0,0,0c0,0,0,0.01,0.01,0.01c0,0,0,0,0,0c0,0,0,0.01,0.01,0.01c0,0,0,0,0,0c0,0,0,0.01,0.01,0.01c0,0,0,0,0,0
		c0,0,0,0.01,0.01,0.01c0,0,0,0,0,0c0,0,0,0.01,0.01,0.01c0,0,0,0,0,0c0,0,0,0.01,0.01,0.01c0,0,0,0,0,0c0,0,0,0.01,0.01,0.01
		c0,0,0,0,0,0c0,0,0,0.01,0.01,0.01c0,0,0,0,0,0c0,0,0,0.01,0.01,0.01c0,0,0,0,0,0c0,0,0,0.01,0.01,0.01c0,0,0,0,0,0
		c0,0,0,0,0.01,0.01c0,0,0,0,0,0.01c0,0,0,0.01,0.01,0.01c0,0,0,0,0,0c0,0,0,0.01,0.01,0.01c0,0,0,0,0,0c0,0,0,0.01,0.01,0.01
		c0,0,0,0,0,0c0,0,0,0.01,0.01,0.01c0,0,0,0,0,0c0,0,0,0.01,0.01,0.01c0,0,0,0,0,0.01c0,0,0,0,0,0.01c0,0,0,0,0,0.01
		c0,0,0,0,0.01,0.01c0,0,0,0,0,0c0,0,0,0.01,0.01,0.01c0,0,0,0,0,0.01c0,0,0,0.01,0.01,0.01c0,0,0,0,0,0c0,0,0,0,0,0.01
		c0,0,0,0,0,0.01c0,0,0,0,0,0.01c0,0,0,0,0,0.01c0,0,0,0,0,0.01c0,0,0,0,0,0c0,0,0,0.01,0.01,0.01c0,0,0,0,0,0c0,0,0,0.01,0.01,0.01
		c0,0,0,0,0,0c0,0,0,0,0,0.01c0,0,0,0,0,0.01c0,0,0,0,0,0.01c0,0,0,0,0,0.01c0,0,0,0,0,0.01c0,0,0,0,0,0c0,0,0,0.01,0.01,0.01
		c0,0,0,0,0,0c0,0,0,0.01,0.01,0.01c0,0,0,0,0,0.01c0,0,0,0,0,0.01c0,0,0,0,0,0.01c0,0,0,0,0,0.01c0,0,0,0.01,0.01,0.01
		c0,0,0,0,0,0.01c0,0,0,0,0,0.01c0,0,0,0,0,0.01c0,0,0,0,0,0.01c0,0,0,0.01,0.01,0.01c0,0,0,0,0,0.01c0,0,0,0,0,0.01c0,0,0,0,0,0.01
		c0,0,0,0,0,0.01c0,0,0,0.01,0.01,0.01c0,0,0,0,0,0.01c0,0,0,0,0.01,0.01c0,0,0,0,0,0.01c0,0,0,0,0,0.01c0,0,0,0.01,0.01,0.01
		c0,0,0,0,0,0.01c0,0,0,0,0,0.01c0,0,0,0,0,0.01c0,0,0,0,0,0c0,0,0,0.01,0.01,0.01c0,0,0,0,0,0.01c0,0,0,0,0.01,0.01c0,0,0,0,0,0.01
		c0,0,0,0,0,0.01c0,0,0,0,0.01,0.01c0,0,0,0,0,0.01c0,0,0,0,0,0c0,0,0,0.01,0.01,0.01c0,0,0,0,0,0c0,0,0,0.01,0.01,0.01c0,0,0,0,0,0
		c0,0,0,0.01,0.01,0.01c0,0,0,0,0,0c0,0,0,0.01,0.01,0.01c0,0,0,0,0,0.01c0,0,0,0,0,0.01c0,0,0,0,0,0c0,0,0,0.01,0.01,0.01
		c0,0,0,0,0,0c0,0,0,0.01,0.01,0.01c0,0,0,0,0,0c0,0,0,0.01,0.01,0.01c0,0,0,0,0,0c0,0,0,0.01,0.01,0.01c0,0,0,0,0,0.01
		c0,0,0,0,0,0.01c0,0,0,0.01,0.01,0.01c0,0,0,0,0,0.01c0,0,0,0,0,0c0,0,0,0.01,0.01,0.01c0,0,0,0,0,0c0,0,0,0.01,0.01,0.01
		c0,0,0,0,0,0c0,0,0,0,0,0.01c0,0,0,0,0,0.01c0,0,0,0,0,0.01c0,0,0,0.01,0.01,0.01c0,0,0,0,0,0.01c0,0,0,0,0,0.01
		c0,0,0,0.01,0.01,0.01c0,0,0,0,0,0c0,0,0,0.01,0.01,0.01c0,0,0,0,0,0c0,0,0,0,0.01,0.01c0,0,0,0,0,0.01c0,0,0,0,0,0.01
		c0,0,0,0,0.01,0.01c0,0,0,0,0,0.01c0,0,0,0,0,0.01c0,0,0,0,0.01,0.01c0,0,0,0,0,0.01c0,0,0,0,0.01,0.01c0,0,0,0,0,0.01
		c0,0,0,0,0,0.01c0,0,0,0.01,0.01,0.01c0,0,0,0,0,0.01c0,0,0,0.01,0.01,0.01c0,0,0,0,0,0c0,0,0,0,0.01,0.01c0,0,0,0,0,0.01
		c0,0,0,0,0,0.01c0,0,0,0,0,0.01c0,0,0,0,0,0.01c0,0,0,0,0,0.01c0,0,0,0,0.01,0.01c0,0,0,0,0,0c0,0,0,0.01,0.01,0.01c0,0,0,0,0,0
		c0,0,0,0.01,0.01,0.01c0,0,0,0,0,0c0,0,0,0,0.01,0.01c0,0,0,0,0,0c0,0,0,0,0.01,0.01c0,0,0,0,0,0c0,0,0,0.01,0.01,0.01c0,0,0,0,0,0
		c0,0,0,0.01,0.01,0.01c0,0,0,0,0,0c0,0,0,0.01,0.01,0.01c0,0,0,0,0,0c0,0,0,0,0.01,0.01c0,0,0,0,0,0c0,0,0,0,0.01,0.01c0,0,0,0,0,0
		c0,0,0,0.01,0.01,0.01c0,0,0,0,0,0c0,0,0,0.01,0.01,0.01c0,0,0,0,0,0c0,0,0,0.01,0.01,0.01c0,0,0,0,0,0c0,0,0.01,0.01,0.01,0.01
		c0,0,0,0,0,0c0,0,0,0.01,0.01,0.01c0,0,0,0,0,0c0,0,0.01,0.01,0.01,0.01c0,0,0,0,0,0c0,0,0.01,0.01,0.01,0.01c0,0,0,0,0,0
		c0,0,0.01,0.01,0.01,0.01c0,0,0,0,0,0c0,0,0.01,0.01,0.01,0.01c0,0,0,0,0,0c0,0,0.01,0.01,0.01,0.01c0,0,0,0,0,0
		c0,0,0.01,0.01,0.01,0.01c0,0,0,0,0,0c0,0,0.01,0.01,0.01,0.01c0,0,0,0,0,0c0,0,0.01,0.01,0.01,0.01c0,0,0,0,0,0
		c0,0,0.01,0.01,0.01,0.01c0,0,0,0,0,0c0.01,0.01,0.01,0.02,0.02,0.02l0,0c0,0,0.01,0.01,0.01,0.01c0,0,0,0,0,0
		c0,0,0.01,0.01,0.01,0.01c0,0,0,0,0,0c0.01,0.02,0.03,0.03,0.04,0.05c0,0,0,0,0,0c0.03,0.03,0.05,0.06,0.08,0.1L15.03,46
		C14.22,45.02,13.49,43.96,12.86,42.85L12.86,42.85z M17.71,48.73l-0.65,0.76c0.34,0.29,0.68,0.56,1.03,0.83l0,0
		c0.02,0.01,0.03,0.03,0.05,0.04l0,0c0,0,0.01,0.01,0.01,0.01l0,0c0,0,0.01,0.01,0.01,0.01l0,0c0.01,0.01,0.02,0.02,0.04,0.03l0,0
		c0,0,0.01,0.01,0.01,0.01l0,0c0,0,0.01,0.01,0.01,0.01c0,0,0,0,0,0c0.01,0.01,0.02,0.02,0.04,0.03l0,0c0,0,0.01,0.01,0.01,0.01
		c0,0,0,0,0,0c0,0,0.01,0.01,0.01,0.01c0,0,0,0,0,0c0,0,0.01,0.01,0.01,0.01l0,0c0.01,0.01,0.02,0.01,0.02,0.02l0,0
		c0,0,0.01,0.01,0.01,0.01c0,0,0,0,0,0c0,0,0.01,0.01,0.01,0.01c0,0,0,0,0,0c0,0,0.01,0.01,0.01,0.01l0,0
		c0.01,0.01,0.02,0.01,0.02,0.02l0,0c0,0,0.01,0.01,0.01,0.01c0,0,0,0,0,0c0,0,0.01,0.01,0.01,0.01c0,0,0,0,0,0
		c0,0,0.01,0.01,0.01,0.01c0,0,0,0,0,0c0,0,0.01,0.01,0.01,0.01l0,0c0,0,0.01,0.01,0.01,0.01c0,0,0,0,0,0c0,0,0.01,0.01,0.01,0.01
		c0,0,0,0,0,0c0,0,0.01,0.01,0.01,0.01l0,0c0,0,0.01,0.01,0.01,0.01c0,0,0,0,0,0c0,0,0.01,0.01,0.01,0.01l0,0
		c0.01,0.01,0.02,0.01,0.02,0.02c0,0,0,0,0,0c0,0,0.01,0.01,0.01,0.01l0,0c0,0,0.01,0.01,0.01,0.01c0,0,0,0,0,0
		c0,0,0.01,0.01,0.01,0.01c0,0,0,0,0,0c0,0,0.01,0.01,0.01,0.01l0,0c0,0,0.01,0.01,0.01,0.01l0,0c0,0,0.01,0.01,0.01,0.01
		c0,0,0,0,0,0c0,0,0.01,0.01,0.01,0.01c0,0,0,0,0,0c0,0,0.01,0.01,0.01,0.01l0,0c0.01,0.01,0.02,0.01,0.02,0.02l0,0
		c0,0,0.01,0.01,0.01,0.01c0,0,0,0,0,0c0,0,0.01,0.01,0.01,0.01c0,0,0,0,0,0c0,0,0.01,0.01,0.01,0.01l0,0
		c0.01,0.01,0.02,0.01,0.03,0.02l0,0c0,0,0.01,0.01,0.01,0.01c0,0,0,0,0,0c0,0,0.01,0.01,0.01,0.01l0,0c0,0,0.01,0.01,0.01,0.01l0,0
		c0.02,0.01,0.03,0.02,0.05,0.04l0,0c0.49,0.34,0.99,0.66,1.5,0.97l0.51-0.86C19.72,50.3,18.68,49.55,17.71,48.73L17.71,48.73z
		 M24.26,52.6l-0.35,0.94c0.65,0.25,1.32,0.46,2,0.65c0,0,0,0,0,0c0,0,0,0,0.01,0c0,0,0,0,0,0c0,0,0,0,0.01,0c0,0,0,0,0,0
		c0,0,0,0,0.01,0c0,0,0,0,0,0c0,0,0,0,0.01,0c0,0,0,0,0,0c0.01,0,0.01,0,0.02,0c0,0,0,0,0,0c0,0,0,0,0.01,0c0,0,0,0,0,0
		c0,0,0,0,0.01,0c0,0,0,0,0,0c0,0,0,0,0.01,0c0,0,0,0,0,0c0,0,0,0,0.01,0c0,0,0,0,0,0c0,0,0,0,0.01,0c0,0,0,0,0,0
		c0.01,0,0.01,0,0.02,0c0,0,0,0,0,0c0,0,0,0,0.01,0c0,0,0,0,0,0c0,0,0,0,0.01,0c0,0,0,0,0,0c0,0,0,0,0.01,0c0,0,0,0,0,0c0,0,0,0,0,0
		c0,0,0,0,0,0c0,0,0,0,0,0c0,0,0,0,0,0c0,0,0,0,0,0c0,0,0,0,0,0c0,0,0,0,0.01,0c0,0,0,0,0.01,0c0,0,0,0,0,0c0,0,0,0,0,0c0,0,0,0,0,0
		c0,0,0,0,0,0c0,0,0,0,0,0c0,0,0,0,0,0c0,0,0,0,0,0c0,0,0,0,0.01,0c0,0,0,0,0,0c0,0,0,0,0.01,0c0,0,0,0,0,0c0.01,0,0.02,0,0.03,0.01
		l0,0c0,0,0,0,0.01,0c0,0,0,0,0,0c0,0,0,0,0.01,0l0,0c0,0,0,0,0.01,0c0,0,0,0,0,0c0.01,0,0.03,0.01,0.04,0.01c0,0,0,0,0,0
		c0,0,0,0,0.01,0l0,0c0,0,0,0,0.01,0l0,0c0.44,0.11,0.88,0.21,1.33,0.3c0,0,0,0,0,0c0.01,0,0.01,0,0.02,0c0,0,0,0,0,0
		c0.01,0,0.02,0,0.04,0.01l0,0c0,0,0,0,0.01,0c0,0,0,0,0,0c0,0,0,0,0.01,0c0,0,0,0,0,0c0,0,0,0,0.01,0c0,0,0,0,0,0c0,0,0,0,0.01,0
		c0,0,0,0,0,0c0,0,0,0,0.01,0l0,0c0.01,0,0.01,0,0.02,0c0,0,0,0,0,0c0,0,0,0,0,0c0,0,0,0,0,0c0,0,0,0,0,0c0,0,0,0,0,0c0,0,0,0,0,0
		c0,0,0,0,0,0c0,0,0,0,0,0c0,0,0,0,0.01,0c0,0,0,0,0,0c0,0,0,0,0.01,0c0,0,0,0,0,0c0.01,0,0.01,0,0.02,0c0,0,0,0,0,0c0,0,0,0,0.01,0
		l0.18-0.98C26.69,53.39,25.45,53.05,24.26,52.6L24.26,52.6z M35.56,53.71C34.39,53.9,33.19,54,32,54l-0.25,0l-0.01,1
		c0.07,0,0.13,0,0.2,0h0c0,0,0.01,0,0.01,0c0,0,0,0,0,0c0,0,0,0,0.01,0c0,0,0,0,0,0c0,0,0,0,0.01,0c0,0,0,0,0,0c0,0,0,0,0.01,0
		c0,0,0,0,0,0c0,0,0,0,0.01,0c0,0,0,0,0,0c0,0,0,0,0.01,0c0,0,0,0,0,0c0,0,0.01,0,0.01,0l0,0c0,0,0.01,0,0.01,0c0,0,0,0,0,0
		c0,0,0.01,0,0.01,0c0,0,0,0,0,0c0,0,0.01,0,0.01,0c0,0,0,0,0,0c0,0,0.01,0,0.01,0c0,0,0,0,0,0c0.01,0,0.02,0,0.03,0c0,0,0,0,0,0
		c0,0,0.01,0,0.01,0c0,0,0,0,0,0c0,0,0.01,0,0.01,0c0,0,0,0,0,0c0,0,0.01,0,0.01,0c0,0,0,0,0,0c0,0,0.01,0,0.01,0l0,0
		c0,0,0.01,0,0.01,0c0,0,0,0,0,0c0,0,0.01,0,0.01,0c0,0,0,0,0,0c0,0,0.01,0,0.01,0c0,0,0,0,0,0c0,0,0.01,0,0.01,0c0,0,0,0,0,0
		c0,0,0.01,0,0.01,0c0,0,0,0,0,0c0,0,0.01,0,0.01,0c0,0,0,0,0,0c0,0,0.01,0,0.01,0c0,0,0,0,0,0c0,0,0.01,0,0.01,0c0,0,0,0,0,0
		c0,0,0.01,0,0.01,0c0,0,0,0,0,0c0,0,0.01,0,0.01,0c0,0,0,0,0,0c0,0,0.01,0,0.01,0c0,0,0,0,0,0c0,0,0.01,0,0.01,0c0,0,0,0,0,0
		c0,0,0.01,0,0.01,0c0,0,0,0,0,0c0,0,0.01,0,0.01,0c0,0,0,0,0,0c0,0,0.01,0,0.01,0c0,0,0,0,0,0c0,0,0.01,0,0.01,0c0,0,0,0,0,0
		c0,0,0.01,0,0.01,0c0,0,0,0,0,0c0,0,0.01,0,0.01,0c0,0,0,0,0,0c0,0,0.01,0,0.01,0c0,0,0,0,0,0c0,0,0.01,0,0.01,0c0,0,0,0,0,0
		c0,0,0.01,0,0.01,0c0,0,0,0,0,0c0,0,0.01,0,0.01,0c0,0,0,0,0,0c0,0,0.01,0,0.01,0c0,0,0,0,0,0c0,0,0.01,0,0.01,0c0,0,0,0,0,0
		c0,0,0.01,0,0.01,0l0,0c0,0,0.01,0,0.01,0c0,0,0,0,0,0c0.01,0,0.02,0,0.03,0c0,0,0,0,0,0c0,0,0.01,0,0.01,0l0,0c0,0,0.01,0,0.01,0
		l0,0c0,0,0.01,0,0.01,0c0,0,0,0,0,0c0.01,0,0.02,0,0.03,0c0,0,0,0,0,0c0,0,0.01,0,0.01,0l0,0c0,0,0.01,0,0.01,0l0,0
		c0,0,0.01,0,0.01,0c0,0,0,0,0,0c0.01,0,0.02,0,0.03,0c0,0,0,0,0,0c0,0,0.01,0,0.01,0c0,0,0,0,0,0c0,0,0.01,0,0.01,0l0,0
		c0,0,0.01,0,0.01,0c0,0,0,0,0,0c0,0,0.01,0,0.01,0h0c0,0,0.01,0,0.01,0c0,0,0,0,0,0c0,0,0.01,0,0.01,0c0,0,0,0,0,0
		c0,0,0.01,0,0.01,0l0,0c0,0,0.01,0,0.01,0c0,0,0,0,0,0c0.01,0,0.02,0,0.03,0l0,0c0.01,0,0.02,0,0.03,0l0,0c0,0,0.01,0,0.01,0l0,0
		c0,0,0.01,0,0.01,0c0,0,0,0,0,0c0,0,0.01,0,0.01,0l0,0c0,0,0.01,0,0.01,0l0,0c0,0,0.01,0,0.01,0c0,0,0,0,0,0c0,0,0.01,0,0.01,0l0,0
		c0.01,0,0.02,0,0.03,0c0,0,0,0,0,0c0.01,0,0.02,0,0.03,0c0,0,0,0,0,0c0,0,0.01,0,0.01,0l0,0c0.01,0,0.02,0,0.03,0l0,0
		c0.01,0,0.02,0,0.03,0c0,0,0,0,0,0c0,0,0.01,0,0.01,0h0c0.01,0,0.02,0,0.03,0l0,0c0.01,0,0.02,0,0.03,0l0,0c0.01,0,0.03,0,0.04,0
		c0,0,0,0,0,0c0.01,0,0.02,0,0.03,0l0,0c0.01,0,0.03,0,0.04,0c0,0,0,0,0,0c0.01,0,0.02,0,0.03,0l0,0c0.02,0,0.05,0,0.07,0l0,0
		c0.24-0.01,0.48-0.03,0.71-0.05l0,0c0.01,0,0.03,0,0.04,0l0,0c0.02,0,0.05,0,0.07-0.01l0,0c0.03,0,0.07-0.01,0.1-0.01l0,0
		c0.02,0,0.05,0,0.07-0.01l0,0c0.01,0,0.02,0,0.03,0l0,0c0,0,0.01,0,0.01,0c0,0,0,0,0,0c0.01,0,0.02,0,0.03,0l0,0
		c0.01,0,0.02,0,0.03,0l0,0c0,0,0.01,0,0.01,0c0,0,0,0,0,0c0.01,0,0.02,0,0.03,0l0,0c0,0,0.01,0,0.01,0c0,0,0,0,0,0
		c0,0,0.01,0,0.01,0c0,0,0,0,0,0c0,0,0.01,0,0.01,0c0,0,0,0,0,0c0,0,0.01,0,0.01,0c0,0,0,0,0,0c0,0,0.01,0,0.01,0c0,0,0,0,0,0
		c0,0,0.01,0,0.01,0c0,0,0,0,0,0c0,0,0.01,0,0.01,0c0,0,0,0,0,0c0,0,0.01,0,0.01,0c0,0,0,0,0,0c0,0,0.01,0,0.01,0c0,0,0,0,0,0
		c0,0,0.01,0,0.01,0c0,0,0,0,0,0c0,0,0.01,0,0.01,0c0,0,0,0,0,0c0,0,0.01,0,0.01,0c0,0,0,0,0,0c0,0,0.01,0,0.01,0c0,0,0,0,0,0
		c0,0,0.01,0,0.01,0c0,0,0,0,0,0c0,0,0.01,0,0.01,0c0,0,0,0,0,0c0,0,0.01,0,0.01,0c0,0,0,0,0,0c0,0,0.01,0,0.01,0c0,0,0,0,0,0
		c0,0,0.01,0,0.01,0c0,0,0,0,0,0c0,0,0.01,0,0.01,0c0,0,0,0,0,0c0,0,0.01,0,0.01,0c0,0,0,0,0,0c0,0,0.01,0,0.01,0c0,0,0,0,0.01,0
		c0,0,0.01,0,0.01,0c0,0,0,0,0.01,0c0,0,0.01,0,0.01,0c0,0,0,0,0,0c0,0,0.01,0,0.01,0c0,0,0,0,0,0c0,0,0.01,0,0.01,0c0,0,0,0,0.01,0
		c0,0,0,0,0.01,0c0,0,0,0,0.01,0c0,0,0.01,0,0.01,0c0,0,0,0,0.01,0c0,0,0.01,0,0.01,0c0,0,0,0,0.01,0c0,0,0,0,0.01,0c0,0,0,0,0.01,0
		c0,0,0.01,0,0.01,0c0,0,0,0,0.01,0c0,0,0,0,0,0c0,0,0.01,0,0.01,0c0,0,0,0,0,0c0,0,0,0,0.01,0c0,0,0,0,0,0c0,0,0.01,0,0.01,0
		c0,0,0,0,0,0c0.01,0,0.02,0,0.02,0c0,0,0,0,0,0c0,0,0.01,0,0.01,0c0,0,0,0,0,0c0,0,0,0,0.01,0c0,0,0,0,0,0c0,0,0.01,0,0.02,0
		c0,0,0,0,0,0c0.01,0,0.02,0,0.03,0c0,0,0,0,0,0c0.2-0.03,0.4-0.06,0.59-0.09L35.56,53.71L35.56,53.71z M42.74,51.2
		c-1.11,0.62-2.28,1.15-3.48,1.57l0.33,0.94c0.86-0.3,1.7-0.65,2.51-1.05c0,0,0,0,0,0c0.02-0.01,0.04-0.02,0.05-0.03l0,0
		c0.01,0,0.01,0,0.02-0.01c0,0,0,0,0,0c0.01-0.01,0.03-0.01,0.04-0.02c0,0,0,0,0,0c0,0,0.01,0,0.01-0.01c0,0,0,0,0,0
		c0,0,0.01,0,0.01-0.01c0,0,0,0,0,0c0.01,0,0.01,0,0.01-0.01l0,0c0.01,0,0.01-0.01,0.02-0.01c0,0,0,0,0,0c0,0,0.01,0,0.01-0.01
		c0,0,0,0,0,0c0,0,0.01,0,0.01-0.01c0,0,0,0,0,0c0.01,0,0.01-0.01,0.02-0.01c0,0,0,0,0,0c0,0,0.01,0,0.01-0.01c0,0,0,0,0,0
		c0,0,0.01,0,0.01-0.01c0,0,0,0,0,0c0,0,0.01,0,0.01-0.01c0,0,0,0,0,0c0,0,0,0,0.01,0c0,0,0.01,0,0.01,0c0,0,0,0,0.01,0
		c0,0,0,0,0.01,0c0,0,0.01,0,0.01,0c0,0,0,0,0.01,0c0,0,0.01,0,0.01,0c0,0,0,0,0.01,0c0,0,0,0,0.01,0c0,0,0.01,0,0.01,0
		c0,0,0,0,0.01,0c0,0,0.01,0,0.01,0c0,0,0,0,0.01,0c0,0,0,0,0.01,0c0,0,0,0,0.01,0c0,0,0,0,0.01,0c0,0,0.01,0,0.01,0c0,0,0,0,0.01,0
		c0,0,0,0,0.01,0c0,0,0.01,0,0.01,0c0,0,0,0,0.01,0c0,0,0.01,0,0.01,0c0,0,0,0,0,0c0,0,0.01,0,0.01,0c0,0,0,0,0.01,0c0,0,0,0,0.01,0
		c0,0,0,0,0,0c0,0,0.01,0,0.01,0c0,0,0,0,0.01,0c0,0,0.01,0,0.01,0c0,0,0,0,0,0c0,0,0.01,0,0.01-0.01c0,0,0,0,0,0c0,0,0.01,0,0.01,0
		c0,0,0,0,0.01,0c0,0,0.01,0,0.01,0c0,0,0,0,0,0c0,0,0.01,0,0.01-0.01c0,0,0,0,0,0c0,0,0.01,0,0.01-0.01c0,0,0,0,0,0
		c0,0,0.01,0,0.01-0.01c0,0,0,0,0,0c0,0,0.01,0,0.01,0c0,0,0,0,0,0c0,0,0.01,0,0.01-0.01c0,0,0,0,0,0c0,0,0.01,0,0.01-0.01
		c0,0,0,0,0,0c0,0,0.01,0,0.01-0.01c0,0,0,0,0,0c0,0,0.01,0,0.01-0.01c0,0,0,0,0,0c0,0,0.01,0,0.01-0.01c0,0,0,0,0,0
		c0,0,0.01,0,0.01-0.01c0,0,0,0,0,0c0,0,0.01,0,0.01-0.01c0,0,0,0,0,0c0,0,0.01,0,0.01-0.01c0,0,0,0,0,0c0,0,0.01,0,0.01-0.01l0,0
		c0,0,0.01,0,0.01-0.01c0,0,0,0,0,0c0,0,0.01,0,0.01-0.01c0,0,0,0,0,0c0,0,0.01,0,0.01-0.01c0,0,0,0,0,0c0,0,0.01,0,0.01-0.01l0,0
		c0.01,0,0.02-0.01,0.03-0.01l0,0c0,0,0.01,0,0.01-0.01c0,0,0,0,0,0c0,0,0.01,0,0.01-0.01c0,0,0,0,0,0
		c0.02-0.01,0.04-0.02,0.05-0.03l0,0c0,0,0.01,0,0.01-0.01l0,0c0.08-0.04,0.16-0.09,0.24-0.14L42.74,51.2L42.74,51.2z M48.64,46.39
		c-0.83,0.96-1.76,1.86-2.74,2.66l0.63,0.77c0.8-0.65,1.55-1.36,2.26-2.11l0,0c0.01-0.02,0.03-0.03,0.04-0.05l0,0
		c0,0,0.01-0.01,0.01-0.01l0,0c0,0,0.01-0.01,0.01-0.01c0,0,0,0,0,0c0,0,0.01-0.01,0.01-0.01c0,0,0,0,0,0c0,0,0.01-0.01,0.01-0.01
		c0,0,0,0,0,0c0,0,0.01-0.01,0.01-0.01c0,0,0,0,0,0c0,0,0.01-0.01,0.01-0.01c0,0,0,0,0,0c0,0,0.01-0.01,0.01-0.01c0,0,0,0,0,0
		c0,0,0.01-0.01,0.01-0.01c0,0,0,0,0,0c0,0,0.01-0.01,0.01-0.01l0,0c0,0,0.01-0.01,0.01-0.01c0,0,0,0,0,0c0,0,0.01-0.01,0.01-0.01
		c0,0,0,0,0,0c0,0,0.01-0.01,0.01-0.01c0,0,0,0,0,0c0,0,0.01-0.01,0.01-0.01c0,0,0,0,0,0c0,0,0-0.01,0.01-0.01c0,0,0,0,0,0
		c0,0,0,0,0.01-0.01c0,0,0,0,0,0c0,0,0-0.01,0.01-0.01c0,0,0,0,0,0c0,0,0.01-0.01,0.01-0.01c0,0,0,0,0,0c0,0,0.01-0.01,0.01-0.01
		c0,0,0,0,0,0c0,0,0,0,0.01-0.01c0,0,0,0,0.01-0.01c0,0,0,0,0.01-0.01c0,0,0,0,0.01-0.01c0,0,0,0,0-0.01c0,0,0,0,0.01-0.01
		c0,0,0,0,0.01-0.01c0,0,0,0,0-0.01c0,0,0,0,0.01-0.01c0,0,0,0,0.01-0.01c0,0,0,0,0,0c0,0,0.01-0.01,0.01-0.01c0,0,0,0,0,0
		c0,0,0.01-0.01,0.01-0.01c0,0,0,0,0,0c0,0,0.01-0.01,0.01-0.01c0,0,0,0,0,0c0.01-0.01,0.01-0.01,0.02-0.02c0,0,0,0,0,0
		c0,0,0.01-0.01,0.01-0.01c0,0,0,0,0,0c0,0,0.01-0.01,0.01-0.01c0,0,0,0,0,0c0.08-0.09,0.16-0.18,0.24-0.28L48.64,46.39L48.64,46.39
		z M52.56,39.86c-0.45,1.19-1.02,2.34-1.67,3.44l0.86,0.51c0.45-0.75,0.86-1.52,1.22-2.32c0,0,0,0,0,0c0,0,0-0.01,0.01-0.01
		c0,0,0,0,0,0c0-0.01,0-0.01,0.01-0.01c0,0,0,0,0,0c0-0.01,0.01-0.02,0.01-0.02c0,0,0,0,0,0c0-0.01,0-0.01,0.01-0.01c0,0,0,0,0,0
		c0,0,0-0.01,0.01-0.01c0,0,0,0,0,0c0-0.01,0-0.01,0.01-0.01c0,0,0,0,0,0c0-0.01,0.01-0.02,0.01-0.02c0,0,0,0,0,0
		c0,0,0-0.01,0.01-0.01c0,0,0,0,0,0c0,0,0-0.01,0-0.01c0,0,0,0,0,0c0,0,0-0.01,0-0.01c0,0,0,0,0,0c0,0,0,0,0-0.01c0,0,0,0,0-0.01
		c0,0,0-0.01,0-0.01c0,0,0,0,0-0.01c0,0,0-0.01,0-0.01c0,0,0,0,0,0c0,0,0-0.01,0-0.01c0,0,0,0,0-0.01c0,0,0,0,0-0.01
		c0,0,0-0.01,0-0.01c0,0,0,0,0-0.01c0,0,0-0.01,0-0.01c0,0,0,0,0-0.01c0,0,0-0.01,0-0.01c0,0,0-0.01,0-0.01c0,0,0,0,0-0.01
		c0,0,0,0,0-0.01c0,0,0-0.01,0-0.01c0,0,0,0,0-0.01c0,0,0-0.01,0-0.01c0,0,0,0,0-0.01c0,0,0-0.01,0-0.01c0,0,0,0,0,0
		c0,0,0-0.01,0-0.01c0,0,0,0,0-0.01c0,0,0-0.01,0-0.01c0,0,0,0,0,0c0,0,0-0.01,0-0.01c0,0,0,0,0,0c0,0,0-0.01,0-0.01c0,0,0,0,0,0
		c0,0,0-0.01,0.01-0.01c0,0,0,0,0,0c0,0,0-0.01,0-0.01c0,0,0,0,0,0c0,0,0-0.01,0.01-0.01c0,0,0,0,0,0c0,0,0-0.01,0.01-0.01
		c0,0,0,0,0,0c0,0,0-0.01,0.01-0.01c0,0,0,0,0,0c0,0,0-0.01,0.01-0.01c0,0,0,0,0,0c0-0.01,0.01-0.02,0.01-0.03l0,0
		c0,0,0-0.01,0.01-0.01l0,0c0.1-0.25,0.2-0.49,0.3-0.74L52.56,39.86L52.56,39.86z M54,32.38c-0.02,1.28-0.15,2.56-0.39,3.8
		l0.98,0.19c0.25-1.29,0.39-2.62,0.41-3.97L54,32.38L54,32.38z M53.76,24.53l-0.95,0.32c0.41,1.2,0.72,2.45,0.92,3.71l0.99-0.15
		c-0.14-0.92-0.34-1.82-0.59-2.69l0,0c0-0.02-0.01-0.03-0.01-0.05l0,0c0,0,0,0,0-0.01c0,0,0,0,0,0c0-0.01-0.01-0.03-0.01-0.04
		c0,0,0,0,0,0c0,0,0,0,0-0.01l0,0c0,0,0,0,0-0.01c0,0,0,0,0,0c0,0,0,0,0-0.01l0,0c0-0.01-0.01-0.02-0.01-0.03l0,0c0,0,0,0,0-0.01
		c0,0,0,0,0,0c0,0,0,0,0-0.01c0,0,0,0,0,0c0,0,0,0,0,0c0,0,0,0,0,0c0,0,0,0,0,0c0,0,0,0,0,0c0,0,0,0,0-0.01c0,0,0,0,0,0
		c0,0,0-0.01,0-0.01l0,0c0,0,0,0,0-0.01c0,0,0,0,0,0c0,0,0,0,0,0c0,0,0,0,0,0c0,0,0,0,0,0c0,0,0,0,0,0c0,0,0,0,0,0c0,0,0,0,0,0
		c0,0,0,0,0,0c0,0,0,0,0,0c0,0,0,0,0,0c0,0,0,0,0,0c0,0,0,0,0-0.01c0,0,0,0,0-0.01c0,0,0,0,0,0c0,0,0,0,0,0c0,0,0,0,0,0c0,0,0,0,0,0
		c0,0,0,0,0,0c0,0,0,0,0,0c0,0,0,0,0,0c0,0,0,0,0,0c0,0,0,0,0,0c0,0,0,0,0,0c0,0,0,0,0,0c0,0,0,0,0,0c0,0,0,0,0,0c0,0,0,0,0-0.01
		c0,0,0,0,0,0c0,0,0,0,0-0.01c0,0,0,0,0,0c0,0,0,0,0,0c0,0,0,0,0,0c0,0,0,0,0,0c0,0,0,0,0,0c0,0,0,0,0,0c0,0,0,0,0,0c0,0,0,0,0-0.01
		c0,0,0,0,0,0c0,0,0,0,0-0.01c0,0,0,0,0,0c0,0,0-0.01,0-0.01c0,0,0,0,0,0c0,0,0,0,0-0.01c0,0,0,0,0,0c0,0,0,0,0-0.01c0,0,0,0,0,0
		c0,0,0,0,0,0c0,0,0,0,0,0c0,0,0,0,0,0c0,0,0,0,0,0c0,0,0,0,0,0c0,0,0,0,0,0c0,0,0,0,0-0.01c0,0,0,0,0,0c0-0.01,0-0.01,0-0.02
		c0,0,0,0,0,0c0,0,0,0,0-0.01c0,0,0,0,0,0c0,0,0,0,0-0.01c0,0,0,0,0,0c0,0,0,0,0-0.01c0,0,0,0,0,0c0,0,0,0,0-0.01c0,0,0,0,0,0
		c0,0,0,0,0-0.01c0,0,0,0,0,0c0-0.01,0-0.01-0.01-0.02c0,0,0,0,0,0c0,0,0,0,0-0.01c0,0,0,0,0,0c0,0,0,0,0-0.01c0,0,0,0,0,0
		c0,0,0,0,0-0.01c0,0,0,0,0,0c0,0,0,0,0-0.01c0,0,0,0,0,0c0,0,0,0,0-0.01c0,0,0,0,0,0c0-0.01,0-0.01-0.01-0.02c0,0,0,0,0,0
		c0,0,0,0,0-0.01c0,0,0,0,0,0c0,0,0,0,0-0.01c0,0,0,0,0,0c0,0,0,0,0-0.01c0,0,0,0,0,0c0,0,0,0,0-0.01c0,0,0,0,0,0c0,0,0,0,0-0.01
		c0,0,0,0,0,0c0-0.01-0.01-0.02-0.01-0.03c0,0,0,0,0,0c0,0,0-0.01,0-0.01c0,0,0,0,0,0c0,0,0-0.01,0-0.01l0,0
		C53.88,24.88,53.82,24.71,53.76,24.53L53.76,24.53z M49.91,17.57l-0.78,0.63c0.8,0.99,1.52,2.06,2.13,3.17l0.88-0.48
		C51.49,19.71,50.74,18.6,49.91,17.57L49.91,17.57z M43.92,12.33l-0.52,0.85c1.09,0.66,2.12,1.42,3.08,2.26l0.66-0.75
		c-0.71-0.62-1.46-1.2-2.24-1.73c0,0,0,0,0,0c0,0-0.01-0.01-0.01-0.01c0,0,0,0,0,0c0,0-0.01-0.01-0.01-0.01c0,0,0,0,0,0
		c0,0-0.01-0.01-0.01-0.01c0,0,0,0,0,0c-0.01,0-0.01-0.01-0.02-0.01c0,0,0,0,0,0c0,0-0.01-0.01-0.01-0.01c0,0,0,0,0,0
		c0,0-0.01-0.01-0.01-0.01c0,0,0,0,0,0c0,0-0.01-0.01-0.01-0.01c0,0,0,0,0,0c-0.01,0-0.01-0.01-0.02-0.01c0,0,0,0,0,0
		c0,0-0.01-0.01-0.01-0.01c0,0,0,0,0,0c0,0-0.01,0-0.01-0.01c0,0,0,0,0,0c0,0-0.01,0-0.01-0.01c0,0,0,0,0,0c0,0-0.01,0-0.01-0.01
		c0,0,0,0,0,0c0,0,0,0-0.01,0c0,0,0,0,0,0c0,0-0.01,0-0.01-0.01c0,0,0,0,0,0c0,0-0.01,0-0.01-0.01c0,0,0,0,0,0c0,0-0.01,0-0.01-0.01
		c0,0,0,0,0,0c0,0,0,0-0.01,0c0,0-0.01,0-0.01-0.01c0,0,0,0-0.01,0c0,0-0.01,0-0.01-0.01c0,0,0,0-0.01,0c0,0,0,0-0.01,0
		c0,0,0,0-0.01,0c0,0,0,0-0.01,0c0,0,0,0-0.01,0c0,0,0,0-0.01,0c0,0,0,0,0,0c0,0-0.01,0-0.01-0.01c0,0,0,0,0,0c0,0-0.01,0-0.01-0.01
		c0,0,0,0,0,0c0,0-0.01,0-0.01-0.01c0,0,0,0-0.01,0c0,0,0,0-0.01,0c0,0,0,0-0.01,0c0,0-0.01,0-0.01-0.01c0,0,0,0,0,0
		c0,0-0.01,0-0.01-0.01c0,0,0,0,0,0c0,0-0.01,0-0.01-0.01c0,0,0,0,0,0c0,0-0.01,0-0.01-0.01c0,0,0,0,0,0c0,0-0.01,0-0.01-0.01
		c0,0,0,0,0,0c0,0-0.01,0-0.01-0.01c0,0,0,0,0,0c0,0-0.01,0-0.01-0.01c0,0,0,0,0,0c0,0-0.01,0-0.01-0.01c0,0,0,0,0,0
		c0,0-0.01,0-0.01-0.01c0,0,0,0,0,0c0,0-0.01,0-0.01-0.01c0,0,0,0,0,0c0,0-0.01,0-0.01-0.01c0,0,0,0,0,0c0,0-0.01,0-0.01-0.01
		c0,0,0,0,0,0c0,0-0.01,0-0.01-0.01c0,0,0,0,0,0c0,0-0.01,0-0.01-0.01c0,0,0,0,0,0c0,0-0.01,0-0.01-0.01c0,0,0,0,0,0
		c0,0-0.01,0-0.01-0.01c0,0,0,0,0,0c0,0-0.01,0-0.01-0.01c0,0,0,0,0,0c0,0-0.01,0-0.01-0.01c0,0,0,0,0,0c0,0-0.01,0-0.01-0.01
		c0,0,0,0,0,0c0,0-0.01,0-0.01-0.01c0,0,0,0,0,0c0,0-0.01-0.01-0.01-0.01c0,0,0,0,0,0c0,0-0.01-0.01-0.01-0.01c0,0,0,0,0,0
		c0,0-0.01,0-0.01-0.01c0,0,0,0,0,0c0,0-0.01,0-0.01-0.01c0,0,0,0,0,0c0,0-0.01-0.01-0.01-0.01c0,0,0,0,0,0
		c-0.01-0.01-0.02-0.01-0.03-0.02l0,0c0,0-0.01-0.01-0.01-0.01l0,0c0,0-0.01-0.01-0.01-0.01c0,0,0,0,0,0
		c-0.02-0.01-0.04-0.02-0.05-0.03l0,0C44.04,12.4,43.98,12.36,43.92,12.33L43.92,12.33z M36.5,9.44l-0.19,0.98
		c1.25,0.25,2.48,0.61,3.67,1.07l0.36-0.93c-0.48-0.18-0.96-0.35-1.45-0.51c0,0,0,0,0,0c-0.02-0.01-0.03-0.01-0.05-0.02c0,0,0,0,0,0
		c0,0,0,0-0.01,0c0,0,0,0,0,0c0,0-0.01,0-0.01,0c0,0,0,0,0,0c-0.02-0.01-0.03-0.01-0.05-0.02c0,0,0,0,0,0c0,0,0,0-0.01,0
		c0,0,0,0,0,0C38.75,10.01,38.73,10,38.71,10c0,0,0,0,0,0c0,0,0,0-0.01,0c0,0,0,0,0,0c-0.02-0.01-0.03-0.01-0.05-0.02c0,0,0,0,0,0
		c0,0,0,0-0.01,0c0,0,0,0,0,0c0,0,0,0-0.01,0c0,0,0,0,0,0c0,0-0.01,0-0.01,0c0,0,0,0,0,0c-0.01,0-0.02-0.01-0.03-0.01c0,0,0,0,0,0
		c0,0-0.01,0-0.01,0c0,0,0,0,0,0c0,0,0,0-0.01,0c0,0,0,0,0,0c0,0,0,0-0.01,0c0,0,0,0,0,0c0,0,0,0-0.01,0c0,0,0,0,0,0
		c-0.01,0-0.02,0-0.03-0.01c0,0,0,0,0,0c0,0,0,0-0.01,0c0,0,0,0,0,0c0,0,0,0-0.01,0c0,0,0,0,0,0c0,0,0,0-0.01,0c0,0,0,0,0,0
		c0,0,0,0-0.01,0c0,0,0,0,0,0c-0.01,0-0.02-0.01-0.03-0.01c0,0,0,0,0,0c0,0,0,0-0.01,0c0,0,0,0,0,0c0,0,0,0-0.01,0c0,0,0,0,0,0
		c0,0,0,0-0.01,0c0,0,0,0,0,0c0,0,0,0-0.01,0c0,0,0,0,0,0c-0.01,0-0.02,0-0.02-0.01c0,0,0,0,0,0c0,0,0,0-0.01,0c0,0,0,0,0,0
		c0,0,0,0-0.01,0c0,0,0,0,0,0c0,0,0,0-0.01,0c0,0,0,0,0,0c0,0,0,0-0.01,0c0,0,0,0,0,0c0,0,0,0-0.01,0c0,0,0,0,0,0
		c-0.01,0-0.01,0-0.02,0c0,0,0,0,0,0c0,0,0,0-0.01,0c0,0,0,0,0,0c0,0,0,0-0.01,0c0,0,0,0,0,0c0,0,0,0,0,0c0,0,0,0,0,0c0,0,0,0,0,0
		c0,0,0,0,0,0c0,0,0,0,0,0c0,0,0,0,0,0c0,0,0,0,0,0c0,0,0,0-0.01,0c0,0,0,0-0.01,0c0,0,0,0,0,0c0,0,0,0-0.01,0c0,0,0,0,0,0
		c0,0,0,0-0.01,0c0,0,0,0,0,0c0,0,0,0,0,0c0,0,0,0,0,0c0,0,0,0,0,0c0,0,0,0,0,0c0,0,0,0,0,0c0,0,0,0,0,0c0,0,0,0-0.01,0c0,0,0,0,0,0
		c0,0,0,0-0.01,0c0,0,0,0,0,0c0,0,0,0-0.01,0c0,0,0,0,0,0c0,0,0,0-0.01,0c0,0,0,0,0,0c0,0,0,0-0.01,0c0,0,0,0,0,0c0,0,0,0,0,0
		c0,0,0,0,0,0c0,0,0,0,0,0c0,0,0,0,0,0c0,0,0,0,0,0c0,0,0,0,0,0c0,0,0,0,0,0c0,0-0.01,0-0.01,0c0,0,0,0,0,0c0,0,0,0,0,0c0,0,0,0,0,0
		c0,0,0,0,0,0c0,0,0,0,0,0c0,0,0,0,0,0c0,0,0,0,0,0c0,0,0,0,0,0c0,0,0,0,0,0c0,0,0,0,0,0c0,0,0,0,0,0c0,0,0,0,0,0c0,0,0,0,0,0
		c0,0,0,0,0,0c0,0,0,0-0.01,0c0,0,0,0-0.01,0c0,0,0,0,0,0c0,0,0,0,0,0c0,0,0,0,0,0c0,0,0,0,0,0c0,0,0,0,0,0c0,0,0,0,0,0c0,0,0,0,0,0
		c0,0,0,0,0,0c0,0,0,0,0,0c0,0,0,0-0.01,0c0,0,0,0,0,0c0,0,0,0-0.01,0c0,0,0,0,0,0c0,0-0.01,0-0.01,0c0,0,0,0,0,0c0,0,0,0-0.01,0
		c0,0,0,0,0,0c0,0,0,0-0.01,0c0,0,0,0,0,0c0,0,0,0-0.01,0c0,0,0,0,0,0c0,0,0,0-0.01,0c0,0,0,0,0,0c0,0,0,0,0,0c0,0,0,0,0,0
		c0,0,0,0-0.01,0c0,0,0,0,0,0c0,0-0.01,0-0.01,0c0,0,0,0,0,0c0,0,0,0-0.01,0c0,0,0,0,0,0c0,0,0,0-0.01,0c0,0,0,0,0,0c0,0,0,0-0.01,0
		c0,0,0,0,0,0c0,0,0,0-0.01,0c0,0,0,0,0,0c0,0,0,0-0.01,0c0,0,0,0,0,0c0,0,0,0-0.01,0l0,0c-0.01,0-0.02-0.01-0.03-0.01l0,0
		c0,0,0,0-0.01,0l0,0c0,0,0,0-0.01,0l0,0c0,0,0,0-0.01,0c0,0,0,0,0,0c0,0,0,0-0.01,0l0,0C37.42,9.64,36.96,9.53,36.5,9.44L36.5,9.44
		z M32,9v1c0.17,0,0.34,0,0.51,0.01l0.02-1C32.38,9,32.22,9,32.07,9c0,0,0,0,0,0c0,0-0.01,0-0.01,0c0,0,0,0,0,0c0,0,0,0-0.01,0
		c0,0,0,0,0,0c0,0,0,0-0.01,0c0,0,0,0,0,0c0,0,0,0-0.01,0c0,0,0,0,0,0c0,0,0,0-0.01,0c0,0,0,0,0,0c0,0,0,0-0.01,0
		C32.01,9,32.01,9,32,9C32.01,9,32,9,32,9L32,9z"/>
</g>
<g>
	<g>
		<g>
			<circle class="st2" cx="18.14" cy="17.82" r="7.4"/>
		</g>
		<g id="kin_logo_32_32_Purple_11_">
			<g id="Fill-1_11_">
				<path class="st4" d="M19.17,17.81v0.04c0,0.53,0.43,0.97,0.96,0.97h0.53c0.22,0,0.4,0.18,0.4,0.4v1.63h-1.65
					c-0.22,0-0.4-0.18-0.4-0.4v-0.67c0-0.53-0.43-0.97-0.96-0.97h-0.04c-0.53,0-0.96,0.44-0.96,0.97v1.07h-1.84v-6.03h1.84v1.08
					c0,0.53,0.43,0.97,0.96,0.97h0.04c0.53,0,0.96-0.44,0.96-0.97v-0.68c0-0.22,0.18-0.4,0.4-0.4h1.65v1.63c0,0.22-0.18,0.4-0.4,0.4
					h-0.53C19.61,16.84,19.17,17.27,19.17,17.81"/>
			</g>
		</g>
	</g>
	<g>
		<g>
			<circle class="st2" cx="48.31" cy="50" r="3.58"/>
		</g>
		<g id="kin_logo_32_32_Purple_10_">
			<g id="Fill-1_10_">
				<path class="st4" d="M48.81,49.99v0.02c0,0.26,0.21,0.47,0.46,0.47h0.25c0.11,0,0.19,0.09,0.19,0.19v0.79h-0.8
					c-0.11,0-0.19-0.09-0.19-0.19v-0.32c0-0.26-0.21-0.47-0.46-0.47h-0.02c-0.26,0-0.46,0.21-0.46,0.47v0.52H46.9v-2.91h0.89v0.52
					c0,0.26,0.21,0.47,0.46,0.47h0.02c0.26,0,0.46-0.21,0.46-0.47v-0.33c0-0.11,0.09-0.19,0.19-0.19h0.8v0.79
					c0,0.11-0.09,0.19-0.19,0.19h-0.25C49.02,49.52,48.81,49.73,48.81,49.99"/>
			</g>
		</g>
	</g>
	<g>
		<g>
			<circle class="st2" cx="51.5" cy="21.19" r="2.77"/>
		</g>
		<g id="kin_logo_32_32_Purple_7_">
			<g id="Fill-1_7_">
				<path class="st4" d="M51.89,21.18v0.01c0,0.2,0.16,0.36,0.36,0.36h0.2c0.08,0,0.15,0.07,0.15,0.15v0.61h-0.62
					c-0.08,0-0.15-0.07-0.15-0.15v-0.25c0-0.2-0.16-0.36-0.36-0.36h-0.01c-0.2,0-0.36,0.16-0.36,0.36v0.4h-0.69v-2.25h0.69v0.4
					c0,0.2,0.16,0.36,0.36,0.36h0.01c0.2,0,0.36-0.16,0.36-0.36v-0.26c0-0.08,0.07-0.15,0.15-0.15h0.62v0.61
					c0,0.08-0.07,0.15-0.15,0.15h-0.2C52.05,20.82,51.89,20.98,51.89,21.18"/>
			</g>
		</g>
	</g>
	<g>
		<g>
			<circle class="st2" cx="15.14" cy="47.82" r="5.4"/>
		</g>
		<g id="kin_logo_32_32_Purple_6_">
			<g id="Fill-1_6_">
				<path class="st4" d="M15.89,47.81v0.03c0,0.39,0.32,0.71,0.7,0.71h0.38c0.16,0,0.29,0.13,0.29,0.29v1.19h-1.2
					c-0.16,0-0.29-0.13-0.29-0.29v-0.49c0-0.39-0.32-0.71-0.7-0.71h-0.03c-0.39,0-0.7,0.32-0.7,0.71v0.78h-1.34v-4.4h1.34v0.79
					c0,0.39,0.32,0.71,0.7,0.71h0.03c0.39,0,0.7-0.32,0.7-0.71v-0.5c0-0.16,0.13-0.29,0.29-0.29h1.2v1.19
					c0,0.16-0.13,0.29-0.29,0.29H16.6C16.21,47.11,15.89,47.42,15.89,47.81"/>
			</g>
		</g>
	</g>
</g>
<g>
	<g>
		<polygon class="st5" points="58.11,12.94 49.97,4.8 34.8,19.97 46.03,31.2 58.11,19.12 		"/>
	</g>
	<g>
		<g>
			<polygon class="st1" points="55.02,16.03 58.11,19.12 58.11,12.94 			"/>
		</g>
		<g>
			<g>
				<g>
					<path class="st1" d="M42.4,16.97c0.3,0.3,0.51,0.18,0.66,0.03c0.12-0.12,0.22-0.26,0.32-0.39c0.1-0.14,0.2-0.27,0.32-0.39
						c0.39-0.39,0.81-0.3,1.18,0.06l0.09,0.09l-0.23,0.23l-0.08-0.08c-0.25-0.25-0.47-0.2-0.7,0.03c-0.1,0.1-0.19,0.21-0.27,0.33
						c-0.09,0.12-0.18,0.24-0.29,0.35c-0.27,0.28-0.52,0.29-0.77,0.15l-0.01,0.01c0.14,0.24,0.12,0.5-0.16,0.77
						c-0.11,0.11-0.23,0.21-0.35,0.29c-0.12,0.09-0.23,0.17-0.34,0.28c-0.24,0.24-0.27,0.47-0.03,0.71l0.08,0.08l-0.23,0.23
						l-0.09-0.09c-0.35-0.35-0.46-0.77-0.03-1.2c0.11-0.11,0.25-0.22,0.38-0.32c0.13-0.1,0.26-0.2,0.38-0.31
						c0.13-0.13,0.27-0.36-0.03-0.66L42.4,16.97z"/>
				</g>
				<g>
					<path class="st1" d="M43.5,20.29c0.16-0.16,0.37-0.16,0.52-0.01c0.15,0.15,0.14,0.36-0.02,0.52c-0.15,0.15-0.37,0.17-0.52,0.01
						C43.34,20.66,43.35,20.45,43.5,20.29z"/>
				</g>
				<g>
					<path class="st1" d="M44.39,21.17c0.16-0.16,0.37-0.16,0.52-0.01c0.15,0.15,0.14,0.36-0.02,0.52
						c-0.15,0.15-0.37,0.17-0.52,0.01C44.22,21.55,44.23,21.33,44.39,21.17z"/>
				</g>
				<g>
					<path class="st1" d="M45.27,22.06c0.16-0.16,0.37-0.16,0.52-0.01c0.15,0.15,0.14,0.36-0.02,0.52
						c-0.15,0.15-0.37,0.17-0.52,0.01C45.1,22.43,45.12,22.21,45.27,22.06z"/>
				</g>
				<g>
					<path class="st1" d="M48.82,23.82c-0.3-0.3-0.53-0.16-0.66-0.03c-0.11,0.11-0.21,0.25-0.31,0.38c-0.1,0.13-0.2,0.27-0.31,0.38
						c-0.43,0.43-0.85,0.32-1.2-0.03l-0.09-0.09l0.23-0.23l0.07,0.07c0.24,0.23,0.47,0.21,0.71-0.03c0.1-0.1,0.18-0.22,0.28-0.34
						c0.09-0.12,0.17-0.24,0.29-0.36c0.27-0.27,0.54-0.3,0.77-0.16l0.01-0.01c-0.14-0.24-0.12-0.49,0.15-0.77
						c0.11-0.11,0.23-0.2,0.36-0.29c0.12-0.09,0.23-0.17,0.33-0.27c0.23-0.23,0.27-0.45,0.03-0.7l-0.08-0.08l0.23-0.23l0.09,0.09
						c0.36,0.36,0.46,0.79,0.06,1.18c-0.12,0.12-0.25,0.22-0.39,0.32c-0.14,0.1-0.27,0.2-0.39,0.32c-0.15,0.15-0.27,0.36,0.03,0.66
						L48.82,23.82z"/>
				</g>
			</g>
			<g>
				
					<rect x="50.81" y="10.08" transform="matrix(0.7071 -0.7071 0.7071 0.7071 5.7473 40.1272)" class="st1" width="1" height="6.1"/>
			</g>
			<g>
				
					<rect x="49.4" y="11.49" transform="matrix(0.7071 -0.7071 0.7071 0.7071 4.3344 39.5438)" class="st1" width="1" height="6.1"/>
			</g>
			<g>
				
					<rect x="47.25" y="13.21" transform="matrix(0.7071 -0.7071 0.7071 0.7071 3.2226 38.2214)" class="st1" width="1" height="4.02"/>
			</g>
		</g>
	</g>
</g>
</svg>
