<?xml version="1.0" encoding="utf-8"?>
<!-- Generator: Adobe Illustrator 25.3.1, SVG Export Plug-In . SVG Version: 6.00 Build 0)  -->
<svg version="1.1" id="Layer_1" xmlns:serif="http://www.serif.com/"
	 xmlns="http://www.w3.org/2000/svg" xmlns:xlink="http://www.w3.org/1999/xlink" x="0px" y="0px" viewBox="0 0 612 344.2"
	 style="enable-background:new 0 0 612 344.2;" xml:space="preserve">
<style type="text/css">
	.st0{fill:none;}
	.st1{opacity:0.65;}
	.st2{clip-path:url(#SVGID_2_);}
	.st3{opacity:7.000000e-02;}
	.st4{fill-rule:evenodd;clip-rule:evenodd;}
</style>
<rect id="bg_fun" class="st0" width="612" height="344.2"/>
<g class="st1">
	<defs>
		<rect id="SVGID_1_" class="st1" width="612" height="344.2"/>
	</defs>
	<clipPath id="SVGID_2_">
		<use xlink:href="#SVGID_1_"  style="overflow:visible;"/>
	</clipPath>
	<g class="st2">
		<g transform="matrix(1,0,0,1,0,-35.6776)">
			<g class="st3">
				<g>
					<g transform="matrix(0.339581,-0.0909905,0.0909905,0.339581,-565.763,797.703)">
						<path class="st4" d="M2172.6-1109.4c14.4,0,26.2,11.7,26.2,26.2s-11.7,26.2-26.2,26.2s-26.2-11.7-26.2-26.2
							S2158.2-1109.4,2172.6-1109.4z M2172.6-1105.9c12.5,0,22.7,10.2,22.7,22.7c0,12.5-10.2,22.7-22.7,22.7
							c-12.5,0-22.7-10.2-22.7-22.7C2149.9-1095.7,2160.1-1105.9,2172.6-1105.9z M2176.5-1083.3v0.1c0,2,1.6,3.6,3.6,3.6h2
							c0.8,0,1.5,0.7,1.5,1.5v6h-6.1c-0.8,0-1.5-0.7-1.5-1.5v-2.5c0-2-1.6-3.6-3.6-3.6h-0.1c-2,0-3.6,1.6-3.6,3.6v3.9h-6.8v-22.3
							h6.8v4c0,2,1.6,3.6,3.6,3.6h0.1c2,0,3.6-1.6,3.6-3.6v-2.5c0-0.8,0.7-1.5,1.5-1.5h6.1v6c0,0.8-0.7,1.5-1.5,1.5h-2
							C2178.1-1086.8,2176.5-1085.2,2176.5-1083.3z"/>
					</g>
					<g transform="matrix(2.6444,0,0,2.6444,-375.114,-84.449)">
						<path d="M251.6,68.8l-3.6-3.4c-0.2-0.2-0.6-0.2-0.8,0c-0.2,0.2-0.2,0.6,0,0.8l3.6,3.4c0.2,0.2,0.6,0.2,0.8,0
							C251.9,69.4,251.9,69,251.6,68.8z"/>
					</g>
					<g transform="matrix(2.6444,0,0,2.6444,-375.114,-84.449)">
						<path d="M248.1,69.8l3.4-3.6c0.2-0.2,0.2-0.6,0-0.8c-0.2-0.2-0.6-0.2-0.8,0l-3.4,3.6c-0.2,0.2-0.2,0.6,0,0.8
							C247.5,70,247.9,70,248.1,69.8z"/>
					</g>
					<g transform="matrix(2.6444,0,0,2.6444,-375.114,-84.449)">
						<path d="M226.4,128l-3.6-3.4c-0.2-0.2-0.6-0.2-0.8,0c-0.2,0.2-0.2,0.6,0,0.8l3.6,3.4c0.2,0.2,0.6,0.2,0.8,0
							C226.6,128.6,226.6,128.2,226.4,128z"/>
					</g>
					<g transform="matrix(2.6444,0,0,2.6444,-375.114,-84.449)">
						<path d="M222.9,129l3.4-3.6c0.2-0.2,0.2-0.6,0-0.8c-0.2-0.2-0.6-0.2-0.8,0l-3.4,3.6c-0.2,0.2-0.2,0.6,0,0.8
							C222.3,129.2,222.7,129.2,222.9,129z"/>
					</g>
					<g transform="matrix(2.6444,0,0,2.6444,-375.114,-84.449)">
						<path d="M190.4,74.8l0.5-0.3l-2.5-4.3c-0.1-0.2-0.3-0.3-0.5-0.3c-0.2,0-0.4,0.1-0.5,0.3l-2.5,4.3l-2.5,4.3
							c-0.1,0.2-0.1,0.4,0,0.6c0.1,0.2,0.3,0.3,0.5,0.3l5,0l5,0c0.2,0,0.4-0.1,0.5-0.3c0.1-0.2,0.1-0.4,0-0.6l-2.5-4.3L190.4,74.8
							l-0.5,0.3l2,3.4l-4,0l-4,0l2-3.4l2-3.4l2,3.4L190.4,74.8z"/>
					</g>
					<g transform="matrix(2.6444,0,0,2.6444,-375.114,-84.449)">
						<path d="M182.1,127.9l0.5-0.3l-2.5-4.3c-0.1-0.2-0.3-0.3-0.5-0.3c-0.2,0-0.4,0.1-0.5,0.3l-2.5,4.3l-2.5,4.3
							c-0.1,0.2-0.1,0.4,0,0.6s0.3,0.3,0.5,0.3l5,0l5,0c0.2,0,0.4-0.1,0.5-0.3c0.1-0.2,0.1-0.4,0-0.6l-2.5-4.3L182.1,127.9l-0.5,0.3
							l2,3.4l-4,0l-4,0l2-3.4l2-3.4l2,3.4L182.1,127.9z"/>
					</g>
					<g transform="matrix(2.6444,0,0,2.6444,-375.114,-84.449)">
						<path d="M227.4,110.8l0.6,0.2l1.3-4.8c0.1-0.2,0-0.4-0.2-0.6c-0.2-0.2-0.4-0.2-0.6-0.2l-4.8,1.3l-4.8,1.3
							c-0.2,0.1-0.4,0.2-0.4,0.4c-0.1,0.2,0,0.4,0.2,0.6l3.5,3.5l3.5,3.5c0.2,0.2,0.4,0.2,0.6,0.2c0.2-0.1,0.4-0.2,0.4-0.4l1.3-4.8
							L227.4,110.8l-0.6-0.2l-1,3.8l-2.8-2.8l-2.8-2.8l3.8-1l3.8-1l-1,3.8L227.4,110.8z"/>
					</g>
					<g transform="matrix(2.6444,0,0,2.6444,-375.114,-42.449)">
						<path d="M145,42.5l0.6,0.2l1.3-4.8c0.1-0.2,0-0.4-0.2-0.6c-0.2-0.2-0.4-0.2-0.6-0.2l-4.8,1.3h0l-4.8,1.3
							c-0.2,0.1-0.4,0.2-0.4,0.4c-0.1,0.2,0,0.4,0.2,0.6l3.5,3.5l0,0l3.5,3.5c0.2,0.2,0.4,0.2,0.6,0.2c0.2-0.1,0.4-0.2,0.4-0.4
							l1.3-4.8L145,42.5l-0.6-0.2l-1,3.8l-2.8-2.8l0,0l-2.8-2.8l3.8-1h0l3.8-1l-1,3.8L145,42.5z"/>
					</g>
					<g transform="matrix(2.6444,0,0,2.6444,-375.114,-84.449)">
						<path d="M141.1,109.6l0.6,1l4.3-2.5c0.2-0.1,0.3-0.3,0.3-0.5c0-0.2-0.1-0.4-0.3-0.5l-4.3-2.5l0,0l-4.3-2.5
							c-0.2-0.1-0.4-0.1-0.6,0s-0.3,0.3-0.3,0.5l0,5l0,5c0,0.2,0.1,0.4,0.3,0.5c0.2,0.1,0.4,0.1,0.6,0l4.3-2.5L141.1,109.6l-3.4,2
							l0-4l0-4l3.4,2v0l3.4,2L141.1,109.6z"/>
					</g>
					<g transform="matrix(2.6444,0,0,2.6444,-375.114,-84.449)">
						<path d="M199.5,101.9h-1.2c0,0.9-0.4,1.7-0.9,2.3c-0.6,0.6-1.4,0.9-2.3,0.9c-0.9,0-1.7-0.4-2.3-0.9c-0.6-0.6-0.9-1.4-0.9-2.3
							c0-0.9,0.4-1.7,0.9-2.3c0.6-0.6,1.4-0.9,2.3-0.9c0.9,0,1.7,0.4,2.3,0.9c0.6,0.6,0.9,1.4,0.9,2.3H199.5c0-2.4-2-4.4-4.4-4.4
							c-2.4,0-4.4,2-4.4,4.4c0,2.4,2,4.4,4.4,4.4C197.5,106.3,199.5,104.3,199.5,101.9z"/>
					</g>
					<g transform="matrix(2.6444,0,0,2.6444,-375.114,-84.449)">
						<path d="M180.3,59.4h-1.2c0,0.9-0.4,1.7-0.9,2.3c-0.6,0.6-1.4,0.9-2.3,0.9c-0.9,0-1.7-0.4-2.3-0.9c-0.6-0.6-0.9-1.4-0.9-2.3
							c0-0.9,0.4-1.7,0.9-2.3c0.6-0.6,1.4-0.9,2.3-0.9c0.9,0,1.7,0.4,2.3,0.9c0.6,0.6,0.9,1.4,0.9,2.3H180.3c0-2.4-2-4.4-4.4-4.4
							c-2.4,0-4.4,2-4.4,4.4c0,2.4,2,4.4,4.4,4.4C178.3,63.8,180.3,61.9,180.3,59.4z"/>
					</g>
					<g transform="matrix(2.6444,0,0,2.6444,-375.114,-84.449)">
						<path d="M217.8,82.3c-0.9,0-1.7-0.4-2.3-0.9c-0.6-0.6-0.9-1.4-0.9-2.3c0-0.9,0.4-1.7,0.9-2.3c0.6-0.6,1.4-0.9,2.3-0.9
							c0.3,0,0.6-0.3,0.6-0.6c0-0.3-0.3-0.6-0.6-0.6c-1.2,0-2.3,0.5-3.1,1.3c-0.8,0.8-1.3,1.9-1.3,3.1c0,1.2,0.5,2.3,1.3,3.1
							c0.8,0.8,1.9,1.3,3.1,1.3c0.3,0,0.6-0.3,0.6-0.6S218.1,82.3,217.8,82.3z"/>
					</g>
					<g transform="matrix(2.6444,0,0,2.6444,-375.114,-84.449)">
						<path d="M167,50.1c-0.9,0-1.7-0.4-2.3-0.9c-0.6-0.6-0.9-1.4-0.9-2.3c0-0.9,0.4-1.7,0.9-2.3c0.6-0.6,1.4-0.9,2.3-0.9
							c0.3,0,0.6-0.3,0.6-0.6c0-0.3-0.3-0.6-0.6-0.6c-1.2,0-2.3,0.5-3.1,1.3c-0.8,0.8-1.3,1.9-1.3,3.1c0,1.2,0.5,2.3,1.3,3.1
							c0.8,0.8,1.9,1.3,3.1,1.3c0.3,0,0.6-0.3,0.6-0.6C167.6,50.4,167.3,50.1,167,50.1z"/>
					</g>
					<g transform="matrix(2.6444,0,0,2.6444,-375.114,-84.449)">
						<path d="M234.9,75.4V76h7v6.4h-6.4v-7H234.9V76V75.4h-0.6v7.6c0,0.2,0.1,0.3,0.2,0.4c0.1,0.1,0.3,0.2,0.4,0.2h7.6
							c0.2,0,0.3-0.1,0.4-0.2c0.1-0.1,0.2-0.3,0.2-0.4v-7.6c0-0.2-0.1-0.3-0.2-0.4c-0.1-0.1-0.3-0.2-0.4-0.2h-7.6
							c-0.2,0-0.3,0.1-0.4,0.2c-0.1,0.1-0.2,0.3-0.2,0.4H234.9z"/>
					</g>
					<g transform="matrix(2.6444,0,0,2.6444,-375.114,-84.449)">
						<path d="M149.3,79.2v0.6h7v6.4h-6.4v-7H149.3v0.6V79.2h-0.6v7.6c0,0.2,0.1,0.3,0.2,0.4c0.1,0.1,0.3,0.2,0.4,0.2h7.6
							c0.2,0,0.3-0.1,0.4-0.2c0.1-0.1,0.2-0.3,0.2-0.4v-7.6c0-0.2-0.1-0.3-0.2-0.4c-0.1-0.1-0.3-0.2-0.4-0.2h-7.6
							c-0.2,0-0.3,0.1-0.4,0.2c-0.1,0.1-0.2,0.3-0.2,0.4H149.3z"/>
					</g>
					<g transform="matrix(2.6444,0,0,2.6444,-375.114,-84.449)">
						<path d="M148.9,127.5v0.6h7v6.4h-6.4v-7H148.9v0.6V127.5h-0.6v7.6c0,0.2,0.1,0.3,0.2,0.4c0.1,0.1,0.3,0.2,0.4,0.2h7.6
							c0.2,0,0.3-0.1,0.4-0.2c0.1-0.1,0.2-0.3,0.2-0.4v-7.6c0-0.2-0.1-0.3-0.2-0.4c-0.1-0.1-0.3-0.2-0.4-0.2h-7.6
							c-0.2,0-0.3,0.1-0.4,0.2c-0.1,0.1-0.2,0.3-0.2,0.4H148.9z"/>
					</g>
					<g transform="matrix(2.6444,0,0,2.6444,-375.114,-84.449)">
						<path d="M203.5,43.1v0.6h7v6.4h-6.4v-7H203.5v0.6V43.1h-0.6v7.6c0,0.2,0.1,0.3,0.2,0.4c0.1,0.1,0.3,0.2,0.4,0.2h7.6
							c0.2,0,0.3-0.1,0.4-0.2c0.1-0.1,0.2-0.3,0.2-0.4v-7.6c0-0.2-0.1-0.3-0.2-0.4c-0.1-0.1-0.3-0.2-0.4-0.2h-7.6
							c-0.2,0-0.3,0.1-0.4,0.2c-0.1,0.1-0.2,0.3-0.2,0.4H203.5z"/>
					</g>
					<g transform="matrix(2.6444,0,0,2.6444,-375.114,-84.449)">
						<path d="M192.6,119.5c-0.1,0-0.2,0-0.3-0.1c-0.1,0-0.1-0.1-0.2-0.2c-0.1-0.1-0.3-0.4-0.4-0.6c-0.2-0.4-0.4-0.9-0.8-1.3
							c-0.2-0.2-0.4-0.4-0.7-0.6c-0.3-0.1-0.6-0.2-1-0.2c-0.3,0-0.6,0.3-0.6,0.6c0,0.3,0.3,0.6,0.6,0.6c0.2,0,0.3,0,0.5,0.1
							c0.1,0,0.2,0.1,0.3,0.2c0.2,0.1,0.3,0.3,0.5,0.6c0.2,0.4,0.4,0.8,0.7,1.3c0.2,0.2,0.4,0.4,0.6,0.6c0.3,0.2,0.6,0.3,0.9,0.3
							c0.3,0,0.6-0.3,0.6-0.6C193.2,119.8,192.9,119.5,192.6,119.5z"/>
					</g>
					<g transform="matrix(2.6444,0,0,2.6444,-375.114,-84.449)">
						<path d="M199.5,119.5c-0.1,0-0.2,0-0.3-0.1c-0.1,0-0.1-0.1-0.2-0.2c-0.1-0.1-0.3-0.4-0.4-0.6c-0.2-0.4-0.4-0.9-0.8-1.3
							c-0.2-0.2-0.4-0.4-0.7-0.6c-0.3-0.1-0.6-0.2-1-0.2c-0.3,0-0.6,0.3-0.6,0.6c0,0.3,0.3,0.6,0.6,0.6c0.2,0,0.3,0,0.5,0.1
							c0.1,0,0.2,0.1,0.3,0.2c0.2,0.1,0.3,0.3,0.5,0.6c0.2,0.4,0.4,0.8,0.7,1.3c0.2,0.2,0.4,0.4,0.6,0.6c0.3,0.2,0.6,0.3,0.9,0.3
							c0.3,0,0.6-0.3,0.6-0.6C200.1,119.8,199.9,119.5,199.5,119.5z"/>
					</g>
					<g transform="matrix(2.6444,0,0,2.6444,-375.114,-84.449)">
						<path d="M192.6,120.7c0.3,0,0.6-0.1,0.8-0.2c0.2-0.1,0.4-0.3,0.5-0.4c0.3-0.3,0.4-0.6,0.6-0.9c0.2-0.4,0.4-0.8,0.7-1.1
							c0.1-0.1,0.2-0.2,0.4-0.3c0.1-0.1,0.3-0.1,0.5-0.1c0.3,0,0.6-0.3,0.6-0.6c0-0.3-0.3-0.6-0.6-0.6c-0.3,0-0.6,0.1-0.9,0.2
							c-0.2,0.1-0.4,0.2-0.6,0.4c-0.3,0.3-0.5,0.6-0.7,0.9c-0.3,0.5-0.5,0.9-0.7,1.2c-0.1,0.1-0.2,0.2-0.3,0.3
							c-0.1,0-0.2,0.1-0.3,0.1c-0.3,0-0.6,0.3-0.6,0.6C192,120.4,192.3,120.7,192.6,120.7z"/>
					</g>
					<g transform="matrix(2.6444,0,0,2.6444,-375.114,-84.449)">
						<path d="M199.5,120.7c0.3,0,0.6-0.1,0.8-0.2c0.2-0.1,0.4-0.3,0.5-0.4c0.2-0.3,0.4-0.6,0.6-0.9c0.2-0.4,0.4-0.8,0.7-1.1
							c0.1-0.1,0.2-0.2,0.4-0.3c0.1-0.1,0.3-0.1,0.5-0.1c0.3,0,0.6-0.3,0.6-0.6c0-0.3-0.3-0.6-0.6-0.6c-0.3,0-0.6,0.1-0.9,0.2
							c-0.2,0.1-0.4,0.2-0.6,0.4c-0.3,0.3-0.5,0.6-0.7,0.9c-0.3,0.5-0.5,0.9-0.7,1.2c-0.1,0.1-0.2,0.2-0.3,0.3
							c-0.1,0-0.2,0.1-0.3,0.1c-0.3,0-0.6,0.3-0.6,0.6C198.9,120.4,199.2,120.7,199.5,120.7z"/>
					</g>
					<g transform="matrix(2.6444,0,0,2.6444,-375.114,-84.449)">
						<path d="M192.6,53.2c0,0.1,0,0.2-0.1,0.3c0,0.1-0.1,0.1-0.2,0.2c-0.1,0.1-0.4,0.3-0.6,0.4c-0.4,0.2-0.9,0.4-1.3,0.8
							c-0.2,0.2-0.4,0.4-0.6,0.7c-0.1,0.3-0.2,0.6-0.2,1c0,0.3,0.3,0.6,0.6,0.6c0.3,0,0.6-0.3,0.6-0.6c0-0.2,0-0.3,0.1-0.5
							c0-0.1,0.1-0.2,0.2-0.3c0.1-0.2,0.3-0.3,0.6-0.5c0.4-0.2,0.8-0.4,1.3-0.7c0.2-0.2,0.4-0.4,0.6-0.6c0.2-0.3,0.3-0.6,0.3-0.9
							c0-0.3-0.3-0.6-0.6-0.6C192.8,52.6,192.6,52.9,192.6,53.2z"/>
					</g>
					<g transform="matrix(2.6444,0,0,2.6444,-375.114,-84.449)">
						<path d="M192.6,46.3c0,0.1,0,0.2-0.1,0.3c0,0.1-0.1,0.1-0.2,0.2c-0.1,0.1-0.4,0.3-0.6,0.4c-0.4,0.2-0.9,0.4-1.3,0.8
							c-0.2,0.2-0.4,0.4-0.6,0.7c-0.1,0.3-0.2,0.6-0.2,1c0,0.3,0.3,0.6,0.6,0.6c0.3,0,0.6-0.3,0.6-0.6c0-0.2,0-0.3,0.1-0.5
							c0-0.1,0.1-0.2,0.2-0.3c0.1-0.2,0.3-0.3,0.6-0.5c0.4-0.2,0.8-0.4,1.3-0.7c0.2-0.2,0.4-0.4,0.6-0.6c0.2-0.3,0.3-0.6,0.3-0.9
							c0-0.3-0.3-0.6-0.6-0.6C192.8,45.7,192.6,45.9,192.6,46.3z"/>
					</g>
					<g transform="matrix(2.6444,0,0,2.6444,-375.114,-84.449)">
						<path d="M193.8,53.2c0-0.3-0.1-0.6-0.2-0.8c-0.1-0.2-0.3-0.4-0.4-0.5c-0.3-0.2-0.6-0.4-0.9-0.6c-0.4-0.2-0.8-0.4-1.1-0.7
							c-0.1-0.1-0.2-0.2-0.3-0.4c-0.1-0.1-0.1-0.3-0.1-0.5c0-0.3-0.3-0.6-0.6-0.6c-0.3,0-0.6,0.3-0.6,0.6c0,0.3,0.1,0.6,0.2,0.9
							c0.1,0.2,0.2,0.4,0.4,0.6c0.3,0.3,0.6,0.5,0.9,0.7c0.5,0.3,0.9,0.5,1.2,0.7c0.1,0.1,0.2,0.2,0.3,0.3c0,0.1,0.1,0.2,0.1,0.3
							c0,0.3,0.3,0.6,0.6,0.6C193.5,53.8,193.8,53.6,193.8,53.2z"/>
					</g>
					<g transform="matrix(2.6444,0,0,2.6444,-375.114,-84.449)">
						<path d="M171.3,89.6c0,0.1,0,0.2-0.1,0.3c0,0.1-0.1,0.1-0.2,0.2c-0.1,0.1-0.4,0.3-0.6,0.4c-0.4,0.2-0.9,0.4-1.3,0.8
							c-0.2,0.2-0.4,0.4-0.6,0.7c-0.1,0.3-0.2,0.6-0.2,1c0,0.3,0.3,0.6,0.6,0.6c0.3,0,0.6-0.3,0.6-0.6c0-0.2,0-0.3,0.1-0.5
							c0-0.1,0.1-0.2,0.2-0.3c0.1-0.2,0.3-0.3,0.6-0.5c0.4-0.2,0.8-0.4,1.3-0.7c0.2-0.2,0.4-0.4,0.6-0.6c0.2-0.3,0.3-0.6,0.3-0.9
							c0-0.3-0.3-0.6-0.6-0.6C171.5,89,171.3,89.2,171.3,89.6z"/>
					</g>
					<g transform="matrix(2.6444,0,0,2.6444,-375.114,-84.449)">
						<path d="M171.3,82.6c0,0.1,0,0.2-0.1,0.3c0,0.1-0.1,0.1-0.2,0.2c-0.1,0.1-0.4,0.3-0.6,0.4c-0.4,0.2-0.9,0.4-1.3,0.8
							c-0.2,0.2-0.4,0.4-0.6,0.7c-0.1,0.3-0.2,0.6-0.2,1c0,0.3,0.3,0.6,0.6,0.6c0.3,0,0.6-0.3,0.6-0.6c0-0.2,0-0.3,0.1-0.5
							c0-0.1,0.1-0.2,0.2-0.3c0.1-0.2,0.3-0.3,0.6-0.5c0.4-0.2,0.8-0.4,1.3-0.7c0.2-0.2,0.4-0.4,0.6-0.6c0.2-0.3,0.3-0.6,0.3-0.9
							c0-0.3-0.3-0.6-0.6-0.6C171.5,82,171.3,82.3,171.3,82.6z"/>
					</g>
					<g transform="matrix(2.6444,0,0,2.6444,-375.114,-84.449)">
						<path d="M172.5,89.6c0-0.3-0.1-0.6-0.2-0.8c-0.1-0.2-0.3-0.4-0.4-0.5c-0.3-0.3-0.6-0.4-0.9-0.6c-0.4-0.2-0.8-0.4-1.1-0.7
							c-0.1-0.1-0.2-0.2-0.3-0.4c-0.1-0.1-0.1-0.3-0.1-0.5c0-0.3-0.3-0.6-0.6-0.6c-0.3,0-0.6,0.3-0.6,0.6c0,0.3,0.1,0.6,0.2,0.9
							c0.1,0.2,0.2,0.4,0.4,0.6c0.3,0.3,0.6,0.5,0.9,0.7c0.5,0.3,0.9,0.5,1.2,0.7c0.1,0.1,0.2,0.2,0.3,0.3c0,0.1,0.1,0.2,0.1,0.3
							c0,0.3,0.3,0.6,0.6,0.6C172.2,90.2,172.5,89.9,172.5,89.6z"/>
					</g>
					<g transform="matrix(2.6444,0,0,2.6444,-375.114,-84.449)">
						<path d="M172.5,82.6c0-0.3-0.1-0.6-0.2-0.8c-0.1-0.2-0.3-0.4-0.4-0.5c-0.3-0.2-0.6-0.4-0.9-0.6c-0.4-0.2-0.8-0.4-1.1-0.7
							c-0.1-0.1-0.2-0.2-0.3-0.4c-0.1-0.1-0.1-0.3-0.1-0.5c0-0.3-0.3-0.6-0.6-0.6c-0.3,0-0.6,0.3-0.6,0.6c0,0.3,0.1,0.6,0.2,0.9
							c0.1,0.2,0.2,0.4,0.4,0.6c0.3,0.3,0.6,0.5,0.9,0.7c0.5,0.3,0.9,0.5,1.2,0.7c0.1,0.1,0.2,0.2,0.3,0.3c0,0.1,0.1,0.2,0.1,0.3
							c0,0.3,0.3,0.6,0.6,0.6C172.2,83.2,172.5,83,172.5,82.6z"/>
					</g>
					<g transform="matrix(2.6444,0,0,2.6444,-375.114,-84.449)">
						<path d="M200.9,128.5h8.6c0.3,0,0.6-0.3,0.6-0.6c0-0.3-0.3-0.6-0.6-0.6h-8.6c-0.3,0-0.6,0.3-0.6,0.6
							C200.3,128.2,200.6,128.5,200.9,128.5z"/>
					</g>
					<g transform="matrix(2.6444,0,0,2.6444,-388.114,-235.836)">
						<path d="M243.8,156.1l6.1-6.1c0.2-0.2,0.2-0.6,0-0.8c-0.2-0.2-0.6-0.2-0.8,0l-6.1,6.1c-0.2,0.2-0.2,0.6,0,0.8
							C243.2,156.3,243.6,156.3,243.8,156.1z"/>
					</g>
					<g transform="matrix(2.6444,0,0,2.6444,-375.114,-84.449)">
						<path d="M188.1,82.5l1.6-2.7h0.3l-1.4,2.5l4.8,0l4.8,0l-2.4-4.2l0.1-0.1l0.1-0.1l2.6,4.5l-5.2,0L188.1,82.5z M190.4,78.6
							l0.4-0.6l0.4-0.7l0.1,0.2l-0.3,0.6l-0.3,0.5L190.4,78.6z M195.8,78.1l-2.4-4.2l-1.4,2.4l-0.1-0.2l1.5-2.6l2.6,4.5l-0.1,0.1
							L195.8,78.1z"/>
					</g>
					<g transform="matrix(2.6444,0,0,2.6444,-375.114,-84.449)">
						<path d="M189.7,79.7l0.7-1.2l0.3,0l-0.7,1.2H189.7z M191.3,77.5l-0.1-0.2l0.7-1.2l0.1,0.2L191.3,77.5z"/>
					</g>
					<g transform="matrix(2.6444,0,0,2.6444,-375.114,-84.449)">
						<path d="M179.8,135.5l1.6-2.7h0.3l-1.4,2.5l4.8,0l4.8,0l-2.4-4.2l0.1-0.1l0.1-0.1l2.6,4.5l-5.2,0L179.8,135.5z M182.1,131.6
							l0.4-0.6l0.4-0.7l0.1,0.2l-0.3,0.6l-0.3,0.5L182.1,131.6z M187.5,131.1L185,127l-1.4,2.4l-0.1-0.2l1.5-2.6l2.6,4.5l-0.1,0.1
							L187.5,131.1z"/>
					</g>
					<g transform="matrix(2.6444,0,0,2.6444,-375.114,-84.449)">
						<path d="M181.4,132.8l0.7-1.2l0.3,0l-0.7,1.2H181.4z M183,130.6l-0.1-0.2l0.7-1.2l0.1,0.2L183,130.6z"/>
					</g>
					<g transform="matrix(2.6444,0,0,2.6444,-375.114,-84.449)">
						<path d="M231.6,119.1l-3.7-3.7l-0.9-0.9l0.1-0.3l1,1l3.4,3.4l1.2-4.6l1.2-4.6l-4.6,1.2L228,111l0.1-0.3l1.2-0.3l5-1.4l-1.3,5
							L231.6,119.1z M226.1,113.6l-1.8-1.8l2.5-0.7l-0.1,0.3l-2,0.5l1.4,1.4L226.1,113.6z"/>
					</g>
					<g transform="matrix(2.6444,0,0,2.6444,-375.114,-84.449)">
						<path d="M227.1,114.5l-1-1l0.1-0.3l1,1L227.1,114.5z M226.7,111.3l0.1-0.3l1.3-0.4L228,111L226.7,111.3z"/>
					</g>
					<g transform="matrix(2.6444,0,0,2.6444,-375.114,-42.449)">
						<path d="M149.2,50.8l-3.7-3.7l-0.9-0.9l0.1-0.3l1,1l3.4,3.4l1.2-4.6l1.2-4.6l-4.6,1.2l-1.4,0.4l0.1-0.3l1.2-0.3l5-1.4l-1.3,5
							L149.2,50.8z M143.6,45.2l-1.8-1.8l2.5-0.7l-0.1,0.3l-2,0.5l1.4,1.4L143.6,45.2z"/>
					</g>
					<g transform="matrix(0.462671,0.267123,-0.267123,0.462671,-754.49,-953.219)">
						<path class="st4" d="M2197.8,849.3c14.4,0,26.2,11.7,26.2,26.2s-11.7,26.2-26.2,26.2s-26.2-11.7-26.2-26.2
							S2183.3,849.3,2197.8,849.3z M2197.8,852.8c12.5,0,22.7,10.2,22.7,22.7s-10.2,22.7-22.7,22.7s-22.7-10.2-22.7-22.7
							S2185.3,852.8,2197.8,852.8z M2201.6,875.5v0.1c0,2,1.6,3.6,3.6,3.6h2c0.8,0,1.5,0.7,1.5,1.5v6h-6.1c-0.8,0-1.5-0.7-1.5-1.5
							v-2.5c0-2-1.6-3.6-3.6-3.6h-0.1c-2,0-3.6,1.6-3.6,3.6v3.9h-6.8v-22.3h6.8v4c0,2,1.6,3.6,3.6,3.6h0.1c2,0,3.6-1.6,3.6-3.6v-2.5
							c0-0.8,0.7-1.5,1.5-1.5h6.1v6c0,0.8-0.7,1.5-1.5,1.5h-2C2203.3,871.9,2201.7,873.5,2201.6,875.5z"/>
					</g>
					<g transform="matrix(2.6444,0,0,2.6444,-375.114,-84.449)">
						<path d="M144.6,58.3l-1-1l0.1-0.3l1,1L144.6,58.3z M144.2,55.1l0.1-0.3l1.3-0.4l-0.1,0.3L144.2,55.1z"/>
					</g>
					<g transform="matrix(2.6444,0,0,2.6444,-375.114,-84.449)">
						<path d="M142.4,116l0-5.2l0-0.6l0.2-0.1l0,0.7l0,4.8l4.2-2.4l4.2-2.4l-4.2-2.4l-0.6-0.4c0.1-0.1,0.1-0.1,0.1-0.2l0.6,0.4
							l4.5,2.6l-4.5,2.6v0L142.4,116z M142.4,108.8l0-2.5l0.2,0.1l0,2.2L142.4,108.8z"/>
					</g>
					<g transform="matrix(2.6444,0,0,2.6444,-375.114,-84.449)">
						<path d="M142.4,110.2l0-1.4l0.2-0.1l0,1.4L142.4,110.2z M146.2,108l-3.5-2l0,0.5l-0.2-0.1l0-0.8l3.9,2.3
							C146.3,107.9,146.2,108,146.2,108z"/>
					</g>
					<g transform="matrix(2.6444,0,0,2.6444,-375.114,-84.449)">
						<path d="M200.5,109c-1.9,0-3.4-1.3-3.8-3c0.1,0,0.1-0.1,0.2-0.1c0.2,0.7,0.5,1.3,1,1.8c0.7,0.7,1.6,1.1,2.6,1.1
							c1,0,1.9-0.4,2.6-1.1c0.7-0.7,1.1-1.6,1.1-2.6s-0.4-1.9-1.1-2.6c-0.7-0.7-1.6-1.1-2.6-1.1c-0.4,0-0.7,0.1-1.1,0.2
							c0-0.1,0-0.2,0-0.2c0.3-0.1,0.7-0.2,1.1-0.2c2.2,0,3.9,1.8,3.9,3.9C204.5,107.3,202.7,109,200.5,109z M196.6,104.7
							c0.1-1.2,0.7-2.2,1.7-2.8v0c0,0.1,0,0.2,0,0.3c-0.1,0.1-0.2,0.2-0.3,0.3c-0.5,0.5-0.9,1.3-1,2.1
							C196.8,104.6,196.7,104.7,196.6,104.7z"/>
					</g>
					<g transform="matrix(2.6444,0,0,2.6444,-375.114,-84.449)">
						<path d="M196.7,106c-0.1-0.3-0.1-0.6-0.1-0.9c0-0.1,0-0.3,0-0.4c0.1,0,0.2-0.1,0.3-0.2c0,0.2,0,0.4,0,0.5c0,0.3,0,0.5,0.1,0.8
							C196.9,105.9,196.8,106,196.7,106z M198.3,102.2c0-0.1,0-0.2,0-0.3v0c0.3-0.2,0.7-0.4,1.2-0.6c0,0.1,0,0.2,0,0.2
							C199,101.7,198.6,101.9,198.3,102.2z"/>
					</g>
					<g transform="matrix(2.6444,0,0,2.6444,-375.114,-84.449)">
						<path d="M181.3,66.6c-1.9,0-3.4-1.3-3.8-3c0.1,0,0.1-0.1,0.2-0.1c0.2,0.7,0.5,1.3,1,1.8c0.7,0.7,1.6,1.1,2.6,1.1
							c1,0,1.9-0.4,2.6-1.1c0.7-0.7,1.1-1.6,1.1-2.6c0-1-0.4-1.9-1.1-2.6c-0.7-0.7-1.6-1.1-2.6-1.1c-0.4,0-0.7,0.1-1.1,0.2
							c0-0.1,0-0.2,0-0.2c0.3-0.1,0.7-0.2,1.1-0.2c2.2,0,3.9,1.8,3.9,3.9C185.2,64.8,183.5,66.6,181.3,66.6z M177.4,62.2
							c0.1-1.2,0.7-2.2,1.7-2.8v0c0,0.1,0,0.2,0,0.3c-0.1,0.1-0.2,0.2-0.3,0.3c-0.5,0.5-0.9,1.3-1,2.1
							C177.6,62.1,177.5,62.2,177.4,62.2z"/>
					</g>
					<g transform="matrix(2.6444,0,0,2.6444,-375.114,-84.449)">
						<path d="M177.5,63.5c-0.1-0.3-0.1-0.6-0.1-0.9c0-0.1,0-0.3,0-0.4c0.1,0,0.2-0.1,0.3-0.2c0,0.2,0,0.4,0,0.5
							c0,0.3,0,0.5,0.1,0.8C177.6,63.5,177.6,63.5,177.5,63.5z M179,59.7c0-0.1,0-0.2,0-0.3v0c0.3-0.2,0.7-0.4,1.2-0.6
							c0,0.1,0,0.2,0,0.2C179.8,59.2,179.4,59.4,179,59.7z"/>
					</g>
					<g transform="matrix(2.6444,0,0,2.6444,-375.114,-84.449)">
						<path d="M223.2,86.3c-2.2,0-3.9-1.7-3.9-3.9c0-2.2,1.8-3.9,3.9-3.9v0.2c-1,0-1.9,0.4-2.6,1.1c-0.7,0.7-1.1,1.6-1.1,2.6
							s0.4,1.9,1.1,2.6c0.7,0.7,1.6,1.1,2.6,1.1V86.3z"/>
					</g>
					<g transform="matrix(2.6444,0,0,2.6444,-375.114,-84.449)">
						<path d="M172.4,54c-2.2,0-3.9-1.7-3.9-3.9c0-2.2,1.8-3.9,3.9-3.9v0.2c-1,0-1.9,0.4-2.6,1.1c-0.7,0.7-1.1,1.6-1.1,2.6
							c0,1,0.4,1.9,1.1,2.6c0.7,0.7,1.6,1.1,2.6,1.1V54z"/>
					</g>
					<g transform="matrix(2.6444,0,0,2.6444,-375.114,-84.449)">
						<path d="M248,86.3h-7.8v-2.7h0.2V86h7.3v-7.3H243v-0.2h5V86.3z M240.4,82.3h-0.2v-3.9h1.6v0.2h-1.4V82.3z"/>
					</g>
					<g transform="matrix(2.6444,0,0,2.6444,-375.114,-84.449)">
						<path d="M240.4,83.5h-0.2v-1.2h0.2V83.5z M243,78.7h-1.2v-0.2h1.2V78.7z"/>
					</g>
					<g transform="matrix(2.6444,0,0,2.6444,-375.114,-84.449)">
						<path d="M162.4,90h-7.8v-2.7h0.2v2.5h7.3v-7.3h-4.7v-0.2h5V90z M154.9,86.1h-0.2v-3.9h1.6v0.2h-1.4V86.1z"/>
					</g>
					<g transform="matrix(2.6444,0,0,2.6444,-375.114,-84.449)">
						<path d="M154.9,87.3h-0.2v-1.2h0.2V87.3z M157.5,82.5h-1.2v-0.2h1.2V82.5z"/>
					</g>
					<g transform="matrix(2.6444,0,0,2.6444,-375.114,-84.449)">
						<path d="M162.1,138.3h-7.8v-2.7h0.2v2.5h7.3v-7.3h-4.7v-0.2h5V138.3z M154.5,134.4h-0.2v-3.9h1.6v0.2h-1.4V134.4z"/>
					</g>
					<g transform="matrix(2.6444,0,0,2.6444,-375.114,-84.449)">
						<path d="M154.5,135.6h-0.2v-1.2h0.2V135.6z M157.1,130.8h-1.2v-0.2h1.2V130.8z"/>
					</g>
					<g transform="matrix(2.6444,0,0,2.6444,-375.114,-84.449)">
						<path d="M216.6,54h-7.8v-2.7h0.2v2.5h7.3v-7.3h-4.7v-0.2h5V54z M209,50.1h-0.2v-3.9h1.6v0.2H209V50.1z"/>
					</g>
					<g transform="matrix(2.6444,0,0,2.6444,-375.114,-84.449)">
						<path d="M209,51.3h-0.2v-1.2h0.2V51.3z M211.6,46.5h-1.2v-0.2h1.2V46.5z"/>
					</g>
					<g transform="matrix(2.6444,0,0,2.6444,-375.114,-84.449)">
						<path d="M198,123.4c-0.3,0-0.6-0.1-0.8-0.3c-0.2-0.2-0.4-0.4-0.5-0.7c-0.3-0.5-0.6-1.1-1-1.5c-0.3-0.3-0.6-0.4-1.1-0.4v-0.2h0
							c0.4,0,0.8,0.1,1,0.3c0.3,0.2,0.5,0.4,0.7,0.7c0.4,0.5,0.6,1.1,0.9,1.5c0.2,0.3,0.5,0.4,0.9,0.4L198,123.4L198,123.4z"/>
					</g>
					<g transform="matrix(2.6444,0,0,2.6444,-375.114,-84.449)">
						<path d="M205,123.4c-0.3,0-0.6-0.1-0.8-0.3c-0.2-0.2-0.4-0.4-0.5-0.7c-0.3-0.5-0.6-1.1-1-1.5c-0.3-0.3-0.6-0.4-1.1-0.4v-0.2h0
							c0.4,0,0.8,0.1,1,0.3c0.3,0.2,0.5,0.4,0.7,0.7c0.4,0.5,0.6,1.1,0.9,1.5c0.2,0.3,0.5,0.4,0.9,0.4L205,123.4L205,123.4z"/>
					</g>
					<g transform="matrix(2.6444,0,0,2.6444,-375.114,-84.449)">
						<path d="M198.1,123.4L198.1,123.4l0-0.2c0.3,0,0.5-0.1,0.7-0.2c0.2-0.2,0.3-0.4,0.5-0.6c0.3-0.5,0.6-1.1,1-1.6
							c0.3-0.3,0.7-0.5,1.3-0.5h0v0.2c-0.4,0-0.7,0.1-0.9,0.3c-0.2,0.2-0.4,0.4-0.6,0.6c-0.3,0.5-0.6,1.1-1,1.6
							C198.8,123.2,198.5,123.4,198.1,123.4z"/>
					</g>
					<g transform="matrix(2.6444,0,0,2.6444,-375.114,-84.449)">
						<path d="M205,123.4L205,123.4l0-0.2c0.3,0,0.5-0.1,0.7-0.2c0.2-0.2,0.3-0.4,0.5-0.6c0.3-0.5,0.6-1.1,1-1.6
							c0.3-0.3,0.7-0.5,1.3-0.5h0v0.2c-0.4,0-0.7,0.1-0.9,0.3c-0.2,0.2-0.4,0.4-0.6,0.6c-0.3,0.5-0.6,1.1-1,1.6
							C205.8,123.2,205.4,123.4,205,123.4z"/>
					</g>
					<g transform="matrix(2.6444,0,0,2.6444,-375.114,-84.449)">
						<path d="M195.8,59.9h-0.2c0-0.4,0.1-0.8,0.3-1c0.2-0.3,0.4-0.5,0.7-0.7c0.5-0.4,1.1-0.6,1.5-0.9c0.3-0.2,0.4-0.5,0.4-0.9h0.2
							c0,0.3-0.1,0.6-0.3,0.8c-0.2,0.2-0.4,0.4-0.7,0.5c-0.5,0.3-1.1,0.6-1.5,1C196,59.1,195.8,59.4,195.8,59.9z"/>
					</g>
					<g transform="matrix(2.6444,0,0,2.6444,-375.114,-84.449)">
						<path d="M195.8,52.9h-0.2c0-0.4,0.1-0.8,0.3-1c0.2-0.3,0.4-0.5,0.7-0.7c0.5-0.4,1.1-0.6,1.5-0.9c0.3-0.2,0.4-0.5,0.4-0.9h0.2
							c0,0.3-0.1,0.6-0.3,0.8c-0.2,0.2-0.4,0.4-0.7,0.5c-0.5,0.3-1.1,0.6-1.5,1C196,52.1,195.8,52.4,195.8,52.9z"/>
					</g>
					<g transform="matrix(2.6444,0,0,2.6444,-375.114,-84.449)">
						<path d="M198.7,56.4h-0.2c0-0.3-0.1-0.5-0.2-0.7c-0.2-0.2-0.4-0.3-0.6-0.5c-0.5-0.3-1.1-0.6-1.6-1c-0.3-0.3-0.5-0.7-0.5-1.3
							h0.2c0,0.4,0.1,0.7,0.3,0.9c0.2,0.2,0.4,0.4,0.6,0.6c0.5,0.3,1.1,0.6,1.6,1C198.5,55.6,198.7,56,198.7,56.4z"/>
					</g>
					<g transform="matrix(2.6444,0,0,2.6444,-375.114,-84.449)">
						<path d="M198.7,49.5h-0.2c0-0.3-0.1-0.5-0.2-0.7c-0.2-0.2-0.4-0.3-0.6-0.5c-0.5-0.3-1.1-0.6-1.6-1c-0.3-0.3-0.5-0.7-0.5-1.3
							h0.2c0,0.4,0.1,0.7,0.3,0.9c0.2,0.2,0.4,0.4,0.6,0.6c0.5,0.3,1.1,0.6,1.6,1C198.5,48.7,198.7,49,198.7,49.5z"/>
					</g>
					<g transform="matrix(2.6444,0,0,2.6444,-375.114,-84.449)">
						<path d="M174.5,96.2h-0.2c0-0.4,0.1-0.8,0.3-1c0.2-0.3,0.4-0.5,0.7-0.7c0.5-0.4,1.1-0.6,1.5-0.9c0.3-0.2,0.4-0.5,0.4-0.9h0.2
							c0,0.3-0.1,0.6-0.3,0.8c-0.2,0.2-0.4,0.4-0.7,0.5c-0.5,0.3-1.1,0.6-1.5,1C174.7,95.4,174.5,95.7,174.5,96.2z"/>
					</g>
					<g transform="matrix(2.6444,0,0,2.6444,-375.114,-84.449)">
						<path d="M174.5,89.3h-0.2c0-0.4,0.1-0.8,0.3-1c0.2-0.3,0.4-0.5,0.7-0.7c0.5-0.4,1.1-0.6,1.5-0.9c0.3-0.2,0.4-0.5,0.4-0.9h0.2
							c0,0.3-0.1,0.6-0.3,0.8c-0.2,0.2-0.4,0.4-0.7,0.5c-0.5,0.3-1.1,0.6-1.5,1C174.7,88.5,174.5,88.8,174.5,89.3z"/>
					</g>
					<g transform="matrix(2.6444,0,0,2.6444,-375.114,-84.449)">
						<path d="M177.4,92.8h-0.2c0-0.3-0.1-0.5-0.2-0.7c-0.2-0.2-0.4-0.3-0.6-0.5c-0.5-0.3-1.1-0.6-1.6-1c-0.3-0.3-0.5-0.7-0.5-1.3
							h0.2c0,0.4,0.1,0.7,0.3,0.9c0.2,0.2,0.4,0.4,0.6,0.6c0.5,0.3,1.1,0.6,1.6,1C177.2,92,177.4,92.3,177.4,92.8z"/>
					</g>
					<g transform="matrix(2.6444,0,0,2.6444,-375.114,-84.449)">
						<path d="M177.4,85.8h-0.2c0-0.3-0.1-0.5-0.2-0.7c-0.2-0.2-0.4-0.3-0.6-0.5c-0.5-0.3-1.1-0.6-1.6-1c-0.3-0.3-0.5-0.7-0.5-1.3
							h0.2c0,0.4,0.1,0.7,0.3,0.9c0.2,0.2,0.4,0.4,0.6,0.6c0.5,0.3,1.1,0.6,1.6,1C177.2,85,177.4,85.4,177.4,85.8z"/>
					</g>
					<g transform="matrix(2.6444,0,0,2.6444,-375.114,-84.449)">
						<rect x="206.4" y="131" width="8.6" height="0.2"/>
					</g>
					<g transform="matrix(2.6444,0,0,2.6444,-388.114,-235.836)">
						<path d="M248.9,159l-0.2-0.2l6.1-6.1l0.2,0.2L248.9,159z"/>
					</g>
					<g transform="matrix(2.6444,0,0,2.6444,-375.114,-84.449)">
						<path d="M182.9,107l-0.3-0.5c-0.2,0.1-0.3,0.1-0.5,0.1c-0.1,0-0.3,0-0.4-0.1c-0.1-0.1-0.2-0.2-0.3-0.3l0,0
							c-0.1-0.2-0.1-0.3-0.1-0.5c0-0.1,0-0.3,0.1-0.4c0.1-0.1,0.2-0.2,0.3-0.3c0.2-0.1,0.3-0.1,0.5-0.1c0.1,0,0.3,0,0.4,0.1
							c0.1,0.1,0.2,0.2,0.3,0.3l0,0c0.1,0.2,0.1,0.3,0.1,0.5c0,0.1,0,0.3-0.1,0.4c-0.1,0.1-0.2,0.2-0.3,0.3l0,0L182.9,107l0.3,0.5
							c0.3-0.2,0.6-0.5,0.7-0.8c0.2-0.3,0.3-0.7,0.3-1c0-0.4-0.1-0.8-0.3-1.1l0,0c-0.2-0.3-0.5-0.6-0.8-0.7c-0.3-0.2-0.7-0.3-1-0.3
							c-0.4,0-0.8,0.1-1.1,0.3c-0.3,0.2-0.6,0.5-0.7,0.8c-0.2,0.3-0.3,0.7-0.3,1c0,0.4,0.1,0.8,0.3,1.1l0,0c0.2,0.3,0.5,0.6,0.8,0.7
							c0.3,0.2,0.7,0.3,1,0.3c0.4,0,0.8-0.1,1.1-0.3l0,0L182.9,107z"/>
					</g>
					<g transform="matrix(2.6444,0,0,2.6444,-375.114,-84.449)">
						<path d="M144.2,72.5l-0.3-0.5c-0.2,0.1-0.3,0.1-0.5,0.1c-0.1,0-0.3,0-0.4-0.1c-0.1-0.1-0.2-0.2-0.3-0.3l0,0
							c-0.1-0.2-0.1-0.3-0.1-0.5c0-0.1,0-0.3,0.1-0.4c0.1-0.1,0.2-0.2,0.3-0.3c0.2-0.1,0.3-0.1,0.5-0.1c0.1,0,0.3,0,0.4,0.1
							c0.1,0.1,0.2,0.2,0.3,0.3l0,0c0.1,0.2,0.1,0.3,0.1,0.5c0,0.1,0,0.3-0.1,0.4c-0.1,0.1-0.2,0.2-0.3,0.3l0,0L144.2,72.5l0.3,0.5
							c0.3-0.2,0.6-0.5,0.7-0.8c0.2-0.3,0.3-0.7,0.3-1c0-0.4-0.1-0.8-0.3-1.1l0,0c-0.2-0.3-0.5-0.6-0.8-0.7c-0.3-0.2-0.7-0.3-1-0.3
							c-0.4,0-0.8,0.1-1.1,0.3c-0.3,0.2-0.6,0.5-0.7,0.8c-0.2,0.3-0.3,0.7-0.3,1c0,0.4,0.1,0.8,0.3,1.1l0,0c0.2,0.3,0.5,0.6,0.8,0.7
							c0.3,0.2,0.7,0.3,1,0.3c0.4,0,0.8-0.1,1.1-0.3l0,0L144.2,72.5z"/>
					</g>
					<g transform="matrix(2.6444,0,0,2.6444,-375.114,-84.449)">
						<path d="M226.7,71.7l-0.3-0.5c-0.2,0.1-0.3,0.1-0.5,0.1c-0.1,0-0.3,0-0.4-0.1c-0.1-0.1-0.2-0.2-0.3-0.3v0
							c-0.1-0.2-0.1-0.3-0.1-0.5c0-0.1,0-0.3,0.1-0.4s0.2-0.2,0.3-0.3c0.2-0.1,0.3-0.1,0.5-0.1c0.1,0,0.3,0,0.4,0.1
							c0.1,0.1,0.2,0.2,0.3,0.3l0,0c0.1,0.2,0.1,0.3,0.1,0.5c0,0.1,0,0.3-0.1,0.4c-0.1,0.1-0.2,0.2-0.3,0.3l0,0L226.7,71.7l0.3,0.5
							c0.3-0.2,0.6-0.5,0.7-0.8c0.2-0.3,0.3-0.7,0.3-1c0-0.4-0.1-0.8-0.3-1.1l0,0c-0.2-0.3-0.5-0.6-0.8-0.7c-0.3-0.2-0.7-0.3-1-0.3
							c-0.4,0-0.8,0.1-1.1,0.3c-0.3,0.2-0.6,0.5-0.7,0.8c-0.2,0.3-0.3,0.7-0.3,1c0,0.4,0.1,0.8,0.3,1.1v0c0.2,0.3,0.5,0.6,0.8,0.7
							c0.3,0.2,0.7,0.3,1,0.3c0.4,0,0.8-0.1,1.1-0.3l0,0L226.7,71.7z"/>
					</g>
					<g transform="matrix(2.6444,0,0,2.6444,-375.114,-84.449)">
						<path d="M247.8,125.1l-0.3-0.5c-0.2,0.1-0.3,0.1-0.5,0.1c-0.1,0-0.3,0-0.4-0.1c-0.1-0.1-0.2-0.2-0.3-0.3
							c-0.1-0.2-0.1-0.3-0.1-0.5c0-0.1,0-0.3,0.1-0.4c0.1-0.1,0.2-0.2,0.3-0.3c0.2-0.1,0.3-0.1,0.5-0.1c0.1,0,0.3,0,0.4,0.1
							c0.1,0.1,0.2,0.2,0.3,0.3l0,0c0.1,0.2,0.1,0.3,0.1,0.5c0,0.1,0,0.3-0.1,0.4c-0.1,0.1-0.2,0.2-0.3,0.3l0,0L247.8,125.1l0.3,0.5
							c0.3-0.2,0.6-0.5,0.7-0.8c0.2-0.3,0.3-0.7,0.3-1c0-0.4-0.1-0.8-0.3-1.1l0,0c-0.2-0.3-0.5-0.6-0.8-0.7c-0.3-0.2-0.7-0.3-1-0.3
							c-0.4,0-0.8,0.1-1.1,0.3c-0.3,0.2-0.6,0.5-0.7,0.8c-0.2,0.3-0.3,0.7-0.3,1c0,0.4,0.1,0.8,0.3,1.1c0.2,0.3,0.5,0.6,0.8,0.7
							c0.3,0.2,0.7,0.3,1,0.3c0.4,0,0.8-0.1,1.1-0.3l0,0L247.8,125.1z"/>
					</g>
					<g transform="matrix(2.6444,0,0,2.6444,-375.114,-84.449)">
						<path d="M246,136h-1.2c0,0.9-0.4,1.7-0.9,2.3c-0.6,0.6-1.4,0.9-2.3,0.9c-0.9,0-1.7-0.4-2.3-0.9c-0.6-0.6-0.9-1.4-0.9-2.3
							c0-0.9,0.4-1.7,0.9-2.3c0.6-0.6,1.4-0.9,2.3-0.9c0.9,0,1.7,0.4,2.3,0.9c0.6,0.6,0.9,1.4,0.9,2.3H246c0-2.4-2-4.4-4.4-4.4
							c-2.4,0-4.4,2-4.4,4.4c0,2.4,2,4.4,4.4,4.4C244,140.4,246,138.5,246,136z"/>
					</g>
					<g transform="matrix(2.6444,0,0,2.6444,-375.114,-84.449)">
						<path d="M247,143.1c-1.9,0-3.4-1.3-3.8-3c0.1,0,0.1-0.1,0.2-0.1c0.2,0.7,0.5,1.3,1,1.8c0.7,0.7,1.6,1.1,2.6,1.1
							c1,0,1.9-0.4,2.6-1.1c0.7-0.7,1.1-1.6,1.1-2.6s-0.4-1.9-1.1-2.6c-0.7-0.7-1.6-1.1-2.6-1.1c-0.4,0-0.7,0.1-1.1,0.2
							c0-0.1,0-0.2,0-0.2c0.3-0.1,0.7-0.2,1.1-0.2c2.2,0,3.9,1.8,3.9,3.9C251,141.4,249.2,143.1,247,143.1z M243.1,138.8
							c0.1-1.2,0.7-2.2,1.7-2.8c0,0,0,0,0,0c0,0.1,0,0.2,0,0.3c-0.1,0.1-0.2,0.2-0.3,0.3c-0.5,0.5-0.9,1.3-1,2.1
							C243.3,138.7,243.2,138.8,243.1,138.8z"/>
					</g>
					<g transform="matrix(2.6444,0,0,2.6444,-375.114,-84.449)">
						<path d="M243.2,140.1c-0.1-0.3-0.1-0.6-0.1-0.9c0-0.1,0-0.3,0-0.4c0.1,0,0.2-0.1,0.3-0.2c0,0.2,0,0.4,0,0.5
							c0,0.3,0,0.5,0.1,0.8C243.4,140.1,243.3,140.1,243.2,140.1z M244.8,136.3c0-0.1,0-0.2,0-0.3c0,0,0,0,0,0
							c0.3-0.2,0.7-0.4,1.2-0.6c0,0.1,0,0.2,0,0.2C245.5,135.8,245.1,136,244.8,136.3z"/>
					</g>
					<g transform="matrix(2.6444,0,0,2.6444,-375.114,-84.449)">
						<path d="M193.8,46.3c0-0.3-0.1-0.6-0.2-0.8c-0.1-0.2-0.3-0.4-0.4-0.5c-0.3-0.2-0.6-0.4-0.9-0.6c-0.4-0.2-0.8-0.4-1.1-0.7
							c-0.1-0.1-0.2-0.2-0.3-0.4c-0.1-0.1-0.1-0.3-0.1-0.5c0-0.3-0.3-0.6-0.6-0.6c-0.3,0-0.6,0.3-0.6,0.6c0,0.3,0.1,0.6,0.2,0.9
							c0.1,0.2,0.2,0.4,0.4,0.6c0.3,0.3,0.6,0.5,0.9,0.7c0.5,0.3,0.9,0.5,1.2,0.7c0.1,0.1,0.2,0.2,0.3,0.3c0,0.1,0.1,0.2,0.1,0.3
							c0,0.3,0.3,0.6,0.6,0.6C193.5,46.9,193.8,46.6,193.8,46.3z"/>
					</g>
					<g transform="matrix(2.6444,0,0,2.6444,-375.114,-84.449)">
						<rect x="240.8" y="47" width="8.6" height="0.2"/>
					</g>
					<g transform="matrix(2.6444,0,0,2.6444,-375.114,-84.449)">
						<path d="M223.6,161.1l-3.6-3.4c-0.2-0.2-0.6-0.2-0.8,0c-0.2,0.2-0.2,0.6,0,0.8l3.6,3.4c0.2,0.2,0.6,0.2,0.8,0
							C223.8,161.7,223.8,161.3,223.6,161.1z"/>
					</g>
					<g transform="matrix(2.6444,0,0,2.6444,-375.114,-84.449)">
						<path d="M220,162l3.4-3.6c0.2-0.2,0.2-0.6,0-0.8c-0.2-0.2-0.6-0.2-0.8,0l-3.4,3.6c-0.2,0.2-0.2,0.6,0,0.8
							C219.4,162.3,219.8,162.3,220,162z"/>
					</g>
					<g transform="matrix(2.6444,0,0,2.6444,-375.114,-84.449)">
						<path d="M141.5,159.3l0.6,0.2l1.3-4.8c0.1-0.2,0-0.4-0.2-0.6s-0.4-0.2-0.6-0.2l-4.8,1.3v0l-4.8,1.3c-0.2,0.1-0.4,0.2-0.4,0.4
							c-0.1,0.2,0,0.4,0.2,0.6l3.5,3.5l0,0l3.5,3.5c0.2,0.2,0.4,0.2,0.6,0.2c0.2-0.1,0.4-0.2,0.4-0.4l1.3-4.8L141.5,159.3l-0.6-0.2
							l-1,3.8l-2.8-2.8l0,0l-2.8-2.8l3.8-1h0l3.8-1l-1,3.8L141.5,159.3z"/>
					</g>
					<g transform="matrix(2.6444,0,0,2.6444,-375.114,-84.449)">
						<path d="M182.7,171.7h-1.2c0,0.9-0.4,1.7-0.9,2.3c-0.6,0.6-1.4,0.9-2.3,0.9c-0.9,0-1.7-0.4-2.3-0.9c-0.6-0.6-0.9-1.4-0.9-2.3
							c0-0.9,0.4-1.7,0.9-2.3c0.6-0.6,1.4-0.9,2.3-0.9c0.9,0,1.7,0.4,2.3,0.9c0.6,0.6,0.9,1.4,0.9,2.3H182.7c0-2.4-2-4.4-4.4-4.4
							c-1.2,0-2.3,0.5-3.1,1.3c-0.8,0.8-1.3,1.9-1.3,3.1c0,2.4,2,4.4,4.4,4.4C180.7,176.1,182.7,174.1,182.7,171.7z"/>
					</g>
					<g transform="matrix(2.6444,0,0,2.6444,-375.114,-84.449)">
						<path d="M192.9,166c0-0.9,0.4-1.7,0.9-2.3c0.6-0.6,1.4-0.9,2.3-0.9c0.9,0,1.7,0.4,2.3,0.9c0.6,0.6,0.9,1.4,0.9,2.3
							c0,0.3,0.3,0.6,0.6,0.6c0.3,0,0.6-0.3,0.6-0.6c0-2.4-2-4.4-4.4-4.4c-1.2,0-2.3,0.5-3.1,1.3c-0.8,0.8-1.3,1.9-1.3,3.1
							c0,0.3,0.3,0.6,0.6,0.6C192.6,166.6,192.9,166.4,192.9,166z"/>
					</g>
					<g transform="matrix(2.6444,0,0,2.6444,-375.114,-84.449)">
						<path d="M212.4,174c-0.1,0-0.2,0-0.3-0.1c-0.1,0-0.1-0.1-0.2-0.2c-0.1-0.1-0.3-0.4-0.4-0.6c-0.2-0.4-0.4-0.9-0.8-1.3
							c-0.2-0.2-0.4-0.4-0.7-0.6c-0.3-0.1-0.6-0.2-1-0.2c-0.3,0-0.6,0.3-0.6,0.6c0,0.3,0.3,0.6,0.6,0.6c0.2,0,0.3,0,0.5,0.1
							c0.1,0,0.2,0.1,0.3,0.2c0.2,0.1,0.3,0.3,0.5,0.6c0.2,0.4,0.4,0.8,0.7,1.3c0.2,0.2,0.4,0.4,0.6,0.6c0.3,0.2,0.6,0.3,0.9,0.3
							c0.3,0,0.6-0.3,0.6-0.6C213,174.3,212.7,174,212.4,174z"/>
					</g>
					<g transform="matrix(2.6444,0,0,2.6444,-375.114,-84.449)">
						<path d="M219.3,174c-0.1,0-0.2,0-0.3-0.1c-0.1,0-0.1-0.1-0.2-0.2c-0.1-0.1-0.3-0.4-0.4-0.6c-0.2-0.4-0.4-0.9-0.8-1.3
							c-0.2-0.2-0.4-0.4-0.7-0.6c-0.3-0.1-0.6-0.2-1-0.2c-0.3,0-0.6,0.3-0.6,0.6c0,0.3,0.3,0.6,0.6,0.6c0.2,0,0.3,0,0.5,0.1
							c0.1,0,0.2,0.1,0.3,0.2c0.2,0.1,0.3,0.3,0.5,0.6c0.2,0.4,0.4,0.8,0.7,1.3c0.2,0.2,0.4,0.4,0.6,0.6c0.3,0.2,0.6,0.3,0.9,0.3
							c0.3,0,0.6-0.3,0.6-0.6C219.9,174.3,219.7,174,219.3,174z"/>
					</g>
					<g transform="matrix(2.6444,0,0,2.6444,-375.114,-84.449)">
						<path d="M212.4,175.2c0.3,0,0.6-0.1,0.8-0.2c0.2-0.1,0.4-0.3,0.5-0.4c0.3-0.3,0.4-0.6,0.6-0.9c0.2-0.4,0.4-0.8,0.7-1.1
							c0.1-0.1,0.2-0.2,0.4-0.3c0.1-0.1,0.3-0.1,0.5-0.1c0.3,0,0.6-0.3,0.6-0.6c0-0.3-0.3-0.6-0.6-0.6c-0.3,0-0.6,0.1-0.9,0.2
							c-0.2,0.1-0.4,0.2-0.6,0.4c-0.3,0.3-0.5,0.6-0.7,0.9c-0.3,0.5-0.5,0.9-0.7,1.2c-0.1,0.1-0.2,0.2-0.3,0.3
							c-0.1,0-0.2,0.1-0.3,0.1c-0.3,0-0.6,0.3-0.6,0.6C211.8,175,212.1,175.2,212.4,175.2z"/>
					</g>
					<g transform="matrix(2.6444,0,0,2.6444,-375.114,-84.449)">
						<path d="M219.3,175.2c0.3,0,0.6-0.1,0.8-0.2c0.2-0.1,0.4-0.3,0.5-0.4c0.2-0.3,0.4-0.6,0.6-0.9c0.2-0.4,0.4-0.8,0.7-1.1
							c0.1-0.1,0.2-0.2,0.4-0.3c0.1-0.1,0.3-0.1,0.5-0.1h0v-0.6l-0.1,0.6c0,0,0.1,0,0.1,0v-0.6l-0.1,0.6c0.3,0.1,0.6-0.2,0.7-0.5
							c0.1-0.3-0.2-0.6-0.5-0.7c0,0-0.1,0-0.1,0h0c-0.3,0-0.6,0.1-0.9,0.2c-0.2,0.1-0.4,0.2-0.6,0.4c-0.3,0.3-0.5,0.6-0.7,0.9
							c-0.3,0.5-0.5,0.9-0.7,1.2c-0.1,0.1-0.2,0.2-0.3,0.3c-0.1,0-0.2,0.1-0.3,0.1c-0.3,0-0.6,0.3-0.6,0.6
							C218.7,175,219,175.2,219.3,175.2z"/>
					</g>
					<g transform="matrix(2.6444,0,0,2.6444,-375.114,-84.449)">
						<path d="M150.8,172.3h8.6c0.3,0,0.6-0.3,0.6-0.6c0-0.3-0.3-0.6-0.6-0.6h-8.6c-0.3,0-0.6,0.3-0.6,0.6
							C150.2,172,150.5,172.3,150.8,172.3z"/>
					</g>
					<g transform="matrix(2.6444,0,0,2.6444,-375.114,-84.449)">
						<path d="M173.2,155.6l6.1-6.1c0.2-0.2,0.2-0.6,0-0.8c-0.2-0.2-0.6-0.2-0.8,0l-6.1,6.1c-0.2,0.2-0.2,0.6,0,0.8
							C172.6,155.8,173,155.8,173.2,155.6z"/>
					</g>
					<g transform="matrix(2.6444,0,0,2.6444,-375.114,-84.449)">
						<path d="M145.8,167.6l-3.7-3.7l-0.9-0.9l0.1-0.3l1,1l3.4,3.4l1.2-4.6l0.1,0l-0.1,0l1.2-4.6l-4.6,1.2l-1.4,0.4l0.1-0.3l1.2-0.3
							l5-1.4l-1.3,5L145.8,167.6z M140.2,162l-1.8-1.8l2.5-0.7l-0.1,0.3l-2,0.5l1.4,1.4L140.2,162z"/>
					</g>
					<g transform="matrix(2.6444,0,0,2.6444,-375.114,-84.449)">
						<path d="M141.2,163l-1-1l0.1-0.3l1,1L141.2,163z M140.8,159.8l0.1-0.3l1.3-0.4l-0.1,0.3L140.8,159.8z"/>
					</g>
					<g transform="matrix(2.6444,0,0,2.6444,-375.114,-84.449)">
						<path d="M183.7,178.8c-1.9,0-3.4-1.3-3.8-3c0.1,0,0.1-0.1,0.2-0.1c0.2,0.7,0.5,1.3,1,1.8c0.7,0.7,1.6,1.1,2.6,1.1
							s1.9-0.4,2.6-1.1c0.7-0.7,1.1-1.6,1.1-2.6s-0.4-1.9-1.1-2.6c-0.7-0.7-1.6-1.1-2.6-1.1c-0.4,0-0.7,0.1-1.1,0.2
							c0-0.1,0-0.2,0-0.2c0.3-0.1,0.7-0.2,1.1-0.2c2.2,0,3.9,1.8,3.9,3.9C187.7,177.1,185.9,178.8,183.7,178.8z M179.8,174.5
							c0.1-1.2,0.7-2.2,1.7-2.8v0c0,0.1,0,0.2,0,0.3c-0.1,0.1-0.2,0.2-0.3,0.3c-0.5,0.5-0.9,1.3-1,2.1
							C180,174.4,179.9,174.5,179.8,174.5z"/>
					</g>
					<g transform="matrix(2.6444,0,0,2.6444,-375.114,-84.449)">
						<path d="M179.9,175.8c-0.1-0.3-0.1-0.6-0.1-0.9c0-0.1,0-0.3,0-0.4c0.1,0,0.2-0.1,0.3-0.2c0,0.2,0,0.4,0,0.5
							c0,0.3,0,0.5,0.1,0.8C180.1,175.7,180,175.8,179.9,175.8z M181.5,172c0-0.1,0-0.2,0-0.3v0c0.3-0.2,0.7-0.4,1.2-0.6
							c0,0.1,0,0.2,0,0.2C182.2,171.5,181.8,171.7,181.5,172z"/>
					</g>
					<g transform="matrix(2.6444,0,0,2.6444,-375.114,-84.449)">
						<path d="M205.4,169.2h-0.2c0-1-0.4-1.9-1.1-2.6c-0.7-0.7-1.6-1.1-2.6-1.1c-0.4,0-0.7,0.1-1.1,0.2c0-0.1,0-0.2,0-0.2
							c0.3-0.1,0.7-0.2,1.1-0.2C203.7,165.3,205.4,167.1,205.4,169.2z M197.8,169.2h-0.2c0-1.3,0.7-2.5,1.7-3.2v0c0,0.1,0,0.2,0,0.2
							c-0.1,0.1-0.3,0.2-0.4,0.4C198.2,167.3,197.8,168.2,197.8,169.2z"/>
					</g>
					<g transform="matrix(2.6444,0,0,2.6444,-375.114,-84.449)">
						<path d="M199.3,166.3c0-0.1,0-0.2,0-0.2v0c0.3-0.2,0.7-0.4,1.2-0.6c0,0.1,0,0.2,0,0.2C200,165.8,199.7,166,199.3,166.3z"/>
					</g>
					<g transform="matrix(2.6444,0,0,2.6444,-375.114,-84.449)">
						<path d="M217.8,178c-0.3,0-0.6-0.1-0.8-0.3c-0.2-0.2-0.4-0.4-0.5-0.7c-0.3-0.5-0.6-1.1-1-1.5c-0.3-0.3-0.6-0.4-1.1-0.4v-0.2h0
							c0.4,0,0.8,0.1,1,0.3c0.3,0.2,0.5,0.4,0.7,0.7c0.4,0.5,0.6,1.1,0.9,1.5c0.2,0.3,0.5,0.4,0.9,0.4L217.8,178L217.8,178z"/>
					</g>
					<g transform="matrix(2.6444,0,0,2.6444,-375.114,-84.449)">
						<path d="M224.8,178c-0.3,0-0.6-0.1-0.8-0.3c-0.2-0.2-0.4-0.4-0.5-0.7c-0.3-0.5-0.6-1.1-1-1.5c-0.3-0.3-0.6-0.4-1.1-0.4v-0.2h0
							c0.4,0,0.8,0.1,1,0.3c0.3,0.2,0.5,0.4,0.7,0.7c0.4,0.5,0.6,1.1,0.9,1.5c0.2,0.3,0.5,0.4,0.9,0.4L224.8,178L224.8,178z"/>
					</g>
					<g transform="matrix(2.6444,0,0,2.6444,-375.114,-84.449)">
						<path d="M217.8,178L217.8,178l0-0.2c0.3,0,0.5-0.1,0.7-0.2c0.2-0.2,0.3-0.4,0.5-0.6c0.3-0.5,0.6-1.1,1-1.6
							c0.3-0.3,0.7-0.5,1.3-0.5h0v0.2c-0.4,0-0.7,0.1-0.9,0.3c-0.2,0.2-0.4,0.4-0.6,0.6c-0.3,0.5-0.6,1.1-1,1.6
							C218.6,177.7,218.3,178,217.8,178z"/>
					</g>
					<g transform="matrix(2.6444,0,0,2.6444,-375.114,-84.449)">
						<path d="M224.8,178l0-0.1v-0.1c0.3,0,0.5-0.1,0.7-0.2c0.2-0.2,0.3-0.4,0.5-0.6c0.3-0.5,0.6-1.1,1-1.6c0.3-0.3,0.7-0.5,1.3-0.5
							h0l0,0l0,0.2l0-0.1v0.1h0c-0.4,0-0.7,0.1-0.9,0.3c-0.2,0.2-0.4,0.4-0.6,0.6c-0.3,0.5-0.6,1.1-1,1.6
							C225.6,177.7,225.2,178,224.8,178L224.8,178z"/>
					</g>
					<g transform="matrix(2.6444,0,0,2.6444,-375.114,-84.449)">
						<rect x="156.3" y="174.8" width="8.6" height="0.2"/>
					</g>
					<g transform="matrix(2.6444,0,0,2.6444,-375.114,-84.449)">
						<path d="M178.4,158.4l-0.2-0.2l6.1-6.1l0.2,0.2L178.4,158.4z"/>
					</g>
					<g transform="matrix(2.6444,0,0,2.6444,-375.114,-84.449)">
						<path d="M194.7,148.2l-0.3-0.5c-0.2,0.1-0.3,0.1-0.5,0.1c-0.1,0-0.3,0-0.4-0.1c-0.1-0.1-0.2-0.2-0.3-0.3l0,0
							c-0.1-0.2-0.1-0.3-0.1-0.5c0-0.1,0-0.3,0.1-0.4c0.1-0.1,0.2-0.2,0.3-0.3c0.2-0.1,0.3-0.1,0.5-0.1c0.1,0,0.3,0,0.4,0.1
							c0.1,0.1,0.2,0.2,0.3,0.3l0,0c0.1,0.2,0.1,0.3,0.1,0.5c0,0.1,0,0.3-0.1,0.4c-0.1,0.1-0.2,0.2-0.3,0.3l0,0L194.7,148.2l0.3,0.5
							c0.3-0.2,0.6-0.5,0.7-0.8c0.2-0.3,0.3-0.7,0.3-1c0-0.4-0.1-0.8-0.3-1.1l0,0c-0.2-0.3-0.5-0.6-0.8-0.7c-0.3-0.2-0.7-0.3-1-0.3
							c-0.4,0-0.8,0.1-1.1,0.3c-0.3,0.2-0.6,0.5-0.7,0.8c-0.2,0.3-0.3,0.7-0.3,1c0,0.4,0.1,0.8,0.3,1.1l0,0c0.2,0.3,0.5,0.6,0.8,0.7
							c0.3,0.2,0.7,0.3,1,0.3c0.4,0,0.8-0.1,1.1-0.3l0,0L194.7,148.2z"/>
					</g>
					<g transform="matrix(1.61923e-16,2.6444,-2.6444,1.61923e-16,2879.39,-84.7186)">
						<path d="M90.4,862.9l-3.6-3.4c-0.2-0.2-0.6-0.2-0.8,0c-0.2,0.2-0.2,0.6,0,0.8l3.6,3.4c0.2,0.2,0.6,0.2,0.8,0
							C90.7,863.5,90.7,863.1,90.4,862.9z"/>
					</g>
					<g transform="matrix(1.61923e-16,2.6444,-2.6444,1.61923e-16,2879.39,-84.7186)">
						<path d="M86.9,863.8l3.4-3.6c0.2-0.2,0.2-0.6,0-0.8c-0.2-0.2-0.6-0.2-0.8,0L86,863c-0.2,0.2-0.2,0.6,0,0.8
							C86.3,864.1,86.7,864.1,86.9,863.8z"/>
					</g>
					<g transform="matrix(0.27336,-0.27336,0.27336,0.27336,1046.64,986.248)">
						<path class="st4" d="M429.2-2612.9c14.4,0,26.2,11.7,26.2,26.2s-11.7,26.2-26.2,26.2s-26.2-11.7-26.2-26.2
							S414.7-2612.9,429.2-2612.9z M429.2-2609.4c12.5,0,22.7,10.2,22.7,22.7s-10.2,22.7-22.7,22.7s-22.7-10.2-22.7-22.7
							S416.6-2609.4,429.2-2609.4z M433-2586.8v0.1c0,2,1.6,3.6,3.6,3.6h2c0.8,0,1.5,0.7,1.5,1.5v6h-6.1c-0.8,0-1.5-0.7-1.5-1.5
							v-2.5c0-2-1.6-3.6-3.6-3.6h-0.1c-2,0-3.6,1.6-3.6,3.6v3.9h-6.8v-22.3h6.8v4c0,2,1.6,3.6,3.6,3.6h0.1c2,0,3.6-1.6,3.6-3.6v-2.5
							c0-0.8,0.7-1.5,1.5-1.5h6.1v6c0,0.8-0.7,1.5-1.5,1.5h-2C434.6-2590.3,433-2588.7,433-2586.8z"/>
					</g>
					<g transform="matrix(1.61923e-16,2.6444,-2.6444,1.61923e-16,2879.39,-84.7186)">
						<path d="M178.3,862.8l-3.6-3.4c-0.2-0.2-0.6-0.2-0.8,0c-0.2,0.2-0.2,0.6,0,0.8l3.6,3.4c0.2,0.2,0.6,0.2,0.8,0
							C178.6,863.4,178.6,863,178.3,862.8z"/>
					</g>
					<g transform="matrix(1.61923e-16,2.6444,-2.6444,1.61923e-16,2879.39,-84.7186)">
						<path d="M174.8,863.8l3.4-3.6c0.2-0.2,0.2-0.6,0-0.8c-0.2-0.2-0.6-0.2-0.8,0l-3.4,3.6c-0.2,0.2-0.2,0.6,0,0.8
							C174.2,864,174.6,864,174.8,863.8z"/>
					</g>
					<g transform="matrix(1.61923e-16,2.6444,-2.6444,1.61923e-16,2879.39,-84.7186)">
						<path d="M135.3,881.4l-3.6-3.4c-0.2-0.2-0.6-0.2-0.8,0c-0.2,0.2-0.2,0.6,0,0.8l3.6,3.4c0.2,0.2,0.6,0.2,0.8,0
							C135.6,882,135.5,881.6,135.3,881.4z"/>
					</g>
					<g transform="matrix(1.61923e-16,2.6444,-2.6444,1.61923e-16,2879.39,-84.7186)">
						<path d="M131.8,882.4l3.4-3.6c0.2-0.2,0.2-0.6,0-0.8c-0.2-0.2-0.6-0.2-0.8,0l-3.4,3.6c-0.2,0.2-0.2,0.6,0,0.8
							C131.2,882.6,131.6,882.6,131.8,882.4z"/>
					</g>
					<g transform="matrix(1.61923e-16,2.6444,-2.6444,1.61923e-16,2879.39,-84.7186)">
						<path d="M108.8,921.9l0.5-0.3l-2.5-4.3c-0.1-0.2-0.3-0.3-0.5-0.3c-0.2,0-0.4,0.1-0.5,0.3l-2.5,4.3l-2.5,4.3
							c-0.1,0.2-0.1,0.4,0,0.6c0.1,0.2,0.3,0.3,0.5,0.3l5,0l5,0c0.2,0,0.4-0.1,0.5-0.3c0.1-0.2,0.1-0.4,0-0.6l-2.5-4.3L108.8,921.9
							l-0.5,0.3l2,3.4l-4,0l-4,0l2-3.4l2-3.4l2,3.4L108.8,921.9z"/>
					</g>
					<g transform="matrix(1.61923e-16,2.6444,-2.6444,1.61923e-16,2880.39,-192.623)">
						<path d="M185.2,905.1l0.6,0.2l1.3-4.8c0.1-0.2,0-0.4-0.2-0.6c-0.2-0.2-0.4-0.2-0.6-0.2l-4.8,1.3l-4.8,1.3
							c-0.2,0.1-0.4,0.2-0.4,0.4c-0.1,0.2,0,0.4,0.2,0.6l3.5,3.5l3.5,3.5c0.2,0.2,0.4,0.2,0.6,0.2c0.2-0.1,0.4-0.2,0.4-0.4l1.3-4.8
							L185.2,905.1l-0.6-0.2l-1,3.8l-2.8-2.8l-2.8-2.8l3.8-1l3.8-1l-1,3.8L185.2,905.1z"/>
					</g>
					<g transform="matrix(1.61923e-16,2.6444,-2.6444,1.61923e-16,2879.39,-84.7186)">
						<path d="M67.8,903.6l0.6,1l4.3-2.5c0.2-0.1,0.3-0.3,0.3-0.5s-0.1-0.4-0.3-0.5l-4.3-2.5l0,0l-4.3-2.5c-0.2-0.1-0.4-0.1-0.6,0
							c-0.2,0.1-0.3,0.3-0.3,0.5l0,5l0,5c0,0.2,0.1,0.4,0.3,0.5c0.2,0.1,0.4,0.1,0.6,0l4.3-2.5L67.8,903.6l-3.4,2l0-4l0-4l3.4,2v0
							l3.4,2L67.8,903.6z"/>
					</g>
					<g transform="matrix(1.61923e-16,2.6444,-2.6444,1.61923e-16,2879.39,-84.7186)">
						<path d="M126.2,895.9H125c0,0.9-0.4,1.7-0.9,2.3c-0.6,0.6-1.4,0.9-2.3,0.9c-0.9,0-1.7-0.4-2.3-0.9c-0.6-0.6-0.9-1.4-0.9-2.3
							c0-0.9,0.4-1.7,0.9-2.3c0.6-0.6,1.4-0.9,2.3-0.9c0.9,0,1.7,0.4,2.3,0.9c0.6,0.6,0.9,1.4,0.9,2.3H126.2c0-2.4-2-4.4-4.4-4.4
							c-2.4,0-4.4,2-4.4,4.4c0,2.4,2,4.4,4.4,4.4C124.2,900.3,126.2,898.3,126.2,895.9z"/>
					</g>
					<g transform="matrix(1.61923e-16,2.6444,-2.6444,1.61923e-16,2879.39,-84.7186)">
						<path d="M107,853.4h-1.2c0,0.9-0.4,1.7-0.9,2.3c-0.6,0.6-1.4,0.9-2.3,0.9c-0.9,0-1.7-0.4-2.3-0.9c-0.6-0.6-0.9-1.4-0.9-2.3
							c0-0.9,0.4-1.7,0.9-2.3c0.6-0.6,1.4-0.9,2.3-0.9c0.9,0,1.7,0.4,2.3,0.9c0.6,0.6,0.9,1.4,0.9,2.3H107c0-2.4-2-4.4-4.4-4.4
							c-2.4,0-4.4,2-4.4,4.4c0,2.4,2,4.4,4.4,4.4C105,857.8,107,855.9,107,853.4z"/>
					</g>
					<g transform="matrix(1.61923e-16,2.6444,-2.6444,1.61923e-16,2938.39,-84.7186)">
						<path d="M49.2,887.7c0-0.9,0.4-1.7,0.9-2.3c0.6-0.6,1.4-0.9,2.3-0.9c0.9,0,1.7,0.4,2.3,0.9c0.6,0.6,0.9,1.4,0.9,2.3
							c0,0.3,0.3,0.6,0.6,0.6c0.3,0,0.6-0.3,0.6-0.6c0-1.2-0.5-2.3-1.3-3.1c-0.8-0.8-1.9-1.3-3.1-1.3c-1.2,0-2.3,0.5-3.1,1.3
							c-0.8,0.8-1.3,1.9-1.3,3.1c0,0.3,0.3,0.6,0.6,0.6C48.9,888.3,49.2,888,49.2,887.7z"/>
					</g>
					<g transform="matrix(0.462671,-0.267123,0.267123,0.462671,1061.44,291.012)">
						<path class="st4" d="M-564.6-904c14.4,0,26.2,11.7,26.2,26.2s-11.7,26.2-26.2,26.2s-26.2-11.7-26.2-26.2S-579-904-564.6-904z
							 M-564.6-900.5c12.5,0,22.7,10.2,22.7,22.7s-10.2,22.7-22.7,22.7s-22.7-10.2-22.7-22.7S-577.1-900.5-564.6-900.5z
							 M-560.7-877.9v0.1c0,2,1.6,3.6,3.6,3.6h2c0.8,0,1.5,0.7,1.5,1.5v6h-6.1c-0.8,0-1.5-0.7-1.5-1.5v-2.5c0-2-1.6-3.6-3.6-3.6
							h-0.1c-2,0-3.6,1.6-3.6,3.6v3.9h-6.8V-889h6.8v4c0,2,1.6,3.6,3.6,3.6h0.1c2,0,3.6-1.6,3.6-3.6v-2.5c0-0.8,0.7-1.5,1.5-1.5h6.1
							v6c0,0.8-0.7,1.5-1.5,1.5h-2C-559.1-881.4-560.7-879.8-560.7-877.9z"/>
					</g>
					<g transform="matrix(1.61923e-16,2.6444,-2.6444,1.61923e-16,2879.39,-84.7186)">
						<path d="M144.5,876.3c-0.9,0-1.7-0.4-2.3-0.9c-0.6-0.6-0.9-1.4-0.9-2.3c0-0.9,0.4-1.7,0.9-2.3c0.6-0.6,1.4-0.9,2.3-0.9
							c0.3,0,0.6-0.3,0.6-0.6c0-0.3-0.3-0.6-0.6-0.6c-1.2,0-2.3,0.5-3.1,1.3c-0.8,0.8-1.3,1.9-1.3,3.1c0,1.2,0.5,2.3,1.3,3.1
							c0.8,0.8,1.9,1.3,3.1,1.3c0.3,0,0.6-0.3,0.6-0.6S144.8,876.3,144.5,876.3z"/>
					</g>
					<g transform="matrix(1.61923e-16,2.6444,-2.6444,1.61923e-16,2879.39,-84.7186)">
						<path d="M55.4,925.7h-1.2c0,0.9-0.4,1.7-0.9,2.3c-0.6,0.6-1.4,0.9-2.3,0.9c-0.9,0-1.7-0.4-2.3-0.9c-0.6-0.6-0.9-1.4-0.9-2.3
							c0-0.9,0.4-1.7,0.9-2.3c0.6-0.6,1.4-0.9,2.3-0.9c0.9,0,1.7,0.4,2.3,0.9c0.6,0.6,0.9,1.4,0.9,2.3H55.4c0-2.4-2-4.4-4.4-4.4
							c-1.2,0-2.3,0.5-3.1,1.3c-0.8,0.8-1.3,1.9-1.3,3.1c0,2.4,2,4.4,4.4,4.4C53.4,930.1,55.4,928.1,55.4,925.7z"/>
					</g>
					<g transform="matrix(1.61923e-16,2.6444,-2.6444,1.61923e-16,2879.39,-84.7186)">
						<path d="M161.6,869.4v0.6h7v6.4h-6.4v-7H161.6v0.6V869.4H161v7.6c0,0.2,0.1,0.3,0.2,0.4c0.1,0.1,0.3,0.2,0.4,0.2h7.6
							c0.2,0,0.3-0.1,0.4-0.2c0.1-0.1,0.2-0.3,0.2-0.4v-7.6c0-0.2-0.1-0.3-0.2-0.4c-0.1-0.1-0.3-0.2-0.4-0.2h-7.6
							c-0.2,0-0.3,0.1-0.4,0.2c-0.1,0.1-0.2,0.3-0.2,0.4H161.6z"/>
					</g>
					<g transform="matrix(1.61923e-16,2.6444,-2.6444,1.61923e-16,2879.39,-84.7186)">
						<path d="M76,873.1v0.6h7v6.4h-6.4v-7H76v0.6V873.1h-0.6v7.6c0,0.2,0.1,0.3,0.2,0.4c0.1,0.1,0.3,0.2,0.4,0.2h7.6
							c0.2,0,0.3-0.1,0.4-0.2c0.1-0.1,0.2-0.3,0.2-0.4v-7.6c0-0.2-0.1-0.3-0.2-0.4c-0.1-0.1-0.3-0.2-0.4-0.2H76
							c-0.2,0-0.3,0.1-0.4,0.2c-0.1,0.1-0.2,0.3-0.2,0.4H76z"/>
					</g>
					<g transform="matrix(1.61923e-16,2.6444,-2.6444,1.61923e-16,2879.39,-84.7186)">
						<path d="M119.3,913.5c-0.1,0-0.2,0-0.3-0.1c-0.1,0-0.1-0.1-0.2-0.2c-0.1-0.1-0.3-0.4-0.4-0.6c-0.2-0.4-0.4-0.9-0.8-1.3
							c-0.2-0.2-0.4-0.4-0.7-0.6c-0.3-0.1-0.6-0.2-1-0.2c-0.3,0-0.6,0.3-0.6,0.6c0,0.3,0.3,0.6,0.6,0.6c0.2,0,0.3,0,0.5,0.1
							c0.1,0,0.2,0.1,0.3,0.2c0.2,0.1,0.3,0.3,0.5,0.6c0.2,0.4,0.4,0.8,0.7,1.3c0.2,0.2,0.4,0.4,0.6,0.6c0.3,0.2,0.6,0.3,0.9,0.3
							c0.3,0,0.6-0.3,0.6-0.6C119.9,913.7,119.6,913.5,119.3,913.5z"/>
					</g>
					<g transform="matrix(1.61923e-16,2.6444,-2.6444,1.61923e-16,2879.39,-84.7186)">
						<path d="M126.2,913.5c-0.1,0-0.2,0-0.3-0.1c-0.1,0-0.1-0.1-0.2-0.2c-0.1-0.1-0.3-0.4-0.4-0.6c-0.2-0.4-0.4-0.9-0.8-1.3
							c-0.2-0.2-0.4-0.4-0.7-0.6c-0.3-0.1-0.6-0.2-1-0.2c-0.3,0-0.6,0.3-0.6,0.6c0,0.3,0.3,0.6,0.6,0.6c0.2,0,0.3,0,0.5,0.1
							c0.1,0,0.2,0.1,0.3,0.2c0.2,0.1,0.3,0.3,0.5,0.6c0.2,0.4,0.4,0.8,0.7,1.3c0.2,0.2,0.4,0.4,0.6,0.6c0.3,0.2,0.6,0.3,0.9,0.3
							c0.3,0,0.6-0.3,0.6-0.6C126.8,913.7,126.6,913.5,126.2,913.5z"/>
					</g>
					<g transform="matrix(1.61923e-16,2.6444,-2.6444,1.61923e-16,2879.39,-84.7186)">
						<path d="M119.3,914.7c0.3,0,0.6-0.1,0.8-0.2c0.2-0.1,0.4-0.3,0.5-0.4c0.3-0.3,0.4-0.6,0.6-0.9c0.2-0.4,0.4-0.8,0.7-1.1
							c0.1-0.1,0.2-0.2,0.4-0.3c0.1-0.1,0.3-0.1,0.5-0.1c0.3,0,0.6-0.3,0.6-0.6c0-0.3-0.3-0.6-0.6-0.6c-0.3,0-0.6,0.1-0.9,0.2
							c-0.2,0.1-0.4,0.2-0.6,0.4c-0.3,0.3-0.5,0.6-0.7,0.9c-0.3,0.5-0.5,0.9-0.7,1.2c-0.1,0.1-0.2,0.2-0.3,0.3
							c-0.1,0-0.2,0.1-0.3,0.1c-0.3,0-0.6,0.3-0.6,0.6C118.7,914.4,119,914.7,119.3,914.7z"/>
					</g>
					<g transform="matrix(1.61923e-16,2.6444,-2.6444,1.61923e-16,2879.39,-84.7186)">
						<path d="M126.2,914.7c0.3,0,0.6-0.1,0.8-0.2c0.2-0.1,0.4-0.3,0.5-0.4c0.2-0.3,0.4-0.6,0.6-0.9c0.2-0.4,0.4-0.8,0.7-1.1
							c0.1-0.1,0.2-0.2,0.4-0.3c0.1-0.1,0.3-0.1,0.5-0.1c0.3,0,0.6-0.3,0.6-0.6c0-0.3-0.3-0.6-0.6-0.6c-0.3,0-0.6,0.1-0.9,0.2
							c-0.2,0.1-0.4,0.2-0.6,0.4c-0.3,0.3-0.5,0.6-0.7,0.9c-0.3,0.5-0.5,0.9-0.7,1.2c-0.1,0.1-0.2,0.2-0.3,0.3
							c-0.1,0-0.2,0.1-0.3,0.1c-0.3,0-0.6,0.3-0.6,0.6C125.6,914.4,125.9,914.7,126.2,914.7z"/>
					</g>
					<g transform="matrix(1.61923e-16,2.6444,-2.6444,1.61923e-16,2879.39,-84.7186)">
						<path d="M98,883.6c0,0.1,0,0.2-0.1,0.3c0,0.1-0.1,0.1-0.2,0.2c-0.1,0.1-0.4,0.3-0.6,0.4c-0.4,0.2-0.9,0.4-1.3,0.8
							c-0.2,0.2-0.4,0.4-0.6,0.7c-0.1,0.3-0.2,0.6-0.2,1c0,0.3,0.3,0.6,0.6,0.6c0.3,0,0.6-0.3,0.6-0.6c0-0.2,0-0.3,0.1-0.5
							c0-0.1,0.1-0.2,0.2-0.3c0.1-0.2,0.3-0.3,0.6-0.5c0.4-0.2,0.8-0.4,1.3-0.7c0.2-0.2,0.4-0.4,0.6-0.6c0.2-0.3,0.3-0.6,0.3-0.9
							c0-0.3-0.3-0.6-0.6-0.6C98.2,883,98,883.2,98,883.6z"/>
					</g>
					<g transform="matrix(1.61923e-16,2.6444,-2.6444,1.61923e-16,2879.39,-84.7186)">
						<path d="M98,876.6c0,0.1,0,0.2-0.1,0.3c0,0.1-0.1,0.1-0.2,0.2c-0.1,0.1-0.4,0.3-0.6,0.4c-0.4,0.2-0.9,0.4-1.3,0.8
							c-0.2,0.2-0.4,0.4-0.6,0.7c-0.1,0.3-0.2,0.6-0.2,1c0,0.3,0.3,0.6,0.6,0.6c0.3,0,0.6-0.3,0.6-0.6c0-0.2,0-0.3,0.1-0.5
							c0-0.1,0.1-0.2,0.2-0.3c0.1-0.2,0.3-0.3,0.6-0.5c0.4-0.2,0.8-0.4,1.3-0.7c0.2-0.2,0.4-0.4,0.6-0.6c0.2-0.3,0.3-0.6,0.3-0.9
							c0-0.3-0.3-0.6-0.6-0.6C98.2,876,98,876.3,98,876.6z"/>
					</g>
					<g transform="matrix(1.61923e-16,2.6444,-2.6444,1.61923e-16,2879.39,-84.7186)">
						<path d="M99.2,883.6c0-0.3-0.1-0.6-0.2-0.8c-0.1-0.2-0.3-0.4-0.4-0.5c-0.3-0.3-0.6-0.4-0.9-0.6c-0.4-0.2-0.8-0.4-1.1-0.7
							c-0.1-0.1-0.2-0.2-0.3-0.4c-0.1-0.1-0.1-0.3-0.1-0.5c0-0.3-0.3-0.6-0.6-0.6c-0.3,0-0.6,0.3-0.6,0.6c0,0.3,0.1,0.6,0.2,0.9
							c0.1,0.2,0.2,0.4,0.4,0.6c0.3,0.3,0.6,0.5,0.9,0.7c0.5,0.3,0.9,0.5,1.2,0.7c0.1,0.1,0.2,0.2,0.3,0.3c0,0.1,0.1,0.2,0.1,0.3
							c0,0.3,0.3,0.6,0.6,0.6C98.9,884.2,99.2,883.9,99.2,883.6z"/>
					</g>
					<g transform="matrix(1.61923e-16,2.6444,-2.6444,1.61923e-16,2879.39,-84.7186)">
						<path d="M99.2,876.6c0-0.3-0.1-0.6-0.2-0.8c-0.1-0.2-0.3-0.4-0.4-0.5c-0.3-0.2-0.6-0.4-0.9-0.6c-0.4-0.2-0.8-0.4-1.1-0.7
							c-0.1-0.1-0.2-0.2-0.3-0.4c-0.1-0.1-0.1-0.3-0.1-0.5c0-0.3-0.3-0.6-0.6-0.6c-0.3,0-0.6,0.3-0.6,0.6c0,0.3,0.1,0.6,0.2,0.9
							c0.1,0.2,0.2,0.4,0.4,0.6c0.3,0.3,0.6,0.5,0.9,0.7c0.5,0.3,0.9,0.5,1.2,0.7c0.1,0.1,0.2,0.2,0.3,0.3c0,0.1,0.1,0.2,0.1,0.3
							c0,0.3,0.3,0.6,0.6,0.6C98.9,877.2,99.2,876.9,99.2,876.6z"/>
					</g>
					<g transform="matrix(1.61923e-16,2.6444,-2.6444,1.61923e-16,2879.39,-84.7186)">
						<path d="M127.6,922.5h8.6c0.3,0,0.6-0.3,0.6-0.6c0-0.3-0.3-0.6-0.6-0.6h-8.6c-0.3,0-0.6,0.3-0.6,0.6
							C127,922.2,127.3,922.5,127.6,922.5z"/>
					</g>
					<g transform="matrix(1.61923e-16,2.6444,-2.6444,1.61923e-16,2879.39,-84.7186)">
						<path d="M43.3,897.7h8.6c0.3,0,0.6-0.3,0.6-0.6s-0.3-0.6-0.6-0.6h-8.6c-0.3,0-0.6,0.3-0.6,0.6S43,897.7,43.3,897.7z"/>
					</g>
					<g transform="matrix(1.61923e-16,2.6444,-2.6444,1.61923e-16,2879.39,-84.7186)">
						<path d="M128.3,857.8h8.6c0.3,0,0.6-0.3,0.6-0.6c0-0.3-0.3-0.6-0.6-0.6h-8.6c-0.3,0-0.6,0.3-0.6,0.6
							C127.7,857.6,127.9,857.8,128.3,857.8z"/>
					</g>
					<g transform="matrix(1.61923e-16,2.6444,-2.6444,1.61923e-16,2879.39,-84.7186)">
						<path d="M166.8,906.5l6.1-6.1c0.2-0.2,0.2-0.6,0-0.8c-0.2-0.2-0.6-0.2-0.8,0l-6.1,6.1c-0.2,0.2-0.2,0.6,0,0.8
							C166.2,906.8,166.5,906.8,166.8,906.5z"/>
					</g>
					<g transform="matrix(1.61923e-16,2.6444,-2.6444,1.61923e-16,2879.39,-84.7186)">
						<path d="M106.5,929.5l1.6-2.7h0.3l-1.4,2.5l4.8,0l4.8,0l-2.4-4.2l0.1-0.1l0.1-0.1l2.6,4.5l-5.2,0L106.5,929.5z M108.8,925.6
							l0.4-0.6l0.4-0.7l0.1,0.2l-0.3,0.6l-0.3,0.5L108.8,925.6z M114.2,925.1l-2.4-4.2l-1.4,2.4l-0.1-0.2l1.5-2.6l2.6,4.5l-0.1,0.1
							L114.2,925.1z"/>
					</g>
					<g transform="matrix(1.61923e-16,2.6444,-2.6444,1.61923e-16,2879.39,-84.7186)">
						<path d="M108.1,926.8l0.7-1.2l0.3,0l-0.7,1.2H108.1z M109.7,924.6l-0.1-0.2l0.7-1.2l0.1,0.2L109.7,924.6z"/>
					</g>
					<g transform="matrix(1.61923e-16,2.6444,-2.6444,1.61923e-16,2880.39,-192.623)">
						<path d="M189.4,913.4l-3.7-3.7l-0.9-0.9l0.1-0.3l1,1l3.4,3.4l1.2-4.6l1.2-4.6l-4.6,1.2l-1.4,0.4l0.1-0.3l1.2-0.3l5-1.4l-1.3,5
							L189.4,913.4z M183.8,907.8L182,906l2.5-0.7l-0.1,0.3l-2,0.5l1.4,1.4L183.8,907.8z"/>
					</g>
					<g transform="matrix(1.61923e-16,2.6444,-2.6444,1.61923e-16,2880.39,-192.623)">
						<path d="M184.8,908.8l-1-1l0.1-0.3l1,1L184.8,908.8z M184.4,905.6l0.1-0.3l1.3-0.4l-0.1,0.3L184.4,905.6z"/>
					</g>
					<g transform="matrix(1.61923e-16,2.6444,-2.6444,1.61923e-16,2879.39,-84.7186)">
						<path d="M160.2,859.9l0-5.2l0-0.6l0.2-0.1l0,0.7l0,4.8l4.2-2.4l4.2-2.4l-4.2-2.4l-0.6-0.4c0.1-0.1,0.1-0.1,0.1-0.2l0.6,0.4
							l4.5,2.6l-4.5,2.6L160.2,859.9z M160.2,852.7l0-2.5l0.2,0.1l0,2.2L160.2,852.7z"/>
					</g>
					<g transform="matrix(1.61923e-16,2.6444,-2.6444,1.61923e-16,2879.39,-84.7186)">
						<path d="M69.1,910l0-5.2l0-0.6l0.2-0.1l0,0.7l0,4.8l4.2-2.4l4.2-2.4l-4.2-2.4l-0.6-0.4c0.1-0.1,0.1-0.1,0.1-0.2l0.6,0.4
							l4.5,2.6l-4.5,2.6v0L69.1,910z M69.1,902.8l0-2.5l0.2,0.1l0,2.2L69.1,902.8z"/>
					</g>
					<g transform="matrix(1.61923e-16,2.6444,-2.6444,1.61923e-16,2879.39,-84.7186)">
						<path d="M69.1,904.2l0-1.4l0.2-0.1l0,1.4L69.1,904.2z M72.9,902l-3.5-2l0,0.5l-0.2-0.1l0-0.8l3.9,2.3
							C73,901.9,72.9,902,72.9,902z"/>
					</g>
					<g transform="matrix(1.61923e-16,2.6444,-2.6444,1.61923e-16,2879.39,-84.7186)">
						<path d="M127.2,903c-1.9,0-3.4-1.3-3.8-3c0.1,0,0.1-0.1,0.2-0.1c0.2,0.7,0.5,1.3,1,1.8c0.7,0.7,1.6,1.1,2.6,1.1
							c1,0,1.9-0.4,2.6-1.1c0.7-0.7,1.1-1.6,1.1-2.6s-0.4-1.9-1.1-2.6c-0.7-0.7-1.6-1.1-2.6-1.1c-0.4,0-0.7,0.1-1.1,0.2
							c0-0.1,0-0.2,0-0.2c0.3-0.1,0.7-0.2,1.1-0.2c2.2,0,3.9,1.8,3.9,3.9S129.4,903,127.2,903z M123.3,898.7
							c0.1-1.2,0.7-2.2,1.7-2.8v0c0,0.1,0,0.2,0,0.3c-0.1,0.1-0.2,0.2-0.3,0.3c-0.5,0.5-0.9,1.3-1,2.1
							C123.5,898.6,123.4,898.6,123.3,898.7z"/>
					</g>
					<g transform="matrix(1.61923e-16,2.6444,-2.6444,1.61923e-16,2879.39,-84.7186)">
						<path d="M123.4,900c-0.1-0.3-0.1-0.6-0.1-0.9c0-0.1,0-0.3,0-0.4c0.1,0,0.2-0.1,0.3-0.2c0,0.2,0,0.4,0,0.5c0,0.3,0,0.5,0.1,0.8
							C123.6,899.9,123.5,899.9,123.4,900z M125,896.2c0-0.1,0-0.2,0-0.3v0c0.3-0.2,0.7-0.4,1.2-0.6c0,0.1,0,0.2,0,0.2
							C125.7,895.7,125.3,895.9,125,896.2z"/>
					</g>
					<g transform="matrix(1.61923e-16,2.6444,-2.6444,1.61923e-16,2879.39,-84.7186)">
						<path d="M108,860.5c-1.9,0-3.4-1.3-3.8-3c0.1,0,0.1-0.1,0.2-0.1c0.2,0.7,0.5,1.3,1,1.8c0.7,0.7,1.6,1.1,2.6,1.1
							c1,0,1.9-0.4,2.6-1.1c0.7-0.7,1.1-1.6,1.1-2.6c0-1-0.4-1.9-1.1-2.6c-0.7-0.7-1.6-1.1-2.6-1.1c-0.4,0-0.7,0.1-1.1,0.2
							c0-0.1,0-0.2,0-0.2c0.3-0.1,0.7-0.2,1.1-0.2c2.2,0,3.9,1.8,3.9,3.9C111.9,858.8,110.2,860.5,108,860.5z M104.1,856.2
							c0.1-1.2,0.7-2.2,1.7-2.8v0c0,0.1,0,0.2,0,0.3c-0.1,0.1-0.2,0.2-0.3,0.3c-0.5,0.5-0.9,1.3-1,2.1
							C104.3,856.1,104.2,856.2,104.1,856.2z"/>
					</g>
					<g transform="matrix(1.61923e-16,2.6444,-2.6444,1.61923e-16,2879.39,-84.7186)">
						<path d="M104.2,857.5c-0.1-0.3-0.1-0.6-0.1-0.9c0-0.1,0-0.3,0-0.4c0.1,0,0.2-0.1,0.3-0.2c0,0.2,0,0.4,0,0.5
							c0,0.3,0,0.5,0.1,0.8C104.3,857.5,104.3,857.5,104.2,857.5z M105.8,853.7c0-0.1,0-0.2,0-0.3v0c0.3-0.2,0.7-0.4,1.2-0.6
							c0,0.1,0,0.2,0,0.2C106.5,853.2,106.1,853.4,105.8,853.7z"/>
					</g>
					<g transform="matrix(1.61923e-16,2.6444,-2.6444,1.61923e-16,2938.39,-84.7186)">
						<path d="M61.7,890.9h-0.2c0-1-0.4-1.9-1.1-2.6c-0.7-0.7-1.6-1.1-2.6-1.1c-0.4,0-0.7,0.1-1.1,0.2c0-0.1,0-0.2,0-0.2
							c0.4-0.1,0.7-0.2,1.1-0.2C60,886.9,61.7,888.7,61.7,890.9z M54.2,890.9h-0.2c0-1.3,0.6-2.5,1.6-3.2v0c0,0.1,0,0.2,0.1,0.3
							c-0.1,0.1-0.3,0.2-0.4,0.3C54.6,888.9,54.2,889.9,54.2,890.9z"/>
					</g>
					<g transform="matrix(1.61923e-16,2.6444,-2.6444,1.61923e-16,2879.39,-84.7186)">
						<path d="M55.6,871c0-0.1-0.1-0.2-0.1-0.3v0c0.3-0.2,0.7-0.4,1.2-0.6c0,0.1,0,0.2,0,0.2C56.3,870.5,55.9,870.7,55.6,871z"/>
					</g>
					<g transform="matrix(1.61923e-16,2.6444,-2.6444,1.61923e-16,2879.39,-84.7186)">
						<path d="M149.9,880.2c-2.2,0-3.9-1.7-3.9-3.9c0-2.2,1.8-3.9,3.9-3.9v0.2c-1,0-1.9,0.4-2.6,1.1c-0.7,0.7-1.1,1.6-1.1,2.6
							c0,1,0.4,1.9,1.1,2.6c0.7,0.7,1.6,1.1,2.6,1.1V880.2z"/>
					</g>
					<g transform="matrix(1.61923e-16,2.6444,-2.6444,1.61923e-16,2879.39,-84.7186)">
						<path d="M56.4,932.8c-1.9,0-3.4-1.3-3.8-3c0.1,0,0.1-0.1,0.2-0.1c0.2,0.7,0.5,1.3,1,1.8c0.7,0.7,1.6,1.1,2.6,1.1
							c1,0,1.9-0.4,2.6-1.1c0.7-0.7,1.1-1.6,1.1-2.6s-0.4-1.9-1.1-2.6c-0.7-0.7-1.6-1.1-2.6-1.1c-0.4,0-0.7,0.1-1.1,0.2
							c0-0.1,0-0.2,0-0.2c0.3-0.1,0.7-0.2,1.1-0.2c2.2,0,3.9,1.8,3.9,3.9S58.6,932.8,56.4,932.8z M52.5,928.5
							c0.1-1.2,0.7-2.2,1.7-2.8v0c0,0.1,0,0.2,0,0.3c-0.1,0.1-0.2,0.2-0.3,0.3c-0.5,0.5-0.9,1.3-1,2.1
							C52.7,928.4,52.6,928.4,52.5,928.5z"/>
					</g>
					<g transform="matrix(1.61923e-16,2.6444,-2.6444,1.61923e-16,2879.39,-84.7186)">
						<path d="M174.7,880.2h-7.8v-2.7h0.2v2.5h7.3v-7.3h-4.7v-0.2h5V880.2z M167.1,876.3h-0.2v-3.9h1.6v0.2h-1.4V876.3z"/>
					</g>
					<g transform="matrix(1.61923e-16,2.6444,-2.6444,1.61923e-16,2879.39,-84.7186)">
						<path d="M167.1,877.5h-0.2v-1.2h0.2V877.5z M169.7,872.7h-1.2v-0.2h1.2V872.7z"/>
					</g>
					<g transform="matrix(1.61923e-16,2.6444,-2.6444,1.61923e-16,2879.39,-84.7186)">
						<path d="M89.1,884h-7.8v-2.7h0.2v2.5h7.3v-7.3h-4.7v-0.2h5V884z M81.6,880.1h-0.2v-3.9H83v0.2h-1.4V880.1z"/>
					</g>
					<g transform="matrix(1.61923e-16,2.6444,-2.6444,1.61923e-16,2879.39,-84.7186)">
						<path d="M81.6,881.3h-0.2v-1.2h0.2V881.3z M84.2,876.5H83v-0.2h1.2V876.5z"/>
					</g>
					<g transform="matrix(1.61923e-16,2.6444,-2.6444,1.61923e-16,2879.39,-84.7186)">
						<path d="M124.7,917.4c-0.3,0-0.6-0.1-0.8-0.3c-0.2-0.2-0.4-0.4-0.5-0.7c-0.3-0.5-0.6-1.1-1-1.5c-0.3-0.3-0.6-0.4-1.1-0.4v-0.2
							h0c0.4,0,0.8,0.1,1,0.3c0.3,0.2,0.5,0.4,0.7,0.7c0.4,0.5,0.6,1.1,0.9,1.5c0.2,0.3,0.5,0.4,0.9,0.4L124.7,917.4L124.7,917.4z"
							/>
					</g>
					<g transform="matrix(1.61923e-16,2.6444,-2.6444,1.61923e-16,2879.39,-84.7186)">
						<path d="M131.7,917.4c-0.3,0-0.6-0.1-0.8-0.3c-0.2-0.2-0.4-0.4-0.5-0.7c-0.3-0.5-0.6-1.1-1-1.5c-0.3-0.3-0.6-0.4-1.1-0.4v-0.2
							h0c0.4,0,0.8,0.1,1,0.3c0.3,0.2,0.5,0.4,0.7,0.7c0.4,0.5,0.6,1.1,0.9,1.5c0.2,0.3,0.5,0.4,0.9,0.4L131.7,917.4L131.7,917.4z"
							/>
					</g>
					<g transform="matrix(1.61923e-16,2.6444,-2.6444,1.61923e-16,2879.39,-84.7186)">
						<path d="M124.8,917.4L124.8,917.4l0-0.2c0.3,0,0.5-0.1,0.7-0.2c0.2-0.2,0.3-0.4,0.5-0.6c0.3-0.5,0.6-1.1,1-1.6
							c0.3-0.3,0.7-0.5,1.3-0.5h0v0.2c-0.4,0-0.7,0.1-0.9,0.3c-0.2,0.2-0.4,0.4-0.6,0.6c-0.3,0.5-0.6,1.1-1,1.6
							C125.5,917.2,125.2,917.4,124.8,917.4z"/>
					</g>
					<g transform="matrix(1.61923e-16,2.6444,-2.6444,1.61923e-16,2879.39,-84.7186)">
						<path d="M131.7,917.4L131.7,917.4l0-0.2c0.3,0,0.5-0.1,0.7-0.2c0.2-0.2,0.3-0.4,0.5-0.6c0.3-0.5,0.6-1.1,1-1.6
							c0.3-0.3,0.7-0.5,1.3-0.5h0v0.2c-0.4,0-0.7,0.1-0.9,0.3c-0.2,0.2-0.4,0.4-0.6,0.6c-0.3,0.5-0.6,1.1-1,1.6
							C132.5,917.2,132.2,917.4,131.7,917.4z"/>
					</g>
					<g transform="matrix(1.61923e-16,2.6444,-2.6444,1.61923e-16,2879.39,-84.7186)">
						<path d="M101.2,890.2H101c0-0.4,0.1-0.8,0.3-1c0.2-0.3,0.4-0.5,0.7-0.7c0.5-0.4,1.1-0.6,1.5-0.9c0.3-0.2,0.4-0.5,0.4-0.9h0.2
							c0,0.3-0.1,0.6-0.3,0.8c-0.2,0.2-0.4,0.4-0.7,0.5c-0.5,0.3-1.1,0.6-1.5,1C101.4,889.4,101.2,889.7,101.2,890.2z"/>
					</g>
					<g transform="matrix(1.61923e-16,2.6444,-2.6444,1.61923e-16,2879.39,-84.7186)">
						<path d="M101.2,883.3H101c0-0.4,0.1-0.8,0.3-1c0.2-0.3,0.4-0.5,0.7-0.7c0.5-0.4,1.1-0.6,1.5-0.9c0.3-0.2,0.4-0.5,0.4-0.9h0.2
							c0,0.3-0.1,0.6-0.3,0.8c-0.2,0.2-0.4,0.4-0.7,0.5c-0.5,0.3-1.1,0.6-1.5,1C101.4,882.4,101.2,882.8,101.2,883.3z"/>
					</g>
					<g transform="matrix(1.61923e-16,2.6444,-2.6444,1.61923e-16,2879.39,-84.7186)">
						<path d="M104.1,886.8h-0.2c0-0.3-0.1-0.5-0.2-0.7c-0.2-0.2-0.4-0.3-0.6-0.5c-0.5-0.3-1.1-0.6-1.6-1c-0.3-0.3-0.5-0.7-0.5-1.3
							h0.2c0,0.4,0.1,0.7,0.3,0.9c0.2,0.2,0.4,0.4,0.6,0.6c0.5,0.3,1.1,0.6,1.6,1C103.9,886,104.1,886.3,104.1,886.8z"/>
					</g>
					<g transform="matrix(1.61923e-16,2.6444,-2.6444,1.61923e-16,2879.39,-84.7186)">
						<path d="M104.1,879.8h-0.2c0-0.3-0.1-0.5-0.2-0.7c-0.2-0.2-0.4-0.3-0.6-0.5c-0.5-0.3-1.1-0.6-1.6-1c-0.3-0.3-0.5-0.7-0.5-1.3
							h0.2c0,0.4,0.1,0.7,0.3,0.9c0.2,0.2,0.4,0.4,0.6,0.6c0.5,0.3,1.1,0.6,1.6,1C103.9,879,104.1,879.4,104.1,879.8z"/>
					</g>
					<g transform="matrix(1.61923e-16,2.6444,-2.6444,1.61923e-16,2879.39,-84.7186)">
						<rect x="137.2" y="920.8" transform="matrix(2.535182e-06 1 -1 2.535182e-06 1062.4285 787.6988)" width="0.2" height="8.6"/>
					</g>
					<g transform="matrix(1.61923e-16,2.6444,-2.6444,1.61923e-16,2879.39,-84.7186)">
						<rect x="52.9" y="896" transform="matrix(2.535182e-06 1 -1 2.535182e-06 953.3499 847.2199)" width="0.2" height="8.6"/>
					</g>
					<g transform="matrix(1.61923e-16,2.6444,-2.6444,1.61923e-16,2879.39,-84.7186)">
						<rect x="137.9" y="856.1" transform="matrix(2.535182e-06 1 -1 2.535182e-06 998.4314 722.42)" width="0.2" height="8.6"/>
					</g>
					<g transform="matrix(1.61923e-16,2.6444,-2.6444,1.61923e-16,2879.39,-84.7186)">
						<path d="M171.9,909.4l-0.2-0.2l6.1-6.1l0.2,0.2L171.9,909.4z"/>
					</g>
					<g transform="matrix(1.61923e-16,2.6444,-2.6444,1.61923e-16,2879.39,-84.7186)">
						<path d="M109.6,901l-0.3-0.5c-0.2,0.1-0.3,0.1-0.5,0.1c-0.1,0-0.3,0-0.4-0.1c-0.1-0.1-0.2-0.2-0.3-0.3l0,0
							c-0.1-0.2-0.1-0.3-0.1-0.5c0-0.1,0-0.3,0.1-0.4c0.1-0.1,0.2-0.2,0.3-0.3c0.2-0.1,0.3-0.1,0.5-0.1c0.1,0,0.3,0,0.4,0.1
							c0.1,0.1,0.2,0.2,0.3,0.3l0,0c0.1,0.2,0.1,0.3,0.1,0.5c0,0.1,0,0.3-0.1,0.4c-0.1,0.1-0.2,0.2-0.3,0.3l0,0L109.6,901l0.3,0.5
							c0.3-0.2,0.6-0.5,0.7-0.8c0.2-0.3,0.3-0.7,0.3-1c0-0.4-0.1-0.8-0.3-1.1l0,0c-0.2-0.3-0.5-0.6-0.8-0.7c-0.3-0.2-0.7-0.3-1-0.3
							c-0.4,0-0.8,0.1-1.1,0.3c-0.3,0.2-0.6,0.5-0.7,0.8c-0.2,0.3-0.3,0.7-0.3,1c0,0.4,0.1,0.8,0.3,1.1l0,0c0.2,0.3,0.5,0.6,0.8,0.7
							c0.3,0.2,0.7,0.3,1,0.3c0.4,0,0.8-0.1,1.1-0.3l0,0L109.6,901z"/>
					</g>
					<g transform="matrix(1.61923e-16,2.6444,-2.6444,1.61923e-16,2879.39,-84.7186)">
						<path d="M70.9,866.5l-0.3-0.5c-0.2,0.1-0.3,0.1-0.5,0.1c-0.1,0-0.3,0-0.4-0.1c-0.1-0.1-0.2-0.2-0.3-0.3l0,0
							c-0.1-0.2-0.1-0.3-0.1-0.5c0-0.1,0-0.3,0.1-0.4c0.1-0.1,0.2-0.2,0.3-0.3c0.2-0.1,0.3-0.1,0.5-0.1c0.1,0,0.3,0,0.4,0.1
							c0.1,0.1,0.2,0.2,0.3,0.3l0,0c0.1,0.2,0.1,0.3,0.1,0.5c0,0.1,0,0.3-0.1,0.4c-0.1,0.1-0.2,0.2-0.3,0.3l0,0L70.9,866.5l0.3,0.5
							c0.3-0.2,0.6-0.5,0.7-0.8c0.2-0.3,0.3-0.7,0.3-1c0-0.4-0.1-0.8-0.3-1.1l0,0c-0.2-0.3-0.5-0.6-0.8-0.7c-0.3-0.2-0.7-0.3-1-0.3
							c-0.4,0-0.8,0.1-1.1,0.3c-0.3,0.2-0.6,0.5-0.7,0.8c-0.2,0.3-0.3,0.7-0.3,1c0,0.4,0.1,0.8,0.3,1.1l0,0c0.2,0.3,0.5,0.6,0.8,0.7
							c0.3,0.2,0.7,0.3,1,0.3c0.4,0,0.8-0.1,1.1-0.3l0,0L70.9,866.5z"/>
					</g>
					<g transform="matrix(1.61923e-16,2.6444,-2.6444,1.61923e-16,2879.39,-84.7186)">
						<path d="M153.4,865.7l-0.3-0.5c-0.2,0.1-0.3,0.1-0.5,0.1c-0.1,0-0.3,0-0.4-0.1c-0.1-0.1-0.2-0.2-0.3-0.3v0
							c-0.1-0.2-0.1-0.3-0.1-0.5c0-0.1,0-0.3,0.1-0.4c0.1-0.1,0.2-0.2,0.3-0.3c0.2-0.1,0.3-0.1,0.5-0.1c0.1,0,0.3,0,0.4,0.1
							c0.1,0.1,0.2,0.2,0.3,0.3l0,0c0.1,0.2,0.1,0.3,0.1,0.5c0,0.1,0,0.3-0.1,0.4c-0.1,0.1-0.2,0.2-0.3,0.3l0,0L153.4,865.7l0.3,0.5
							c0.3-0.2,0.6-0.5,0.7-0.8c0.2-0.3,0.3-0.7,0.3-1c0-0.4-0.1-0.8-0.3-1.1l0,0c-0.2-0.3-0.5-0.6-0.8-0.7c-0.3-0.2-0.7-0.3-1-0.3
							c-0.4,0-0.8,0.1-1.1,0.3c-0.3,0.2-0.6,0.5-0.7,0.8c-0.2,0.3-0.3,0.6-0.3,1c0,0.4,0.1,0.8,0.3,1.1v0c0.2,0.3,0.5,0.6,0.8,0.7
							c0.3,0.2,0.7,0.3,1,0.3c0.4,0,0.8-0.1,1.1-0.3l0,0L153.4,865.7z"/>
					</g>
					<g transform="matrix(1.61923e-16,2.6444,-2.6444,1.61923e-16,2879.39,-84.7186)">
						<path d="M174.5,919.1l-0.3-0.5c-0.2,0.1-0.3,0.1-0.5,0.1c-0.1,0-0.3,0-0.4-0.1c-0.1-0.1-0.2-0.2-0.3-0.3
							c-0.1-0.2-0.1-0.3-0.1-0.5c0-0.1,0-0.3,0.1-0.4c0.1-0.1,0.2-0.2,0.3-0.3c0.2-0.1,0.3-0.1,0.5-0.1c0.1,0,0.3,0,0.4,0.1
							c0.1,0.1,0.2,0.2,0.3,0.3l0,0c0.1,0.2,0.1,0.3,0.1,0.5c0,0.1,0,0.3-0.1,0.4c-0.1,0.1-0.2,0.2-0.3,0.3l0,0L174.5,919.1l0.3,0.5
							c0.3-0.2,0.6-0.5,0.7-0.8c0.2-0.3,0.3-0.7,0.3-1c0-0.4-0.1-0.8-0.3-1.1l0,0c-0.2-0.3-0.5-0.6-0.8-0.7c-0.3-0.2-0.7-0.3-1-0.3
							c-0.4,0-0.8,0.1-1.1,0.3c-0.3,0.2-0.6,0.5-0.7,0.8c-0.2,0.3-0.3,0.7-0.3,1c0,0.4,0.1,0.8,0.3,1.1c0.2,0.3,0.5,0.6,0.8,0.7
							c0.3,0.2,0.7,0.3,1,0.3c0.4,0,0.8-0.1,1.1-0.3l0,0L174.5,919.1z"/>
					</g>
					<g transform="matrix(1.61923e-16,2.6444,-2.6444,1.61923e-16,2879.39,-84.7186)">
						<path d="M172.7,930h-1.2c0,0.9-0.4,1.7-0.9,2.3c-0.6,0.6-1.4,0.9-2.3,0.9c-0.9,0-1.7-0.4-2.3-0.9c-0.6-0.6-0.9-1.4-0.9-2.3
							c0-0.9,0.4-1.7,0.9-2.3c0.6-0.6,1.4-0.9,2.3-0.9c0.9,0,1.7,0.4,2.3,0.9c0.6,0.6,0.9,1.4,0.9,2.3H172.7c0-2.4-2-4.4-4.4-4.4
							c-2.4,0-4.4,2-4.4,4.4c0,2.4,2,4.4,4.4,4.4C170.7,934.4,172.7,932.5,172.7,930z"/>
					</g>
					<g transform="matrix(1.61923e-16,2.6444,-2.6444,1.61923e-16,2879.39,-84.7186)">
						<path d="M155.7,934.7c0,0.1,0,0.2-0.1,0.3c0,0.1-0.1,0.1-0.2,0.2c-0.1,0.1-0.4,0.3-0.6,0.4c-0.4,0.2-0.9,0.4-1.3,0.8
							c-0.2,0.2-0.4,0.4-0.6,0.7c-0.1,0.3-0.2,0.6-0.2,1c0,0.3,0.3,0.6,0.6,0.6s0.6-0.3,0.6-0.6c0-0.2,0-0.3,0.1-0.5
							c0-0.1,0.1-0.2,0.2-0.3c0.1-0.2,0.3-0.3,0.6-0.5c0.4-0.2,0.8-0.4,1.3-0.7c0.2-0.2,0.4-0.4,0.6-0.6c0.2-0.3,0.3-0.6,0.3-0.9
							c0-0.3-0.3-0.6-0.6-0.6C156,934.1,155.7,934.4,155.7,934.7z"/>
					</g>
					<g transform="matrix(1.61923e-16,2.6444,-2.6444,1.61923e-16,2879.39,-84.7186)">
						<path d="M156.9,934.7c0-0.3-0.1-0.6-0.2-0.8c-0.1-0.2-0.3-0.4-0.4-0.5c-0.3-0.2-0.6-0.4-0.9-0.6c-0.4-0.2-0.8-0.4-1.1-0.7
							c-0.1-0.1-0.2-0.2-0.3-0.4c-0.1-0.1-0.1-0.3-0.1-0.5c0-0.3-0.3-0.6-0.6-0.6s-0.6,0.3-0.6,0.6c0,0.3,0.1,0.6,0.2,0.9
							c0.1,0.2,0.2,0.4,0.4,0.6c0.3,0.3,0.6,0.5,0.9,0.7c0.5,0.3,0.9,0.5,1.2,0.7c0.1,0.1,0.2,0.2,0.3,0.3c0,0.1,0.1,0.2,0.1,0.3
							c0,0.3,0.3,0.6,0.6,0.6C156.7,935.3,156.9,935,156.9,934.7z"/>
					</g>
					<g transform="matrix(1.61923e-16,2.6444,-2.6444,1.61923e-16,2879.39,-84.7186)">
						<path d="M52.6,929.8c-0.1-0.3-0.1-0.6-0.1-0.9c0-0.1,0-0.3,0-0.4c0.1,0,0.2-0.1,0.3-0.2c0,0.2,0,0.4,0,0.5
							c0,0.3,0,0.5,0.1,0.8C52.7,929.7,52.7,929.7,52.6,929.8z M54.2,926c0-0.1,0-0.2,0-0.3v0c0.3-0.2,0.7-0.4,1.2-0.6
							c0,0.1,0,0.2,0,0.2C54.9,925.5,54.5,925.7,54.2,926z"/>
					</g>
					<g transform="matrix(1.61923e-16,2.6444,-2.6444,1.61923e-16,2879.39,-84.7186)">
						<path d="M173.7,937.1c-1.9,0-3.4-1.3-3.8-3c0.1,0,0.1-0.1,0.2-0.1c0.2,0.7,0.5,1.3,1,1.8c0.7,0.7,1.6,1.1,2.6,1.1
							c1,0,1.9-0.4,2.6-1.1c0.7-0.7,1.1-1.6,1.1-2.6s-0.4-1.9-1.1-2.6c-0.7-0.7-1.6-1.1-2.6-1.1c-0.4,0-0.7,0.1-1.1,0.2
							c0-0.1,0-0.2,0-0.2c0.3-0.1,0.7-0.2,1.1-0.2c2.2,0,3.9,1.8,3.9,3.9C177.7,935.4,175.9,937.1,173.7,937.1z M169.8,932.8
							c0.1-1.2,0.7-2.2,1.7-2.8c0,0,0,0,0,0c0,0.1,0,0.2,0,0.3c-0.1,0.1-0.2,0.2-0.3,0.3c-0.5,0.5-0.9,1.3-1,2.1
							C170,932.7,169.9,932.8,169.8,932.8z"/>
					</g>
					<g transform="matrix(1.61923e-16,2.6444,-2.6444,1.61923e-16,2879.39,-84.7186)">
						<path d="M169.9,934.1c-0.1-0.3-0.1-0.6-0.1-0.9c0-0.1,0-0.3,0-0.4c0.1,0,0.2-0.1,0.3-0.2c0,0.2,0,0.4,0,0.5
							c0,0.3,0,0.5,0.1,0.8C170.1,934,170,934.1,169.9,934.1z M171.5,930.3c0-0.1,0-0.2,0-0.3c0,0,0,0,0,0c0.3-0.2,0.7-0.4,1.2-0.6
							c0,0.1,0,0.2,0,0.2C172.2,929.8,171.8,930,171.5,930.3z"/>
					</g>
					<g transform="matrix(1.61923e-16,2.6444,-2.6444,1.61923e-16,2879.39,-84.7186)">
						<path d="M161.9,937.9h-0.2c0-0.3-0.1-0.5-0.2-0.7c-0.2-0.2-0.4-0.3-0.6-0.5c-0.5-0.3-1.1-0.6-1.6-1c-0.3-0.3-0.5-0.7-0.5-1.3
							h0.2c0,0.4,0.1,0.7,0.3,0.9c0.2,0.2,0.4,0.4,0.6,0.6c0.5,0.3,1.1,0.6,1.6,1C161.7,937.1,161.9,937.4,161.9,937.9z"/>
					</g>
					<g transform="matrix(1.61923e-16,2.6444,-2.6444,1.61923e-16,2879.39,-84.7186)">
						<path d="M50.2,944.7l-3.6-3.4c-0.2-0.2-0.6-0.2-0.8,0c-0.2,0.2-0.2,0.6,0,0.8l3.6,3.4c0.2,0.2,0.6,0.2,0.8,0
							C50.5,945.3,50.5,944.9,50.2,944.7z"/>
					</g>
					<g transform="matrix(1.61923e-16,2.6444,-2.6444,1.61923e-16,2879.39,-84.7186)">
						<path d="M46.7,945.6l3.4-3.6c0.2-0.2,0.2-0.6,0-0.8c-0.2-0.2-0.6-0.2-0.8,0l-3.4,3.6c-0.2,0.2-0.2,0.6,0,0.8
							C46.1,945.9,46.5,945.9,46.7,945.6z"/>
					</g>
					<g transform="matrix(1.61923e-16,2.6444,-2.6444,1.61923e-16,2879.39,-84.7186)">
						<path d="M150.3,955.1l-3.6-3.4c-0.2-0.2-0.6-0.2-0.8,0c-0.2,0.2-0.2,0.6,0,0.8l3.6,3.4c0.2,0.2,0.6,0.2,0.8,0
							C150.5,955.7,150.5,955.3,150.3,955.1z"/>
					</g>
					<g transform="matrix(1.61923e-16,2.6444,-2.6444,1.61923e-16,2879.39,-84.7186)">
						<path d="M146.7,956l3.4-3.6c0.2-0.2,0.2-0.6,0-0.8c-0.2-0.2-0.6-0.2-0.8,0l-3.4,3.6c-0.2,0.2-0.2,0.6,0,0.8
							C146.1,956.3,146.5,956.3,146.7,956z"/>
					</g>
					<g transform="matrix(1.61923e-16,2.6444,-2.6444,1.61923e-16,2875.8,-126.143)">
						<path d="M121.3,964.7h-1.2c0,0.9-0.4,1.7-0.9,2.3c-0.6,0.6-1.4,0.9-2.3,0.9c-0.9,0-1.7-0.4-2.3-0.9c-0.6-0.6-0.9-1.4-0.9-2.3
							c0-0.9,0.4-1.7,0.9-2.3c0.6-0.6,1.4-0.9,2.3-0.9c0.9,0,1.7,0.4,2.3,0.9c0.6,0.6,0.9,1.4,0.9,2.3H121.3c0-2.4-2-4.4-4.4-4.4
							c-1.2,0-2.3,0.5-3.1,1.3c-0.8,0.8-1.3,1.9-1.3,3.1c0,2.4,2,4.4,4.4,4.4C119.3,969.1,121.3,967.1,121.3,964.7z"/>
					</g>
					<g transform="matrix(1.61923e-16,2.6444,-2.6444,1.61923e-16,2879.39,-84.7186)">
						<path d="M119.6,960c0-0.9,0.4-1.7,0.9-2.3c0.6-0.6,1.4-0.9,2.3-0.9c0.9,0,1.7,0.4,2.3,0.9c0.6,0.6,0.9,1.4,0.9,2.3
							c0,0.3,0.3,0.6,0.6,0.6c0.3,0,0.6-0.3,0.6-0.6c0-2.4-2-4.4-4.4-4.4c-1.2,0-2.3,0.5-3.1,1.3c-0.8,0.8-1.3,1.9-1.3,3.1
							c0,0.3,0.3,0.6,0.6,0.6C119.3,960.6,119.6,960.3,119.6,960z"/>
					</g>
					<g transform="matrix(1.61923e-16,2.6444,-2.6444,1.61923e-16,2879.39,-84.7186)">
						<path d="M52.9,965.1c-0.9,0-1.7-0.4-2.3-0.9c-0.6-0.6-0.9-1.4-0.9-2.3c0-0.9,0.4-1.7,0.9-2.3c0.6-0.6,1.4-0.9,2.3-0.9
							c0.3,0,0.6-0.3,0.6-0.6s-0.3-0.6-0.6-0.6c-1.2,0-2.3,0.5-3.1,1.3c-0.8,0.8-1.3,1.9-1.3,3.1c0,1.2,0.5,2.3,1.3,3.1
							c0.8,0.8,1.9,1.3,3.1,1.3c0.3,0,0.6-0.3,0.6-0.6C53.5,965.4,53.2,965.1,52.9,965.1z"/>
					</g>
					<g transform="matrix(1.61923e-16,2.6444,-2.6444,1.61923e-16,2624.27,-90.5853)">
						<path d="M163.2,884.7v0.6h7v6.4h-6.4v-7H163.2v0.6V884.7h-0.6v7.6c0,0.2,0.1,0.3,0.2,0.4c0.1,0.1,0.3,0.2,0.4,0.2h7.6
							c0.2,0,0.3-0.1,0.4-0.2c0.1-0.1,0.2-0.3,0.2-0.4v-7.6c0-0.2-0.1-0.3-0.2-0.4c-0.1-0.1-0.3-0.2-0.4-0.2h-7.6
							c-0.2,0-0.3,0.1-0.4,0.2c-0.1,0.1-0.2,0.3-0.2,0.4H163.2z"/>
					</g>
					<g transform="matrix(1.61923e-16,2.6444,-2.6444,1.61923e-16,2879.39,-84.7186)">
						<path d="M139.1,968c-0.1,0-0.2,0-0.3-0.1c-0.1,0-0.1-0.1-0.2-0.2c-0.1-0.1-0.3-0.4-0.4-0.6c-0.2-0.4-0.4-0.9-0.8-1.3
							c-0.2-0.2-0.4-0.4-0.7-0.6c-0.3-0.1-0.6-0.2-1-0.2c-0.3,0-0.6,0.3-0.6,0.6s0.3,0.6,0.6,0.6c0.2,0,0.3,0,0.5,0.1
							c0.1,0,0.2,0.1,0.3,0.2c0.2,0.1,0.3,0.3,0.5,0.6c0.2,0.4,0.4,0.8,0.7,1.3c0.2,0.2,0.4,0.4,0.6,0.6c0.3,0.2,0.6,0.3,0.9,0.3
							c0.3,0,0.6-0.3,0.6-0.6C139.7,968.3,139.4,968,139.1,968z"/>
					</g>
					<g transform="matrix(1.61923e-16,2.6444,-2.6444,1.61923e-16,2879.39,-84.7186)">
						<path d="M146,968c-0.1,0-0.2,0-0.3-0.1c-0.1,0-0.1-0.1-0.2-0.2c-0.1-0.1-0.3-0.4-0.4-0.6c-0.2-0.4-0.4-0.9-0.8-1.3
							c-0.2-0.2-0.4-0.4-0.7-0.6c-0.3-0.1-0.6-0.2-1-0.2c-0.3,0-0.6,0.3-0.6,0.6s0.3,0.6,0.6,0.6c0.2,0,0.3,0,0.5,0.1
							c0.1,0,0.2,0.1,0.3,0.2c0.2,0.1,0.3,0.3,0.5,0.6c0.2,0.4,0.4,0.8,0.7,1.3c0.2,0.2,0.4,0.4,0.6,0.6c0.3,0.2,0.6,0.3,0.9,0.3
							c0.3,0,0.6-0.3,0.6-0.6C146.6,968.3,146.4,968,146,968z"/>
					</g>
					<g transform="matrix(1.61923e-16,2.6444,-2.6444,1.61923e-16,2879.39,-84.7186)">
						<path d="M139.1,969.2c0.3,0,0.6-0.1,0.8-0.2c0.2-0.1,0.4-0.3,0.5-0.4c0.3-0.3,0.4-0.6,0.6-0.9c0.2-0.4,0.4-0.8,0.7-1.1
							c0.1-0.1,0.2-0.2,0.4-0.3c0.1-0.1,0.3-0.1,0.5-0.1c0.3,0,0.6-0.3,0.6-0.6s-0.3-0.6-0.6-0.6c-0.3,0-0.6,0.1-0.9,0.2
							c-0.2,0.1-0.4,0.2-0.6,0.4c-0.3,0.3-0.5,0.6-0.7,0.9c-0.3,0.5-0.5,0.9-0.7,1.2c-0.1,0.1-0.2,0.2-0.3,0.3
							c-0.1,0-0.2,0.1-0.3,0.1c-0.3,0-0.6,0.3-0.6,0.6C138.5,969,138.8,969.2,139.1,969.2z"/>
					</g>
					<g transform="matrix(1.61923e-16,2.6444,-2.6444,1.61923e-16,2879.39,-84.7186)">
						<path d="M146,969.2c0.3,0,0.6-0.1,0.8-0.2c0.2-0.1,0.4-0.3,0.5-0.4c0.2-0.3,0.4-0.6,0.6-0.9c0.2-0.4,0.4-0.8,0.7-1.1
							c0.1-0.1,0.2-0.2,0.4-0.3c0.1-0.1,0.3-0.1,0.5-0.1h0v-0.6l-0.1,0.6c0,0,0.1,0,0.1,0v-0.6l-0.1,0.6c0.3,0.1,0.6-0.2,0.7-0.5
							c0.1-0.3-0.2-0.6-0.5-0.7c0,0-0.1,0-0.1,0h0c-0.3,0-0.6,0.1-0.9,0.2c-0.2,0.1-0.4,0.2-0.6,0.4c-0.3,0.3-0.5,0.6-0.7,0.9
							c-0.3,0.5-0.5,0.9-0.7,1.2c-0.1,0.1-0.2,0.2-0.3,0.3c-0.1,0-0.2,0.1-0.3,0.1c-0.3,0-0.6,0.3-0.6,0.6
							C145.4,969,145.7,969.2,146,969.2z"/>
					</g>
					<g transform="matrix(1.61923e-16,2.6444,-2.6444,1.61923e-16,2879.39,-84.7186)">
						<path d="M155.7,941.6c0,0.1,0,0.2-0.1,0.3c0,0.1-0.1,0.1-0.2,0.2c-0.1,0.1-0.4,0.3-0.6,0.4c-0.4,0.2-0.9,0.4-1.3,0.8
							c-0.2,0.2-0.4,0.4-0.6,0.7c-0.1,0.3-0.2,0.6-0.2,1c0,0.3,0.3,0.6,0.6,0.6s0.6-0.3,0.6-0.6c0-0.2,0-0.3,0.1-0.5
							c0-0.1,0.1-0.2,0.2-0.3c0.1-0.2,0.3-0.3,0.6-0.5c0.4-0.2,0.8-0.4,1.3-0.7c0.2-0.2,0.4-0.4,0.6-0.6c0.2-0.3,0.3-0.6,0.3-0.9
							c0-0.3-0.3-0.6-0.6-0.6C156,941,155.7,941.3,155.7,941.6z"/>
					</g>
					<g transform="matrix(1.61923e-16,2.6444,-2.6444,1.61923e-16,2879.39,-84.7186)">
						<path d="M156.9,941.6c0-0.3-0.1-0.6-0.2-0.8c-0.1-0.2-0.3-0.4-0.4-0.5c-0.3-0.3-0.6-0.4-0.9-0.6c-0.4-0.2-0.8-0.4-1.1-0.7
							c-0.1-0.1-0.2-0.2-0.3-0.4c-0.1-0.1-0.1-0.3-0.1-0.5c0-0.3-0.3-0.6-0.6-0.6s-0.6,0.3-0.6,0.6c0,0.3,0.1,0.6,0.2,0.9
							c0.1,0.2,0.2,0.4,0.4,0.6c0.3,0.3,0.6,0.5,0.9,0.7c0.5,0.3,0.9,0.5,1.2,0.7c0.1,0.1,0.2,0.2,0.3,0.3c0,0.1,0.1,0.2,0.1,0.3
							c0,0.3,0.3,0.6,0.6,0.6C156.7,942.2,156.9,942,156.9,941.6z"/>
					</g>
					<g transform="matrix(1.61923e-16,2.6444,-2.6444,1.61923e-16,2879.39,-84.7186)">
						<path d="M84.1,947.1c0,0.1,0,0.2-0.1,0.3c0,0.1-0.1,0.1-0.2,0.2c-0.1,0.1-0.4,0.3-0.6,0.4c-0.4,0.2-0.9,0.4-1.3,0.8
							c-0.2,0.2-0.4,0.4-0.6,0.7c-0.1,0.3-0.2,0.6-0.2,1c0,0.3,0.3,0.6,0.6,0.6c0.3,0,0.6-0.3,0.6-0.6c0-0.2,0-0.3,0.1-0.5
							c0-0.1,0.1-0.2,0.2-0.3c0.1-0.2,0.3-0.3,0.6-0.5c0.4-0.2,0.8-0.4,1.3-0.7c0.2-0.2,0.4-0.4,0.6-0.6c0.2-0.3,0.3-0.6,0.3-0.9
							c0-0.3-0.3-0.6-0.6-0.6C84.3,946.5,84.1,946.8,84.1,947.1z"/>
					</g>
					<g transform="matrix(1.61923e-16,2.6444,-2.6444,1.61923e-16,2879.39,-84.7186)">
						<path d="M84.1,940.2c0,0.1,0,0.2-0.1,0.3c0,0.1-0.1,0.1-0.2,0.2c-0.1,0.1-0.4,0.3-0.6,0.4c-0.4,0.2-0.9,0.4-1.3,0.8
							c-0.2,0.2-0.4,0.4-0.6,0.7c-0.1,0.3-0.2,0.6-0.2,1c0,0.3,0.3,0.6,0.6,0.6c0.3,0,0.6-0.3,0.6-0.6c0-0.2,0-0.3,0.1-0.5
							c0-0.1,0.1-0.2,0.2-0.3c0.1-0.2,0.3-0.3,0.6-0.5c0.4-0.2,0.8-0.4,1.3-0.7c0.2-0.2,0.4-0.4,0.6-0.6c0.2-0.3,0.3-0.6,0.3-0.9
							c0-0.3-0.3-0.6-0.6-0.6C84.3,939.6,84.1,939.8,84.1,940.2z"/>
					</g>
					<g transform="matrix(1.61923e-16,2.6444,-2.6444,1.61923e-16,2879.39,-84.7186)">
						<path d="M85.3,947.1c0-0.3-0.1-0.6-0.2-0.8c-0.1-0.2-0.3-0.4-0.4-0.5c-0.3-0.3-0.6-0.4-0.9-0.6c-0.4-0.2-0.8-0.4-1.1-0.7
							c-0.1-0.1-0.2-0.2-0.3-0.4c-0.1-0.1-0.1-0.3-0.1-0.5c0-0.3-0.3-0.6-0.6-0.6c-0.3,0-0.6,0.3-0.6,0.6c0,0.3,0.1,0.6,0.2,0.9
							c0.1,0.2,0.2,0.4,0.4,0.6c0.3,0.3,0.6,0.5,0.9,0.7c0.5,0.3,0.9,0.5,1.2,0.7c0.1,0.1,0.2,0.2,0.3,0.3c0,0.1,0.1,0.2,0.1,0.3
							c0,0.3,0.3,0.6,0.6,0.6C85,947.7,85.3,947.5,85.3,947.1z"/>
					</g>
					<g transform="matrix(1.61923e-16,2.6444,-2.6444,1.61923e-16,2879.39,-84.7186)">
						<path d="M85.3,940.2c0-0.3-0.1-0.6-0.2-0.8c-0.1-0.2-0.3-0.4-0.4-0.5c-0.3-0.2-0.6-0.4-0.9-0.6c-0.4-0.2-0.8-0.4-1.1-0.7
							c-0.1-0.1-0.2-0.2-0.3-0.4c-0.1-0.1-0.1-0.3-0.1-0.5c0-0.3-0.3-0.6-0.6-0.6c-0.3,0-0.6,0.3-0.6,0.6c0,0.3,0.1,0.6,0.2,0.9
							c0.1,0.2,0.2,0.4,0.4,0.6c0.3,0.3,0.6,0.5,0.9,0.7c0.5,0.3,0.9,0.5,1.2,0.7c0.1,0.1,0.2,0.2,0.3,0.3c0,0.1,0.1,0.2,0.1,0.3
							c0,0.3,0.3,0.6,0.6,0.6C85,940.8,85.3,940.5,85.3,940.2z"/>
					</g>
					<g transform="matrix(1.61923e-16,2.6444,-2.6444,1.61923e-16,2879.39,-84.7186)">
						<path d="M77.5,966.3h8.6c0.3,0,0.6-0.3,0.6-0.6c0-0.3-0.3-0.6-0.6-0.6h-8.6c-0.3,0-0.6,0.3-0.6,0.6
							C76.9,966,77.2,966.3,77.5,966.3z"/>
					</g>
					<g transform="matrix(1.61923e-16,2.6444,-2.6444,1.61923e-16,2879.39,-84.7186)">
						<path d="M99.9,949.5l6.1-6.1c0.2-0.2,0.2-0.6,0-0.8c-0.2-0.2-0.6-0.2-0.8,0l-6.1,6.1c-0.2,0.2-0.2,0.6,0,0.8
							C99.3,949.8,99.7,949.8,99.9,949.5z"/>
					</g>
					<g transform="matrix(1.61923e-16,2.6444,-2.6444,1.61923e-16,2875.8,-126.143)">
						<path d="M122.4,971.8c-1.9,0-3.4-1.3-3.8-3c0.1,0,0.1-0.1,0.2-0.1c0.2,0.7,0.5,1.3,1,1.8c0.7,0.7,1.6,1.1,2.6,1.1
							c1,0,1.9-0.4,2.6-1.1c0.7-0.7,1.1-1.6,1.1-2.6c0-1-0.4-1.9-1.1-2.6c-0.7-0.7-1.6-1.1-2.6-1.1c-0.4,0-0.7,0.1-1.1,0.2
							c0-0.1,0-0.2,0-0.2c0.3-0.1,0.7-0.2,1.1-0.2c2.2,0,3.9,1.8,3.9,3.9C126.3,970,124.5,971.8,122.4,971.8z M118.5,967.5
							c0.1-1.2,0.7-2.2,1.7-2.8v0c0,0.1,0,0.2,0,0.3c-0.1,0.1-0.2,0.2-0.3,0.3c-0.5,0.5-0.9,1.3-1,2.1
							C118.6,967.4,118.5,967.4,118.5,967.5z"/>
					</g>
					<g transform="matrix(1.61923e-16,2.6444,-2.6444,1.61923e-16,2875.8,-126.143)">
						<path d="M118.5,968.8c-0.1-0.3-0.1-0.6-0.1-0.9c0-0.1,0-0.3,0-0.4c0.1,0,0.2-0.1,0.3-0.2c0,0.2,0,0.4,0,0.5
							c0,0.3,0,0.5,0.1,0.8C118.7,968.7,118.6,968.7,118.5,968.8z M120.1,965c0-0.1,0-0.2,0-0.3v0c0.3-0.2,0.7-0.4,1.2-0.6
							c0,0.1,0,0.2,0,0.2C120.9,964.5,120.5,964.7,120.1,965z"/>
					</g>
					<g transform="matrix(1.61923e-16,2.6444,-2.6444,1.61923e-16,2879.39,-84.7186)">
						<path d="M132.1,963.2h-0.2c0-1-0.4-1.9-1.1-2.6c-0.7-0.7-1.6-1.1-2.6-1.1c-0.4,0-0.7,0.1-1.1,0.2c0-0.1,0-0.2,0-0.2
							c0.3-0.1,0.7-0.2,1.1-0.2C130.4,959.3,132.1,961,132.1,963.2z M124.5,963.2h-0.2c0-1.3,0.7-2.5,1.7-3.2v0c0,0.1,0,0.2,0,0.2
							c-0.1,0.1-0.3,0.2-0.4,0.4C125,961.3,124.5,962.2,124.5,963.2z"/>
					</g>
					<g transform="matrix(1.61923e-16,2.6444,-2.6444,1.61923e-16,2879.39,-84.7186)">
						<path d="M126,960.3c0-0.1,0-0.2,0-0.2v0c0.3-0.2,0.7-0.4,1.2-0.6c0,0.1,0,0.2,0,0.2C126.7,959.8,126.4,960,126,960.3z"/>
					</g>
					<g transform="matrix(1.61923e-16,2.6444,-2.6444,1.61923e-16,2879.39,-84.7186)">
						<path d="M58.3,969c-2.2,0-3.9-1.7-3.9-3.9s1.8-3.9,3.9-3.9v0.2c-1,0-1.9,0.4-2.6,1.1c-0.7,0.7-1.1,1.6-1.1,2.6
							c0,1,0.4,1.9,1.1,2.6c0.7,0.7,1.6,1.1,2.6,1.1V969z"/>
					</g>
					<g transform="matrix(1.61923e-16,2.6444,-2.6444,1.61923e-16,2624.27,-90.5853)">
						<path d="M176.4,895.6h-7.8v-2.7h0.2v2.5h7.3V888h-4.7v-0.2h5V895.6z M168.8,891.7h-0.2v-3.9h1.6v0.2h-1.4V891.7z"/>
					</g>
					<g transform="matrix(1.61923e-16,2.6444,-2.6444,1.61923e-16,2624.27,-90.5853)">
						<path d="M168.8,892.9h-0.2v-1.2h0.2V892.9z M171.4,888h-1.2v-0.2h1.2V888z"/>
					</g>
					<g transform="matrix(1.61923e-16,2.6444,-2.6444,1.61923e-16,2879.39,-84.7186)">
						<path d="M144.5,971.9c-0.3,0-0.6-0.1-0.8-0.3c-0.2-0.2-0.4-0.4-0.5-0.7c-0.3-0.5-0.6-1.1-1-1.5c-0.3-0.3-0.6-0.4-1.1-0.4v-0.2
							h0c0.4,0,0.8,0.1,1,0.3c0.3,0.2,0.5,0.4,0.7,0.7c0.4,0.5,0.6,1.1,0.9,1.5c0.2,0.3,0.5,0.4,0.9,0.4L144.5,971.9L144.5,971.9z"
							/>
					</g>
					<g transform="matrix(1.61923e-16,2.6444,-2.6444,1.61923e-16,2879.39,-84.7186)">
						<path d="M151.5,971.9c-0.3,0-0.6-0.1-0.8-0.3c-0.2-0.2-0.4-0.4-0.5-0.7c-0.3-0.5-0.6-1.1-1-1.5c-0.3-0.3-0.6-0.4-1.1-0.4v-0.2
							h0c0.4,0,0.8,0.1,1,0.3c0.3,0.2,0.5,0.4,0.7,0.7c0.4,0.5,0.6,1.1,0.9,1.5c0.2,0.3,0.5,0.4,0.9,0.4L151.5,971.9L151.5,971.9z"
							/>
					</g>
					<g transform="matrix(1.61923e-16,2.6444,-2.6444,1.61923e-16,2879.39,-84.7186)">
						<path d="M144.6,971.9L144.6,971.9l0-0.2c0.3,0,0.5-0.1,0.7-0.2c0.2-0.2,0.3-0.4,0.5-0.6c0.3-0.5,0.6-1.1,1-1.6
							c0.3-0.3,0.7-0.5,1.3-0.5h0v0.2c-0.4,0-0.7,0.1-0.9,0.3c-0.2,0.2-0.4,0.4-0.6,0.6c-0.3,0.5-0.6,1.1-1,1.6
							C145.3,971.7,145,971.9,144.6,971.9z"/>
					</g>
					<g transform="matrix(1.61923e-16,2.6444,-2.6444,1.61923e-16,2879.39,-84.7186)">
						<path d="M151.5,971.9l0-0.1v-0.1c0.3,0,0.5-0.1,0.7-0.2c0.2-0.2,0.3-0.4,0.5-0.6c0.3-0.5,0.6-1.1,1-1.6
							c0.3-0.3,0.7-0.5,1.3-0.5h0l0,0l0,0.2l0-0.1v0.1h0c-0.4,0-0.7,0.1-0.9,0.3c-0.2,0.2-0.4,0.4-0.6,0.6c-0.3,0.5-0.6,1.1-1,1.6
							C152.3,971.7,152,971.9,151.5,971.9L151.5,971.9z"/>
					</g>
					<g transform="matrix(1.61923e-16,2.6444,-2.6444,1.61923e-16,2879.39,-84.7186)">
						<path d="M159,948.3h-0.2c0-0.4,0.1-0.8,0.3-1c0.2-0.3,0.4-0.5,0.7-0.7c0.5-0.4,1.1-0.6,1.5-0.9c0.3-0.2,0.4-0.5,0.4-0.9h0.2
							c0,0.3-0.1,0.6-0.3,0.8c-0.2,0.2-0.4,0.4-0.7,0.5c-0.5,0.3-1.1,0.6-1.5,1C159.1,947.5,159,947.8,159,948.3z"/>
					</g>
					<g transform="matrix(1.61923e-16,2.6444,-2.6444,1.61923e-16,2879.39,-84.7186)">
						<path d="M159,941.4h-0.2c0-0.4,0.1-0.8,0.3-1c0.2-0.3,0.4-0.5,0.7-0.7c0.5-0.4,1.1-0.6,1.5-0.9c0.3-0.2,0.4-0.5,0.4-0.9h0.2
							c0,0.3-0.1,0.6-0.3,0.8c-0.2,0.2-0.4,0.4-0.7,0.5c-0.5,0.3-1.1,0.6-1.5,1C159.1,940.5,159,940.9,159,941.4z"/>
					</g>
					<g transform="matrix(1.61923e-16,2.6444,-2.6444,1.61923e-16,2879.39,-84.7186)">
						<path d="M161.9,944.8h-0.2c0-0.3-0.1-0.5-0.2-0.7c-0.2-0.2-0.4-0.3-0.6-0.5c-0.5-0.3-1.1-0.6-1.6-1c-0.3-0.3-0.5-0.7-0.5-1.3
							h0.2c0,0.4,0.1,0.7,0.3,0.9c0.2,0.2,0.4,0.4,0.6,0.6c0.5,0.3,1.1,0.6,1.6,1C161.7,944.1,161.9,944.4,161.9,944.8z"/>
					</g>
					<g transform="matrix(1.61923e-16,2.6444,-2.6444,1.61923e-16,2879.39,-84.7186)">
						<path d="M87.3,953.8h-0.2c0-0.4,0.1-0.8,0.3-1c0.2-0.3,0.4-0.5,0.7-0.7c0.5-0.4,1.1-0.6,1.5-0.9c0.3-0.2,0.4-0.5,0.4-0.9h0.2
							c0,0.3-0.1,0.6-0.3,0.8c-0.2,0.2-0.4,0.4-0.7,0.5c-0.5,0.3-1.1,0.6-1.5,1C87.5,952.9,87.3,953.3,87.3,953.8z"/>
					</g>
					<g transform="matrix(1.61923e-16,2.6444,-2.6444,1.61923e-16,2879.39,-84.7186)">
						<path d="M87.3,946.8h-0.2c0-0.4,0.1-0.8,0.3-1c0.2-0.3,0.4-0.5,0.7-0.7c0.5-0.4,1.1-0.6,1.5-0.9c0.3-0.2,0.4-0.5,0.4-0.9h0.2
							c0,0.3-0.1,0.6-0.3,0.8c-0.2,0.2-0.4,0.4-0.7,0.5c-0.5,0.3-1.1,0.6-1.5,1C87.5,946,87.3,946.3,87.3,946.8z"/>
					</g>
					<g transform="matrix(1.61923e-16,2.6444,-2.6444,1.61923e-16,2879.39,-84.7186)">
						<path d="M90.2,950.3H90c0-0.3-0.1-0.5-0.2-0.7c-0.2-0.2-0.4-0.3-0.6-0.5c-0.5-0.3-1.1-0.6-1.6-1c-0.3-0.3-0.5-0.7-0.5-1.3h0.2
							c0,0.4,0.1,0.7,0.3,0.9c0.2,0.2,0.4,0.4,0.6,0.6c0.5,0.3,1.1,0.6,1.6,1C90,949.5,90.2,949.9,90.2,950.3z"/>
					</g>
					<g transform="matrix(1.61923e-16,2.6444,-2.6444,1.61923e-16,2879.39,-84.7186)">
						<path d="M90.2,943.4H90c0-0.3-0.1-0.5-0.2-0.7c-0.2-0.2-0.4-0.3-0.6-0.5c-0.5-0.3-1.1-0.6-1.6-1c-0.3-0.3-0.5-0.7-0.5-1.3h0.2
							c0,0.4,0.1,0.7,0.3,0.9c0.2,0.2,0.4,0.4,0.6,0.6c0.5,0.3,1.1,0.6,1.6,1C90,942.6,90.2,942.9,90.2,943.4z"/>
					</g>
					<g transform="matrix(1.61923e-16,2.6444,-2.6444,1.61923e-16,2879.39,-84.7186)">
						<rect x="87.1" y="964.6" transform="matrix(2.535182e-06 1 -1 2.535182e-06 1056.1307 881.6296)" width="0.2" height="8.6"/>
					</g>
					<g transform="matrix(1.61923e-16,2.6444,-2.6444,1.61923e-16,2879.39,-84.7186)">
						<path d="M105.1,952.4l-0.2-0.2l6.1-6.1l0.2,0.2L105.1,952.4z"/>
					</g>
					<g transform="matrix(1.61923e-16,2.6444,-2.6444,1.61923e-16,2879.39,-84.7186)">
						<path d="M121.4,942.2l-0.3-0.5c-0.2,0.1-0.3,0.1-0.5,0.1c-0.1,0-0.3,0-0.4-0.1c-0.1-0.1-0.2-0.2-0.3-0.3l0,0
							c-0.1-0.2-0.1-0.3-0.1-0.5c0-0.1,0-0.3,0.1-0.4c0.1-0.1,0.2-0.2,0.3-0.3c0.2-0.1,0.3-0.1,0.5-0.1c0.1,0,0.3,0,0.4,0.1
							c0.1,0.1,0.2,0.2,0.3,0.3l0,0c0.1,0.2,0.1,0.3,0.1,0.5c0,0.1,0,0.3-0.1,0.4c-0.1,0.1-0.2,0.2-0.3,0.3l0,0L121.4,942.2l0.3,0.5
							c0.3-0.2,0.6-0.5,0.7-0.8c0.2-0.3,0.3-0.7,0.3-1c0-0.4-0.1-0.8-0.3-1.1l0,0c-0.2-0.3-0.5-0.6-0.8-0.7c-0.3-0.2-0.7-0.3-1-0.3
							c-0.4,0-0.8,0.1-1.1,0.3c-0.3,0.2-0.6,0.5-0.7,0.8c-0.2,0.3-0.3,0.7-0.3,1c0,0.4,0.1,0.8,0.3,1.1l0,0c0.2,0.3,0.5,0.6,0.8,0.7
							c0.3,0.2,0.7,0.3,1,0.3c0.4,0,0.8-0.1,1.1-0.3l0,0L121.4,942.2z"/>
					</g>
				</g>
				<g transform="matrix(1,0,0,1,0,35.6776)">
					<g transform="matrix(0.246776,0.0597486,-0.0597486,0.246776,1784.12,268.259)">
						<g>
							
								<image style="overflow:visible;enable-background:new    ;" width="512" height="512" id="_Image2" xlink:href="5EF0499D636B9807.png"  transform="matrix(0.2391 0 0 0.2391 -5385.9077 476.8464)">
							</image>
						</g>
					</g>
					<g transform="matrix(0.462671,0.267123,-0.267123,0.462671,1470.84,-211.049)">
						<path class="st4" d="M-1101.1,1474.7c14.4,0,26.2,11.7,26.2,26.2s-11.7,26.2-26.2,26.2s-26.2-11.7-26.2-26.2
							S-1115.6,1474.7-1101.1,1474.7z M-1101.1,1478.1c12.5,0,22.7,10.2,22.7,22.7c0,12.5-10.2,22.7-22.7,22.7
							c-12.5,0-22.7-10.2-22.7-22.7C-1123.8,1488.3-1113.6,1478.1-1101.1,1478.1z M-1097.2,1500.8v0.1c0,2,1.6,3.6,3.6,3.6h2
							c0.8,0,1.5,0.7,1.5,1.5v6h-6.1c-0.8,0-1.5-0.7-1.5-1.5v-2.5c0-2-1.6-3.6-3.6-3.6h-0.1c-2,0-3.6,1.6-3.6,3.6v3.9h-6.8v-22.3
							h6.8v4c0,2,1.6,3.6,3.6,3.6h0.1c2,0,3.6-1.6,3.6-3.6v-2.5c0-0.8,0.7-1.5,1.5-1.5h6.1v6c0,0.8-0.7,1.5-1.5,1.5h-2
							C-1095.6,1497.2-1097.2,1498.8-1097.2,1500.8z"/>
					</g>
					<g transform="matrix(0.235071,-0.0959687,0.0959687,0.235071,1413.79,188.88)">
						<g>
							
								<image style="overflow:visible;enable-background:new    ;" width="512" height="512" id="_Image3" xlink:href="5EF0499D636B9805.png"  transform="matrix(0.2391 0 0 0.2391 -3708.7542 -2125.5334)">
							</image>
						</g>
					</g>
					<g transform="matrix(0.246779,0.0597366,-0.0597366,0.246779,1601.12,926.194)">
						<g>
							
								<image style="overflow:visible;enable-background:new    ;" width="512" height="512" id="_Image4" xlink:href="5EF0499D636B980B.png"  transform="matrix(0.2391 0 0 0.2391 -5316.791 -1568.8798)">
							</image>
						</g>
					</g>
					<g transform="matrix(0.21375,0.137038,-0.137038,0.21375,952.362,1041.58)">
						<g>
							
								<image style="overflow:visible;enable-background:new    ;" width="512" height="512" id="_Image5" xlink:href="5EF0499D636B980D.png"  transform="matrix(0.2391 0 0 0.2391 -4087.5056 -1087.4089)">
							</image>
						</g>
					</g>
					<g transform="matrix(0.207707,-0.0782051,0.0782051,0.207707,728.348,514.662)">
						<g>
							
								<image style="overflow:visible;enable-background:new    ;" width="512" height="512" id="_Image6" xlink:href="5EF0499D636B980F.png"  transform="matrix(0.2391 0 0 0.2391 -1715.2429 -2531.2876)">
							</image>
						</g>
					</g>
					<g transform="matrix(0.196429,-0.160885,0.160885,0.196429,129.393,208.665)">
						<g>
							
								<image style="overflow:visible;enable-background:new    ;" width="512" height="512" id="_Image7" xlink:href="5EF0499D636B980C.png"  transform="matrix(0.2391 0 0 0.2391 96.2501 -729.5043)">
							</image>
						</g>
					</g>
					<g transform="matrix(0.233469,-0.0998023,0.0998023,0.233469,2153.39,1157.78)">
						<g>
							
								<image style="overflow:visible;enable-background:new    ;" width="512" height="512" id="_Image8" xlink:href="5EF0499D636B9804.png"  transform="matrix(0.2391 0 0 0.2391 -4570.249 -5727.1768)">
							</image>
						</g>
					</g>
					<g transform="matrix(0.224962,-0.11773,0.11773,0.224962,2176.73,153.078)">
						<g>
							
								<image style="overflow:visible;enable-background:new    ;" width="512" height="512" id="_Image9" xlink:href="5EF0499D636B9806.png"  transform="matrix(0.2391 0 0 0.2391 -5567.1357 -3431.2537)">
							</image>
						</g>
					</g>
					<g transform="matrix(0.198628,0.158163,-0.158163,0.198628,210.373,1086.68)">
						<g>
							
								<image style="overflow:visible;enable-background:new    ;" width="512" height="512" id="_Image10" xlink:href="5EF0499D636B9802.png"  transform="matrix(0.2391 0 0 0.2391 -2521.8596 -2154.9365)">
							</image>
						</g>
					</g>
				</g>
				<g transform="matrix(0.801478,0,0,0.801478,82.0314,267.254)">
					<g transform="matrix(0.246776,0.0597486,-0.0597486,0.246776,617.563,934.926)">
						<g>
							
								<image style="overflow:visible;enable-background:new    ;" width="512" height="512" id="_Image2_2_" xlink:href="B8BAA3BF5E8CF904.png"  transform="matrix(0.2391 0 0 0.2391 -2960.0471 -3057.1172)">
							</image>
						</g>
					</g>
					<g transform="matrix(0.508197,-0.293408,0.293408,0.508197,-608.136,1554.26)">
						<path class="st4" d="M2325.9-1575.1c14.4,0,26.2,11.7,26.2,26.2s-11.7,26.2-26.2,26.2s-26.2-11.7-26.2-26.2
							S2311.5-1575.1,2325.9-1575.1z M2325.9-1571.6c12.5,0,22.7,10.2,22.7,22.7c0,12.5-10.2,22.7-22.7,22.7s-22.7-10.2-22.7-22.7
							C2303.2-1561.5,2313.4-1571.6,2325.9-1571.6z M2329.8-1549v0.1c0,2,1.6,3.6,3.6,3.6h2c0.8,0,1.5,0.7,1.5,1.5v6h-6.1
							c-0.8,0-1.5-0.7-1.5-1.5v-2.5c0-2-1.6-3.6-3.6-3.6h-0.1c-2,0-3.6,1.6-3.6,3.6v3.9h-6.8v-22.3h6.8v4c0,2,1.6,3.6,3.6,3.6h0.1
							c2,0,3.6-1.6,3.6-3.6v-2.5c0-0.8,0.7-1.5,1.5-1.5h6.1v6c0,0.8-0.7,1.5-1.5,1.5h-2C2331.4-1552.5,2329.8-1550.9,2329.8-1549z"
							/>
					</g>
					<g transform="matrix(0.234848,0.0965137,-0.0965137,0.234848,2243.41,1187.69)">
						<g>
							
								<image style="overflow:visible;enable-background:new    ;" width="512" height="512" id="_Image3_2_" xlink:href="B8BAA3BF5E8CF903.png"  transform="matrix(0.2391 0 0 0.2391 -8184.5098 -1420.9225)">
							</image>
						</g>
					</g>
					<g transform="matrix(0.246779,0.0597366,-0.0597366,0.246779,790.529,-77.9995)">
						<g>
							
								<image style="overflow:visible;enable-background:new    ;" width="512" height="512" id="_Image4_2_" xlink:href="B8BAA3BF5E8CF91C.png"  transform="matrix(0.2391 0 0 0.2391 -2749.5068 15.1442)">
							</image>
						</g>
					</g>
					<g transform="matrix(0.241637,-0.0779741,0.0779741,0.241637,1134.48,-175.008)">
						<g>
							
								<image style="overflow:visible;enable-background:new    ;" width="512" height="512" id="_Image5_2_" xlink:href="B8BAA3BF5E8CF91F.png"  transform="matrix(0.2391 0 0 0.2391 -3422.7163 -1463.2506)">
							</image>
						</g>
					</g>
					<g transform="matrix(0.234455,0.0974636,-0.0974636,0.234455,1459.63,639.641)">
						<g>
							
								<image style="overflow:visible;enable-background:new    ;" width="512" height="512" id="_Image6_2_" xlink:href="B8BAA3BF5E8CF91D.png"  transform="matrix(0.2391 0 0 0.2391 -5390.7524 -772.7935)">
							</image>
						</g>
					</g>
					<g transform="matrix(0.23897,-0.0858009,0.0858009,0.23897,1518.92,1339.55)">
						<g>
							
								<image style="overflow:visible;enable-background:new    ;" width="512" height="512" id="_Image7_2_" xlink:href="B8BAA3BF5E8CF902.png"  transform="matrix(0.2391 0 0 0.2391 -2923.7729 -6235.2563)">
							</image>
						</g>
					</g>
					<g transform="matrix(0.577273,0.333289,-0.333289,0.577273,735.41,236.168)">
						<path class="st4" d="M-565.1,125.9c14.4,0,26.2,11.7,26.2,26.2c0,14.4-11.7,26.2-26.2,26.2s-26.2-11.7-26.2-26.2
							C-591.2,137.6-579.5,125.9-565.1,125.9z M-565.1,129.4c12.5,0,22.7,10.2,22.7,22.7c0,12.5-10.2,22.7-22.7,22.7
							s-22.7-10.2-22.7-22.7C-587.8,139.6-577.6,129.4-565.1,129.4z M-561.2,152v0.1c0,2,1.6,3.6,3.6,3.6h2c0.8,0,1.5,0.7,1.5,1.5v6
							h-6.1c-0.8,0-1.5-0.7-1.5-1.5v-2.5c0-2-1.6-3.6-3.6-3.6h-0.1c-2,0-3.6,1.6-3.6,3.6v3.9h-6.8V141h6.8v4c0,2,1.6,3.6,3.6,3.6
							h0.1c2,0,3.6-1.6,3.6-3.6v-2.5c0-0.8,0.7-1.5,1.5-1.5h6.1v6c0,0.8-0.7,1.5-1.5,1.5h-2C-559.6,148.5-561.2,150.1-561.2,152z"/>
					</g>
					<g transform="matrix(0.192348,0.165743,-0.165743,0.192348,2325.87,-288.937)">
						<g>
							
								<image style="overflow:visible;enable-background:new    ;" width="512" height="512" id="_Image8_2_" xlink:href="B8BAA3BF5E8CF905.png"  transform="matrix(0.2391 0 0 0.2391 -5512.8623 4750.3413)">
							</image>
						</g>
					</g>
					<g transform="matrix(-0.224962,-0.11773,-0.11773,0.224962,281.011,494.223)">
						<g>
							
								<image style="overflow:visible;enable-background:new    ;" width="512" height="512" id="_Image9_2_" xlink:href="B8BAA3BF5E8CF907.png"  transform="matrix(0.2391 0 0 0.2391 2106.2153 -1546.7982)">
							</image>
						</g>
					</g>
					<g transform="matrix(0.249475,-0.0472276,0.0472276,0.249475,2424.35,321.482)">
						<g>
							
								<image style="overflow:visible;enable-background:new    ;" width="512" height="512" id="_Image10_2_" xlink:href="B8BAA3BF5E8CF900.png"  transform="matrix(0.2391 0 0 0.2391 -7099.9106 -3205.9526)">
							</image>
						</g>
					</g>
				</g>
			</g>
		</g>
	</g>
</g>
</svg>
