<?xml version="1.0" encoding="utf-8"?>
<!-- Generator: Adobe Illustrator 25.3.1, SVG Export Plug-In . SVG Version: 6.00 Build 0)  -->
<svg version="1.1" id="Layer_1" xmlns="http://www.w3.org/2000/svg" xmlns:xlink="http://www.w3.org/1999/xlink" x="0px" y="0px"
	 viewBox="0 0 938 708" style="enable-background:new 0 0 938 708;" xml:space="preserve">
<style type="text/css">
	.st0{fill:#EFEDF5;}
	.st1{fill:#C9B5FD;}
	.st2{fill:#6F41E8;}
	.st3{fill:#5728D1;}
	.st4{fill:none;}
	.st5{fill-rule:evenodd;clip-rule:evenodd;fill:#6943DE;}
	.st6{fill:none;stroke:#5728D1;stroke-miterlimit:10;}
	.st7{fill-rule:evenodd;clip-rule:evenodd;fill:#EFEDF5;}
	.st8{fill:none;stroke:#5728D1;stroke-width:2;stroke-miterlimit:10;}
	.st9{fill:none;stroke:#5728D1;stroke-width:2;stroke-miterlimit:10;stroke-dasharray:10.3449,10.3449;}
	.st10{fill:none;stroke:#5728D1;stroke-width:2;stroke-miterlimit:10;stroke-dasharray:10;}
	.st11{fill-rule:evenodd;clip-rule:evenodd;fill:#6F41E8;}
	.st12{fill:none;stroke:#6F41E8;stroke-width:2;stroke-miterlimit:10;}
</style>
<g id="Desktop">
	<desc>Created with Sketch.</desc>
	<g>
		<path class="st0" d="M898,308.52V30H0v497.56C0,534.98,6.02,541,13.44,541h53.48c88.24-84.77,226.43-160.95,390.61-206.8
			C621.36,288.45,778.7,281.94,898,308.52z"/>
		<path class="st1" d="M898,527.56V308.52c-119.3-26.58-276.64-20.08-440.47,25.67C293.35,380.05,155.16,456.23,66.92,541h817.64
			C891.98,541,898,534.98,898,527.56z"/>
		<path class="st2" d="M898,13.44C898,6.02,891.98,0,884.56,0H13.44C6.02,0,0,6.02,0,13.44V30h898V13.44z"/>
		<circle class="st1" cx="33" cy="15" r="8"/>
		<circle class="st0" cx="64" cy="15" r="8"/>
		<circle class="st0" cx="95" cy="15" r="8"/>
		<circle class="st1" cx="855" cy="15" r="8"/>
	</g>
	<g>
		<g>
			<path class="st2" d="M349,291c2.67,0,5.34,0.02,8,0.06V78.55c0-6.93-5.62-12.55-12.55-12.55H50.55C43.62,66,38,71.62,38,78.55
				v325C91.44,337.19,210.59,291,349,291z"/>
			<path class="st3" d="M50.55,505h293.9c6.93,0,12.55-5.62,12.55-12.55V291.06c-2.66-0.03-5.33-0.06-8-0.06
				c-138.41,0-257.56,46.19-311,112.55v88.9C38,499.38,43.62,505,50.55,505z"/>
		</g>
		<g>
			<rect x="64" y="91.5" class="st0" width="267" height="20"/>
			<rect x="64" y="124.5" class="st0" width="267" height="20"/>
			<rect x="64" y="157.5" class="st0" width="267" height="20"/>
			<rect x="64" y="190.5" class="st0" width="117" height="20"/>
		</g>
		<g>
			<path class="st0" d="M139.88,479.5H75.12c-6.14,0-11.12-4.98-11.12-11.12v-16.73c0-6.14,4.98-11.12,11.12-11.12h64.75
				c6.14,0,11.12,4.98,11.12,11.12v16.73C151,474.52,146.02,479.5,139.88,479.5z"/>
			<g id="kin_logo_32_32_Purple">
				<path id="Combined-Shape" class="st4" d="M98.74,450.97"/>
				<path id="Fill-1" class="st5" d="M110.61,459.95v0.11c0,1.59,1.3,2.9,2.88,2.9h1.58c0.65,0,1.19,0.53,1.19,1.19v4.89h-4.94
					c-0.65,0-1.19-0.53-1.19-1.19v-2.01c0-1.59-1.3-2.9-2.88-2.9h-0.11c-1.58,0-2.88,1.3-2.88,2.9v3.2h-5.52v-18.08h5.52v3.24
					c0,1.59,1.3,2.9,2.88,2.9h0.11c1.58,0,2.88-1.3,2.88-2.9v-2.05c0-0.66,0.53-1.19,1.19-1.19h4.94v4.89
					c0,0.66-0.53,1.19-1.19,1.19h-1.58C111.91,457.06,110.61,458.36,110.61,459.95"/>
			</g>
		</g>
		<path class="st6" d="M108,505"/>
	</g>
</g>
<g id="Mobile">
	<g>
		<g>
			<path class="st2" d="M421.91,330h-34.5c0,0.12,0.02,0.24,0.02,0.37c0,5.48-4.44,9.92-9.92,9.92H316.5
				c-5.48,0-9.92-4.44-9.92-9.92c0-0.12,0.01-0.24,0.02-0.37h-34.5c-6.13,0-11.09,4.97-11.09,11.09v9.12h172v-9.12
				C433,334.97,428.03,330,421.91,330z"/>
			<path class="st3" d="M316.5,340.29h61.01c5.48,0,9.92-4.44,9.92-9.92c0-0.12-0.01-0.24-0.02-0.37h-80.82
				c0,0.12-0.02,0.24-0.02,0.37C306.57,335.85,311.02,340.29,316.5,340.29z"/>
			<path class="st2" d="M261,618.81c0,6.13,4.97,11.09,11.09,11.09h149.82c6.13,0,11.09-4.97,11.09-11.09v-9.12H261V618.81z"/>
			<rect x="261" y="350.21" class="st0" width="172" height="259.47"/>
			<path class="st2" d="M355.82,336.25h-17.64c-0.61,0-1.1-0.49-1.1-1.1l0,0c0-0.61,0.49-1.1,1.1-1.1h17.64c0.61,0,1.1,0.49,1.1,1.1
				l0,0C356.92,335.75,356.43,336.25,355.82,336.25z"/>
		</g>
		<path class="st3" d="M270.5,442.56c0,3,2.43,5.44,5.44,5.44h142.13c3,0,5.44-2.43,5.44-5.44v-17.82
			c-42.94-23-108.26-29.78-153-31.55v49.37H270.5z"/>
		<path class="st2" d="M418.06,359H275.94c-3,0-5.44,2.43-5.44,5.44v28.76c44.74,1.77,110.06,8.55,153,31.55v-60.31
			C423.5,361.43,421.07,359,418.06,359z"/>
		<circle class="st0" cx="347" cy="403.5" r="15.5"/>
		<path class="st2" d="M353.31,402.3c0.92,0.53,0.92,1.87,0,2.4l-4.61,2.66l-4.61,2.66c-0.92,0.53-2.08-0.13-2.08-1.2v-5.33v-5.33
			c0-1.07,1.16-1.73,2.08-1.2l4.61,2.66L353.31,402.3z"/>
		<path class="st6" d="M261.5,591.5"/>
		<g>
			<path class="st2" d="M362.32,582.5h-30.2c-6.14,0-11.12-4.98-11.12-11.12v-1.25c0-6.14,4.98-11.12,11.12-11.12h30.2
				c6.14,0,11.12,4.98,11.12,11.12v1.25C373.45,577.52,368.47,582.5,362.32,582.5z"/>
			<g id="kin_logo_32_32_Purple_2_">
				<path id="Combined-Shape_2_" class="st0" d="M341.95,565.3"/>
				<path id="Fill-1_2_" class="st7" d="M349.1,570.72v0.07c0,0.96,0.78,1.75,1.74,1.75h0.95c0.39,0,0.71,0.32,0.71,0.72v2.95h-2.98
					c-0.39,0-0.71-0.32-0.71-0.72v-1.21c0-0.96-0.78-1.75-1.74-1.75H347c-0.95,0-1.74,0.79-1.74,1.75v1.93h-3.33v-10.9h3.33v1.95
					c0,0.96,0.78,1.75,1.74,1.75h0.07c0.95,0,1.74-0.79,1.74-1.75v-1.23c0-0.4,0.32-0.72,0.71-0.72h2.98v2.95
					c0,0.4-0.32,0.72-0.71,0.72h-0.95C349.88,568.97,349.1,569.76,349.1,570.72"/>
			</g>
		</g>
		<g>
			<path class="st1" d="M271,526.39c0,2.33,1.89,4.22,4.22,4.22h28.59c-6.38-25.69-22.41-48.74-32.81-61.67V526.39z"/>
			<path class="st1" d="M311.28,458h-36.06c-2.33,0-4.22,1.89-4.22,4.22v6.71c10.4,12.94,26.43,35.98,32.81,61.67h7.47
				c2.33,0,4.22-1.89,4.22-4.22v-64.16C315.5,459.89,313.61,458,311.28,458z"/>
		</g>
		<path class="st1" d="M365.28,458h-36.06c-2.33,0-4.22,1.89-4.22,4.22v64.16c0,2.33,1.89,4.22,4.22,4.22h13.28h22.78
			c2.33,0,4.22-1.89,4.22-4.22v-36v-28.17C369.5,459.89,367.61,458,365.28,458z"/>
		<g>
			<path class="st1" d="M423.5,462.22c0-2.33-1.89-4.22-4.22-4.22h-36.06c-2.33,0-4.22,1.89-4.22,4.22v31.19
				c13.24-12.06,29.76-21.16,44.5-27.67V462.22z"/>
			<path class="st1" d="M379,493.41v32.97c0,2.33,1.89,4.22,4.22,4.22h36.06c2.33,0,4.22-1.89,4.22-4.22v-60.64
				C408.76,472.25,392.23,481.35,379,493.41z"/>
		</g>
	</g>
</g>
<g id="Image">
	<path class="st3" d="M482,272.88V104.12c0-7.25,5.88-13.12,13.12-13.12h168.75c7.25,0,13.12,5.88,13.12,13.12v168.75
		c0,7.25-5.88,13.12-13.12,13.12H495.12C487.88,286,482,280.12,482,272.88z"/>
	<path class="st2" d="M662.39,98.07H496.61c-4.17,0-7.54,3.38-7.54,7.54v15.68V271.4c0,4.17,3.38,7.54,7.54,7.54h159.56h6.22
		c4.17,0,7.54-3.38,7.54-7.54V105.61C669.93,101.44,666.56,98.07,662.39,98.07z"/>
	<circle class="st0" cx="536.76" cy="149.99" r="28.61"/>
	<polygon class="st1" points="507.68,278.93 552.37,159.18 590.67,229.12 608.23,198.74 651.32,278.93 	"/>
</g>
<g id="Coin_Swishes">
	<g>
		<g>
			<g>
				<path class="st8" d="M108,505c0,0-0.52,1.85-0.61,4.95"/>
				<path class="st9" d="M108.66,520.18c5.37,19.52,31.25,51.16,142.16,52.98"/>
				<path class="st8" d="M256,573.22c1.65,0.01,3.32,0.02,5,0.02"/>
			</g>
		</g>
		<circle class="st2" cx="200" cy="569" r="15"/>
		<g id="kin_logo_32_32_Purple_1_">
			<path id="Combined-Shape_1_" class="st0" d="M194.08,562.89"/>
			<path id="Fill-1_1_" class="st7" d="M202.1,568.96v0.08c0,1.08,0.88,1.96,1.95,1.96h1.07c0.44,0,0.8,0.36,0.8,0.81v3.3h-3.34
				c-0.44,0-0.8-0.36-0.8-0.81v-1.36c0-1.08-0.88-1.96-1.95-1.96h-0.07c-1.07,0-1.95,0.88-1.95,1.96v2.16h-3.73v-12.21h3.73v2.19
				c0,1.08,0.88,1.96,1.95,1.96h0.07c1.07,0,1.95-0.88,1.95-1.96v-1.38c0-0.45,0.36-0.81,0.8-0.81h3.34v3.3
				c0,0.45-0.36,0.81-0.8,0.81h-1.07C202.98,567,202.1,567.89,202.1,568.96"/>
		</g>
		<circle class="st2" cx="122.5" cy="541.5" r="10.5"/>
		<g id="kin_logo_32_32_Purple_3_">
			<path id="Combined-Shape_3_" class="st0" d="M118.36,537.23"/>
			<path id="Fill-1_3_" class="st7" d="M123.97,541.47v0.05c0,0.75,0.61,1.37,1.36,1.37h0.75c0.31,0,0.56,0.25,0.56,0.56v2.31h-2.34
				c-0.31,0-0.56-0.25-0.56-0.56v-0.95c0-0.75-0.61-1.37-1.36-1.37h-0.05c-0.75,0-1.36,0.62-1.36,1.37v1.51h-2.61v-8.55h2.61v1.53
				c0,0.75,0.61,1.37,1.36,1.37h0.05c0.75,0,1.36-0.62,1.36-1.37v-0.97c0-0.31,0.25-0.56,0.56-0.56h2.34v2.31
				c0,0.31-0.25,0.56-0.56,0.56h-0.75C124.58,540.1,123.97,540.72,123.97,541.47"/>
		</g>
	</g>
	<g>
		<path class="st10" d="M433,403.55c0,0,146.5,6.45,146.5-112.55"/>
		<circle class="st2" cx="471.5" cy="400.5" r="10.5"/>
		<g id="kin_logo_32_32_Purple_4_">
			<path id="Combined-Shape_4_" class="st0" d="M467.36,396.23"/>
			<path id="Fill-1_4_" class="st7" d="M472.97,400.47v0.05c0,0.75,0.61,1.37,1.36,1.37h0.75c0.31,0,0.56,0.25,0.56,0.56v2.31h-2.34
				c-0.31,0-0.56-0.25-0.56-0.56v-0.95c0-0.75-0.61-1.37-1.36-1.37h-0.05c-0.75,0-1.36,0.62-1.36,1.37v1.51h-2.61v-8.55h2.61v1.53
				c0,0.75,0.61,1.37,1.36,1.37h0.05c0.75,0,1.36-0.62,1.36-1.37v-0.97c0-0.31,0.25-0.56,0.56-0.56h2.34v2.31
				c0,0.31-0.25,0.56-0.56,0.56h-0.75C473.58,399.1,472.97,399.72,472.97,400.47"/>
		</g>
		<circle class="st2" cx="531.5" cy="380.5" r="12.5"/>
		<circle class="st2" cx="575" cy="324" r="16"/>
		<g id="kin_logo_32_32_Purple_6_">
			<path id="Combined-Shape_6_" class="st0" d="M568.69,317.49"/>
			<path id="Fill-1_6_" class="st7" d="M577.24,323.96v0.08c0,1.15,0.93,2.09,2.08,2.09h1.14c0.47,0,0.85,0.39,0.85,0.86v3.52h-3.56
				c-0.47,0-0.85-0.39-0.85-0.86v-1.45c0-1.15-0.93-2.09-2.08-2.09h-0.08c-1.14,0-2.08,0.94-2.08,2.09v2.31h-3.98v-13.03h3.98v2.34
				c0,1.15,0.93,2.09,2.08,2.09h0.08c1.14,0,2.08-0.94,2.08-2.09v-1.48c0-0.48,0.38-0.86,0.85-0.86h3.56V321
				c0,0.48-0.38,0.86-0.85,0.86h-1.14C578.17,321.87,577.24,322.81,577.24,323.96"/>
		</g>
		<g id="kin_logo_32_32_Purple_5_">
			<path id="Combined-Shape_5_" class="st0" d="M526.57,375.41"/>
			<path id="Fill-1_5_" class="st7" d="M533.25,380.47v0.06c0,0.9,0.73,1.63,1.62,1.63h0.89c0.37,0,0.67,0.3,0.67,0.67v2.75h-2.78
				c-0.37,0-0.67-0.3-0.67-0.67v-1.13c0-0.9-0.73-1.63-1.62-1.63h-0.06c-0.89,0-1.62,0.73-1.62,1.63v1.8h-3.11V375.4h3.11v1.83
				c0,0.9,0.73,1.63,1.62,1.63h0.06c0.89,0,1.62-0.73,1.62-1.63v-1.15c0-0.37,0.3-0.67,0.67-0.67h2.78v2.75
				c0,0.37-0.3,0.67-0.67,0.67h-0.89C533.98,378.84,533.25,379.57,533.25,380.47"/>
		</g>
	</g>
	<g>
		<path class="st10" d="M677,121.38c0,0,165.5-21.38,165.5,108.62"/>
		<circle class="st2" cx="835" cy="188" r="15"/>
		<g id="kin_logo_32_32_Purple_9_">
			<path id="Combined-Shape_9_" class="st0" d="M829.08,181.89"/>
			<path id="Fill-1_9_" class="st7" d="M837.1,187.96v0.08c0,1.08,0.88,1.96,1.95,1.96h1.07c0.44,0,0.8,0.36,0.8,0.81v3.3h-3.34
				c-0.44,0-0.8-0.36-0.8-0.81v-1.36c0-1.08-0.88-1.96-1.95-1.96h-0.07c-1.07,0-1.95,0.88-1.95,1.96v2.16h-3.73v-12.21h3.73v2.19
				c0,1.08,0.88,1.96,1.95,1.96h0.07c1.07,0,1.95-0.88,1.95-1.96v-1.38c0-0.45,0.36-0.81,0.8-0.81h3.34v3.3
				c0,0.45-0.36,0.81-0.8,0.81h-1.07C837.98,186,837.1,186.89,837.1,187.96"/>
		</g>
		<g>
			<circle class="st2" cx="734.5" cy="121.5" r="10.5"/>
			<g id="kin_logo_32_32_Purple_8_">
				<path id="Combined-Shape_8_" class="st0" d="M730.36,117.23"/>
				<path id="Fill-1_8_" class="st7" d="M735.97,121.47v0.05c0,0.75,0.61,1.37,1.36,1.37h0.75c0.31,0,0.56,0.25,0.56,0.56v2.31
					h-2.34c-0.31,0-0.56-0.25-0.56-0.56v-0.95c0-0.75-0.61-1.37-1.36-1.37h-0.05c-0.75,0-1.36,0.62-1.36,1.37v1.51h-2.61v-8.55h2.61
					v1.53c0,0.75,0.61,1.37,1.36,1.37h0.05c0.75,0,1.36-0.62,1.36-1.37v-0.97c0-0.31,0.25-0.56,0.56-0.56h2.34v2.31
					c0,0.31-0.25,0.56-0.56,0.56h-0.75C736.58,120.1,735.97,120.72,735.97,121.47"/>
			</g>
		</g>
	</g>
</g>
<g id="Tablet">
	<g>
		<path class="st3" d="M920.54,708H633.46c-9.64,0-17.46-7.82-17.46-17.46V247.46c0-9.64,7.82-17.46,17.46-17.46h287.08
			c9.64,0,17.46,7.82,17.46,17.46v443.08C938,700.18,930.18,708,920.54,708z"/>
		<path class="st0" d="M636,680.01V257.99c0-4.41,3.58-7.99,7.99-7.99h266.03c4.41,0,7.99,3.58,7.99,7.99v422.03
			c0,4.41-3.58,7.99-7.99,7.99H643.99C639.58,688,636,684.42,636,680.01z"/>
		<path class="st2" d="M857.92,417H815.5c-7.18,0-13-5.82-13-13l0,0c0-7.18,5.82-13,13-13h42.42c7.18,0,13,5.82,13,13l0,0
			C870.92,411.18,865.1,417,857.92,417z"/>
		<g>
			<circle class="st0" cx="815.84" cy="404" r="9.24"/>
			<g id="kin_logo_32_32_Purple_7_">
				<path id="Combined-Shape_7_" class="st2" d="M812.2,400.24"/>
				<path id="Fill-1_7_" class="st11" d="M817.14,403.98v0.05c0,0.66,0.54,1.21,1.2,1.21H819c0.27,0,0.49,0.22,0.49,0.5v2.03h-2.05
					c-0.27,0-0.49-0.22-0.49-0.5v-0.84c0-0.66-0.54-1.21-1.2-1.21h-0.05c-0.66,0-1.2,0.54-1.2,1.21v1.33h-2.3v-7.52h2.3v1.35
					c0,0.66,0.54,1.21,1.2,1.21h0.05c0.66,0,1.2-0.54,1.2-1.21v-0.85c0-0.27,0.22-0.5,0.49-0.5h2.05v2.03c0,0.27-0.22,0.5-0.49,0.5
					h-0.66C817.67,402.77,817.14,403.31,817.14,403.98"/>
			</g>
		</g>
		<circle class="st2" cx="808.5" cy="339.5" r="6"/>
		<circle class="st2" cx="825.5" cy="339.5" r="6"/>
		<circle class="st2" cx="842.5" cy="339.5" r="6"/>
		<circle class="st12" cx="859.5" cy="339.5" r="6"/>
		<circle class="st12" cx="876.5" cy="339.5" r="6"/>
		<g>
			<rect x="802.5" y="281.5" class="st2" width="104" height="9"/>
			<rect x="802.5" y="297.5" class="st2" width="104" height="9"/>
			<rect x="802.5" y="313.5" class="st2" width="52" height="9"/>
		</g>
		<circle class="st3" cx="651.5" cy="548" r="4"/>
		<circle class="st3" cx="662.83" cy="548" r="4"/>
		<circle class="st3" cx="674.17" cy="548" r="4"/>
		<g>
			<path class="st3" d="M685.5,545c1.65,0,3,1.35,3,3s-1.35,3-3,3s-3-1.35-3-3S683.85,545,685.5,545 M685.5,544c-2.21,0-4,1.79-4,4
				s1.79,4,4,4s4-1.79,4-4S687.71,544,685.5,544L685.5,544z"/>
		</g>
		<g>
			<path class="st3" d="M696.83,545c1.65,0,3,1.35,3,3s-1.35,3-3,3s-3-1.35-3-3S695.18,545,696.83,545 M696.83,544
				c-2.21,0-4,1.79-4,4s1.79,4,4,4s4-1.79,4-4S699.04,544,696.83,544L696.83,544z"/>
		</g>
		<circle class="st3" cx="749.5" cy="548" r="4"/>
		<circle class="st3" cx="760.83" cy="548" r="4"/>
		<circle class="st3" cx="772.17" cy="548" r="4"/>
		<g>
			<circle class="st3" cx="783.5" cy="548" r="4"/>
		</g>
		<g>
			<path class="st3" d="M794.83,545c1.65,0,3,1.35,3,3s-1.35,3-3,3s-3-1.35-3-3S793.18,545,794.83,545 M794.83,544
				c-2.21,0-4,1.79-4,4s1.79,4,4,4s4-1.79,4-4S797.04,544,794.83,544L794.83,544z"/>
		</g>
		<circle class="st3" cx="847.5" cy="548" r="4"/>
		<circle class="st3" cx="858.83" cy="548" r="4"/>
		<circle class="st6" cx="870.17" cy="548" r="4"/>
		<g>
			<path class="st3" d="M881.5,545c1.65,0,3,1.35,3,3s-1.35,3-3,3s-3-1.35-3-3S879.85,545,881.5,545 M881.5,544c-2.21,0-4,1.79-4,4
				s1.79,4,4,4s4-1.79,4-4S883.71,544,881.5,544L881.5,544z"/>
		</g>
		<g>
			<path class="st3" d="M892.83,545c1.65,0,3,1.35,3,3s-1.35,3-3,3s-3-1.35-3-3S891.18,545,892.83,545 M892.83,544
				c-2.21,0-4,1.79-4,4s1.79,4,4,4s4-1.79,4-4S895.04,544,892.83,544L892.83,544z"/>
		</g>
		<circle class="st3" cx="651.5" cy="658" r="4"/>
		<circle class="st3" cx="662.83" cy="658" r="4"/>
		<circle class="st3" cx="674.17" cy="658" r="4"/>
		<g>
			<circle class="st3" cx="685.5" cy="658" r="4"/>
		</g>
		<g>
			<path class="st3" d="M696.83,655c1.65,0,3,1.35,3,3s-1.35,3-3,3s-3-1.35-3-3S695.18,655,696.83,655 M696.83,654
				c-2.21,0-4,1.79-4,4s1.79,4,4,4s4-1.79,4-4S699.04,654,696.83,654L696.83,654z"/>
		</g>
		<circle class="st3" cx="749.5" cy="658" r="4"/>
		<circle class="st3" cx="760.83" cy="658" r="4"/>
		<circle class="st3" cx="772.17" cy="658" r="4"/>
		<g>
			<circle class="st3" cx="783.5" cy="658" r="4"/>
		</g>
		<g>
			<circle class="st3" cx="794.83" cy="658" r="4"/>
		</g>
		<circle class="st3" cx="847.5" cy="658" r="4"/>
		<circle class="st3" cx="858.83" cy="658" r="4"/>
		<circle class="st3" cx="870.17" cy="658" r="4"/>
		<g>
			<path class="st3" d="M881.5,655c1.65,0,3,1.35,3,3s-1.35,3-3,3s-3-1.35-3-3S879.85,655,881.5,655 M881.5,654c-2.21,0-4,1.79-4,4
				s1.79,4,4,4s4-1.79,4-4S883.71,654,881.5,654L881.5,654z"/>
		</g>
		<g>
			<path class="st3" d="M892.83,655c1.65,0,3,1.35,3,3s-1.35,3-3,3s-3-1.35-3-3S891.18,655,892.83,655 M892.83,654
				c-2.21,0-4,1.79-4,4s1.79,4,4,4s4-1.79,4-4S895.04,654,892.83,654L892.83,654z"/>
		</g>
		<rect x="647.5" y="473" class="st1" width="63" height="63"/>
		<rect x="745" y="473" class="st1" width="63" height="63"/>
		<rect x="843.5" y="473" class="st1" width="63" height="63"/>
		<rect x="647.5" y="585" class="st1" width="63" height="63"/>
		<rect x="745" y="585" class="st1" width="63" height="63"/>
		<rect x="843.5" y="585" class="st1" width="63" height="63"/>
		<line class="st6" x1="648" y1="444.5" x2="907" y2="444.5"/>
		<path class="st2" d="M776.5,367.86V273h-129v41.81c7.29-1.18,14.81-1.81,22.5-1.81C716.02,313,756.04,335.19,776.5,367.86z"/>
		<path class="st3" d="M776.5,417v-49.14C756.04,335.19,716.02,313,670,313c-7.69,0-15.21,0.63-22.5,1.81V417H776.5z"/>
	</g>
</g>
</svg>
