<?xml version="1.0" encoding="utf-8"?>
<!-- Generator: Adobe Illustrator 25.3.1, SVG Export Plug-In . SVG Version: 6.00 Build 0)  -->
<svg version="1.1" id="Layer_1" xmlns="http://www.w3.org/2000/svg" xmlns:xlink="http://www.w3.org/1999/xlink" x="0px" y="0px"
	 viewBox="0 0 266.59 88.9" style="enable-background:new 0 0 266.59 88.9;" xml:space="preserve">
<style type="text/css">
	.st0{fill-rule:evenodd;clip-rule:evenodd;fill:#6F41E8;}
	.st1{fill:#6F41E8;}
</style>
<g>
	<path class="st0" d="M58.53,44.3v0.55c0.02,7.84,6.37,14.18,14.21,14.2h7.8c3.23,0,5.85,2.62,5.85,5.85l0,0v24H62.03
		c-3.23,0-5.85-2.62-5.85-5.85l0,0v-9.84c-0.02-7.83-6.37-14.18-14.2-14.21h-0.55c-7.83,0.03-14.18,6.38-14.2,14.21V88.9H0V0.29
		h27.23v15.88c0.02,7.84,6.36,14.19,14.2,14.21h0.55c7.84-0.02,14.18-6.37,14.2-14.21v-10c0-3.23,2.62-5.85,5.85-5.85l0,0h24.32v24
		c0,3.23-2.62,5.85-5.85,5.85l0,0h-7.8C64.91,30.21,58.59,36.51,58.53,44.3z"/>
	<path class="st1" d="M146.08,0.29v88.57h-25.73V0.29H146.08z"/>
	<path class="st0" d="M266.59,0v88.86h-23.55c-1.91,0-3.71-0.94-4.8-2.51l-33.25-47.74v50.25h-25V0h23.57c1.91,0,3.71,0.93,4.8,2.5
		l33.24,47.74V0H266.59z"/>
</g>
</svg>
