<!-- Generator: Adobe Illustrator 25.3.1, SVG Export Plug-In . SVG Version: 6.00 Build 0)  -->
<svg version="1.1" id="Layer_1" xmlns="http://www.w3.org/2000/svg" xmlns:xlink="http://www.w3.org/1999/xlink" x="0px" y="0px"
	 viewBox="0 0 512 512" style="enable-background:new 0 0 512 512;" xml:space="preserve">
<style type="text/css">
	.st0{fill:none;}
	.st1{fill-rule:evenodd;clip-rule:evenodd;fill:#6F41E8;}
</style>
<desc>Created with Sketch.</desc>
<g id="kin_logo_32_32_Purple">
	<path id="Combined-Shape" class="st0" d="M19,11.35"/>
	<path id="Fill-1" class="st1" d="M340.16,254.5v3.01c0,43.16,35.07,78.47,77.94,78.47h42.81c17.72,0,32.09,14.46,32.09,32.3v132.37
		H359.35c-17.72,0-32.09-14.46-32.09-32.31v-54.39c0-43.16-35.07-78.47-77.93-78.47h-3c-42.86,0-77.93,35.31-77.93,78.47v86.69H19
		V11.35h149.4V99.1c0,43.16,35.07,78.47,77.94,78.47h2.99c42.86,0,77.93-35.31,77.93-78.47V43.66c0-17.84,14.36-32.31,32.09-32.31
		H493v132.37c0,17.84-14.36,32.31-32.09,32.31H418.1C375.24,176.03,340.16,211.34,340.16,254.5"/>
</g>
</svg>
