<?xml version="1.0" encoding="utf-8"?>
<!-- Generator: Adobe Illustrator 25.3.1, SVG Export Plug-In . SVG Version: 6.00 Build 0)  -->
<svg version="1.1" xmlns="http://www.w3.org/2000/svg" xmlns:xlink="http://www.w3.org/1999/xlink" x="0px" y="0px"
	 viewBox="0 0 64 64" style="enable-background:new 0 0 64 64;" xml:space="preserve">
<style type="text/css">
	.st0{fill:#6F41E8;}
	.st1{fill:#C9B5FD;}
	.st2{fill-rule:evenodd;clip-rule:evenodd;fill:#6F41E8;}
	.st3{fill-rule:evenodd;clip-rule:evenodd;fill:#C9B5FD;}
	.st4{fill:#5728D1;}
	.st5{clip-path:url(#SVGID_2_);}
	.st6{clip-path:url(#SVGID_4_);}
	.st7{clip-path:url(#SVGID_6_);}
	.st8{display:none;}
	.st9{display:inline;}
</style>
<g id="Layer_1">
	<path class="st1" d="M31.7,48.13c-0.17,0-0.35-0.05-0.5-0.13l-1.59-0.94c-0.24-0.13-0.12-0.18-0.04-0.21
		c0.32-0.11,0.38-0.14,0.72-0.33c0.04-0.02,0.08-0.01,0.12,0.01l1.22,0.72c0.04,0.02,0.11,0.02,0.15,0l4.76-2.75
		c0.04-0.03,0.07-0.08,0.07-0.13v-5.49c0-0.05-0.03-0.1-0.07-0.13l-4.76-2.74c-0.04-0.03-0.1-0.03-0.15,0l-4.75,2.74
		c-0.05,0.03-0.08,0.08-0.08,0.13v5.49c0,0.05,0.03,0.1,0.07,0.13l1.3,0.75c0.71,0.35,1.14-0.06,1.14-0.48v-5.42
		c0-0.08,0.06-0.14,0.14-0.14h0.6c0.08,0,0.14,0.06,0.14,0.14v5.42c0,0.94-0.51,1.49-1.41,1.49c-0.28,0-0.49,0-1.1-0.3l-1.25-0.72
		c-0.31-0.18-0.5-0.51-0.5-0.87v-5.49c0-0.36,0.19-0.69,0.5-0.87l4.76-2.75c0.3-0.17,0.7-0.17,1,0l4.76,2.75
		c0.31,0.18,0.5,0.51,0.5,0.87v5.49c0,0.36-0.19,0.69-0.5,0.87L32.2,48C32.05,48.08,31.87,48.13,31.7,48.13"/>
	<path class="st1" d="M33.17,44.35c-2.08,0-2.52-0.96-2.52-1.76c0-0.08,0.06-0.14,0.14-0.14h0.61c0.07,0,0.13,0.05,0.14,0.12
		c0.09,0.63,0.37,0.94,1.63,0.94c1,0,1.43-0.23,1.43-0.76c0-0.31-0.12-0.53-1.68-0.69c-1.3-0.13-2.11-0.42-2.11-1.46
		c0-0.96,0.81-1.53,2.17-1.53c1.52,0,2.28,0.53,2.37,1.66c0,0.04-0.01,0.08-0.04,0.11c-0.03,0.03-0.06,0.04-0.1,0.04h-0.62
		c-0.06,0-0.12-0.05-0.13-0.11c-0.15-0.66-0.51-0.87-1.49-0.87c-1.09,0-1.22,0.38-1.22,0.67c0,0.35,0.15,0.45,1.63,0.64
		c1.46,0.19,2.16,0.47,2.16,1.5C35.53,43.76,34.67,44.36,33.17,44.35 M38.96,38.53h0.16c0.13,0,0.16-0.09,0.16-0.15
		c0-0.14-0.1-0.14-0.15-0.14h-0.16L38.96,38.53z M38.76,38.08h0.35c0.12,0,0.36,0,0.36,0.27c0,0.19-0.12,0.23-0.19,0.25
		c0.14,0.01,0.15,0.1,0.17,0.23c0.01,0.08,0.03,0.22,0.05,0.27h-0.22c-0.01-0.05-0.04-0.31-0.04-0.32
		c-0.01-0.06-0.03-0.09-0.11-0.09h-0.18v0.41h-0.2V38.08z M38.34,38.59c0,0.43,0.34,0.77,0.77,0.77c0.43,0,0.77-0.35,0.77-0.77
		c0-0.43-0.35-0.77-0.77-0.77C38.68,37.83,38.33,38.16,38.34,38.59 M40.02,38.6c0,0.5-0.41,0.92-0.92,0.92
		c-0.5,0-0.92-0.41-0.92-0.92c0-0.52,0.43-0.92,0.92-0.92C39.6,37.68,40.02,38.08,40.02,38.6"/>
	<path class="st2" d="M16.97,26.65c0-0.22-0.12-0.42-0.3-0.53l-5.04-2.9c-0.09-0.05-0.18-0.08-0.28-0.08h-0.05
		c-0.1,0-0.19,0.03-0.28,0.08l-5.04,2.9c-0.19,0.11-0.31,0.31-0.31,0.53l0.01,7.82c0,0.11,0.06,0.21,0.15,0.26
		c0.09,0.06,0.21,0.06,0.3,0l3-1.72c0.19-0.11,0.3-0.31,0.3-0.53v-3.65c0-0.22,0.12-0.42,0.3-0.53l1.28-0.74
		c0.09-0.05,0.2-0.08,0.3-0.08c0.1,0,0.21,0.03,0.3,0.08l1.28,0.74c0.19,0.11,0.3,0.31,0.3,0.53v3.65c0,0.22,0.12,0.42,0.31,0.53
		l3,1.72c0.09,0.06,0.21,0.06,0.3,0c0.09-0.05,0.15-0.15,0.15-0.26L16.97,26.65z"/>
	<path class="st0" d="M44.24,17.58l-3-1.68c-0.09-0.05-0.21-0.05-0.3,0c-0.09,0.05-0.15,0.15-0.15,0.26v7.74
		c0,0.08-0.04,0.15-0.11,0.18c-0.07,0.04-0.15,0.04-0.21,0l-1.26-0.73c-0.19-0.11-0.42-0.11-0.61,0l-5.05,2.91
		c-0.19,0.11-0.3,0.31-0.3,0.53v5.83c0,0.22,0.12,0.42,0.3,0.53l5.05,2.91c0.19,0.11,0.42,0.11,0.61,0l5.05-2.92
		c0.19-0.11,0.3-0.31,0.3-0.53V18.11C44.55,17.89,44.43,17.69,44.24,17.58z M40.69,30.85l-1.73,1c-0.05,0.03-0.11,0.03-0.15,0
		l-1.73-1C37.03,30.83,37,30.78,37,30.72v-2c0-0.05,0.03-0.1,0.08-0.13l1.73-1c0.05-0.03,0.11-0.03,0.15,0l1.73,1
		c0.05,0.03,0.08,0.08,0.08,0.13l0,2C40.77,30.78,40.74,30.83,40.69,30.85z"/>
	<path class="st2" d="M58.04,28.67c0.19-0.11,0.3-0.31,0.3-0.53v-1.41c0-0.22-0.12-0.42-0.3-0.53l-5.01-2.91
		c-0.19-0.11-0.42-0.11-0.61,0l-5.04,2.91c-0.19,0.11-0.3,0.31-0.3,0.53v5.82c0,0.22,0.12,0.42,0.31,0.53l5.01,2.86
		c0.18,0.11,0.41,0.11,0.6,0l3.03-1.69c0.1-0.05,0.16-0.15,0.16-0.26c0-0.11-0.06-0.21-0.15-0.27l-5.08-2.91
		c-0.1-0.05-0.15-0.15-0.15-0.26v-1.83c0-0.11,0.06-0.21,0.15-0.26l1.58-0.91c0.09-0.05,0.21-0.05,0.3,0l1.58,0.91
		c0.09,0.05,0.15,0.15,0.15,0.26v1.44c0,0.11,0.06,0.21,0.15,0.26c0.09,0.05,0.21,0.05,0.3,0L58.04,28.67z"/>
	<path class="st3" d="M52.64,28.4c0.04-0.02,0.08-0.02,0.12,0l0.97,0.56c0.04,0.02,0.06,0.06,0.06,0.1v1.12
		c0,0.04-0.02,0.08-0.06,0.1l-0.97,0.56c-0.04,0.02-0.08,0.02-0.12,0l-0.97-0.56c-0.04-0.02-0.06-0.06-0.06-0.1v-1.12
		c0-0.04,0.02-0.08,0.06-0.1L52.64,28.4z"/>
	<path class="st4" d="M24.16,35.59l0.64,0.37c0.1,0.06,0.22,0.08,0.33,0.07c-0.11,0-0.23-0.02-0.33-0.07L24.16,35.59z"/>
	<g>
		<path class="st4" d="M19.8,26.21l-0.01,0.01c-0.19,0.11-0.3,0.31-0.3,0.52v5.8c0,0.13,0.06,0.25,0.13,0.35l1.99-3.4L19.8,26.21z"
			/>
		<path class="st4" d="M30.73,26.74c0-0.15-0.07-0.28-0.17-0.39l-1.7,3.11l1.85,3.16c0-0.03,0.02-0.05,0.02-0.09V26.74z"/>
	</g>
	<path class="st0" d="M25.27,36.02L25.28,36c-0.02,0.01-0.05,0.02-0.07,0.02C25.23,36.03,25.25,36.02,25.27,36.02z"/>
	<path class="st0" d="M25.13,36.03c0.01,0,0.01,0.01,0.02,0.01c0.01,0,0.03-0.01,0.04-0.01l-0.01-0.01
		C25.17,36.02,25.15,36.03,25.13,36.03z"/>
	<g>
		<path class="st0" d="M21.6,29.49l-1.99,3.4c0.05,0.06,0.1,0.13,0.17,0.17l4.37,2.53l0.65,0.37c0.1,0.06,0.21,0.08,0.33,0.07
			c0.02,0,0.04-0.01,0.05-0.01L21.6,29.49z"/>
		<path class="st0" d="M28.85,29.46l1.7-3.11c-0.04-0.05-0.08-0.1-0.13-0.13l-3.8-2.2l-1.22-0.7c0,0,0,0-0.01,0
			c-0.05-0.03-0.11-0.03-0.16-0.04l0,0L28.85,29.46z"/>
	</g>
	<path class="st1" d="M25.19,36.03c0.01,0,0.01,0,0.01-0.01C25.2,36.03,25.2,36.03,25.19,36.03L25.19,36.03z"/>
	<path class="st1" d="M25.18,36.02l0.01,0.01c0.01,0,0.01,0,0.02,0c0.03,0,0.05-0.02,0.07-0.02l0.01-0.01
		C25.25,36,25.22,36.02,25.18,36.02z"/>
	<g>
		<path class="st1" d="M28.85,29.46l-3.62-6.18l0,0c-0.04-0.01-0.08-0.03-0.12-0.03c-0.01,0-0.01,0-0.02,0
			c-0.1,0-0.2,0.03-0.29,0.08c0,0,0,0-0.01,0l-2.98,1.72l-2.02,1.17l1.8,3.28l3.58,6.53c0.03,0,0.07-0.02,0.1-0.03
			c0.04-0.01,0.08-0.01,0.12-0.03l5.02-2.9c0.09-0.05,0.16-0.12,0.21-0.21c0.01-0.02,0.02-0.04,0.03-0.07
			c0.02-0.05,0.04-0.11,0.04-0.16L28.85,29.46z"/>
	</g>
</g>
<g id="Guides" class="st8">
	<g class="st9">
		<g>
			<rect x="-35.93" y="15" class="st1" width="395.58" height="1"/>
		</g>
		<g>
			<rect x="-34.93" y="48" class="st1" width="395.58" height="1"/>
		</g>
	</g>
</g>
<g id="Swift">
</g>
<g id="Go">
</g>
<g id="Node">
</g>
<g id="Java">
</g>
<g id="Kotlin">
</g>
</svg>
