<?xml version="1.0" encoding="utf-8"?>
<!-- Generator: Adobe Illustrator 25.3.1, SVG Export Plug-In . SVG Version: 6.00 Build 0)  -->
<svg version="1.1" xmlns="http://www.w3.org/2000/svg" xmlns:xlink="http://www.w3.org/1999/xlink" x="0px" y="0px"
	 viewBox="0 0 64 64" style="enable-background:new 0 0 64 64;" xml:space="preserve">
<style type="text/css">
	.st0{fill:#6F41E8;}
	.st1{fill:#C9B5FD;}
	.st2{fill-rule:evenodd;clip-rule:evenodd;fill:#6F41E8;}
	.st3{fill-rule:evenodd;clip-rule:evenodd;fill:#C9B5FD;}
	.st4{clip-path:url(#SVGID_2_);}
	.st5{fill:#5728D1;}
	.st6{clip-path:url(#SVGID_4_);}
	.st7{clip-path:url(#SVGID_6_);}
	.st8{clip-path:url(#SVGID_8_);}
	.st9{clip-path:url(#SVGID_10_);}
	.st10{clip-path:url(#SVGID_12_);}
	.st11{display:none;}
	.st12{display:inline;}
</style>
<g id="Layer_1">
	<g>
		<path id="path1948_1_" class="st0" d="M31.37,15.72c-1.33,0.01-2.6,0.12-3.72,0.32c-3.29,0.58-3.89,1.79-3.89,4.01v2.93h8.06v1.15
			h-7.66h-2.87c-2.23,0-4.18,1.34-4.79,3.88c-0.7,2.92-0.73,4.74,0,7.79c0.54,2.27,1.84,3.88,4.07,3.88h2.32v-3.54
			c0-2.56,2.21-4.81,4.84-4.81h7.69c2.16,0,3.89-1.77,3.89-3.92v-7.35c0-2.09-1.78-3.67-3.89-4.01
			C34.09,15.82,32.7,15.72,31.37,15.72z M27.34,18.15c0.8,0,1.45,0.66,1.45,1.48c0,0.81-0.65,1.47-1.45,1.47
			c-0.8,0-1.45-0.66-1.45-1.47C25.89,18.81,26.54,18.15,27.34,18.15z"/>
		<path id="path1950_1_" class="st1" d="M40.47,24.13v3.46c0,2.66-2.25,4.9-4.82,4.9h-7.99c-2.13,0-3.89,1.81-3.89,3.92v7.35
			c0,2.09,1.83,3.32,3.89,3.92c2.46,0.72,4.83,0.85,7.77,0c1.96-0.56,3.89-1.7,3.89-3.92v-2.93h-7.78v-1.15h7.94h3.97
			c2.31,0,3.17-1.55,3.97-3.88c0.83-2.4,0.79-4.71,0-7.79c-0.57-2.22-1.66-3.88-3.97-3.88H40.47z M36.03,42.66
			c0.8,0,1.45,0.66,1.45,1.47c0,0.81-0.65,1.48-1.45,1.48c-0.8,0-1.45-0.66-1.45-1.48C34.58,43.32,35.23,42.66,36.03,42.66z"/>
	</g>
</g>
<g id="Guides" class="st11">
	<g class="st12">
		<g>
			<rect x="-35.93" y="15" class="st1" width="395.58" height="1"/>
		</g>
		<g>
			<rect x="-34.93" y="48" class="st1" width="395.58" height="1"/>
		</g>
	</g>
</g>
<g id="Swift">
</g>
<g id="Go">
</g>
<g id="Node">
</g>
<g id="Java">
</g>
<g id="Kotlin">
</g>
</svg>
