<?xml version="1.0" encoding="utf-8"?>
<!-- Generator: Adobe Illustrator 25.3.1, SVG Export Plug-In . SVG Version: 6.00 Build 0)  -->
<svg version="1.1" xmlns="http://www.w3.org/2000/svg" xmlns:xlink="http://www.w3.org/1999/xlink" x="0px" y="0px"
	 viewBox="0 0 64 64" style="enable-background:new 0 0 64 64;" xml:space="preserve">
<style type="text/css">
	.st0{fill:#6F41E8;}
	.st1{fill:#C9B5FD;}
	.st2{fill-rule:evenodd;clip-rule:evenodd;fill:#6F41E8;}
	.st3{fill-rule:evenodd;clip-rule:evenodd;fill:#C9B5FD;}
	.st4{fill:#5728D1;}
	.st5{clip-path:url(#SVGID_2_);}
	.st6{clip-path:url(#SVGID_4_);}
	.st7{clip-path:url(#SVGID_6_);}
	.st8{clip-path:url(#SVGID_8_);}
	.st9{fill:#6ACAF7;}
	.st10{clip-path:url(#SVGID_10_);fill:#6ACAF7;}
	.st11{clip-path:url(#SVGID_12_);fill:url(#SVGID_13_);}
	.st12{clip-path:url(#SVGID_15_);}
	.st13{fill:#56B5F6;}
	.st14{display:none;}
	.st15{display:inline;}
</style>
<g id="Layer_1">
</g>
<g id="Guides" class="st14">
	<g class="st15">
		<g>
			<rect x="-119.93" y="15" class="st1" width="395.58" height="1"/>
		</g>
		<g>
			<rect x="-118.93" y="48" class="st1" width="395.58" height="1"/>
		</g>
	</g>
</g>
<g id="Swift">
</g>
<g id="Go">
</g>
<g id="Node">
</g>
<g id="Java">
</g>
<g id="Kotlin">
	<g>
		<path class="st0" d="M50.46,32c0-2.45-3.06-4.76-7.76-6.2c1.08-4.79,0.6-8.6-1.52-9.82c-0.49-0.29-1.06-0.42-1.69-0.42v1.68
			c0.35,0,0.62,0.07,0.86,0.2c1.02,0.59,1.47,2.82,1.12,5.7c-0.08,0.71-0.22,1.45-0.38,2.21c-1.48-0.36-3.09-0.64-4.78-0.82
			c-1.02-1.39-2.07-2.66-3.13-3.76c2.45-2.28,4.76-3.53,6.32-3.53v-1.68l0,0c-2.07,0-4.78,1.48-7.52,4.03c-2.74-2.54-5.45-4-7.52-4
			v1.68c1.56,0,3.87,1.24,6.32,3.51c-1.05,1.11-2.11,2.36-3.11,3.76c-1.7,0.18-3.31,0.46-4.79,0.83c-0.17-0.75-0.3-1.48-0.39-2.18
			c-0.35-2.88,0.08-5.11,1.1-5.71c0.23-0.14,0.52-0.2,0.87-0.2v-1.68l0,0c-0.63,0-1.2,0.14-1.7,0.42c-2.12,1.22-2.59,5.02-1.5,9.79
			c-4.68,1.45-7.73,3.76-7.73,6.19c0,2.45,3.06,4.76,7.76,6.2c-1.08,4.79-0.6,8.6,1.52,9.82c0.49,0.29,1.06,0.42,1.69,0.42
			c2.07,0,4.78-1.48,7.52-4.03c2.74,2.54,5.45,4,7.52,4c0.63,0,1.2-0.14,1.7-0.42c2.12-1.22,2.59-5.02,1.5-9.79
			C47.42,36.76,50.46,34.44,50.46,32z M40.66,26.98c-0.28,0.97-0.62,1.97-1.02,2.97c-0.31-0.6-0.63-1.2-0.99-1.81
			c-0.35-0.6-0.72-1.19-1.08-1.76C38.65,26.55,39.68,26.74,40.66,26.98z M37.22,35c-0.59,1.02-1.19,1.98-1.81,2.88
			c-1.12,0.1-2.26,0.15-3.4,0.15c-1.14,0-2.27-0.05-3.39-0.14c-0.62-0.9-1.23-1.85-1.82-2.86c-0.57-0.99-1.09-1.99-1.57-3
			c0.47-1.01,0.99-2.02,1.56-3c0.59-1.02,1.19-1.98,1.81-2.88C29.72,26.05,30.86,26,32,26c1.14,0,2.27,0.05,3.39,0.14
			c0.62,0.9,1.23,1.85,1.82,2.86c0.57,0.99,1.09,1.99,1.57,3C38.3,33,37.78,34.01,37.22,35z M39.65,34.02
			c0.41,1.01,0.75,2.02,1.04,3c-0.99,0.24-2.02,0.44-3.1,0.6c0.37-0.58,0.74-1.17,1.08-1.78C39.02,35.23,39.34,34.62,39.65,34.02z
			 M32.02,42.05c-0.7-0.72-1.4-1.53-2.09-2.41c0.68,0.03,1.37,0.05,2.07,0.05c0.71,0,1.41-0.02,2.09-0.05
			C33.41,40.52,32.71,41.33,32.02,42.05z M26.41,37.62c-1.07-0.16-2.1-0.35-3.09-0.59c0.28-0.97,0.62-1.97,1.02-2.97
			c0.31,0.6,0.63,1.2,0.99,1.81S26.05,37.05,26.41,37.62z M31.98,21.96c0.7,0.72,1.4,1.53,2.09,2.41c-0.68-0.03-1.37-0.05-2.07-0.05
			c-0.71,0-1.41,0.02-2.09,0.05C30.58,23.48,31.28,22.68,31.98,21.96z M26.41,26.39c-0.37,0.58-0.74,1.17-1.08,1.78
			c-0.35,0.6-0.67,1.2-0.98,1.81c-0.41-1.01-0.75-2.02-1.04-3C24.29,26.75,25.33,26.55,26.41,26.39z M19.6,35.81
			c-2.66-1.14-4.39-2.63-4.39-3.81c0-1.18,1.72-2.68,4.39-3.81c0.65-0.28,1.35-0.53,2.09-0.76c0.43,1.48,0.99,3.01,1.69,4.58
			c-0.69,1.57-1.25,3.09-1.67,4.56C20.96,36.35,20.25,36.09,19.6,35.81z M23.64,46.57c-1.02-0.59-1.47-2.82-1.12-5.7
			c0.08-0.71,0.22-1.45,0.38-2.21c1.48,0.36,3.09,0.64,4.78,0.82c1.02,1.39,2.07,2.66,3.13,3.76c-2.45,2.28-4.76,3.53-6.32,3.53
			C24.16,46.76,23.87,46.7,23.64,46.57z M41.5,40.83c0.35,2.88-0.08,5.11-1.1,5.71c-0.23,0.14-0.52,0.2-0.87,0.2
			c-1.56,0-3.87-1.24-6.32-3.51c1.05-1.11,2.11-2.36,3.11-3.76c1.7-0.18,3.31-0.46,4.79-0.83C41.28,39.4,41.42,40.13,41.5,40.83z
			 M44.4,35.81c-0.65,0.28-1.35,0.53-2.09,0.76c-0.43-1.48-0.99-3.01-1.69-4.58c0.69-1.57,1.25-3.09,1.67-4.56
			c0.75,0.23,1.45,0.49,2.12,0.77c2.66,1.14,4.39,2.63,4.39,3.81C48.79,33.19,47.06,34.68,44.4,35.81z"/>
		<circle class="st1" cx="31.99" cy="32" r="3.44"/>
	</g>
</g>
</svg>
