<?xml version="1.0" encoding="utf-8"?>
<!-- Generator: Adobe Illustrator 25.3.1, SVG Export Plug-In . SVG Version: 6.00 Build 0)  -->
<svg version="1.1" xmlns="http://www.w3.org/2000/svg" xmlns:xlink="http://www.w3.org/1999/xlink" x="0px" y="0px"
	 viewBox="0 0 64 64" style="enable-background:new 0 0 64 64;" xml:space="preserve">
<style type="text/css">
	.st0{fill:#6F41E8;}
	.st1{fill:#C9B5FD;}
	.st2{fill-rule:evenodd;clip-rule:evenodd;fill:#6F41E8;}
	.st3{fill-rule:evenodd;clip-rule:evenodd;fill:#C9B5FD;}
	.st4{clip-path:url(#SVGID_2_);}
	.st5{fill:#5728D1;}
	.st6{clip-path:url(#SVGID_4_);}
	.st7{clip-path:url(#SVGID_6_);}
	.st8{clip-path:url(#SVGID_8_);}
	.st9{clip-path:url(#SVGID_10_);}
	.st10{clip-path:url(#SVGID_12_);}
	.st11{display:none;}
	.st12{display:inline;}
</style>
<g id="Layer_1">
	<g>
		<path class="st0" d="M49.96,23.97c0-0.71-0.08-1.42-0.23-2.11c-0.28-1.43-1.03-2.73-2.14-3.74c-0.57-0.53-1.22-0.95-1.94-1.26
			c-0.7-0.33-1.45-0.56-2.22-0.68c-0.76-0.14-1.6-0.14-2.36-0.21H22.26c-0.59,0.01-1.17,0.06-1.75,0.14
			c-0.58,0.06-1.14,0.2-1.69,0.41l-0.53,0.21c-0.51,0.25-1,0.55-1.45,0.89c-0.15,0.14-0.31,0.21-0.46,0.34
			c-0.56,0.48-1.04,1.05-1.39,1.7c-0.37,0.64-0.63,1.33-0.75,2.05c-0.11,0.7-0.19,1.4-0.23,2.1v16.27c0,0.71,0.08,1.42,0.23,2.11
			c0.28,1.43,1.03,2.73,2.14,3.74c0.56,0.51,1.21,0.92,1.91,1.22c0.7,0.33,1.45,0.56,2.22,0.68c0.76,0.14,1.6,0.14,2.36,0.21h18.26
			c0.79,0,1.58-0.07,2.36-0.21c0.76-0.12,1.49-0.35,2.18-0.67c0.71-0.32,1.38-0.73,1.98-1.22c0.56-0.48,1.02-1.06,1.38-1.7
			c0.38-0.64,0.63-1.33,0.76-2.04c0.11-0.7,0.19-1.4,0.23-2.11v-16.1L49.96,23.97z"/>
		<path class="st1" d="M38.04,40.85c-3.21,1.66-7.61,1.83-12.03,0.13c-3.45-1.32-6.4-3.59-8.48-6.53c0.97,0.69,2.02,1.26,3.14,1.69
			c4.57,1.88,9.15,1.8,12.37,0c-4.24-3.07-8.07-6.64-11.38-10.61c-0.57-0.57-1.08-1.2-1.52-1.88c3.48,2.78,7.17,5.29,11.06,7.53
			c-2.83-2.73-5.43-5.66-7.78-8.78c3.92,3.58,8.23,6.75,12.86,9.46l0.49,0.26c0.13-0.31,0.25-0.62,0.35-0.94
			c1.07-3.5-0.15-7.48-2.82-10.77c6.18,3.36,9.84,9.67,8.32,14.96c0,0.14-0.08,0.28-0.13,0.42l0.05,0.06
			c3.06,3.43,2.22,7.06,1.83,6.38C42.69,39.36,39.59,40.24,38.04,40.85L38.04,40.85z"/>
	</g>
</g>
<g id="Guides" class="st11">
	<g class="st12">
		<g>
			<rect x="-287.93" y="15" class="st1" width="395.58" height="1"/>
		</g>
		<g>
			<rect x="-286.93" y="48" class="st1" width="395.58" height="1"/>
		</g>
	</g>
</g>
<g id="Swift">
</g>
<g id="Go">
</g>
<g id="Node">
</g>
<g id="Java">
</g>
<g id="Kotlin">
</g>
</svg>
