<?xml version="1.0" encoding="utf-8"?>
<!-- Generator: Adobe Illustrator 25.3.1, SVG Export Plug-In . SVG Version: 6.00 Build 0)  -->
<svg version="1.1" xmlns="http://www.w3.org/2000/svg" xmlns:xlink="http://www.w3.org/1999/xlink" x="0px" y="0px"
	 viewBox="0 0 64 64" style="enable-background:new 0 0 64 64;" xml:space="preserve">
<style type="text/css">
	.st0{fill:#6F41E8;}
	.st1{fill:#C9B5FD;}
	.st2{fill-rule:evenodd;clip-rule:evenodd;fill:#6F41E8;}
	.st3{fill-rule:evenodd;clip-rule:evenodd;fill:#C9B5FD;}
	.st4{fill:#5728D1;}
	.st5{clip-path:url(#SVGID_2_);}
	.st6{clip-path:url(#SVGID_4_);}
	.st7{clip-path:url(#SVGID_6_);}
	.st8{display:none;}
	.st9{display:inline;}
</style>
<g id="Layer_1">
	<g>
		<path class="st0" d="M34.82,32l5.68-9.81L43.25,32l-2.75,9.81L34.82,32L34.82,32z M32.05,33.59l5.68,9.81l-9.9-2.54l-7.15-7.28
			H32.05L32.05,33.59z M37.73,20.59l-5.68,9.81H20.68l7.15-7.28L37.73,20.59L37.73,20.59z M45.84,28.66l-3.47-12.9l-12.94,3.46
			l-1.92,3.37l-3.89-0.03L14.16,32l9.47,9.44h0l3.89-0.03l1.92,3.37l12.94,3.46l3.47-12.9L43.87,32L45.84,28.66L45.84,28.66z"/>
	</g>
</g>
<g id="Guides" class="st8">
	<g class="st9">
		<g>
			<rect x="-203.93" y="15" class="st1" width="395.58" height="1"/>
		</g>
		<g>
			<rect x="-202.93" y="48" class="st1" width="395.58" height="1"/>
		</g>
	</g>
</g>
<g id="Swift">
</g>
<g id="Go">
</g>
<g id="Node">
</g>
<g id="Java">
</g>
<g id="Kotlin">
</g>
</svg>
