<?xml version="1.0" encoding="utf-8"?>
<!-- Generator: Adobe Illustrator 25.3.1, SVG Export Plug-In . SVG Version: 6.00 Build 0)  -->
<svg version="1.1" id="Layer_1" xmlns="http://www.w3.org/2000/svg" xmlns:xlink="http://www.w3.org/1999/xlink" x="0px" y="0px"
	 viewBox="0 0 700 700" style="enable-background:new 0 0 700 700;" xml:space="preserve">
<style type="text/css">
	.st0{fill:none;}
	.st1{fill-rule:evenodd;clip-rule:evenodd;fill:#6F41E8;}
</style>
<desc>Created with Sketch.</desc>
<g id="kin_logo_32_32_Purple">
	<path id="Combined-Shape" class="st0" d="M77.5,68.7"/>
	<path id="Fill-1" class="st1" d="M446.8,348.3v3.5c0,49.6,40.3,90.2,89.6,90.2h49.2c20.4,0,36.9,16.6,36.9,37.1v152.2H468.8
		c-20.4,0-36.9-16.6-36.9-37.2v-62.5c0-49.6-40.3-90.2-89.6-90.2h-3.4c-49.3,0-89.6,40.6-89.6,90.2v99.7H77.5V68.7h171.8v100.9
		c0,49.6,40.3,90.2,89.6,90.2h3.4c49.3,0,89.6-40.6,89.6-90.2v-63.8c0-20.5,16.5-37.2,36.9-37.2h153.7v152.2
		c0,20.5-16.5,37.2-36.9,37.2h-49.2C487.1,258,446.8,298.6,446.8,348.3"/>
</g>
</svg>
