<svg xmlns="http://www.w3.org/2000/svg" xmlns:xlink="http://www.w3.org/1999/xlink" version="1.1" width="256" height="256" viewBox="0 0 256 256" xml:space="preserve">

<defs>
</defs>
<g style="stroke: none; stroke-width: 0; stroke-dasharray: none; stroke-linecap: butt; stroke-linejoin: miter; stroke-miterlimit: 10; fill: none; fill-rule: nonzero; opacity: 1;" transform="translate(1.4065934065934016 1.4065934065934016) scale(2.81 2.81)" >
	<path d="M 78.74 40.14 c -0.553 0 -1 -0.448 -1 -1 v -5.68 c 0 -1.655 -1.347 -3.001 -3.002 -3.001 H 49.895 c -0.553 0 -1 -0.448 -1 -1 s 0.447 -1 1 -1 h 24.844 c 2.758 0 5.002 2.244 5.002 5.001 v 5.68 C 79.74 39.692 79.293 40.14 78.74 40.14 z" style="stroke: none; stroke-width: 1; stroke-dasharray: none; stroke-linecap: butt; stroke-linejoin: miter; stroke-miterlimit: 10; fill: rgb(0,0,0); fill-rule: nonzero; opacity: 1;" transform=" matrix(1 0 0 1 0 0) " stroke-linecap="round" />
	<path d="M 74.738 61.542 H 50.689 c -0.553 0 -1 -0.447 -1 -1 s 0.447 -1 1 -1 h 24.049 c 1.655 0 3.002 -1.347 3.002 -3.002 v -5.68 c 0 -0.553 0.447 -1 1 -1 s 1 0.447 1 1 v 5.68 C 79.74 59.298 77.496 61.542 74.738 61.542 z" style="stroke: none; stroke-width: 1; stroke-dasharray: none; stroke-linecap: butt; stroke-linejoin: miter; stroke-miterlimit: 10; fill: rgb(0,0,0); fill-rule: nonzero; opacity: 1;" transform=" matrix(1 0 0 1 0 0) " stroke-linecap="round" />
	<path d="M 79.097 51.86 h -8.484 c -3.783 0 -6.86 -3.077 -6.86 -6.86 c 0 -3.783 3.077 -6.86 6.86 -6.86 h 8.484 c 1.479 0 2.682 1.204 2.682 2.683 v 8.355 C 81.778 50.657 80.575 51.86 79.097 51.86 z M 70.612 40.14 c -2.68 0 -4.86 2.18 -4.86 4.86 s 2.181 4.86 4.86 4.86 h 8.484 c 0.376 0 0.682 -0.307 0.682 -0.683 v -8.355 c 0 -0.376 -0.306 -0.683 -0.682 -0.683 H 70.612 z" style="stroke: none; stroke-width: 1; stroke-dasharray: none; stroke-linecap: butt; stroke-linejoin: miter; stroke-miterlimit: 10; fill: rgb(0,0,0); fill-rule: nonzero; opacity: 1;" transform=" matrix(1 0 0 1 0 0) " stroke-linecap="round" />
	<path d="M 34.363 69.563 c -1.226 0 -2.452 -0.315 -3.545 -0.946 l -15.136 -8.738 c -2.187 -1.263 -3.544 -3.615 -3.544 -6.141 V 36.261 c 0 -2.524 1.358 -4.877 3.544 -6.14 l 15.136 -8.739 c 2.187 -1.262 4.903 -1.262 7.089 0 l 15.136 8.739 c 2.186 1.263 3.544 3.615 3.544 6.14 v 17.477 c 0 2.525 -1.358 4.878 -3.544 6.141 l -15.136 8.738 C 36.814 69.248 35.589 69.563 34.363 69.563 z M 34.363 22.436 c -0.88 0 -1.76 0.227 -2.545 0.68 l -15.136 8.739 c -1.569 0.906 -2.544 2.595 -2.544 4.407 v 17.477 c 0 1.813 0.975 3.502 2.544 4.408 l 15.136 8.738 c 1.569 0.906 3.52 0.906 5.089 0 l 15.136 -8.738 c 1.569 -0.906 2.544 -2.595 2.544 -4.408 V 36.261 c 0 -1.813 -0.975 -3.501 -2.544 -4.407 l -15.136 -8.739 C 36.123 22.662 35.243 22.436 34.363 22.436 z" style="stroke: none; stroke-width: 1; stroke-dasharray: none; stroke-linecap: butt; stroke-linejoin: miter; stroke-miterlimit: 10; fill: rgb(0,0,0); fill-rule: nonzero; opacity: 1;" transform=" matrix(1 0 0 1 0 0) " stroke-linecap="round" />
	<path d="M 27.055 52.733 c -0.339 0 -0.664 -0.174 -0.85 -0.473 l -6.509 -10.487 v 9.959 c 0 0.553 -0.448 1 -1 1 s -1 -0.447 -1 -1 V 38.267 c 0 -0.447 0.296 -0.839 0.726 -0.962 c 0.43 -0.124 0.889 0.055 1.124 0.435 l 6.509 10.487 v -9.96 c 0 -0.552 0.448 -1 1 -1 s 1 0.448 1 1 v 13.467 c 0 0.446 -0.296 0.839 -0.726 0.962 C 27.238 52.721 27.146 52.733 27.055 52.733 z" style="stroke: none; stroke-width: 1; stroke-dasharray: none; stroke-linecap: butt; stroke-linejoin: miter; stroke-miterlimit: 10; fill: rgb(0,0,0); fill-rule: nonzero; opacity: 1;" transform=" matrix(1 0 0 1 0 0) " stroke-linecap="round" />
	<path d="M 32.277 52.733 c -0.552 0 -1 -0.447 -1 -1 V 38.267 c 0 -0.552 0.448 -1 1 -1 h 5.97 c 0.552 0 1 0.448 1 1 s -0.448 1 -1 1 h -4.97 v 12.467 C 33.277 52.286 32.829 52.733 32.277 52.733 z" style="stroke: none; stroke-width: 1; stroke-dasharray: none; stroke-linecap: butt; stroke-linejoin: miter; stroke-miterlimit: 10; fill: rgb(0,0,0); fill-rule: nonzero; opacity: 1;" transform=" matrix(1 0 0 1 0 0) " stroke-linecap="round" />
	<path d="M 37.023 46 h -4.747 c -0.552 0 -1 -0.448 -1 -1 s 0.448 -1 1 -1 h 4.747 c 0.552 0 1 0.448 1 1 S 37.576 46 37.023 46 z" style="stroke: none; stroke-width: 1; stroke-dasharray: none; stroke-linecap: butt; stroke-linejoin: miter; stroke-miterlimit: 10; fill: rgb(0,0,0); fill-rule: nonzero; opacity: 1;" transform=" matrix(1 0 0 1 0 0) " stroke-linecap="round" />
	<path d="M 50.03 39.267 h -7.653 c -0.552 0 -1 -0.448 -1 -1 s 0.448 -1 1 -1 h 7.653 c 0.553 0 1 0.448 1 1 S 50.583 39.267 50.03 39.267 z" style="stroke: none; stroke-width: 1; stroke-dasharray: none; stroke-linecap: butt; stroke-linejoin: miter; stroke-miterlimit: 10; fill: rgb(0,0,0); fill-rule: nonzero; opacity: 1;" transform=" matrix(1 0 0 1 0 0) " stroke-linecap="round" />
	<path d="M 46.203 52.733 c -0.552 0 -1 -0.447 -1 -1 V 38.267 c 0 -0.552 0.448 -1 1 -1 c 0.553 0 1 0.448 1 1 v 13.467 C 47.203 52.286 46.756 52.733 46.203 52.733 z" style="stroke: none; stroke-width: 1; stroke-dasharray: none; stroke-linecap: butt; stroke-linejoin: miter; stroke-miterlimit: 10; fill: rgb(0,0,0); fill-rule: nonzero; opacity: 1;" transform=" matrix(1 0 0 1 0 0) " stroke-linecap="round" />
	<path d="M 34.363 10.816 c -2.982 0 -5.408 -2.426 -5.408 -5.408 S 31.381 0 34.363 0 s 5.408 2.426 5.408 5.408 S 37.345 10.816 34.363 10.816 z M 34.363 2 c -1.879 0 -3.408 1.529 -3.408 3.408 c 0 1.879 1.529 3.408 3.408 3.408 c 1.879 0 3.408 -1.529 3.408 -3.408 C 37.771 3.529 36.242 2 34.363 2 z" style="stroke: none; stroke-width: 1; stroke-dasharray: none; stroke-linecap: butt; stroke-linejoin: miter; stroke-miterlimit: 10; fill: rgb(0,0,0); fill-rule: nonzero; opacity: 1;" transform=" matrix(1 0 0 1 0 0) " stroke-linecap="round" />
	<path d="M 34.363 90 c -2.982 0 -5.408 -2.426 -5.408 -5.408 s 2.426 -5.408 5.408 -5.408 s 5.408 2.426 5.408 5.408 S 37.345 90 34.363 90 z M 34.363 81.184 c -1.879 0 -3.408 1.529 -3.408 3.408 S 32.484 88 34.363 88 c 1.879 0 3.408 -1.529 3.408 -3.408 S 36.242 81.184 34.363 81.184 z" style="stroke: none; stroke-width: 1; stroke-dasharray: none; stroke-linecap: butt; stroke-linejoin: miter; stroke-miterlimit: 10; fill: rgb(0,0,0); fill-rule: nonzero; opacity: 1;" transform=" matrix(1 0 0 1 0 0) " stroke-linecap="round" />
	<rect x="33.36" y="9.82" rx="0" ry="0" width="2" height="11.62" style="stroke: none; stroke-width: 1; stroke-dasharray: none; stroke-linecap: butt; stroke-linejoin: miter; stroke-miterlimit: 10; fill: rgb(0,0,0); fill-rule: nonzero; opacity: 1;" transform=" matrix(1 0 0 1 0 0) "/>
	<rect x="33.36" y="68.57" rx="0" ry="0" width="2" height="11.62" style="stroke: none; stroke-width: 1; stroke-dasharray: none; stroke-linecap: butt; stroke-linejoin: miter; stroke-miterlimit: 10; fill: rgb(0,0,0); fill-rule: nonzero; opacity: 1;" transform=" matrix(1 0 0 1 0 0) "/>
	<path d="M 13.629 18.419 c -2.982 0 -5.408 -2.426 -5.408 -5.408 s 2.426 -5.408 5.408 -5.408 s 5.408 2.426 5.408 5.408 S 16.611 18.419 13.629 18.419 z M 13.629 9.604 c -1.879 0 -3.408 1.529 -3.408 3.408 c 0 1.879 1.529 3.408 3.408 3.408 c 1.879 0 3.408 -1.529 3.408 -3.408 C 17.037 11.132 15.508 9.604 13.629 9.604 z" style="stroke: none; stroke-width: 1; stroke-dasharray: none; stroke-linecap: butt; stroke-linejoin: miter; stroke-miterlimit: 10; fill: rgb(0,0,0); fill-rule: nonzero; opacity: 1;" transform=" matrix(1 0 0 1 0 0) " stroke-linecap="round" />
	<path d="M 13.629 82.396 c -2.982 0 -5.408 -2.426 -5.408 -5.408 s 2.426 -5.408 5.408 -5.408 s 5.408 2.426 5.408 5.408 S 16.611 82.396 13.629 82.396 z M 13.629 73.58 c -1.879 0 -3.408 1.529 -3.408 3.408 s 1.529 3.408 3.408 3.408 c 1.879 0 3.408 -1.529 3.408 -3.408 S 15.508 73.58 13.629 73.58 z" style="stroke: none; stroke-width: 1; stroke-dasharray: none; stroke-linecap: butt; stroke-linejoin: miter; stroke-miterlimit: 10; fill: rgb(0,0,0); fill-rule: nonzero; opacity: 1;" transform=" matrix(1 0 0 1 0 0) " stroke-linecap="round" />
	<path d="M 23.684 27.657 c -0.552 0 -1 -0.448 -1 -1 V 20.16 l -5.968 -3.796 c -0.466 -0.296 -0.604 -0.915 -0.307 -1.38 c 0.296 -0.467 0.914 -0.604 1.38 -0.307 l 6.432 4.091 c 0.289 0.184 0.463 0.502 0.463 0.844 v 7.047 C 24.684 27.209 24.236 27.657 23.684 27.657 z" style="stroke: none; stroke-width: 1; stroke-dasharray: none; stroke-linecap: butt; stroke-linejoin: miter; stroke-miterlimit: 10; fill: rgb(0,0,0); fill-rule: nonzero; opacity: 1;" transform=" matrix(1 0 0 1 0 0) " stroke-linecap="round" />
	<path d="M 17.253 75.48 c -0.331 0 -0.654 -0.164 -0.845 -0.463 c -0.296 -0.467 -0.159 -1.085 0.307 -1.381 l 5.968 -3.796 v -6.498 c 0 -0.553 0.448 -1 1 -1 s 1 0.447 1 1 v 7.047 c 0 0.342 -0.175 0.66 -0.463 0.844 l -6.432 4.091 C 17.622 75.43 17.437 75.48 17.253 75.48 z" style="stroke: none; stroke-width: 1; stroke-dasharray: none; stroke-linecap: butt; stroke-linejoin: miter; stroke-miterlimit: 10; fill: rgb(0,0,0); fill-rule: nonzero; opacity: 1;" transform=" matrix(1 0 0 1 0 0) " stroke-linecap="round" />
	<path d="M 55.097 18.419 c -2.981 0 -5.407 -2.426 -5.407 -5.408 s 2.426 -5.408 5.407 -5.408 c 2.982 0 5.408 2.426 5.408 5.408 S 58.079 18.419 55.097 18.419 z M 55.097 9.604 c -1.879 0 -3.407 1.529 -3.407 3.408 c 0 1.879 1.528 3.408 3.407 3.408 s 3.408 -1.529 3.408 -3.408 C 58.505 11.132 56.976 9.604 55.097 9.604 z" style="stroke: none; stroke-width: 1; stroke-dasharray: none; stroke-linecap: butt; stroke-linejoin: miter; stroke-miterlimit: 10; fill: rgb(0,0,0); fill-rule: nonzero; opacity: 1;" transform=" matrix(1 0 0 1 0 0) " stroke-linecap="round" />
	<path d="M 55.097 82.396 c -2.981 0 -5.407 -2.426 -5.407 -5.408 s 2.426 -5.408 5.407 -5.408 c 2.982 0 5.408 2.426 5.408 5.408 S 58.079 82.396 55.097 82.396 z M 55.097 73.58 c -1.879 0 -3.407 1.529 -3.407 3.408 s 1.528 3.408 3.407 3.408 s 3.408 -1.529 3.408 -3.408 S 56.976 73.58 55.097 73.58 z" style="stroke: none; stroke-width: 1; stroke-dasharray: none; stroke-linecap: butt; stroke-linejoin: miter; stroke-miterlimit: 10; fill: rgb(0,0,0); fill-rule: nonzero; opacity: 1;" transform=" matrix(1 0 0 1 0 0) " stroke-linecap="round" />
	<path d="M 45.042 27.657 c -0.552 0 -1 -0.448 -1 -1 V 19.61 c 0 -0.342 0.175 -0.66 0.463 -0.844 l 6.432 -4.091 c 0.468 -0.296 1.085 -0.159 1.381 0.307 c 0.297 0.466 0.159 1.084 -0.307 1.38 l -5.97 3.796 v 6.498 C 46.042 27.209 45.595 27.657 45.042 27.657 z" style="stroke: none; stroke-width: 1; stroke-dasharray: none; stroke-linecap: butt; stroke-linejoin: miter; stroke-miterlimit: 10; fill: rgb(0,0,0); fill-rule: nonzero; opacity: 1;" transform=" matrix(1 0 0 1 0 0) " stroke-linecap="round" />
	<path d="M 51.474 75.48 c -0.184 0 -0.369 -0.051 -0.536 -0.156 l -6.432 -4.091 c -0.289 -0.184 -0.463 -0.502 -0.463 -0.844 v -7.047 c 0 -0.553 0.448 -1 1 -1 s 1 0.447 1 1 v 6.498 l 5.97 3.796 c 0.466 0.296 0.604 0.914 0.307 1.381 C 52.128 75.316 51.805 75.48 51.474 75.48 z" style="stroke: none; stroke-width: 1; stroke-dasharray: none; stroke-linecap: butt; stroke-linejoin: miter; stroke-miterlimit: 10; fill: rgb(0,0,0); fill-rule: nonzero; opacity: 1;" transform=" matrix(1 0 0 1 0 0) " stroke-linecap="round" />
	<path d="M 69.439 46 c -0.26 0 -0.52 -0.11 -0.71 -0.29 c -0.09 -0.1 -0.16 -0.21 -0.21 -0.33 s -0.08 -0.25 -0.08 -0.38 c 0 -0.26 0.11 -0.52 0.29 -0.71 c 0.24 -0.23 0.58 -0.33 0.91 -0.27 c 0.061 0.01 0.12 0.03 0.18 0.06 c 0.061 0.02 0.12 0.05 0.181 0.09 c 0.05 0.04 0.1 0.08 0.149 0.12 c 0.181 0.19 0.29 0.44 0.29 0.71 c 0 0.13 -0.029 0.26 -0.08 0.38 c -0.05 0.13 -0.119 0.23 -0.21 0.33 c -0.05 0.04 -0.1 0.09 -0.149 0.12 c -0.061 0.04 -0.12 0.07 -0.181 0.09 c -0.06 0.03 -0.119 0.05 -0.18 0.06 C 69.569 45.99 69.51 46 69.439 46 z" style="stroke: none; stroke-width: 1; stroke-dasharray: none; stroke-linecap: butt; stroke-linejoin: miter; stroke-miterlimit: 10; fill: rgb(0,0,0); fill-rule: nonzero; opacity: 1;" transform=" matrix(1 0 0 1 0 0) " stroke-linecap="round" />
</g>
</svg>