<?xml version="1.0" encoding="UTF-8"?><svg id="a" xmlns="http://www.w3.org/2000/svg" viewBox="0 0 1348.96 2083.92"><defs><style>.b{fill:#fff;}.c{fill:#c0aff0;}</style></defs><g><path class="b" d="M258.13,1270.13l102.81-28.96v353.64l1.35,.68,116.34-141.37h117.03l-127.17,148.81,136.64,183.99h-121.75l-121.09-169.79-1.35,.68v169.11h-102.81v-516.79Z"/><path class="b" d="M678.36,1289.74c32.47,0,59.52,26.38,59.52,58.85s-27.05,58.85-59.52,58.85-59.53-26.37-59.53-58.85,27.06-58.85,59.53-58.85Zm-51.41,164.38h102.81v332.8h-102.81v-332.8Z"/><path class="b" d="M768.03,1454.12h101.47v30.44l1.35,.68c25.71-20.97,60.89-38.56,102.82-38.56,35.17,0,66.29,12.18,87.26,33.83,20.29,21.64,29.08,50.73,29.08,98.76v207.66h-102.81v-190.75c0-25.03-3.39-37.2-11.5-46.68-8.8-10.14-20.97-14.2-35.18-14.2-26.38,0-51.4,13.52-69.67,27.73v223.9h-102.81v-332.8Z"/></g><g><polygon class="c" points="676.03 708.99 676.03 1115.95 1030.65 910.39 676.03 708.99"/><polygon class="c" points="676.03 297 676.03 708.99 1030.65 501.74 676.03 297"/><polygon class="b" points="321.42 501.74 321.42 911.22 676.03 1115.95 677.48 1115.12 676.03 708.99 676.03 297 321.42 501.74"/><polygon class="b" points="1030.65 501.74 676.03 708.99 1030.65 910.39 1030.65 501.74"/></g></svg>